<svg version="1.1" id="logo-hellfest" xmlns="http://www.w3.org/2000/svg" xmlns:xlink="http://www.w3.org/1999/xlink" x="0px" y="0px" width="174.3px" height="85.6px" viewBox="-17.2 213.5 174.3 85.6" style="enable-background:new -17.2 213.5 174.3 85.6;" xml:space="preserve">
<defs>
  <!--TODO: check filters for hover-->
  <filter id="logo-filters" x="0" y="0">
    <feTurbulence type="fractalNoise" baseFrequency="0" numOctaves="1" result="warp"></feTurbulence>
    <feDisplacementMap xChannelSelector="R" yChannelSelector="G" scale="30" in="SourceGraphic" in2="warp"></feDisplacementMap>
  </filter>
</defs>
  <g filter="url(#logo-filters)">
    <path id="T" d="M138.1,233.9c-0.3,0.2-0.5,0.5-0.8,0.7c-0.2,0.1-0.5,0.4-0.8,0.1h-0.1c-1.4,0.3-3,0.1-4.2,0.7
	c-0.2,1.2-0.4,2.2-0.6,3.2c0,0.3-0.1,0.7,0.1,0.9c0.3,0.6,0.1,1.1-0.1,1.6c-0.6,1.8-1.1,3.6-1.5,5.4c-0.1,0.4-0.2,0.8-0.4,1.1
	c-0.4,0.6-0.3,1.2-0.2,1.9c0.1,0.5,0.3,1,0.4,1.6c0.2,0.6,0,1.2-0.3,1.6c-0.7,1-0.8,2.2-1.1,3.3c-0.1,0.5-0.2,1.1-0.3,1.6
	s-0.3,1-0.5,1.4c-0.7,1.1-1.5,2.1-2.2,3.2c-0.3,0.5-0.5,1.1-0.7,1.6c-0.1,0.5-0.1,1-0.2,1.5c0,0.6-0.1,1.1-0.3,1.6
	c-0.1,0.2-0.2,0.6-0.1,0.8c0.3,0.5,0.1,0.9-0.1,1.3c-0.4,0.6-0.4,1.2-0.4,1.8c0,0.9-0.1,1.8-0.6,2.6c-0.2,0.4-0.1,1.1,0,1.6
	c0.1,0.8,0.3,1.6-0.3,2.4c-0.4,0.5-0.4,1.2-0.5,1.9c-0.1,0.5-0.2,0.9-0.6,1.3c-0.4,0.4-0.5,0.8-0.7,1.3c-0.2,0.7-0.5,1.4-0.8,2.1
	c-0.3,0.5-0.4,1-0.3,1.6c0.1,0.9,0,1.8-0.8,2.5c-0.1,0.1-0.2,0.3-0.3,0.5c-0.6,1.8-1.5,3.5-2.5,5.4c-0.1-1.1-0.1-1.9,0-2.8
	c0.1-1.4,0.2-2.8,0.2-4.1c0-1.1,0-2.2,0-3.2c0-0.5,0.1-0.9,0.4-1.2c0.3-0.4,0.4-0.8,0.4-1.2c0-1.1-0.1-2.1,0.4-3.1
	c0.1-0.2,0-0.4,0-0.6c-0.1-1.6,0.3-3.1,0.5-4.6c0-0.2,0.1-0.4,0.2-0.7c0.2-0.4,0.3-0.7,0.5-1.1c0.5-1,0.7-2,0.3-3.1
	c-0.2-0.5,0-1.3,0.2-1.8c0.4-1.1,0.5-2.4,0.9-3.5c0.2-0.6,0.5-1.1,0.5-1.8c0-0.6-0.2-1.2,0-1.7c0.2-0.6,0.5-1.1,0.7-1.6
	c0.1-0.2,0-0.5,0-0.7c0-1.2,0-2.5,0-3.7c0-0.7,0.2-1.4,0.2-2.1c0-0.4,0.1-0.9-0.2-1.3c0-0.1,0-0.2,0-0.2c0-0.2-0.1-0.3,0-0.5
	c0.4-0.8,0-1.8,0.4-2.7c0.3-0.6,0.5-1.4,0.5-2c0-0.8-0.1-1.7-0.3-2.5c-0.2-1-0.2-1.9-0.1-2.8c0-0.4,0.3-0.7,0.4-1.1
	c0.3-0.5,0.4-1,0.1-1.6c-0.1-0.1-0.1-0.3-0.1-0.5c-0.1-0.9-0.1-0.9-0.9-0.9c-0.4,0-0.7,0-1-0.2c-0.7-0.5-1.7-0.3-2.5-0.6
	c-0.1,0-0.2,0.1-0.3,0.1c-0.1,0.1-0.3,0.2-0.4,0.2c-1-0.2-2.1-0.4-3.1-0.6c-0.2,0-0.5-0.1-0.7-0.1c-1.2,0-2.4-0.3-3.6-0.4
	c-1-0.1-2.1-0.3-3.1,0.3c-0.4,0.2-0.8,0.1-1.2,0c-0.5-0.2-0.9-0.2-1.4-0.1c-1,0.2-2,0-2.9-0.7c-0.5-0.3-1-0.5-1.5-0.5
	c-0.2,0-0.5,0-0.5-0.3s0.2-0.4,0.4-0.5c0.2-0.1,0.3-0.2,0.5-0.2c0.5-0.2,1-0.3,1.3-0.8c0.3-0.4,0.7-0.4,1.1-0.2
	c0.7,0.3,1.3,0.4,2,0.2c0.3-0.1,0.6,0,1,0c0.6,0,1.1,0.1,1.5-0.6c0.3-0.6,1.2-0.5,1.8-0.3c1,0.2,2.1,0.2,3.1,0.2
	c0.6,0,1.1,0.3,1.7,0.1s1.3-0.1,1.9-0.1s1.2,0,1.8,0c0.6,0,1.3,0,1.9,0s1.2,0,1.8,0c0.5,0,0.9-0.1,1.4-0.2c0.3-0.1,0.7-0.2,1-0.2
	c0.2,0,0.5,0,0.6-0.1c0.6-0.8,1.4-0.5,2-0.3c0.7,0.2,1.3,0.2,2,0c1.4-0.4,2.8-0.4,4.2-0.3c0.6,0,1.2,0.4,1.8,0.5
	c1.2,0.3,2.3,0.2,3.4-0.1c0.6-0.2,1.2-0.2,1.8,0c0.2,0.1,0.5,0.1,0.7,0.1c1.2-0.2,2.5-0.4,3.7-0.7c0.5-0.1,1.1-0.3,1.6-0.4
	c0.5-0.1,0.9-0.2,1.3,0.2c0.3,0.3,0.4,0.5,0.3,0.8c-0.2,0.7-0.4,1.4-1.1,1.7c-0.5,0.2-0.6,0.7-0.8,1.1c-0.1,0.2,0,0.4-0.1,0.6
	c-0.6,1.2-1.1,1.5-2.4,1c-0.6-0.2-1.1-0.2-1.6,0.2c-0.1,0.1-0.1,0.1-0.2,0.2C139.2,234.7,139.2,234.7,138.1,233.9z"></path>
    <path id="S" d="M109.6,249.2c1-0.1,1.7,0,2,0.9c0,0.1,0.2,0.2,0.3,0.2c0.9,0.4,1.2,1.2,1.8,1.9c0.2,0.2,0.3,0.5,0.6,0.7
	c0.7,0.6,1.4,1.1,2.1,1.8c0.5,0.5,0.9,1.1,1.2,1.7c0.5,1,1,2.1,1.4,3.2c0.2,0.5,0,1.2,0.2,1.8c0.1,0.5-0.1,1.1-0.2,1.6
	c-0.2,0.8-0.5,1.6-0.4,2.5c0,0.1,0,0.3-0.1,0.4c-0.6,0.7-0.8,1.6-1.2,2.4c-0.1,0.2-0.3,0.4-0.4,0.5c-0.7,0.7-1.5,1.3-2,2.1
	c-0.5,0.7-1.2,1.3-1.9,1.9c-0.1,0.1-0.2,0.2-0.3,0.2c-1.6,0.5-3.2,1.2-4.8,1.4c-0.6,0.1-1.2,0-1.7-0.2c-0.9-0.3-1.9-0.2-2.8-0.4
	c-0.2,0-0.4,0-0.6-0.1c-0.6-0.6-1.3-0.5-2-0.6c-1.5-0.2-2.8-0.8-3.6-2.2c-0.5-0.9-1.3-1.6-1.7-2.6c0-0.1-0.2-0.2-0.3-0.2
	c-0.7,0-1.2-0.4-1.5-1c-0.2-0.3-0.5-0.4-0.7-0.7c-0.5-0.8-0.6-1.7-0.8-2.5c0-0.3-0.1-0.5-0.1-0.8c0-0.2-0.1-0.5,0-0.7
	c0.1-0.2,0.8-0.1,1.1,0.1c0.2,0.2,0.5,0.6,0.8,0.6c0.8,0.2,1.2,0.7,1.7,1.4c0.9,1.3,2.1,2.2,3.7,2.6c0.2,0,0.4,0.1,0.5,0.2
	c0.3,0.2,0.6,0.3,0.9,0.5c1.3,0.8,2.8,0.8,4.2,0.9c0.6,0.1,1.2,0.2,1.9,0.2c0.6,0.1,1.1-0.2,1.6-0.6c0.7-0.7,1.4-1.4,2.2-2
	c0.3-0.3,0.5-0.5,0.4-0.9c-0.1-1,0.4-1.8,1-2.6c0.2-0.2,0.3-0.4,0.1-0.7c-0.3-0.7-0.3-1.4-0.6-2.1c-0.4-1-1-1.9-1.8-2.6
	c-0.5-0.4-1.3-0.6-1.9-0.7c-0.6,0-1-0.3-1.4-0.6c-0.2-0.2-0.4-0.4-0.8-0.4c-0.7,0-1.3-0.3-1.8-0.8s-1-0.9-1.6-1.3
	c-0.1-0.1-0.3-0.1-0.3-0.2c-0.6-1.3-1.8-2.3-2.2-3.7c-0.4-1.1-0.9-2.2-1-3.4c0-0.2-0.1-0.4-0.2-0.5c-0.4-0.5-0.4-1.2-0.2-1.7
	c0.5-1.4,0.8-2.9,1.8-4.1c1-1.1,1.7-2.5,3.1-3.1c0.2-0.1,0.4-0.4,0.6-0.6c0.6-0.6,1.3-0.9,2.1-1.1c1.2-0.3,2.3-0.2,3.5,0.2
	c0.2,0.1,0.5,0.1,0.7,0.1c1.2,0,2.3,0.2,3.5,0.5c1.2,0.2,2,1.1,2.7,2.1c0.1,0.1,0.1,0.2,0.1,0.3c0.9,1.4,1.2,2.9,1.4,4.5
	c0.1,0.7,0.3,1.4,0.2,2.1c-0.1,1-0.5,1.4-1.6,1.5c-1.1,0.1-1.8-0.5-2.3-1.4c-0.4-0.7-0.7-1.4-0.8-2.2c-0.1-0.7-0.6-1-1-1.3
	c-0.1-0.1-0.3-0.1-0.3-0.1c-0.6,0.4-1,0-1.5-0.3c-1.3-0.6-2.5-0.3-3.6,0.3c-0.3,0.2-0.3,0.7-0.6,0.9c-0.2,0.2-0.7,0.3-0.9,0.5
	c-0.3,0.6-0.5,1.1-0.4,1.9c0.1,0.7,0.2,1.4,0.6,2c0.2,0.3,0.6,0.8,0.8,0.8c0.7,0,1.1,0.4,1.7,0.8C108.5,249,109.1,249.5,109.6,249.2
	z"></path>
    <path id="F" d="M80.8,235.3c-1-0.2-1.9,0.4-3,0.6c-0.3,0-0.5,0.4-0.7,0.6c-0.4,0.3-0.9,0.6-1.5,0.3c-0.5-0.2-1.1-0.1-1.6,0.2
	c-0.2,0.1-0.4,0.2-0.7,0.2c-1.2-0.1-2.3,0.1-3.4,0.2c-0.2,0-0.5,0.1-0.7,0.2c-0.3,0.1-0.5,0.2-0.4,0.6c0.1,0.5,0,1-0.3,1.4
	c-0.3,0.4-0.3,0.8-0.1,1.2c0.2,0.5,0.4,1,0.2,1.5c-0.2,0.4,0.3,0.7,0.7,0.5c0.5-0.2,0.9-0.4,1.4-0.1c0.3,0.2,0.8,0,1.2,0.1
	c0.5,0,1,0.1,1.5,0.1c0.3,0,0.5-0.1,0.8-0.1c1.2,0,2.3,0,3.5,0c0.5,0,0.8,0.5,0.6,1c-0.2,0.4-0.6,0.7-0.7,1
	c-0.2,0.8-0.9,1.1-1.4,1.6c-0.4,0.5-1.1,0.7-1.6,0.4c-0.7-0.4-1.3,0.1-1.9,0.1c-0.5,0.1-1.1,0.4-1.5,0.9c-0.3,0.5-0.8,0.7-1.4,0.7
	s-1.3,1-1.4,1.6c0,0.6,0.1,1.2-0.2,1.7c-0.1,0.1,0,0.3,0.1,0.4c0.6,1,0.4,2,0.2,3c0,0.2-0.1,0.3-0.1,0.5c0.1,0.9-0.2,1.7-0.7,2.5
	c-0.4,0.6-0.5,1.3,0,1.9c0.3,0.5,0.4,1.1,0.2,1.5c-0.4,1-0.2,2,0.1,2.9c0.3,0.8,0.1,1.5-0.2,2.2c-0.3,0.9-1.1,1.1-1.9,0.4
	c-0.3-0.3-0.7-0.6-1.1-0.7c-0.4-0.2-0.5-0.4-0.3-0.7c0.3-0.4,0.1-0.6-0.2-0.8c-1-0.7-0.9-0.8-0.7-2c0.3-1.4,0.3-2.7-0.4-4
	c-0.3-0.5-0.6-1-0.3-1.6c0.2-0.3,0.1-0.7,0.1-1.1c0-0.2-0.1-0.4-0.3-0.4c-0.5-0.3-0.5-0.7-0.7-1.2c-0.1-0.4-0.2-0.9-0.4-1.3
	c-0.7-1.4-0.7-2.9-0.2-4.4c0.2-0.7,0.3-1.5,0.4-2.2c0-0.2,0.1-0.5,0.2-0.7c0.4-0.6,0.3-1.1-0.1-1.6c-0.2-0.3-0.4-0.6-0.6-0.9
	c-0.6-0.8-0.5-1.7,0-2.5c0.4-0.6,0.4-1.2,0.2-1.8c-0.2-0.6-0.4-1.2-0.2-1.9c0.2-0.6,0-1.2-0.3-1.7c-0.4-0.7-0.5-1.4,0-2.1
	c0.2-0.2,0.2-0.6,0.3-0.9c0.2-1.2,0.4-1.4,1.6-1.7c0.2-0.1,0.5-0.2,0.7-0.4c0.6-0.5,1.4-0.4,2.1-0.3h0.1c0.5,0.3,1,0,1.5,0
	s0.9,0.4,1.4,0.6c0.1,0,0.2,0,0.4,0c0.9-0.2,1.8-0.5,2.7-0.7c0.8-0.2,1.5-0.4,2.3-0.1c0.7,0.2,1.4,0.2,2.1,0.3
	c1.3,0.2,2.7,0.2,4,0.2c0.4,0,0.8,0.2,1.3,0.2c0.9,0,1.8,0.2,2.6,0c1-0.2,2-0.1,3-0.2c0.8,0,1.5,0,2.2,0.3c0.2,0.1,0.4,0,0.5,0
	c0.8,0,1.5-0.2,2.2-0.1c0.4,0,0.7,0.4,1.1,0.7c0.1,0.1,0,0.5-0.1,0.5c-1,0.5-1.8,1.5-2.9,1.7c-0.8,0.2-1.7,0.3-2.5,0.5
	c-1.2,0.2-2.4,0.3-3.6,0.5c-0.2,0-0.4,0-0.6,0.1c-0.4,0.1-0.7,0.3-1.1,0.3C81.8,235.3,81.4,235.3,80.8,235.3z"></path>
    <path id="LE" d="M55.6,218.5c0.1,0.5,0.1,1.1,0.3,1.6c0,0.2,0.2,0.3,0.3,0.5c0.5,0.5,0.6,1.2,0.6,1.8c0,1.1,0.1,2.2,0.2,3.3
	c0,0.2,0.1,0.4,0.2,0.5c0.8,0.8,0.9,1.7,0.9,2.7c0,0.8-0.1,1.6,0,2.4c0.2,1.3,0,2.6,0.3,3.9c0.3,1.4,0,2.7-0.1,4c0,0.5,0,1,0.2,1.4
	c0.3,0.5,0.4,1.1,0.1,1.7c-0.2,0.5-0.1,1.2-0.2,1.8c0,0.4,0.1,0.9,0,1.3c-0.1,0.5-0.2,0.8,0,1.4c0.2,0.5,0.1,1.1,0,1.7
	c0,0.5,0.1,1.1-0.1,1.6c-0.2,0.8-0.1,1.4,0,2.2c0.2,2,0.7,3.8,1.2,5.7c0,0.1,0,0.2,0,0.2c0.1,1.1,0.1,2.3,0.3,3.4
	c0.1,0.6,0.2,1.2,0.5,1.8c0.2,0.5,0.3,0.9,0.1,1.4c-0.2,0.5-0.4,0.9-0.6,1.4s-0.5,1-0.4,1.4c0,0.5,0.3,1,0.6,1.5
	c0.2,0.3,0.5,0.6,0.9,0.5c0.8-0.2,1.7,0.1,2.4,0.3c0.5,0.2,0.7,0,0.9-0.3c0.5-1.1,1.4-1.1,2.3-1c0.4,0.1,0.7,0.1,1-0.1
	c0.2-0.1,0.4-0.3,0.6-0.3c0.3-0.1,0.6-0.2,1.1-0.1c0.7,0.2,1.4,0.3,2.1-0.1c0.6-0.3,0.9-0.2,1.9,0c0.3,0.1,0.7,0.2,1,0.1
	c1-0.2,2.1-0.4,3.1-0.5c0.7,0,1.3-0.5,1.8-1c0.4-0.4,0.4-0.4,0.1-1c-0.3-0.5-0.3-1-0.1-1.6c0.8-2.2,1.1-4.4,0.6-6.7
	c-0.1-0.5,0-1,0.5-1.4c0.2-0.1,0.3-0.3,0.5-0.5c-0.2-0.3-0.3-0.6-0.5-0.9c-0.3-0.3-0.4-0.6-0.1-1c0.1-0.1,0.1-0.3,0-0.3
	c-0.7-0.3-0.3-1-0.4-1.5c0-0.1,0-0.2,0-0.2c-0.5-0.7-0.1-1.3,0.3-1.8c0.2-0.2,0.2-0.4,0.1-0.7c-0.2-1-0.5-1.9-1.1-2.7
	c-0.2-0.3-0.2-0.6-0.1-1c0.1-0.3,0.3-0.7,0.1-0.9c-0.3-0.5,0-0.9,0-1.4c0.2-1.3,0.5-2.7,0.7-4c0.1-0.3,0.2-0.6,0.2-0.9
	c0.1-0.3,0.2-0.5,0.6-0.5c0.3-0.1,0.5-0.2,0.8-0.2c0.5-0.1,0.9-0.1,1.1,0.5c0,0.1,0.1,0.2,0.2,0.3c0.2,0.2,0.6,0.2,0.8-0.1
	c0.1-0.1,0.1-0.3,0.2-0.4c0.4-0.6,0.9-0.9,1.6-0.7c0.6,0.2,1.2,0.2,1.9,0c0.2-0.1,0.5,0,0.7,0.1c0.5,0.1,0.9,0.3,1.3,0.4
	c0.3,0.1,0.6,0.2,0.8,0.1c1.1-0.3,2.2-0.2,3.4,0c1.1,0.2,2.2,0.1,3.4,0.1c0.6,0,1.2,0,1.8,0c0.2,0,0.5,0.2,0.5,0.4
	c0.1,0.3,0,0.6-0.3,0.7c-0.6,0.3-1.1,0.7-1.6,1.2c-0.2,0.2-0.6,0.3-1,0.4c-0.3,0.1-0.8,0.2-0.9,0.4c-0.6,0.8-1.6,0.9-2.4,1.4
	c-0.5,0.3-1,0.4-1.6,0.3c-1-0.1-2,0.1-3-0.2c-0.4-0.1-0.9,0.2-1.3,0.3c-0.1,1.3-0.3,2.7-0.4,4c-0.1,0.5,0.2,1,0,1.6
	c-0.2,0.5,0.5,0.9,1,0.8c1.2-0.3,2.4-0.3,3.6-0.4c0.5-0.1,1-0.3,1.5-0.2c1.1,0.2,2.1,0,3.1-0.2c0.2,0,0.5,0,0.7,0.1
	c0.3,0,0.5,0.1,0.8,0.1c0.2,0,0.4-0.3,0.6,0c0.1,0.2,0.1,0.5,0,0.7c-0.1,0.5-0.3,1-0.9,1.3c-0.7,0.4-1.3,1-1.9,1.5
	c-1,0.9-2.2,1.6-3.6,1.8c-0.8,0.1-1.5,0.4-2.3,0.4c-0.6,0-1.2-0.1-1.8,0.2c-0.5,0.2-0.5,0.2-0.3,0.9c0.1,0.2,0.2,0.5,0.1,0.7
	c-0.4,0.6-0.2,1.2-0.2,1.9c-0.1,0.9,0.1,1.9-0.2,2.8c-0.1,0.3-0.1,0.6,0,1c0.1,1.3-0.3,2.5-0.4,3.8c0,0.2,0.1,0.4,0.1,0.5
	c0,0.9-0.1,1.9-0.1,2.8c0,0.6-0.2,1.3,0,1.9c0.3,1,0.2,1.9,0,2.9c-0.2,1.3-0.2,2.6-0.3,3.9c1.2,0,2.2,0,3.3-0.5
	c0.7-0.3,1.5-0.4,2.3-0.6c0.1,0,0.2,0.1,0.3,0.1c0.6,0.1,1.2,0.1,1.9-0.1c0.5-0.2,1.2-0.3,1.7-0.3c1.7,0,3.4,0,5.1-0.5
	c0.5-0.1,1,0,1.5,0c0.2,0.4,0.2,0.7-0.1,1c-1.1,1.2-2.2,2.4-3.9,2.8c-0.3,0.1-0.6,0.3-0.8,0.6c-0.1,0.2-0.4,0.3-0.6,0.3
	c-1.3-0.2-2.3,0.5-3.3,1.1c-0.3,0.2-0.7,0.3-1.1,0.4c-0.6,0.2-1.3,0.3-1.9,0.7c-0.3,0.2-0.7,0.3-1.1,0.1c-0.4-0.2-0.8-0.2-1.2,0.1
	c-0.2,0.2-0.6,0.2-0.9,0.3c-0.8,0.1-1.5,0.5-2,1.1c-0.6,0.6-1.2,1.1-2.1,1.1c-0.5,0-0.9,0.4-1.4,0.7c-0.3,0.2-0.6,0.5-1,0.7
	c-0.5,0.3-0.9,0.1-1.1-0.5c-0.3-0.9-0.4-1.8-0.1-2.7c0.1-0.3,0.1-0.7,0.1-1.1c0-0.4-0.1-0.8-0.2-1.3c-0.1-0.4,0.4-0.7,0-1.1
	c0.5-1.2-0.1-2.6,0.4-3.9c0.1-0.3-0.1-0.7-0.2-1c-0.2-0.8-0.1-1.4,0.5-2c0.2-0.2,0.2-0.6,0.4-1.1c-0.9,0-1.7,0-2.5,0
	c-0.2,0-0.4,0.2-0.6,0.3c-0.8,0.3-1.6,0.7-2.6,0.7c-0.4,0-0.9-0.1-1.3,0.2c-0.1,0.1-0.4,0-0.6-0.1c-0.8-0.3-1.5-0.2-2.1,0.4
	c-0.4,0.4-1,0.5-1.5,0.6c-1,0.2-2.1,0.3-3.1,0.5c-0.3,0.1-0.6,0.3-0.8,0.6c-0.7,1.1-1.7,1.4-3,1c-0.5-0.2-0.9-0.3-1.4,0
	c-0.5,0.3-0.9,0-1.4-0.2c-0.3-0.1-0.7-0.1-0.8,0.1c-0.4,0.4-0.9,0.5-1.4,0.7c-1.2,0.5-2,0.3-2.6-0.9c-0.2-0.3-0.3-0.7-0.3-1
	c0-1-0.1-2.1-0.2-3.1c-0.1-0.6-0.2-1.2-0.2-1.7c0-0.6,0-1.2-0.2-1.7c-0.1-0.2,0-0.4,0-0.6c0-0.5,0.2-0.9,0-1.5c-0.1-0.5,0-1,0-1.4
	c0-0.7,0.2-1.4,0.9-1.8c0.3-0.2,0.4-0.4,0.3-0.7c-0.1-0.3-0.1-0.7-0.2-1c-0.4-1.6-0.9-3.2-0.8-4.9c0-0.4-0.1-0.8-0.2-1.3
	c-0.5-1.8-0.6-3.7-1.2-5.5c0-0.1,0-0.3,0-0.5c-0.1-1.1,0.1-2.1-0.2-3.2c-0.1-0.2,0.2-0.5,0.2-0.8c0.1-1,0.2-2,0.3-3.1
	c0-0.3,0.1-0.7,0.2-1c0.1-0.9,0.2-1.8-0.2-2.6c-0.3-0.6-0.3-1.1-0.1-1.7c0.3-0.7,0.4-1.4,0.3-2.2c0-0.4,0-0.8,0.2-1.3
	c0.4-1.2,0.3-2.4,0-3.6c-0.4-1.3-0.3-2.5,0.6-3.6c0.5-0.6,0.4-1.4,0.7-2.1c0.3-0.6,0.1-1.3,0.2-2c-0.1-0.5-0.1-1.3,0.1-2.1
	c0-0.4,0.2-0.8,0.4-1.2C55.5,218.5,55.6,218.5,55.6,218.5z"></path>
    <path id="EL" d="M46.3,272.6c-0.2-0.5-0.4-0.9-0.6-1.3c0-0.1-0.1-0.2-0.1-0.3c0.4-0.9-0.2-1.8-0.1-2.8c0-0.5-0.1-1.1-0.3-1.6
	c-0.2-0.6-0.2-1.2,0-1.7c0.1-0.7,0.4-1.4,0.1-2.2c-0.1-0.2-0.1-0.6,0-0.8c0.4-0.6-0.1-1.3,0.2-1.9c0.1-0.2-0.1-0.6-0.2-0.9
	c-0.3-0.5-0.2-1,0.1-1.3c0.7-0.8,0.6-1.8,0.7-2.8c0-0.3-0.1-0.4-0.4-0.5c-0.8-0.3-0.8-0.5-0.6-1.3c0.1-0.4,0.2-0.7,0.4-1.1
	c0.1-0.2-0.3-0.6-0.3-0.9c0-0.5,0.3-1,0.2-1.5s-0.1-1-0.2-1.5c0-0.1,0-0.2,0.1-0.3c0.6-0.9,0.3-1.9,0.4-2.9c0-0.3-0.1-0.6-0.4-0.7
	c-0.4-0.2-0.5-0.6-0.6-0.9c-0.4-1.3-0.5-2.5-0.5-3.8c0-0.4,0.2-0.6,0.4-0.8c0.5-0.4,0.6-0.9,0.6-1.5c0-0.5,0-1,0-1.6
	c0-0.4-0.1-0.6-0.5-0.7c-0.5-0.1-1-0.3-1.5-0.2c-0.8,0-1.5,0-2.1-0.6c-0.3,0.3-0.6,0.5-0.9,0.8c-0.7,0.8-1.6,0.9-2.5,0.7
	c-0.2-0.1-0.4-0.2-0.7-0.2c-1.5-0.1-2.7,0.6-3.6,1.8c-0.2,0.2-0.2,0.6-0.3,0.9c0,0.2,0,0.4,0,0.5c-0.5,0.5-0.5,0.9,0,1.4
	c0.1,0.1,0,0.5-0.1,0.8c-0.2,0.4-0.4,0.8-0.7,1.1s-0.5,0.6-0.2,1.1s0.5,0.9,1.1,0.9c0.4,0,0.8,0.3,1.2,0c0.1-0.1,0.2,0,0.4,0
	c0.5,0.1,1.1,0.2,1.6,0.2s1.1-0.2,1.6-0.2c0.3,0,0.6,0,0.8,0.1c0.3,0.1,0.6,0.1,0.9,0c0.4-0.1,0.9-0.1,1.3-0.1
	c0.6,0.1,1.1,0.3,1.7,0c0.3-0.1,0.5,0.1,0.7,0.3c0.1,0.3,0,0.5-0.2,0.7s-0.4,0.4-0.6,0.6c-0.1,0.2-0.3,0.4-0.3,0.6
	c-0.1,0.9-0.6,1.4-1.1,2c-0.3,0.4-1.7,0.9-2.2,0.9c-0.4,0-0.7,0-1.1,0c-0.6,0-1.3,0-1.8,0.5c-0.1,0.1-0.3,0.2-0.5,0.2
	c-0.3,0-0.5,0.1-0.7,0.3c-0.6,0.8-1.4,0.7-2.2,0.4c-0.2-0.1-0.3-0.3-0.5,0c-0.2,0.2-0.2,0.3-0.1,0.5c0.2,0.4,0.2,0.8,0,1.3
	c-0.1,0.4-0.1,0.9,0,1.4c0.1,0.6,0.3,1.1,0.4,1.7c0.1,0.5,0.2,1,0,1.5c-0.2,0.3,0,0.7,0.3,0.9c0.5,0.5,0.6,1.9,0.1,2.5
	c-0.3,0.4-0.4,0.7-0.4,1.2c0,0.9,0.2,1.9-0.2,2.8v0.1c0.6,1.6-0.3,3.1,0,4.7c0,0.2,0,0.3,0,0.5c0.1,0.5,0.6,0.7,1.1,0.5
	c0.9-0.4,1.7-0.6,2.7-0.3c0.8,0.2,1.7,0.1,2.5-0.4c0.4-0.3,0.9-0.3,1.4-0.3c0.6,0,1.2,0,1.9-0.2c0.6-0.2,1.3-0.1,1.9,0
	c0.5,0,0.7,0.6,0.3,1c-0.3,0.3-0.6,0.5-0.9,0.7c-0.7,0.3-1.4,0.6-2,0.9c-0.2,0.1-0.4,0.3-0.6,0.4c-0.8,0.5-1.4,1.3-2.3,1.5
	c-0.3,0.1-0.6,0.5-0.9,0.8c-0.5,0.5-1,0.8-1.7,0.9c-0.8,0.1-1.5,0.3-2.3,0.5c-0.6,0.2-1.1,0.7-1.5,1.2c-0.2,0.2-0.4,0.5-0.6,0.8
	c-0.6,0.8-1.4,1.2-2.4,1.1c-0.5,0-0.9,0.2-1.3,0.5c-0.2,0.1-0.4,0.2-0.6,0.3c-0.4,0.1-0.7-0.1-0.7-0.6c0-0.2,0-0.3,0-0.5
	c0.3-1.1,0-2-0.4-3.1c-0.2-0.6-0.1-1.3,0-1.9c0.1-0.6,0.4-1.3,0.7-1.9c0.2-0.4,0.2-0.8,0-1.3c-0.4-1.3-0.8-2.7-0.9-4.1
	c-0.1-1.3-0.2-2.6-0.4-3.9c-0.2-1.1-0.1-2.3,0.2-3.4c0.2-0.7,0.1-1.5,0.2-2.2c0.2-1.9,0.3-3.7,0.3-5.6c0-0.8,0-1.5-0.3-2.3
	c-0.2-0.7-0.3-1.4-0.5-2.2c-0.1-0.4-0.4-0.7,0-1.1c-0.1-1.1,0.3-2.2-0.2-3.3c-0.1-0.2,0-0.5,0-0.7c0-1.1-0.2-2.3-0.5-3.4
	c-0.1-0.4-0.1-0.9,0.3-1.2c0.4-0.4,0.5-0.9,0.2-1.5c-0.2-0.4-0.2-0.8-0.3-1.3c-0.1-0.9,0.1-1.7,0.9-2.3c0.1-0.1,0.3-0.2,0.3-0.3
	c0.3-0.9,1.3-0.8,1.9-1.3c0.1-0.1,0.3-0.1,0.3,0c0.7,0.4,1.6,0.3,2.3,0.8c0.5,0.3,0.9,0.5,1.5,0.2c0.5-0.2,1.2-0.6,1.8-0.1h0.2
	c1.3-0.6,2.7-0.4,4-0.7c0.4-0.1,0.7-0.3,1-0.5c0.6-0.4,1.3-0.6,2-0.1c0.8,0.5,1.6,0.9,2.5,0.4c0.1-0.1,0.2,0,0.4,0
	c0.7-0.1,0.8-0.1,0.8-0.9c0-0.6,0.2-0.9,0.7-1c0.1,0,0.1-0.1,0.3-0.1c0-1.8,0-3.7,0.9-5.5c0.3,0.4,0.5,0.7,0.8,0.9
	c0.5,0.5,0.9,1,0.8,1.8c0,0.2,0.1,0.5,0.2,0.8c0.3,0.8,0.7,1.6,0.3,2.5c-0.1,0.3-0.1,0.7,0,0.9c0.3,1.1,0,2.4,0.6,3.4
	c-0.1,0.8,0.4,1.5,0.1,2.3c-0.3,0.8,0.2,1.6,0.2,2.5c0.1,0.7,0.3,1.3,0.4,1.9c0.1,1.4,0.2,2.8,0.3,4.1c0.1,0.8-0.1,1.6,0.2,2.4
	c0.1,0.5,0.2,1.1,0,1.5c-0.4,1.1,0,2.2,0.1,3.3c0.1,0.6,0.2,1.1,0.3,1.7c0.1,0.6,0.4,1.3,0.7,1.9c0.2,0.4,0.3,0.8,0.1,1.2
	c-0.7,1.2-0.4,2.7-0.7,4c0.4,1.1,0.4,2.2,0.9,3.3c0.2,0.4,0.4,1,0.4,1.4c0,0.7-0.1,1.3-0.3,2c-0.2,0.7-0.3,1.4-0.2,2.1
	c0.1,0.6,0,1.3,0,1.9c0,0.5-0.1,0.9,0.3,1.3c0.2,0.2,0.2,0.6,0.1,0.8c-0.3,0.7-0.4,1.3,0.2,1.9c0.1,0.1,0.1,0.4,0.1,0.6
	c0,0.6,0,1.3,0,1.9s0.2,1.1,0.1,1.7c-0.1,0.4,0.2,0.8,0.4,1.3c0.4-0.2,0.8-0.4,1.1-0.4c0.8,0.2,1.6-0.2,2.3-0.3
	c1.1-0.2,2.2-0.1,3.3-0.3c1.1-0.2,2.2-0.1,3.3-0.2c0.8-0.1,1.5-0.1,2.2-0.7c0.2-0.2,0.6-0.4,0.9-0.4c1.1-0.1,2.1-0.2,3.2-0.3
	c0.2,0,0.6,0,0.7-0.1c0.4-0.5,0.9-0.4,1.4-0.4c0.4,0,0.8,0.1,1.2-0.2c0.1-0.1,0.4,0,0.6,0c0.9,0.4,1,0.8,0.3,1.4
	c-0.8,0.7-1.7,1.5-2.5,2.2c-0.3,0.2-0.5,0.3-0.9,0.3c-0.8,0-1.5,0.2-2,0.8c-0.3,0.4-0.7,0.5-1.1,0.6c-0.5,0-0.9,0.3-1.2,0.6
	c-0.5,0.5-1.1,0.6-1.7,0.6c-1.3-0.1-2.6,0-3.8,0.7c-0.4,0.3-0.8,0.6-1.2,0.9c-0.3,0.2-0.5,0.5-0.8,0.8c-0.8,0.8-1.5,0.9-2.5,0.4
	c-0.5-0.3-1-0.4-1.6,0c-0.4,0.2-0.5,0.5-0.6,0.9c-0.2,0.6-0.3,1.3-0.5,1.9c-0.3,0.9-1.2,1.3-2,0.9c-0.7-0.4-1.3-0.3-2,0.1
	c-1,0.5-1.3,0.4-2.2-0.4c-0.1-0.1-0.2-0.2-0.3-0.3c-1.2-0.7-1.1-1.9-0.9-3c0.1-0.7,0.5-1.2,0.8-1.8c0.3-0.6,0.3-0.6,0-1.2
	c-0.1-0.2-0.2-0.4-0.3-0.6c-0.5-0.7-0.3-1.2,0.1-1.8c0.6-0.8,0.6-0.8,0-1.7c-0.6-0.8-0.8-1.7-0.9-2.6c-0.1-0.8,0.1-1.6,0.2-2.5
	c0-0.2,0.2-0.3,0.3-0.5C45.8,273,46.1,272.8,46.3,272.6z"></path>
    <path id="H" d="M-7,231.9c0.4-0.2,0.2-0.5,0.2-0.8c0.1-0.7,0.3-1,1-1.1c0.3-0.1,0.6-0.1,0.9-0.2c0.6-0.3,1.3-0.4,1.9,0
	c0.4,0.3,0.8,0.2,1.3,0.1c0.8-0.2,1.4,0.1,1.7,0.9c0.3,0.7,0.2,1.4,0.2,2.1c0,0.4,0,0.8,0.2,1.1c0.3,0.5,0.4,1,0.5,1.5
	c0.2,0.7,0.6,1.4,0.9,2.2c0.3,0.7,0.5,1.5,0.5,2.3c0,1,0.2,1.9,0.6,2.9c0.1,0.2,0.1,0.5,0.1,0.8c0,0.6,0,1.1,0,1.7
	c0,0.5,0.2,0.9,0.5,1.3c0.6,0.7,0.9,1.5,0.9,2.3c0,0.4,0.2,0.7,0.4,0.9c0.6,0.5,0.9,1.1,0.8,1.9c0,0.4,0.1,0.7,0.4,1
	c0.3,0.3,0.3,0.7,0.1,1.1c-0.3,0.4-0.2,0.7-0.1,1.1c0.1,1,0.6,2,0.7,3.1c0,0.5,0.4,0.9,0.5,1.4c0.4-0.2,0.7-0.2,1.1-0.1
	c0.6,0.2,1,0.1,1.5-0.3c0.6-0.5,1.2-1,1.9-1.4c0.6-0.4,1.4-0.6,2.1-0.6c0.7,0.1,1.4-0.2,2.1-0.4c0.5-0.1,0.8-0.4,0.8-1
	c0-0.4,0.1-0.8-0.3-1.2c-0.6-0.6-0.7-1.4-0.4-2.1c0.1-0.2,0.2-0.5,0.2-0.6c-0.1-0.2-0.3-0.4-0.5-0.5c-0.5-0.2-0.6-0.6-0.7-1
	c-0.2-0.5-0.1-0.8,0.1-1.2c0.3-0.5,0.3-0.9,0-1.5c-0.3-0.7-0.5-1.4-0.5-2.2c0-1.1-0.4-2-0.7-3c-0.4-1.4-0.7-2.8-0.8-4.2
	c0-0.6-0.3-1.1,0-1.7c0.1-0.1-0.1-0.4-0.1-0.6c0-0.4-0.2-0.9,0-1.3c0.4-0.7,0.4-1.3,0.4-2.1c0-0.5,0.1-0.9,0.3-1.4
	c0.3-0.6,0.6-1.3,1.5-1.3c0.8-0.6,1.9-0.9,2.5-1.8c0.1-0.2,0.4-0.3,0.6-0.4c0.7-0.3,1.4-0.6,2-0.9c0.5-0.2,1.1-0.1,1.3,0.5
	c0.4,0.9,0.8,1.8,1.2,2.7c0.1,0.4,0.2,0.8,0.1,1.2c-0.2,0.7-0.1,1.6-1,2c0.4,1,0.3,1.9-0.1,2.8c-0.3,0.5-0.3,1-0.3,1.6
	c0,0.9,0.1,1.8,0,2.6c-0.1,1.3,0.3,2.4,1,3.4c0.3,0.4,0.4,0.8,0.4,1.3c0,1.4,0,2.9,0,4.3c0,0.1,0,0.3,0,0.4
	c-0.4,0.7-0.1,1.5,0.1,2.2c0.2,1.1,0.3,2.2,0,3.4c-0.1,0.4,0,1,0.1,1.5c0.2,0.6,0.3,1.3,0.3,2c0,1.3,0.2,2.7,0.4,4
	c0.1,1.2,0.1,2.4,0,3.6c0,0.5,0.1,1.1-0.4,1.6c-0.1,0.1-0.1,0.5-0.1,0.7c0.4,0.8,0.2,1.7,0.2,2.6c0,0.2-0.1,0.5-0.3,0.6
	c-0.6,0.5-0.4,1.1-0.4,1.6c0.1,0.6,0.1,1.1,0.2,1.7c0.1,0.8,0,1.5-0.3,2.2c-0.3,0.8-0.3,1.7-0.2,2.5c0,0.2,0,0.5-0.1,0.7
	c-0.2,0.8-0.6,1.5-0.6,2.4c0,0.3-0.3,0.6-0.4,0.8c-0.4,1-0.6,2.1-0.8,3.2c-0.3,1.5,0.1,3-0.8,4.4c-0.4-0.9-0.7-1.7-0.6-2.6
	c0.1-1.1-0.1-2.1-0.5-3.1c-0.1-0.3-0.2-0.5,0-0.9c0.2-0.3,0-0.8,0-1.2c0-0.3-0.2-0.7-0.2-1c0-1,0-2-0.4-3c-0.1-0.3,0.2-0.8,0.1-1.2
	c-0.1-0.4-0.5-0.7-0.6-1.1c-0.1-0.4-0.1-0.9,0.2-1.3c0.2-0.3,0.2-0.7,0.4-1c0.3-1,0.3-1.9-0.4-2.7c-0.9-1.1-0.9-2.3-0.2-3.5
	c0.3-0.4,0.4-0.9,0.2-1.5c-0.2-0.5-0.1-1-0.1-1.5c0-0.9-0.1-1-0.9-1.3c-0.5-0.2-1-0.2-1.6-0.1c-1.1,0.4-2.3,0.5-3.4,0.8
	c-1.2,0.3-2.1,0.9-2.7,2c-0.5,0.7-0.7,1.5-0.7,2.3c0,0.2,0,0.4,0.1,0.5c0.5,0.6,0.3,1.3,0.1,1.9c-0.2,0.4-0.1,0.8,0.1,1.1
	c0.2,0.5,0.5,1,0.7,1.5c0.3,0.9,0.2,1.3-0.1,2.5c-0.1,0.4-0.1,0.7,0.1,1.1c0.3,0.6,0.3,1.3,0.3,2c0,0.5,0,0.8,0.5,1.1
	c0.5,0.2,0.7,0.7,0.7,1.3c0,0.5,0.1,0.9,0.2,1.4c0.4,1.1,0.4,2.4,0.3,3.5c0,0.6-0.3,1.1,0,1.7c0.1,0.2,0.1,0.4,0,0.6
	c-0.5,0.9-0.1,1.7,0.2,2.6c0.1,0.5,0.2,0.9,0.3,1.4c0,0.2-0.2,0.4-0.2,0.6c-0.4-0.6-0.7-1.2-1.1-1.9c-0.2-0.4-0.4-0.9-0.6-1.3
	c-0.1-0.2-0.2-0.6-0.3-0.7c-0.8-0.8-0.9-1.9-1.1-2.9c-0.2-0.8-0.2-1.7-0.9-2.4c-0.3-0.3-0.5-0.6-0.9-0.7c-0.4-0.2-0.5-0.5-0.7-0.9
	c-0.2-0.7-0.6-1.4-0.8-2.2s-0.4-1.6-0.5-2.4c-0.1-0.3-0.1-0.6,0-0.8c0.4-0.7,0-1.4-0.2-2c-0.2-0.6-0.5-1.1-0.6-1.8
	c0,0,0-0.1-0.1-0.1c-0.2-0.5-0.6-1-0.7-1.5c-0.1-0.5-0.1-1.1-0.1-1.6c0-0.2-0.2-0.4-0.3-0.6c-0.3-0.5-0.4-1-0.4-1.6
	c-0.1-0.7-0.3-1.4-0.5-2.2c0-0.1-0.1-0.2-0.1-0.2c-1.1-0.4-0.8-1.5-1-2.3c-0.1-0.4-0.2-0.8-0.6-1c-0.5-0.3-0.7-0.7-0.6-1.3
	c0.1-1.6-0.4-3.2-0.8-4.7c-0.6-2.4-1.5-4.7-1.8-7.1c-0.5-1.2-0.8-2.3-1-3.4c-0.4-1.6-1-3-1.7-4.5c-0.4-1-0.8-2-0.8-3.2
	c0-0.9-0.2-1.8-0.3-2.7c0,0-0.1-0.1-0.2-0.1C-7,234.7-7,233.3-7,231.9z"></path>
  </g>
</svg>