<svg xmlns:xlink="http://www.w3.org/1999/xlink" xmlns="http://www.w3.org/2000/svg" data-v-1e92d442="" viewBox="0 0 47 61" preserveAspectRatio="xMidYMid" class="BaseIcon-icon" width="47"  height="61" ><defs><symbol xmlns="http://www.w3.org/2000/svg" viewBox="0 0 47 61" fill="none" id="train--sprite">
<path d="M46.6814 27.004C46.6814 31.7704 46.6814 36.5376 46.6814 41.304C46.4409 41.307 46.5102 41.496 46.5094 41.6252C46.5051 42.9354 46.4912 44.2463 46.5182 45.5558C46.5247 45.862 46.4446 46.1324 46.32 46.3685C46.1371 46.7143 45.7809 46.9795 45.6541 47.3366C45.3831 48.1007 44.879 48.6512 44.3959 49.0912C44.0892 49.1831 43.8838 49.2764 43.671 49.3018C43.1254 49.3668 42.6664 49.7694 42.0908 49.7067C41.4359 49.635 40.8144 49.7351 40.252 50.1758C40.1201 50.81 40.381 51.4068 40.6469 51.9984C40.7707 52.274 40.9565 52.522 41.068 52.8022C41.2202 53.1846 41.4169 53.5812 41.433 53.9786C41.4526 54.4672 41.6697 54.8541 41.8898 55.2194C42.2897 55.8849 42.6715 56.5415 42.8704 57.3086C42.9724 57.7023 43.1902 58.0638 43.3716 58.4762C43.3716 58.6719 43.3738 58.9101 43.3709 59.1484C43.3578 60.2637 42.6948 60.9554 41.6209 60.9643C40.7503 60.971 39.8797 60.9703 39.0091 60.9621C38.8197 60.9606 38.6288 60.8978 38.4474 60.8612C37.85 60.7417 37.23 60.7514 36.6253 60.6222C36.4651 60.5878 36.2713 60.7723 36.0906 60.7783C35.4531 60.7992 34.8091 60.8358 34.1767 60.7731C33.5392 60.7096 32.9564 60.9748 32.332 60.9785C31.7623 60.9822 31.2181 60.8403 30.6615 60.803C30.3453 60.7813 29.9679 60.6244 29.6918 60.9606C29.3611 60.7171 29.0434 61.039 28.7003 60.9785C28.0941 60.871 27.472 60.7828 26.8592 60.7985C25.3162 60.8381 23.7651 60.6259 22.2272 60.9524C21.8374 61.0353 21.4156 60.9882 21.0113 60.9583C20.6266 60.93 20.2477 60.8112 19.8638 60.794C19.2263 60.7656 18.5874 60.7865 17.9485 60.7865C17.6294 60.7865 17.3088 60.7679 16.9912 60.7925C16.7158 60.8134 16.447 60.7328 16.1548 60.8777C15.9909 60.9591 15.6805 60.8231 15.4496 60.8067C14.6985 60.7529 13.9371 60.7335 13.1889 60.8015C12.4094 60.8724 11.6772 60.5535 10.9093 60.6073C10.7148 60.6207 10.4992 60.5557 10.3687 60.7791C10.1815 60.4691 10.0096 60.8209 9.8187 60.7977C9.50397 60.7589 9.18123 60.7873 8.86213 60.7873C8.54303 60.7873 8.21373 60.8373 7.90701 60.7731C7.61414 60.7118 7.37299 60.9524 7.06992 60.8441C6.99779 60.8187 6.70492 60.7828 6.66412 60.853C6.51623 61.1055 6.41059 60.7044 6.27435 60.8605C6.09513 61.0674 5.98512 60.7432 5.7804 60.7671C5.2697 60.8284 4.7466 60.7873 4.2308 60.7873C3.73175 60.1822 3.72883 59.4166 3.57074 59.0043C3.60061 57.9884 4.17033 57.4924 4.52003 56.8672C4.66574 56.6065 4.82456 56.3226 4.86098 56.0336C4.96735 55.1813 5.1371 54.379 5.73523 53.7165C5.95015 53.4789 6.06016 53.1413 6.2525 52.785C6.27654 52.2957 6.32316 51.7527 6.71293 51.2709C6.9009 51.0378 6.90527 50.6486 6.99706 50.3155C6.7581 50.1579 6.5665 49.9726 6.33992 49.8927C5.48899 49.5947 4.59798 49.7351 3.76453 49.7C3.16421 49.2794 2.58138 48.9052 2.03935 48.4757C1.83244 48.3121 1.59858 48.0297 1.58765 47.7907C1.56143 47.2185 1.18259 46.9265 0.902827 46.6127C0.827058 46.1735 0.734534 45.7851 0.699564 45.3914C0.666051 45.0075 0.704664 44.6176 0.688636 44.2306C0.672608 43.8362 0.628896 43.4433 0.599025 43.0699C0.630353 42.7569 0.783346 42.3819 0.664594 42.1608C0.46206 41.7836 0.548028 41.4235 0.522529 41.0575C0.499944 40.7318 0.494844 40.4009 0.523986 40.076C0.55167 39.7705 0.66168 39.4717 0.684265 39.1662C0.713406 38.7815 0.714135 38.3908 0.684993 38.0061C0.657309 37.6416 0.542199 37.2823 0.523257 36.9178C0.433647 35.1871 0.692279 33.4436 0.344765 31.7204C0.244226 31.2221 0.480273 30.759 0.512329 30.2757C0.536371 29.9202 0.5167 29.5616 0.5167 29.2038C0.5167 28.8169 0.5167 28.4292 0.5167 28.0423C0.5167 27.6852 0.5167 27.3274 0.5167 26.9704C0.5167 26.5834 0.5167 26.1958 0.5167 25.8088C0.5167 25.4518 0.563327 25.0858 0.503587 24.7392C0.443118 24.3858 0.735262 24.0602 0.534914 23.7158C0.767318 23.5492 0.522529 23.4028 0.517429 23.2467C0.511601 23.0383 0.515972 22.8299 0.515972 22.6215C0.515972 21.6684 0.532 20.7152 0.511601 19.7628C0.491202 18.8329 0.627439 17.8954 0.349865 16.9751C0.248598 16.6382 0.517429 16.2954 0.49703 15.9809C0.41689 14.7424 0.734534 13.5323 0.690821 12.3013C0.679165 11.9779 0.76149 11.6074 0.633267 11.346C0.5167 11.1077 0.448218 10.7805 0.5371 10.7021C0.748376 10.5153 0.548756 10.3398 0.61651 10.1545C0.805931 9.63912 1.03032 9.13192 1.19351 8.61427C1.62335 7.25702 1.81059 6.80511 2.67828 5.93862C2.97844 5.63908 3.34926 5.41275 3.64359 5.10799C4.23663 4.49323 4.96808 4.0809 5.63907 3.57893C5.90717 3.37875 6.15487 3.16287 6.47251 3.04858C6.59782 3.00302 6.71002 2.91637 6.83751 2.87603C6.99342 2.82748 7.15734 2.79611 7.32054 2.78042C7.42107 2.77071 7.53764 2.84167 7.62579 2.81179C8.16783 2.6258 8.67635 2.36735 9.06976 2.04241C9.73346 1.93709 10.3454 1.88107 10.9356 1.73317C11.5104 1.589 12.0276 1.28797 12.6454 1.20655C13.2662 1.12438 13.873 0.888341 14.5178 0.905521C14.6919 0.910003 14.9272 0.980218 15.0285 0.892076C15.3403 0.620178 15.6915 0.797957 16.0113 0.721019C16.3246 0.645575 16.624 0.511867 16.9336 0.421483C17.2571 0.326618 17.5806 0.303462 17.88 0.517843C17.888 0.523818 17.955 0.407291 17.9995 0.402809C18.2268 0.381894 18.4585 0.398327 18.6836 0.363219C18.8956 0.330353 19.0981 0.219801 19.3094 0.198138C19.5323 0.175729 19.8157 0.140622 19.9724 0.255655C20.1552 0.39011 20.3796 0.0845988 20.4853 0.368448C21.3318 0.396833 22.1529 0.169754 22.9892 0.101032C23.2967 0.0756351 23.6639 -0.0767472 23.8919 0.0465032C24.093 0.155561 24.2431 0.0031788 24.4245 0.112237C24.5993 0.21756 24.8623 0.17797 25.0867 0.187681C25.3184 0.197392 25.5508 0.189922 25.7832 0.189922C26.538 0.189922 27.2927 0.182452 28.0468 0.193657C28.32 0.198139 28.5764 0.17797 28.8591 0.343798C29.1505 0.514108 29.5563 0.555191 29.9038 0.530541C30.3439 0.498421 30.7169 0.695622 31.1241 0.76509C31.2538 0.787499 31.3726 0.880124 31.503 0.899545C31.7266 0.933159 32.01 0.855474 32.1659 0.970508C32.3488 1.10496 32.5047 0.879377 32.7014 1.05716C32.8486 1.19012 33.215 1.03176 33.4584 1.09899C33.6667 1.15725 33.8926 1.20506 34.0776 1.28424C34.4638 1.44857 34.844 1.42915 35.2338 1.44185C35.3744 1.44633 35.5332 1.42392 35.652 1.48293C36.3062 1.80786 37.0668 1.83625 37.6832 2.28443C37.8901 2.43532 38.1953 2.44578 38.4583 2.51226C39.1694 2.69153 39.9038 2.69676 40.6039 3.02319C41.2858 3.34065 41.9364 3.65438 42.4879 4.18473C42.7931 4.47829 42.9869 4.919 43.4547 5.01611C44.2327 5.84375 45.1624 6.54516 45.5514 7.69624C45.6833 8.08616 45.8239 8.47384 45.9885 8.85032C46.3215 9.61073 46.2974 9.60999 46.3433 10.2218C46.3834 10.7543 46.5072 11.2802 46.5983 11.8083C46.599 11.8136 46.653 11.8091 46.6821 11.8091C46.6821 12.1071 46.6821 12.4052 46.6821 12.7032C46.3921 12.7346 46.532 12.9654 46.5116 13.111C46.4613 13.4711 46.4308 13.8341 46.3849 14.2651C46.3827 14.2629 46.438 14.3279 46.4978 14.3988C46.4468 14.4571 46.3921 14.5191 46.3382 14.5803C46.3936 14.6423 46.5058 14.7133 46.4992 14.7701C46.4154 15.4849 46.6748 16.2155 46.3513 16.9281C46.2421 17.1701 46.234 17.5802 46.3659 17.7886C46.5502 18.0792 46.5014 18.3481 46.5014 18.6237C46.5014 19.8883 46.6114 21.1619 46.1721 22.3929C46.0898 22.6237 46.0752 22.9875 46.1998 23.1645C46.4213 23.4805 46.2151 23.8211 46.3484 24.0841C46.5167 24.4165 46.5043 24.7444 46.5065 25.085C46.5109 25.6482 46.5007 26.2114 46.5153 26.7739C46.5167 26.8523 46.6231 26.927 46.6814 27.004ZM3.93355 46.2281C4.30292 46.3483 4.68832 46.4648 5.06789 46.5993C6.46669 47.093 7.20251 47.1319 8.65813 46.857C8.95028 46.8017 9.27011 46.919 9.57755 46.9295C9.7575 46.9354 9.92798 46.9892 10.0955 47.0057C10.3323 47.0281 10.5844 47.0901 10.8416 46.9227C10.9669 46.8413 11.2284 46.9937 11.431 47.0183C11.5031 47.0273 11.581 46.9563 11.659 46.9459C12.2622 46.8667 12.8472 46.6381 13.4621 46.674C13.731 46.6897 13.994 46.8286 14.2613 46.8368C14.9862 46.8607 15.7126 46.8533 16.4382 46.8398C16.6393 46.8361 16.852 46.7031 17.0349 46.7435C17.2309 46.7868 17.4086 46.7046 17.5929 46.7502C17.7583 46.7913 17.9266 46.8279 18.0956 46.8413C18.2974 46.857 18.5342 46.7786 18.6967 46.8615C18.9116 46.9713 18.9655 46.5612 19.2081 46.7711C19.3072 46.857 19.5891 46.6912 19.7859 46.6957C19.9512 46.6994 20.2099 46.8764 20.2623 46.8189C20.5151 46.5418 20.6892 46.8936 20.9158 46.8592C21.6116 46.7539 22.335 47.0004 23.0235 46.6762C23.1677 46.6083 23.4133 46.5971 23.5335 46.6792C23.905 46.9347 24.3028 46.8197 24.6889 46.8413C25.0073 46.8592 25.3468 46.7771 25.6411 46.8652C25.9136 46.9466 26.0804 46.6187 26.393 46.8077C26.6305 46.9511 27.013 46.8443 27.3313 46.8451C28.6085 46.8458 29.8856 46.8376 31.1627 46.8525C31.4316 46.8555 31.7237 46.736 31.9758 47.0109C32.0574 47.0998 32.3452 47.0878 32.4756 47.0101C32.6825 46.8869 32.7779 47.3896 32.9659 47.0654C33.2682 47.2312 33.5509 46.9354 33.8496 47.0243C34.109 46.6441 34.5687 47.0183 34.8695 46.7367C34.965 46.6479 35.1551 46.8622 35.3154 46.6792C35.3803 46.6053 35.5923 46.6673 35.7372 46.6673C35.8247 46.6673 35.9165 46.6486 35.9973 46.6718C36.0986 46.7016 36.1904 46.8092 36.2866 46.8085C36.5598 46.8085 36.8424 46.807 37.104 46.7375C37.3561 46.6703 37.5775 46.6068 37.8172 46.7689C37.9017 46.8264 38.027 46.8413 38.1334 46.8421C39.2364 46.8473 40.3423 46.8951 41.4417 46.8279C42.1987 46.7816 42.8696 46.4686 43.1997 45.6566C43.5443 44.8088 43.5049 43.8885 43.7133 43.0161C43.7308 42.9429 43.7118 42.8204 43.6623 42.7763C43.4721 42.6075 43.5639 42.3924 43.545 42.1974C43.4969 41.7141 43.6317 41.2241 43.3876 40.743C43.282 40.5346 43.2769 40.1447 43.4022 39.9699C43.5887 39.71 43.5494 39.4642 43.5363 39.2185C43.459 37.7843 43.6885 36.3471 43.3935 34.9084C43.2529 34.2242 43.3461 33.4832 43.376 32.7691C43.4051 32.0774 43.3141 31.3932 43.5115 30.6888C43.6601 30.1607 43.5071 29.5571 43.3964 28.9797C43.2754 28.3485 43.3461 27.6733 43.3753 27.0197C43.4044 26.3578 43.4838 25.6983 43.545 25.0387C43.5501 24.9864 43.5771 24.9326 43.6047 24.8863C43.8357 24.5039 43.6674 24.0863 43.7075 23.6867C43.306 23.2699 43.7563 22.6626 43.3993 22.2353C43.6434 22.0628 43.5166 21.8036 43.5414 21.581C43.5632 21.3793 43.4955 21.1081 43.5996 20.9871C43.8248 20.7257 43.5261 20.5935 43.5224 20.3895C43.4867 18.3286 43.714 16.2595 43.3687 14.2076C43.2594 13.56 43.51 12.9497 43.5603 12.317C43.6171 11.6037 43.317 10.9441 43.3702 10.2449C43.4328 9.41951 43.0736 8.74948 42.4617 8.32221C41.7797 7.84639 41.1816 7.29587 40.5798 6.73041C40.2396 6.41071 39.852 6.07083 39.4266 5.93787C38.859 5.76084 38.3046 5.54422 37.7356 5.37167C36.8847 5.11396 36.0017 4.95784 35.2171 4.48949C35.0145 4.36848 34.7384 4.28706 34.5126 4.31769C34.1243 4.37072 33.7826 4.22656 33.4576 4.10256C33.1567 3.98753 32.8304 4.03608 32.5754 3.91955C32.2701 3.78062 31.9831 3.78286 31.6793 3.76194C31.4899 3.74924 31.3143 3.77613 31.1139 3.64467C30.8764 3.48855 30.5478 3.4258 30.2557 3.41759C29.3275 3.3907 28.3979 3.41684 27.4698 3.40115C27.2323 3.39742 27.0472 3.51918 26.841 3.56773C26.538 3.63944 26.1416 3.70144 25.9019 3.56026C25.5056 3.32646 25.1231 3.46614 24.7399 3.40788C24.329 3.34588 23.9152 3.22412 23.5065 3.23981C22.1084 3.29359 20.7031 3.06726 19.3079 3.39144C18.8817 3.49004 18.414 3.37128 17.9893 3.58416C17.4596 3.84934 16.8637 3.80527 16.302 3.92478C15.8568 4.01965 15.3767 3.9442 14.9127 3.9442C14.5812 4.37446 13.9976 3.86951 13.6654 4.29752C13.4425 4.13543 13.135 4.3386 13.0039 4.25868C12.6811 4.06223 12.4655 4.38641 12.177 4.31769C11.8746 4.24598 11.5432 4.302 11.2772 4.302C11.047 4.43795 10.8678 4.57315 10.6682 4.65532C9.99428 4.93245 9.38886 5.41798 8.61005 5.38212C8.42355 5.66523 8.02795 5.50986 7.81449 5.81238C7.66659 6.02228 7.37809 6.13806 7.13767 6.26505C6.23792 6.73863 5.40156 7.29512 4.74223 8.09812C4.68613 8.16609 4.61984 8.2251 4.55791 8.28859C3.77765 9.08935 3.73903 9.09159 3.52848 10.0813C3.45053 10.4473 3.34052 10.8395 3.42285 11.2361C3.4294 11.2683 3.34708 11.3191 3.30628 11.3609C3.61664 11.6134 3.48477 11.9682 3.46437 12.2677C3.44179 12.6039 3.60571 12.8743 3.64578 13.179C3.67638 13.4098 3.7281 13.7198 3.61445 13.8692C3.41993 14.1247 3.48113 14.3757 3.48623 14.6229C3.5008 15.405 3.52266 16.1811 3.61227 16.9669C3.71572 17.8737 3.69751 18.8127 3.51391 19.7546C3.34708 20.6144 3.47749 21.5346 3.4804 22.428C3.4804 22.5102 3.49133 22.6051 3.5314 22.673C3.77036 23.0854 3.72228 23.5485 3.55981 23.922C3.47822 24.1087 3.81262 24.2491 3.52266 24.4038C3.43305 24.4516 3.48259 24.7877 3.4804 24.9916C3.47603 25.4682 3.39808 25.9642 3.5008 26.4161C3.61008 26.8964 3.45854 27.3341 3.46292 27.7928C3.49351 30.771 3.47822 33.7499 3.47822 36.7288C3.47822 36.9073 3.41702 37.1217 3.49206 37.2569C3.61227 37.4743 3.1613 37.5669 3.42576 37.7649C3.2327 38.0218 3.52411 38.234 3.48769 38.4894C3.44616 38.7815 3.47822 39.084 3.47822 39.3813C3.47822 40.9895 3.4957 42.5985 3.46729 44.2067C3.45927 44.6796 3.59697 45.1039 3.69605 45.5446C3.74049 45.7313 3.82209 45.9083 3.93355 46.2281ZM7.65566 57.0024C7.93178 57.3131 8.12484 57.5305 8.31791 57.7471C8.72589 58.0086 9.24534 57.7934 9.66206 58.0833C9.78227 58.1669 10.0715 58.1781 10.1575 58.0915C10.3855 57.8629 10.639 57.9645 10.8816 57.9234C11.1213 57.8831 11.3552 57.7643 11.5934 57.7568C12.3176 57.7344 13.0476 57.6978 13.7674 57.7628C14.4894 57.8278 15.1655 57.5514 15.8714 57.5731C16.4018 57.5895 16.9256 57.532 17.4625 57.7187C17.7627 57.8226 18.1561 57.7464 18.5328 57.6336C19.0792 57.4707 19.705 57.458 20.2667 57.7486C21.1686 57.6605 22.0917 57.9376 22.9812 57.5768C23.1065 57.526 23.3513 57.5103 23.3994 57.5798C23.6136 57.8913 23.9626 57.6254 24.1841 57.8143C24.4675 58.0556 24.8507 57.783 25.0823 57.9473C25.3927 58.1677 25.6448 57.7553 25.8932 57.9622C26.256 58.264 26.7339 58.1878 27.0385 58.0646C27.4151 57.9122 27.7597 57.9824 28.1131 57.9271C28.4948 57.8674 28.8766 57.8069 29.2591 57.7486C29.4485 57.7195 29.6539 57.8181 29.8222 57.6276C29.9147 57.523 30.0503 57.8442 30.2069 57.6164C30.2426 57.5641 30.5515 57.6694 30.7067 57.7546C30.9587 57.8935 31.1438 57.4924 31.3711 57.6881C31.5059 57.8039 31.5904 57.4618 31.7638 57.6896C31.8454 57.7964 32.1383 57.7389 32.3357 57.7464C32.5091 57.7531 32.6839 57.7479 32.8573 57.7479C33.0606 57.7479 33.2653 57.7284 33.4657 57.7531C33.709 57.783 33.9538 57.6717 34.2015 57.8793C34.431 58.0713 34.828 57.7725 35.0714 58.0818C35.3402 57.7927 35.7336 58.0496 36.009 57.8689C36.3346 57.6552 36.6763 57.8001 37.0056 57.7471C37.359 57.6903 37.7327 57.5253 38.0598 57.594C38.5071 57.6888 38.9064 57.6224 39.3428 57.523C39.3428 57.2026 39.3428 56.8836 39.3428 56.6379C39.0106 55.9073 38.6106 55.3224 37.7225 55.0662C36.6392 55.0662 35.3926 55.0625 34.1461 55.0685C33.8081 55.07 33.4948 54.9878 33.1691 54.9116C32.9258 54.8548 32.6628 54.7084 32.3524 54.869C32.0705 55.0147 31.715 55.0446 31.3893 55.0595C29.1811 55.1611 26.9656 54.8832 24.7603 55.2328C24.3261 55.3015 23.8737 55.1499 23.438 55.1051C22.7831 55.0371 22.0749 54.881 21.4222 55.238C21.3318 55.2873 21.165 55.2911 21.0827 55.2373C20.6339 54.946 20.1414 55.1125 19.6707 55.0662C19.1433 55.0139 18.6202 55.0363 18.0818 54.9333C17.4713 54.816 16.7879 54.7518 16.1417 55.0177C15.6827 55.2067 15.1414 54.9183 14.681 55.2119C14.5622 55.0184 14.4668 55.1193 14.3735 55.238C14.1856 54.9736 13.9095 55.0804 13.6654 55.07C13.3762 55.058 13.0855 55.0744 12.7955 55.0647C12.5515 55.0565 12.2812 55.1491 12.0896 54.9004C11.8411 55.1932 11.6233 54.7659 11.353 54.8728C11.1512 54.9527 10.8787 54.8354 10.6674 54.9026C10.4321 54.9781 10.2762 54.6405 10.0052 54.8586C9.86023 54.9744 9.55861 54.8974 9.32839 54.8855C8.96922 54.866 8.68145 55.011 8.43374 55.2575C7.93761 55.7534 7.59665 56.3211 7.65566 57.0024ZM36.2683 49.8337C35.7948 49.7941 35.2673 49.7351 34.7384 49.7112C34.5235 49.7015 34.2925 49.6283 34.082 49.8225C34.031 49.8695 33.8073 49.75 33.6645 49.8434C33.5458 49.6193 33.277 49.9913 33.172 49.7134C33.0832 50.0346 32.8916 49.697 32.7306 49.7754C32.598 49.8404 32.394 49.8389 32.2206 49.871C31.9678 49.9181 31.6975 49.9061 31.4396 49.877C31.17 49.8464 30.9085 49.7306 30.6396 49.7142C30.3621 49.697 30.0801 49.7605 29.7989 49.7769C29.6146 49.7874 29.4288 49.7866 29.2452 49.7754C28.964 49.759 28.6842 49.7112 28.403 49.7082C27.5616 49.6992 26.7194 49.7052 25.8772 49.7052C25.7031 49.7052 25.4204 49.7717 25.3745 49.6933C25.2222 49.4318 24.9767 49.7904 24.858 49.5663C24.7042 49.7478 24.4915 49.5327 24.289 49.6761C24.1309 49.7874 23.7775 49.6111 23.6223 49.7239C23.242 50.001 22.8457 49.8464 22.4618 49.8763C22.029 49.9099 21.5744 49.9547 21.1657 49.8479C20.9821 49.8001 20.7767 49.8441 20.5756 49.7299C20.3752 49.6163 20.0663 49.7052 19.8055 49.7052C19.544 49.7052 19.2832 49.7022 19.0216 49.706C18.7717 49.7097 18.5255 49.6753 18.3004 49.8718C18.2159 49.945 17.9645 49.9465 17.8851 49.8725C17.6075 49.6148 17.2884 49.7463 16.9897 49.703C16.5031 49.6328 16.0506 49.8389 15.5807 49.8748C15.0613 49.9144 14.5353 49.8643 14.0136 49.8897C13.5015 49.9144 13.0432 49.6298 12.5158 49.6753C12.3118 49.6933 12.0488 49.6604 11.8244 49.6208C11.5388 49.57 11.294 49.6918 11.0375 49.7254C10.6645 49.7739 10.2828 49.9353 10.2034 50.4074C10.1254 50.8705 9.85294 51.2985 9.94255 51.7855C10.3301 52.1545 10.7818 52.3525 11.2525 52.1523C11.4601 52.0641 11.6451 52.2277 11.8615 52.0544C12.024 51.9245 12.3649 52.0373 12.6258 52.0261C12.872 52.0156 13.103 52.0507 13.3536 51.8744C13.5313 51.7489 13.8621 51.8274 14.1207 51.8565C14.4187 51.8901 14.7108 52.0148 15.0074 52.0208C16.0229 52.0425 17.0422 52.0798 18.0548 52.0148C19.0901 51.9484 20.094 52.2173 21.1191 52.2083C21.4965 52.2053 21.8739 52.2076 22.2512 52.2076C22.5995 52.2076 22.9572 52.156 23.2938 52.2218C23.6376 52.289 23.948 51.9797 24.3006 52.1747C24.3349 52.1934 24.5345 52.0126 24.6583 52.1964C24.7698 51.9738 24.9009 52.1187 25.0277 52.1747C25.1363 51.911 25.3096 52.2628 25.3912 52.1486C25.5836 51.8782 25.6389 52.2554 25.8007 52.2203C26.0229 52.1717 26.2822 52.2688 26.4913 52.1971C27.2359 51.9401 27.9637 51.917 28.7046 52.2008C28.8321 52.2494 29.042 52.2696 29.1287 52.1971C29.4638 51.914 29.8412 52.0664 30.1981 52.0335C30.4284 52.0126 30.6637 52.0462 30.8939 52.0253C31.197 51.9977 31.9146 52.0604 32.2657 52.156C32.3962 52.1911 32.6074 52.2449 32.6621 52.1822C32.8296 51.988 33.0263 52.0171 33.2179 52.0335C34.1221 52.1127 35.0437 51.8453 35.9376 52.1964C36.0673 52.2472 36.2742 52.1784 36.4111 52.1007C36.6698 51.9543 36.9036 51.7616 37.0814 51.6346C37.0814 51.229 37.0814 50.937 37.0814 50.6673C36.833 50.4141 36.6071 50.1818 36.2683 49.8337Z" fill="#28282A"></path>
<path d="M38.1538 28.9696C37.5411 28.9696 36.9022 28.992 36.2655 28.9622C35.7948 28.9405 35.3286 28.8322 34.8572 28.7971C34.5556 28.7747 34.2707 28.8262 33.9647 28.9487C33.1954 29.2572 32.9186 29.1071 31.7645 29.0002C30.6492 28.8964 29.4988 28.8382 28.3899 29.2243C28.1058 29.3229 27.7517 29.3917 27.4793 29.3065C26.9511 29.1422 26.4389 28.9584 25.8772 28.9599C25.7934 28.9599 25.7089 28.8307 25.6295 28.7649C25.4772 28.8441 25.3629 28.9427 25.2376 28.9622C24.9658 29.0032 24.6933 28.93 24.4281 29.131C24.297 29.2303 23.9728 29.2326 23.8424 29.1332C23.4009 28.7956 22.845 29.131 22.397 28.809C22.2411 28.697 21.8812 28.6985 21.726 28.8105C21.4003 29.0466 21.0681 28.9607 20.7403 28.9644C19.4639 28.9786 18.1875 28.9569 16.9111 28.9771C16.4404 28.9846 15.9414 28.8269 15.5021 29.1467C15.4831 29.1608 15.4445 29.1519 15.4161 29.1481C15.0336 29.0891 14.6519 29.0301 14.2701 28.9696C13.9124 28.9136 13.5605 28.9875 13.1831 28.868C12.7781 28.7396 12.298 28.8501 11.8514 28.874C11.5446 28.8904 11.176 29.0622 10.948 28.9412C10.5801 28.7448 10.2311 28.8217 9.87411 28.7933C9.28836 28.7463 8.70261 28.7127 8.138 28.6753C7.69286 28.1106 7.08671 27.7737 6.83172 27.1119C6.73337 26.7997 6.83609 26.4598 6.63502 26.1274C6.4711 25.8562 6.77635 25.4252 6.45215 25.1377C6.71807 25.0271 6.3589 24.7552 6.57601 24.6327C6.40043 24.4743 6.60588 24.2577 6.47255 24.0501C6.36546 23.8835 6.47328 23.5854 6.43467 23.3554C6.39168 23.0984 6.56872 22.9259 6.6066 22.7122C6.68383 22.2812 6.60223 21.8487 6.4354 21.4513C6.27585 21.0719 6.13232 20.7148 6.40844 20.3316C6.43758 20.2905 6.44341 20.2226 6.43977 20.168C6.36254 18.9946 6.71807 17.8465 6.63429 16.6685C6.61972 16.4593 6.313 16.233 6.61389 16.0134C6.28823 15.7646 6.74066 15.5413 6.63356 15.2619C6.54468 15.0296 6.61535 14.7331 6.61535 14.4657C6.98399 13.7329 7.34243 12.9792 7.9952 12.4698C8.42431 12.1344 8.77692 11.6511 9.37141 11.5756C9.46321 11.2709 9.66429 11.7975 9.82894 11.5069C9.89159 11.3964 10.2828 11.5263 10.4759 11.4374C10.6653 11.3493 10.7833 11.4173 10.9502 11.4412C11.7137 11.551 12.4619 11.3702 13.2013 11.2096C13.7733 11.0849 14.2424 11.0527 14.8427 11.2253C14.9484 11.2559 15.0613 11.2746 15.1706 11.2731C15.6019 11.2664 16.0288 11.2895 16.4404 11.4374C16.8761 11.1013 17.3773 11.3575 17.8407 11.2738C17.9835 11.2485 18.1977 11.123 18.2509 11.1775C18.4599 11.3889 18.5037 11.04 18.672 11.0834C18.8184 11.1207 19.0005 11.061 19.1535 11.0049C19.5112 10.875 19.8464 10.9302 20.2128 10.999C20.8088 11.1118 21.4025 11.5749 22.0385 11.102C22.0954 11.0595 22.228 11.0625 22.2928 11.102C22.7977 11.4105 23.3506 11.2753 23.8766 11.2604C24.4077 11.2455 24.9636 11.4434 25.4751 11.1372C26.0965 11.4173 26.7507 11.2283 27.3889 11.2656C27.6279 11.2798 27.8618 11.294 28.124 11.1461C28.3593 11.0132 28.7775 11.0318 29.0296 11.1603C29.431 11.365 29.8193 11.2014 30.204 11.2746C30.3213 10.9766 30.6091 11.3441 30.7919 11.1132C30.8561 11.0318 31.1606 11.1678 31.3573 11.1775C32.1339 11.2156 32.9105 11.2544 33.6879 11.2716C34.3836 11.2873 35.0845 11.3269 35.7752 11.2626C36.7572 11.1715 37.6242 11.5607 38.4759 11.9177C39.1782 12.212 39.694 12.8275 40.075 13.5237C40.1282 13.6201 40.2214 13.7135 40.228 13.8136C40.2542 14.1833 40.2353 14.5419 40.3926 14.9071C40.534 15.235 40.2506 15.669 40.5653 15.994C40.2804 16.3346 40.456 16.6453 40.5624 17.0054C40.6629 17.3467 40.5362 17.7456 40.7496 18.0907C40.8021 18.1759 40.7955 18.3417 40.7518 18.4403C40.3992 19.2313 40.6717 20.0627 40.5835 20.8695C40.8232 21.2653 40.7875 21.7105 40.7474 22.1341C40.6994 22.6353 40.558 23.1261 40.4866 23.6258C40.4473 23.9014 40.4109 24.1995 40.4721 24.4631C40.6272 25.1354 40.6294 25.8899 40.4109 26.5726C40.3606 26.7302 40.3679 26.9371 40.2695 27.0439C39.753 27.6071 39.2161 28.1517 38.6726 28.688C38.5604 28.7971 38.3899 28.8441 38.1538 28.9696ZM36.6159 26.0826C36.9721 25.925 37.2949 25.7995 37.3524 25.4028C37.4581 24.6693 37.681 23.95 37.622 23.1955C37.3211 22.8743 37.477 22.4739 37.453 22.1079C37.4297 21.7524 37.434 21.3931 37.453 21.0368C37.4661 20.7873 37.4319 20.5542 37.5914 20.2883C37.7655 19.9992 37.8668 19.5383 37.7692 19.2284C37.5601 18.5613 37.6643 17.901 37.622 17.2392C37.6147 17.1226 37.6577 16.9449 37.5994 16.8978C37.1747 16.5549 37.7007 16.1336 37.4931 15.7841C37.8296 15.4307 37.5069 15.1447 37.3692 14.875C37.2104 14.5628 36.8782 14.3842 36.5583 14.329C36.2596 14.2767 35.9449 14.1489 35.6768 14.1601C34.7727 14.1968 33.8584 13.9443 32.9557 14.2916C32.657 14.4066 32.2629 14.3461 31.9328 14.2707C31.1482 14.0907 30.3279 14.0757 29.533 14.2976C29.2984 14.3633 29.0048 14.2012 28.8263 14.4881C28.7855 14.4477 28.7345 14.3656 28.7047 14.373C28.1626 14.5097 27.6388 14.2221 27.0982 14.3066C26.9657 14.3275 26.7762 14.3305 26.6924 14.2528C26.3406 13.9249 25.824 14.3723 25.5064 13.9629C25.1494 14.1519 24.7429 14.1116 24.3633 14.2169C23.9983 14.3178 23.5488 14.3663 23.2108 14.2348C22.7459 14.0541 22.3037 14.2117 21.86 14.134C21.6153 14.4552 21.2721 14.3013 20.9749 14.3058C19.9017 14.323 18.8279 14.3252 17.7547 14.3051C17.4291 14.2991 17.1078 14.3715 16.7661 14.1616C16.5308 14.0175 16.0937 14.0287 15.8365 14.1579C15.4161 14.3693 15.0059 14.2946 14.5914 14.3058C14.3138 14.3133 14.0355 14.2334 13.7572 14.2304C13.5328 14.2281 13.3084 14.2976 13.0826 14.3088C12.7934 14.3237 12.5027 14.3125 12.2127 14.3125C11.8353 14.3125 11.4536 14.2722 11.082 14.3215C10.4038 14.4111 9.71383 14.5202 9.39764 15.3852C9.47851 16.0717 9.25339 16.8687 9.56666 17.6351C9.62786 17.7852 9.64243 18.0556 9.55428 18.1505C9.30949 18.4142 9.40201 18.71 9.41003 18.9856C9.42605 19.5884 9.42751 20.1837 9.53315 20.7948C9.63806 21.405 9.39546 22.0795 9.3022 22.7249C9.28253 22.8639 9.18855 23.085 9.23809 23.1253C9.48142 23.3233 9.26213 23.5862 9.37287 23.8245C9.49672 24.0911 9.4195 24.4669 9.39691 24.7926C9.3685 25.2056 9.43043 25.5866 9.6315 25.8831C10.4642 26.2379 11.3006 26.1416 12.1144 26.0908C12.95 26.0385 13.7667 26.1909 14.5608 26.3276C15.4139 26.4747 16.1905 26.5487 16.9686 26.1259C17.0371 26.0885 17.1369 26.1102 17.2229 26.1102C17.8902 26.1095 18.5598 26.0766 19.2242 26.1192C19.8828 26.161 20.5115 25.9974 21.1548 25.9339C21.6043 25.8899 22.0422 26.0542 22.4764 26.0818C23.1124 26.1214 23.755 26.1692 24.415 25.969C24.8543 25.8361 25.3927 25.9287 25.91 26.0632C26.4149 26.1946 27.0298 26.2559 27.5849 25.9705C27.7707 25.8749 28.0366 25.9197 28.2632 25.9354C28.5072 25.9526 28.7892 25.8174 28.9815 26.0923C29.1709 25.8383 29.3414 26.1229 29.5272 26.1177C30.3097 26.0968 31.095 26.1408 31.8767 26.0998C32.6774 26.0579 33.4365 26.3985 34.243 26.2947C35.0546 26.1916 35.8713 26.1468 36.6159 26.0826Z" fill="#28282A"></path>
<path d="M35.1888 44.0069C34.4748 43.5288 33.8781 43.1352 33.2873 42.7325C32.6877 42.3239 32.3271 41.8317 32.1806 41.0265C31.9934 39.9956 32.1099 38.9857 32.0575 37.9691C32.0298 37.4261 32.4167 36.4415 32.8072 35.9739C33.5597 35.0731 34.4551 34.3627 35.5814 34.0258C35.8474 33.9467 36.1482 33.9653 36.4309 33.9818C36.6458 33.9945 36.8571 33.6964 37.0698 33.9743C38.1874 33.8794 39.0398 34.533 39.9396 35.0499C40.0357 35.1052 40.1312 35.1851 40.1938 35.2778C40.8 36.1764 41.3988 37.0802 41.978 37.9504C41.978 38.0871 41.9671 38.1783 41.9795 38.2657C42.1164 39.2031 41.7485 40.0711 41.6232 40.9719C41.6014 41.128 41.5154 41.2879 41.4236 41.4194C41.0848 41.9027 40.7541 42.3957 40.3774 42.8468C39.7582 43.5886 39.0311 43.9763 38.0432 44.1637C37.0524 44.352 37.0545 44.343 35.8138 44.0151C35.5982 43.9583 35.3571 44.0069 35.1888 44.0069ZM37.5201 40.9204C38.2392 40.7038 38.6297 40.1749 38.8417 39.478C39.0588 38.7616 38.7047 38.1768 38.4104 37.5314C38.1386 37.4806 37.8479 37.4223 37.5558 37.3723C37.4188 37.3484 37.2673 37.3693 37.1427 37.3185C36.3719 37.0063 35.7264 37.1773 35.1858 37.813C35.1297 37.8787 35.0562 37.9288 35.0095 37.9691C34.9942 40.0427 34.9942 40.0427 35.3738 40.7202C35.5807 40.7852 35.8743 40.8106 36.0819 40.9607C36.3034 41.1213 36.5344 40.901 36.7209 41.0668C36.9628 40.8136 37.2702 41.0145 37.5201 40.9204Z" fill="#28282A"></path>
<path d="M5.46939 36.8487C5.77538 36.535 6.09521 36.2302 6.38808 35.9008C7.01754 35.1919 7.7388 34.681 8.67133 34.4315C9.38821 34.2395 10.1007 33.9191 10.8314 33.996C12.2273 34.1432 13.2509 34.4584 14.2971 35.9897C14.7896 36.7105 15.065 37.459 15.1539 38.3098C15.1648 38.4181 15.2143 38.5212 15.2435 38.628C15.336 38.9611 15.3571 39.2495 15.1816 39.6058C14.9127 40.1526 14.6825 40.7501 14.7998 41.3193C14.3991 41.8213 14.0407 42.2687 13.6851 42.7184C13.5904 42.8387 13.53 43.0142 13.4105 43.0822C12.9515 43.3414 12.7096 43.924 12.1224 43.9845C11.9148 44.3491 11.4296 43.9778 11.2227 44.3423C10.3011 44.3259 9.36125 44.4671 8.49429 43.9868C8.11618 43.7769 7.72641 43.5894 7.34247 43.3907C6.41577 42.9119 5.91526 42.0581 5.59179 41.1154C5.44244 40.6799 5.19328 40.2512 5.21878 39.7537C5.2399 39.3421 5.13354 38.9455 5.04757 38.5473C4.95723 38.129 5.21222 37.7824 5.2858 37.3985C5.31859 37.2364 5.38998 37.0833 5.46939 36.8487ZM8.18685 39.9113C8.39739 40.7875 8.85565 40.9578 9.43629 40.9533C9.58054 40.9526 9.72625 41.043 9.87123 41.0908C9.95866 40.7591 10.1699 41.2656 10.3186 41.0191C10.3732 40.9287 10.6311 40.9473 10.7965 40.9503C11.0937 40.9548 11.3159 40.7882 11.5345 40.6284C11.7203 40.4924 11.8769 40.3147 12.0343 40.1675C12.0896 39.7059 12.1865 39.2838 12.1814 38.8633C12.1705 37.8661 11.3239 36.9301 10.3798 36.839C9.92879 36.7957 9.51425 37.0257 9.15216 37.2237C8.77842 37.4276 8.50959 37.8265 8.34713 38.2851C8.13658 38.8797 8.20506 39.4825 8.18685 39.9113Z" fill="#28282A"></path>
</symbol></defs><use data-v-1e92d442="" xlink:href="#train--sprite" fill="#28282A"></use></svg>