<svg xmlns:xlink="http://www.w3.org/1999/xlink" xmlns="http://www.w3.org/2000/svg" viewBox="0 0 26 23" preserveAspectRatio="xMidYMid" class="BaseIcon-icon" data-v-1e92d442="" width="26"  height="23" ><defs><symbol xmlns="http://www.w3.org/2000/svg" viewBox="0 0 26 23" id="burger-open--sprite">
<path d="M24.444 19.3019L23.7453 19.43C24.0618 19.781 24.5297 19.8579 24.5335 20.4152C24.5335 20.9277 24.4074 21.2441 23.9219 21.4004C22.6608 21.8116 21.3719 21.5926 20.1512 21.4004C19.4538 21.2902 18.8901 21.6963 18.2595 21.5131C17.9202 21.4013 17.5695 21.329 17.2141 21.2979C16.9064 21.2825 16.5936 21.3799 16.2847 21.435C16.127 21.4632 15.958 21.5631 15.818 21.5349C14.7158 21.271 13.6288 21.5721 12.5392 21.599C11.1986 21.6323 9.8581 21.6489 8.52007 21.7207C7.5112 21.7732 6.49476 21.9872 5.48336 21.9769C4.11507 21.959 2.7329 22.1576 1.37596 21.7566C0.619303 21.5324 -0.011251 19.7413 0.582726 18.9598C0.691796 18.8381 0.84343 18.7645 1.0052 18.7549C2.7783 18.6857 4.5514 18.6344 6.32451 18.5793C8.91354 18.4999 11.5013 18.3872 14.0891 18.3513C16.1068 18.3231 18.1132 18.4154 20.1234 18.4064C20.9558 18.4064 21.7868 18.2514 22.6204 18.2155C22.9098 18.2042 23.1964 18.2771 23.4464 18.4256C23.7718 18.6331 24.0454 18.9445 24.444 19.3019ZM17.8106 19.4441L17.7929 19.2443C17.6252 19.1725 17.4449 19.0213 17.2885 19.0444C16.4562 19.1725 15.6339 19.3749 14.7991 19.4774C14.0311 19.5722 13.2517 19.5735 12.4774 19.6145V19.7593H20.8675C19.9078 19.0098 18.8371 19.4825 17.8106 19.4441Z"></path>
<path d="M24.6888 10.0429L24.0507 9.91477C24.1162 10.0634 24.1339 10.1979 24.1969 10.2261C24.6068 10.408 24.8275 10.7744 24.9536 11.1549C25.0494 11.4534 24.994 11.816 24.9423 12.1388C24.9309 12.2093 24.6421 12.29 24.4946 12.2669C24.2697 12.2412 24.0549 12.1579 23.8703 12.0248C23.1641 11.4547 22.4352 11.7391 21.7038 11.9159C21.6117 11.9377 21.4881 12.044 21.4414 12.0069C20.7125 11.52 20.0315 12.0069 19.3291 12.0799C19.1828 12.094 19.0227 11.9787 18.8713 11.9146C18.6796 11.8339 18.493 11.7442 18.2408 11.7993L18.9142 11.9403C18.377 12.1132 18.0188 12.3374 17.6695 12.3246C16.1385 12.2554 14.6063 12.167 13.0766 12.2541C11.4195 12.3489 9.76494 12.4937 8.11164 12.6308C6.67651 12.7499 5.2439 12.9383 3.80625 12.9998C2.88313 13.0395 1.94865 12.9293 1.03183 12.8332C0.779024 12.7836 0.553891 12.639 0.401285 12.4284C-0.216653 11.5598 0.022959 10.6194 0.286528 9.7021C0.320578 9.58424 0.576585 9.46125 0.7317 9.4574C2.52498 9.42409 4.31952 9.44075 6.1128 9.39079C8.2718 9.32929 10.4283 9.18068 12.586 9.13456C15.9582 9.06153 19.3329 9.06922 22.7038 8.97954C23.3987 8.96161 23.9826 9.00901 24.4441 9.56374C24.5386 9.71629 24.6204 9.87656 24.6888 10.0429ZM9.27815 10.2812H23.2511C22.9585 9.61626 22.4945 9.73926 22.1313 9.75079C17.9991 9.8789 13.8673 10.0194 9.73593 10.1723C9.57984 10.1946 9.42588 10.2302 9.27564 10.2786L9.27815 10.2812ZM20.5019 11.1459H17.986L17.9797 11.1139L18.7679 11.0511C18.0869 10.7565 17.5976 10.9679 17.5774 11.5136L21.4263 11.324L20.942 11.0985L21.9295 10.8167L21.9787 10.9358L21.5285 11.4585L23.3772 11.2689V11.1677L22.3683 11.0973V10.9077L23.3142 10.7526L23.2915 10.6566H20.2749L20.5019 11.1459Z"></path>
<path d="M23.1491 0.746732L22.4567 1.11058C22.6472 1.26688 22.7645 1.43727 22.9133 1.47442C23.4808 1.6115 23.6523 1.94204 23.5249 2.49933C23.4921 2.6441 23.6737 2.84652 23.6308 2.98232C23.4618 3.52552 22.9221 3.77022 22.2436 3.48837C21.0985 3.01307 19.8841 3.03997 18.797 3.32439C16.0226 4.05207 13.2079 3.78816 10.4133 3.90859C8.2694 4.00083 6.11796 3.96495 3.97158 3.9278C3.07699 3.89231 2.18584 3.79472 1.30436 3.6357C0.499778 3.50759 -0.147165 1.99713 0.184503 1.11058C0.530044 0.186878 0.51869 0.300899 1.51244 0.396984C3.06989 0.54944 4.64249 0.57506 6.20877 0.57506C8.5872 0.57506 10.9669 0.526379 13.3453 0.457198C15.7237 0.388016 18.1186 0.272711 20.5046 0.162533C20.9346 0.143316 21.3873 -0.0667872 21.7821 0.0216114C22.2335 0.127946 22.6358 0.463601 23.1491 0.746732ZM12.1359 1.25919V1.41805C15.1626 1.4283 18.1892 1.5641 21.2158 1.28994V1.03371L12.1359 1.25919ZM19.2069 2.51086L18.8424 2.54161V3.12196H19.4881L19.2069 2.51086Z"></path>
</symbol></defs><use xlink:href="#burger-open--sprite" data-v-1e92d442="" fill="#D4CEBD"></use></svg>