<svg xmlns:xlink="http://www.w3.org/1999/xlink" xmlns="http://www.w3.org/2000/svg" viewBox="0 0 64 31" preserveAspectRatio="xMidYMid" class="BaseIcon-icon" data-v-1e92d442="" width="64"  height="31" ><defs><symbol xmlns="http://www.w3.org/2000/svg" viewBox="0 0 64 31" id="arrow--sprite">
<path d="M59.7632 12.563C60.1264 12.8639 60.4896 13.1648 60.8891 13.5032C60.7075 13.6348 60.5986 13.7289 60.4533 13.8417C61.8334 14.4434 61.4158 15.6468 61.3613 16.8502C56.3129 16.8502 51.2282 16.8502 46.1435 16.8502C46.1435 16.7186 46.1254 16.5682 46.1254 16.4366C46.7973 16.399 47.451 16.3613 48.1229 16.3049C48.1229 16.2485 48.1229 16.1733 48.1048 16.1169C46.7246 16.1169 45.3445 16.1169 43.9462 16.1169C43.9462 16.1545 43.9281 16.1921 43.9281 16.2297C44.3821 16.2861 44.8179 16.3613 45.3445 16.4366C44.7271 16.9066 36.301 16.9819 34.7756 16.4554C35.3023 16.4554 35.8289 16.4554 36.3555 16.4554C36.3555 16.3613 36.3555 16.2485 36.3555 16.1545C32.0154 16.1545 27.6571 16.1545 23.3169 16.1545C23.3169 16.2673 23.2988 16.3802 23.2988 16.5118C24.2431 16.5118 25.1874 16.5118 26.1317 16.5118C27.1123 16.5118 28.0929 16.5118 29.0554 16.5118C29.0554 16.587 29.0735 16.6622 29.0735 16.7374C28.0566 16.8126 27.0215 16.9443 26.0046 16.9819C22.9174 17.0759 19.8303 17.1323 16.7613 17.1887C15.1451 17.2263 13.5108 17.1887 11.8946 17.2451C8.98902 17.3391 6.06533 17.4708 3.1598 17.5836C2.9782 17.5836 2.7966 17.6024 2.61501 17.5648C1.99758 17.3955 1.14408 17.3955 0.81721 16.9819C0.127146 16.0793 -0.181567 14.9135 0.108986 13.7289C0.163465 13.4656 0.653774 13.1272 0.944327 13.1272C6.55564 13.0707 12.167 13.0519 17.7601 13.0331C18.6499 13.0331 19.5579 13.0331 20.4477 13.0331C20.4477 13.1648 20.4477 13.2776 20.4477 13.4092C18.9223 13.4092 17.4151 13.4092 15.8897 13.4092C15.8897 13.522 15.8897 13.6348 15.8897 13.7477C16.8884 13.7477 17.8872 13.7101 18.886 13.7665C20.6838 13.8605 22.4816 14.0673 24.2794 14.1425C25.4961 14.1989 26.7309 14.1237 27.9658 14.0861C29.9089 14.0297 31.8519 13.9357 33.795 13.9169C36.0468 13.8981 38.2986 14.0297 40.5504 13.9921C43.4922 13.9545 46.4341 13.8041 49.3578 13.7289C50.3566 13.7101 51.3735 13.7289 52.3904 13.6725C51.6459 13.3152 50.9922 12.9767 50.066 13.3716C49.5757 13.5784 48.8675 13.2024 48.2682 13.2212C47.1968 13.24 46.1254 13.3716 45.054 13.428C44.3276 13.4656 43.583 13.4844 42.8567 13.4656C41.9305 13.428 41.0407 13.1272 40.0238 13.3152C38.7707 13.5408 37.4269 13.3528 36.1194 13.3152C34.5577 13.2588 32.996 13.1083 31.4524 13.1272C28.0929 13.146 24.7515 13.2588 21.392 13.334C21.1923 13.334 20.9744 13.334 20.7746 13.1836C33.7405 12.7511 46.7065 12.6947 59.7632 12.563ZM35.6473 15.2331C35.6473 15.1391 35.6473 15.0451 35.6473 14.9511C33.2321 14.9511 30.835 14.9511 28.4198 14.9511C28.4198 15.0451 28.4198 15.1391 28.4198 15.2331C30.8168 15.2331 33.2321 15.2331 35.6473 15.2331ZM55.641 13.7853C54.7149 13.5408 53.7706 13.2964 52.8444 13.0519C52.8263 13.146 52.8081 13.2588 52.79 13.3528C53.6253 14.0673 54.6785 13.7477 55.641 13.7853Z"></path>
<path d="M49.278 1.75639C52.921 6.09107 57.1034 9.85541 61.4326 13.4727C62.7155 14.5289 62.7736 15.3711 61.5747 16.3917C60.7483 17.0994 60.3239 17.1643 59.5814 16.2573C58.5119 14.9575 57.1026 13.9379 55.8387 12.8028C54.3338 11.4588 52.8289 10.1149 51.324 8.77097C50.5859 8.12968 49.7975 7.56873 49.1559 6.86078C48.186 5.79135 47.265 4.67292 46.4881 3.47017C46.2387 3.0897 46.2406 2.30754 46.4468 1.86082C46.6884 1.31876 47.1583 0.548024 47.9286 0.796904C48.4226 0.932369 48.8232 1.43156 49.278 1.75639Z"></path>
<path d="M47.9192 26.8722C52.2471 23.2235 56.0055 19.0345 59.6172 14.6985C60.6717 13.4137 61.5126 13.3555 62.5316 14.5562C63.2382 15.3839 63.303 15.809 62.3974 16.5527C61.0996 17.6238 60.0817 19.0353 58.9483 20.3012C57.6064 21.8084 56.2646 23.3157 54.9228 24.823C54.2825 25.5623 53.7224 26.3519 53.0156 26.9945C51.9478 27.9659 50.8311 28.8884 49.6303 29.6664C49.2504 29.9162 48.4695 29.9144 48.0234 29.7078C47.4822 29.4658 46.7127 28.9952 46.9612 28.2237C47.0964 27.7289 47.5948 27.3277 47.9192 26.8722Z"></path>
</symbol></defs><use xlink:href="#arrow--sprite" data-v-1e92d442="" fill="#D4CEBD"></use></svg>