<svg xmlns:xlink="http://www.w3.org/1999/xlink" xmlns="http://www.w3.org/2000/svg" data-v-1e92d442="" viewBox="0 0 55 61" preserveAspectRatio="xMidYMid" class="BaseIcon-icon" width="55"  height="61" ><defs><symbol xmlns="http://www.w3.org/2000/svg" viewBox="0 0 55 61" fill="none" id="disabled--sprite">
<path d="M54.34 47.8114C54.2855 47.8541 54.1839 47.8976 54.1839 47.9404C54.188 48.7316 53.7095 49.2668 53.1534 49.7028C52.6586 50.0906 52.0826 50.3792 51.5285 50.6876C51.2675 50.8329 50.9799 51.0041 50.6957 51.0217C49.9241 51.0706 49.3257 51.5325 48.6462 51.7933C47.9673 52.0534 47.3089 52.3705 46.658 52.6952C46.2954 52.8758 45.9656 53.1217 45.7577 53.2521C45.1538 53.3771 44.6931 53.4463 44.2501 53.5754C44.0367 53.6379 43.8568 53.8131 43.6053 53.9734C43.4506 53.9713 43.2468 53.9618 43.0069 53.8694C42.7145 53.7567 42.3914 53.6372 42.0316 53.644C41.581 53.6528 41.2927 53.2263 40.9097 53.03C40.8225 52.9852 40.7618 52.8901 40.7182 52.8473C40.3215 52.8466 40.0673 53.0117 39.8417 53.2405C39.6134 53.4728 39.3884 53.7085 39.1492 53.9285C38.6605 54.3775 38.2373 54.8882 37.6743 55.2699C37.341 55.496 37.0725 55.8383 36.8305 56.2023C36.5531 56.6193 36.1721 56.9963 35.5846 57.0975C35.2561 57.1545 34.9276 57.3814 34.6652 57.6082C34.3244 57.9016 33.9073 58.0218 33.5399 58.2412C33.1044 58.5013 32.6395 58.7037 32.2183 59.0059C31.7344 59.3536 31.1046 59.4535 30.5199 59.6124C29.7674 59.8168 29.0749 60.1965 28.3048 60.3663C27.857 60.4654 27.4146 60.6406 26.9587 60.6332C26.714 60.6291 26.5211 60.788 26.2526 60.7221C26.0072 60.6624 25.7196 60.788 25.4483 60.8118C25.19 60.8342 24.9283 60.7697 24.6918 60.9673C24.612 61.0339 24.4287 60.9782 24.2931 60.9782C23.6135 60.9782 22.934 60.9965 22.2552 60.9707C21.8687 60.9558 21.4864 60.8491 21.0992 60.8213C20.721 60.7941 20.3229 60.8838 19.9624 60.7989C19.4703 60.6827 18.9843 60.5333 18.4868 60.4321C18.3893 60.4124 18.2959 60.3275 18.2046 60.3337C17.2899 60.3975 16.5068 59.9934 15.7278 59.6199C15.2098 59.3713 14.7102 59.1302 14.229 59.1852C13.7001 58.9407 13.2844 58.6602 12.8291 58.559C12.1455 58.4069 11.635 58.0055 11.0945 57.6225C10.4736 57.1817 9.86152 56.7402 9.31218 56.201C9.03273 55.9266 8.57676 55.837 8.3055 55.4994C8.25029 55.4308 8.054 55.4322 8.04378 55.3779C7.9654 54.9697 7.5435 54.842 7.36698 54.5174C7.28178 54.3605 7.17546 54.207 7.04937 54.0813C6.60294 53.6365 6.28056 53.0884 5.8723 52.6286C5.52129 52.234 5.27252 51.745 4.77225 51.4401C4.27198 51.1324 3.97209 50.5585 3.67083 50.0437C3.31437 49.4359 3.12899 48.7357 2.65189 48.1869C2.54556 48.0647 2.51966 47.8623 2.48422 47.6911C2.34382 47.0215 2.11481 46.3749 1.95669 45.708C1.7638 44.893 1.52048 44.0529 1.0134 43.3119C1.0134 42.8535 1.00726 42.3659 1.01612 41.8782C1.02021 41.6507 0.930245 41.3947 1.16743 41.2181C0.930927 41.0707 1.04748 40.8323 1.01067 40.632C0.969095 40.4085 0.876401 40.1912 0.857318 39.9671C0.830055 39.6438 0.864133 39.3165 0.845049 38.9925C0.831418 38.765 0.887988 38.547 0.729864 38.3052C0.611271 38.1245 0.656255 37.8196 0.770758 37.55C1.06588 36.8566 1.29011 36.1292 1.17016 35.3617C1.07201 34.7342 1.36781 34.1949 1.52798 33.6333C1.59205 33.4085 1.65952 33.1952 1.66634 32.9623C1.66838 32.8957 1.96078 31.786 1.99213 31.7153C2.22318 31.1876 2.44265 30.6545 2.68733 30.1336C3.02198 29.4211 3.43637 28.7474 3.9087 28.1233C4.19155 27.7491 4.14384 27.2159 4.57936 26.9252C4.73749 26.82 4.78929 26.5666 4.93719 26.4342C5.35363 26.062 5.61807 25.5839 5.90093 25.1207C6.19468 24.6399 6.47003 24.1943 6.97917 23.8554C7.55509 23.4717 8.00833 22.8978 8.49225 22.3844C9.01706 21.8282 9.67204 21.4607 10.3107 21.0661C10.7401 20.8006 11.1606 20.5092 11.6554 20.3809C12.1427 20.2539 12.4733 19.9211 12.7834 19.5686C13.2353 19.0558 13.7935 18.8059 14.4642 18.6945C14.9031 18.6219 15.3148 18.395 15.7441 18.2531C16.1763 18.1098 16.6152 17.9868 17.1502 17.8245C17.2013 17.7682 17.3295 17.6289 17.4774 17.4673C17.4774 17.343 17.4774 17.1827 17.4774 16.9817C16.9335 16.5633 16.5518 15.9331 15.9036 15.5609C15.6617 15.4223 15.5431 15.0733 15.3625 14.8233C15.2561 14.676 15.1594 14.513 15.0251 14.3961C14.4716 13.916 14.4096 13.7543 14.2065 13.0371C14.1063 12.6847 13.9564 12.3335 13.7874 11.9919C13.4098 11.2286 13.0785 10.3864 13.2728 9.54288C13.4513 8.76729 13.3307 8.00867 13.4173 7.28401C13.6483 6.82829 13.8548 6.40993 13.91 5.90668C13.9755 5.30698 14.075 4.64684 14.4199 4.18162C14.76 3.72251 14.9971 3.09293 15.646 2.90344C16.3282 2.25621 17.1277 1.7577 17.8625 1.17702C18.482 0.687352 19.1574 0.370865 19.9603 0.332832C20.2657 0.31857 20.5915 0.284612 20.8654 0.163722C21.2498 -0.00538835 21.6343 0.0170238 22.0262 0.0149864C22.4337 0.0122697 22.8434 0.0380777 23.2482 0.00887395C23.8882 -0.0373087 24.4825 0.10056 25.0721 0.33419C25.6126 0.548125 26.166 0.699577 26.6458 1.07311C26.9934 1.34342 27.4535 1.47042 27.8624 1.6633C28.7144 2.06468 29.2637 2.73773 29.766 3.52623C30.4101 4.53682 30.7407 5.67644 31.2798 6.7271C31.5265 7.20726 31.6465 7.77028 31.397 8.37202C31.2566 8.7116 31.3221 9.16731 31.3902 9.55443C31.487 10.1025 31.4216 10.0903 31.382 10.8211C31.3452 11.4955 30.9336 12.013 30.8518 12.646C30.8395 12.7397 30.7782 12.8368 30.7155 12.9122C30.5314 13.1336 30.4122 13.372 30.3563 13.6613C30.3195 13.8501 30.2057 14.0409 30.0789 14.1924C29.689 14.6603 29.2719 15.1052 28.8752 15.567C28.4942 16.0105 27.9912 16.2896 27.508 16.5959C27.3662 16.6856 27.2163 16.763 27.005 16.8825C27.1495 17.0381 27.2361 17.1311 27.3438 17.2472C27.4842 17.2472 27.6443 17.2438 27.8038 17.2479C27.9858 17.2527 28.1889 17.1895 28.3129 17.3946C28.4329 17.2561 28.5488 17.2452 28.6585 17.4055C28.7798 17.1766 28.9039 17.4068 29.0129 17.396C29.3741 17.3607 29.7586 17.5535 30.1048 17.2798C30.19 17.2126 30.3924 17.2017 30.4906 17.2561C30.9431 17.5067 31.427 17.3668 31.8953 17.4116C32.3628 17.4564 32.8529 17.2751 33.3007 17.5637C33.364 17.6045 33.5338 17.5719 33.5931 17.5128C33.7566 17.3478 33.9475 17.4136 34.1247 17.413C35.3201 17.4062 36.5156 17.4096 37.7111 17.4096C37.8467 17.4096 38.0819 17.3722 38.1009 17.4197C38.2591 17.8137 38.5787 17.2921 38.7409 17.5481C39.0681 17.2921 39.4573 17.3865 39.8028 17.4272C40.1716 17.4707 40.5328 17.6581 40.8184 17.9053C41.0876 18.1376 41.3336 18.4147 41.5258 18.7129C41.7555 19.0694 41.9675 19.4545 42.0956 19.8559C42.2401 20.3075 42.4337 20.7673 42.1283 21.2726C42.0084 21.4716 42.0377 21.8282 42.1243 22.0679C42.2858 22.5175 42.3526 22.9406 42.1501 23.3841C42.4644 23.4629 41.9191 23.6992 42.2204 23.8065C42.236 23.812 42.1338 24.1067 42.1133 24.2697C42.0936 24.43 42.1093 24.5944 42.1093 24.7567C42.1093 24.9462 42.1256 25.1377 42.1058 25.3251C42.065 25.7102 42.1876 26.098 41.9709 26.4906C41.8782 26.6583 42.0288 26.9836 42.1154 27.22C42.279 27.6676 42.3539 28.1416 42.7131 28.5247C42.9619 28.7888 43.18 29.1671 43.2263 29.5183C43.3661 30.5771 43.8861 31.4674 44.3353 32.3979C44.7053 33.1653 45.1245 33.9063 45.2813 34.7743C45.4012 35.4385 45.8402 36.0022 46.121 36.6175C46.3915 37.209 46.761 37.7592 46.8523 38.4322C46.8836 38.6638 47.0799 38.8736 47.2415 39.1664C47.3423 39.2071 47.5427 39.2581 47.7124 39.3606C48.1016 39.5956 48.5187 39.745 48.9645 39.6717C49.432 39.5942 49.8689 39.7538 50.2765 39.87C50.9771 40.0696 51.5415 40.5172 51.7357 41.2948C51.7773 41.4619 51.8809 41.6134 51.9531 41.773C52.0677 42.0256 52.2074 42.2511 52.2435 42.554C52.2796 42.8603 52.4384 43.2155 52.6627 43.4186C52.9114 43.6434 52.7778 43.9938 53.0355 44.1704C52.9312 44.8102 53.4403 45.2503 53.5998 45.8106C53.732 46.2744 53.9876 46.7288 54.1812 47.1913C54.2044 47.247 54.2855 47.2789 54.34 47.3217C54.34 47.486 54.34 47.6484 54.34 47.8114ZM36.0283 35.6741C36.1217 35.8643 36.2096 36.0735 36.3221 36.2684C36.6145 36.7717 36.9559 37.2505 37.2054 37.7734C37.4521 38.2909 37.6252 38.8438 37.8508 39.3749C38.0662 39.8815 38.2884 40.3861 38.5153 40.8874C38.6448 41.1733 38.5855 41.5387 38.7559 41.7573C39.1553 42.2715 39.3632 42.8617 39.6038 43.4444C39.9964 44.3938 40.5969 45.2645 40.7005 46.324C40.7025 46.3451 40.7523 46.3614 40.7536 46.3817C40.7761 46.7953 41.1121 47.0473 41.2696 47.3882C41.5633 48.0246 41.7964 48.6909 42.1174 49.3116C42.4085 49.8746 42.784 50.3955 43.0975 50.8954C43.3947 50.8954 43.6114 50.8954 43.7178 50.8954C44.2412 50.6523 44.657 50.3568 45.1129 50.2692C45.9322 50.113 46.6424 49.7307 47.3246 49.3164C47.5979 49.1507 47.893 49.0454 48.1623 48.9781C48.4676 48.9021 48.7423 48.8111 49.0129 48.6583C49.1846 48.5611 49.4157 48.5611 49.5772 48.4545C50.1054 48.1054 50.8136 48.0912 51.2307 47.5737C51.2941 46.9393 51.1319 46.398 50.7665 45.8798C50.605 45.651 50.498 45.3521 50.406 45.0567C50.0993 44.076 49.6072 43.1843 48.8357 42.3822C48.2924 42.5384 47.7342 42.6987 47.1767 42.8589C47.1842 42.8786 47.191 42.8977 47.1985 42.9174C46.8768 42.9174 46.5544 42.9174 46.1993 42.9174C46.0589 42.7075 45.9056 42.4997 45.7747 42.2776C45.4673 41.756 45.2949 41.1638 44.888 40.6904C44.7299 40.5063 44.5779 40.2489 44.5683 40.0187C44.5268 38.981 43.715 38.2468 43.5256 37.2749C42.8781 36.4443 42.5523 35.4602 42.206 34.489C42.1127 34.2275 42.1242 33.9273 42.02 33.6713C41.7753 33.0682 41.502 32.476 41.2157 31.8912C41.0719 31.5965 40.8593 31.3357 40.7066 31.0443C40.556 30.7564 40.4203 30.4569 40.3188 30.1492C40.1934 29.7702 40.0366 29.4463 39.6202 29.305C39.5438 29.2792 39.5104 29.1264 39.5193 29.142C38.9406 29.0659 38.4881 29.2249 38.0723 28.9912C37.9715 29.2459 37.8079 28.8697 37.7329 29.0143C37.6157 29.2391 37.4187 28.795 37.3049 29.0809C37.2919 29.1135 37.0288 29.0476 36.8816 29.0272C36.7017 29.0021 36.5224 28.96 36.3418 28.9559C35.8804 28.9457 35.4176 28.9396 34.9562 28.958C34.702 28.9681 34.4116 28.8445 34.2051 29.1074C33.6789 29.0585 33.1296 29.2629 32.6259 29.0028C32.3921 28.8819 32.0793 29.089 31.9028 28.8017C31.6908 28.9023 31.4795 28.922 31.2689 28.7984C30.7755 29.1162 30.2282 28.9281 29.7088 28.9396C29.1785 28.9518 28.6878 29.1895 28.1453 29.1264C27.7166 29.0761 27.2763 29.1013 26.8428 29.121C26.4673 29.1379 26.1156 29.0985 25.8 28.8683C25.588 28.1253 25.3924 27.3728 25.4878 26.5809C25.7911 26.3588 26.0222 26.3126 26.3998 26.3486C26.6417 26.3717 26.9382 26.4396 27.1222 26.3344C27.4835 26.1272 27.8468 26.1897 28.2059 26.1985C28.7825 26.2128 29.3687 26.0851 29.9378 26.3405C30.1184 26.4213 30.374 26.3201 30.5819 26.3629C30.7645 26.4009 30.9274 26.0484 31.0999 26.3513C31.2464 26.1218 31.4904 26.2413 31.6833 26.1843C32.6014 25.9099 33.2318 26.0383 34.1083 26.1673C34.276 26.1917 34.4416 26.4641 34.6406 26.2366C35.1463 26.3724 35.6391 26.1082 36.1455 26.1856C36.2689 26.2047 36.425 26.1945 36.5272 26.1333C36.883 25.9187 37.3199 25.9425 37.6123 26.0613C38.1889 26.297 38.666 26.1931 39.109 25.9995C39.1955 25.6627 39.2998 25.3965 39.3264 25.1221C39.3803 24.5611 39.4211 23.9953 39.3973 23.4344C39.3925 23.3209 39.6447 23.1131 39.3441 23.0309C39.2753 22.4605 39.096 21.9022 39.1656 21.3147C39.1942 21.0743 39.1703 20.8278 39.1703 20.5805C39.0367 20.4495 38.9011 20.3164 38.758 20.1758C38.2264 20.1758 37.6825 20.1955 37.1413 20.1703C36.6185 20.1459 36.076 20.3068 35.5757 20.0182C35.5158 19.9836 35.3747 19.9815 35.342 20.0216C35.1266 20.2865 34.8376 20.1737 34.5868 20.1683C33.9011 20.1534 33.2223 20.1737 32.5284 20.0494C31.9593 19.9476 31.3371 19.9496 30.7182 20.1452C30.2138 20.3048 29.6154 20.1167 29.0838 20.3388C28.1575 20.245 27.2156 20.5187 26.2928 20.1921C26.1033 20.1248 25.8211 20.0875 25.6023 20.2749C25.5533 20.317 25.4149 20.2396 25.3215 20.2498C25.1968 20.2627 25.0769 20.3204 24.9521 20.3354C24.8179 20.351 24.6809 20.3388 24.5452 20.3388C24.4096 20.3388 24.2331 20.3938 24.1452 20.3286C23.8296 20.0963 23.4799 20.2138 23.146 20.1731C22.8134 20.1323 22.4828 20.0162 22.1536 20.0243C21.5504 20.0393 20.9486 20.1194 20.3468 20.1798C20.3038 20.1839 20.2732 20.262 20.2268 20.2804C19.6734 20.495 19.4328 20.9052 19.4362 21.4865C19.4423 22.4346 19.4464 23.3828 19.4355 24.3302C19.4253 25.2599 19.6536 26.1693 19.6229 27.1072C19.6032 27.7171 19.4907 28.3066 19.3953 28.8948C19.274 29.6398 19.2215 30.4086 19.4246 31.1353C19.4859 31.3547 19.3892 31.5849 19.5732 31.8145C19.6604 31.9232 19.4825 32.2349 19.4403 32.4576C19.3783 32.7857 19.2051 33.1599 19.3026 33.437C19.4771 33.9328 19.3912 34.4252 19.4478 34.8592C19.5473 34.9807 19.6154 35.0636 19.6713 35.1322C20.8123 35.1322 21.926 35.1403 23.0396 35.1254C23.2659 35.1227 23.5311 35.2483 23.7219 35.0079C24.186 35.1227 24.6809 34.7695 25.1443 35.1179C25.2288 35.1811 25.4524 35.0609 25.6092 35.0255C25.6507 35.0595 25.6889 35.0914 25.7237 35.1199C25.785 35.067 25.8443 35.0154 25.9009 34.9665C26.5456 35.2449 27.2211 35.1885 27.8638 35.0853C28.6047 34.9658 29.8001 34.8829 30.4244 35.1539C30.6303 35.2429 30.8116 35.304 31.0181 35.2918C31.7031 35.2517 32.3826 35.3468 33.0757 35.1539C33.8255 34.9454 34.5834 35.3998 35.2697 35.2986C35.5744 35.448 35.7993 35.56 36.0283 35.6741ZM6.19673 29.4537C6.0018 29.8599 5.81164 30.118 5.75575 30.4018C5.66033 30.8895 5.36317 31.2718 5.17437 31.7085C4.97535 32.1683 4.92492 32.677 4.61549 33.1069C4.3858 33.4254 4.17588 33.8187 4.13703 34.1976C4.09136 34.6391 3.95777 35.0758 3.96663 35.5084C3.97686 35.992 3.8385 36.4402 3.7683 36.9014C3.73558 37.1187 3.61426 37.3245 3.61699 37.5676C3.62789 38.5422 3.61903 39.5175 3.6238 40.4921C3.62449 40.6469 3.61085 40.8296 3.68378 40.9525C4.01434 41.5095 3.96186 42.1166 3.93937 42.7136C3.92165 43.1931 4.01639 43.6373 4.19223 44.0753C4.38784 44.5636 4.58005 45.0533 4.76066 45.5464C4.89016 45.8995 4.93173 46.3029 5.12871 46.6099C5.55333 47.2714 6.04474 47.8895 6.23626 48.6746C6.25261 48.7432 6.33781 48.7934 6.38279 48.8573C6.60567 49.171 6.81082 49.4984 7.05005 49.7993C7.61371 50.509 7.97289 51.3729 8.68922 51.9664C8.95026 52.1824 9.24197 52.3665 9.47916 52.6049C9.73611 52.8629 9.94194 53.1699 10.1784 53.449C10.2834 53.5726 10.387 53.7289 10.526 53.7873C11.1824 54.061 11.6316 54.5798 12.1155 55.06C12.3227 55.2651 12.5619 55.3819 12.8482 55.4614C13.3103 55.5897 13.7962 55.6896 14.1384 56.0889C14.2317 56.1976 14.3953 56.2472 14.5262 56.3232C14.657 56.4 14.7804 56.5182 14.9215 56.5453C15.4838 56.6533 15.9404 56.9732 16.4325 57.2299C16.7406 57.3902 17.093 57.4785 17.4351 57.5586C17.7861 57.6408 18.1473 57.6951 18.5072 57.7209C18.8855 57.7481 19.2699 57.7006 19.6468 57.7345C20.0026 57.7664 20.4054 57.7739 20.6937 57.9471C21.4121 58.379 22.1761 58.3967 22.9633 58.3777C23.3423 58.3689 23.7648 58.4762 24.0899 58.343C24.7197 58.0843 25.3508 58.0429 26.0065 58.0476C26.1571 58.0483 26.3078 57.9899 26.4591 57.9654C27.1938 57.8452 27.8713 57.4133 28.561 57.5654C29.1356 57.346 29.5629 57.0479 30.0905 56.8917C31.0542 56.6071 31.9859 56.2057 32.8174 55.6142C33.6428 55.0274 34.5568 54.5608 35.237 53.7784C35.4203 53.5679 35.6977 53.4422 35.909 53.2528C36.2689 52.9302 36.671 52.6863 36.9695 52.2524C37.3894 51.6425 37.8133 50.9851 38.5378 50.6224C38.9366 50.4227 38.9263 49.9242 39.126 49.5744C39.2801 49.3041 39.0838 49.1357 39.0088 48.9293C38.9059 48.6474 38.7246 48.3744 38.6994 48.0871C38.6585 47.6239 38.4226 47.2755 38.1902 46.9108C38.0812 46.7396 37.9135 46.5773 37.8788 46.3919C37.6866 45.3508 37.0363 44.5168 36.6403 43.57C36.4952 43.2237 36.2239 43.0253 35.9274 42.6953C35.7509 43.1204 35.6344 43.4532 35.4783 43.7656C35.0857 44.5521 34.6999 45.344 34.261 46.1053C34.0545 46.4632 33.7341 46.7559 33.4649 47.0785C33.1957 47.4011 32.7902 47.6857 32.6886 48.0538C32.5114 48.6943 31.9096 48.8457 31.5668 49.2736C31.0726 49.2817 30.8681 49.7673 30.4592 49.9412C30.0659 50.1083 29.7361 50.4227 29.3748 50.6672C29.015 50.9104 28.6796 51.2262 28.2823 51.3688C27.6661 51.5902 27.0582 51.8231 26.4673 52.1023C26.3766 52.1451 26.2791 52.1878 26.1817 52.1953C25.9929 52.2103 25.8007 52.1899 25.6119 52.2028C25.4551 52.2137 25.3004 52.2558 25.1443 52.2755C24.777 52.323 24.3817 52.2972 24.0491 52.4289C23.7253 52.558 23.3504 52.6103 23.1289 52.4914C22.8556 52.3447 22.6143 52.4099 22.3635 52.361C22.1366 52.3162 21.9144 52.4072 21.6683 52.2598C21.4666 52.1396 21.1469 52.1845 20.8832 52.2048C20.3181 52.2496 19.8206 52.0466 19.3224 51.8354C19.1145 51.7471 18.9182 51.6282 18.7062 51.5535C18.4915 51.4781 18.2619 51.4482 18.0424 51.3844C17.8011 51.3138 17.4992 51.2934 17.3383 51.1352C16.883 50.6862 16.2724 50.5382 15.7591 50.2169C14.854 49.6505 13.9523 49.0848 13.2373 48.2433C12.7105 47.6232 12.3615 46.8612 11.7045 46.3457C11.5934 46.2588 11.5389 46.0938 11.47 45.9593C11.0836 45.1986 10.6692 44.4488 10.3298 43.6678C10.1621 43.2814 9.93308 42.8841 9.9842 42.4311C10.0483 41.866 9.84175 41.3662 9.62093 40.8738C9.46212 40.5199 9.22902 40.1539 9.34762 39.781C9.47984 39.3654 9.3817 38.9205 9.52005 38.5531C9.68022 38.1273 9.60389 37.7211 9.65841 37.3102C9.71703 36.8729 9.84107 36.4504 9.83153 35.9954C9.82199 35.5634 9.99715 35.1451 10.2507 34.796C10.4361 34.5399 10.5417 34.2751 10.6549 33.9851C10.8546 33.4743 10.9513 32.9269 11.2642 32.4468C11.5852 31.9537 11.8865 31.4253 12.2756 31.0083C13.4295 29.7709 14.6236 28.5661 15.9404 27.4937C15.9909 27.4529 16.0863 27.4665 16.1449 27.4577C16.3044 26.9714 16.4673 26.5266 16.5409 26.0355C16.59 25.7082 16.6949 25.3734 16.6534 25.0433C16.6295 24.8531 16.468 24.6874 16.4986 24.4579C16.5273 24.2453 16.515 24.0246 16.5014 23.8093C16.4898 23.6259 16.4659 23.4405 16.4216 23.2619C16.365 23.0316 16.4925 22.834 16.5116 22.6167C16.5361 22.3389 16.6138 22.0652 16.669 21.7881C16.5307 21.5769 16.3916 21.365 16.2519 21.1517C16.0386 21.1517 15.8212 21.1517 15.661 21.1517C15.4811 21.2441 15.3366 21.2998 15.2125 21.3853C14.5391 21.8485 14.2242 21.9687 13.4841 22.1358C13.2462 22.1895 12.9933 22.3151 12.8188 22.4822C12.1127 23.1593 11.3869 23.7998 10.5997 24.3913C9.72725 25.0467 8.94549 25.8338 8.18554 26.6223C7.7432 27.0808 7.41469 27.6499 7.048 28.1776C6.72699 28.6401 6.42164 29.1148 6.19673 29.4537ZM33.7914 38.8546C33.6299 38.5422 33.5038 38.2977 33.4479 38.1891C32.8685 37.6946 32.2579 37.5982 31.7215 37.7598C31.0249 37.969 30.3454 37.8311 29.6618 37.8916C29.533 37.9031 29.3932 37.8936 29.2712 37.8542C28.4288 37.5819 27.5653 37.8067 26.7147 37.7327C26.5375 37.9683 26.2778 37.8637 26.0495 37.8991C25.8245 37.9344 25.6071 38.0199 25.3822 38.0505C25.2602 38.0668 25.1287 38.0166 25.0026 37.9928C24.5493 37.9065 24.0981 37.7585 23.6442 37.7483C23.0976 37.7361 22.5496 37.8495 22.0009 37.8916C21.731 37.9126 21.4025 37.9887 21.2015 37.8699C20.9813 37.7408 20.7789 37.8787 20.5608 37.7571C20.3536 37.6417 20.0312 37.7232 19.7599 37.734C18.6142 37.7809 17.765 37.2267 17.0568 36.4022C16.9471 36.2745 16.8571 36.0925 16.8415 35.9275C16.7944 35.4344 16.6329 34.9651 16.6547 34.4517C16.7024 33.346 16.669 32.2369 16.669 31.0708C16.4877 30.9988 16.3023 30.9255 16.1415 30.8616C15.9213 31.081 15.7585 31.2644 15.5731 31.4219C15.3972 31.5714 15.1893 31.6827 15.0121 31.8301C14.8465 31.9687 14.6823 32.1188 14.5548 32.2906C14.4212 32.4712 14.3319 32.6838 14.2229 32.8828C14.1138 33.0818 14.0048 33.2808 13.8964 33.4791C13.7874 33.6781 13.6872 33.8818 13.5665 34.0734C13.4432 34.269 13.2871 34.4435 13.1699 34.6418C13.0683 34.813 12.9851 34.9991 12.9218 35.1879C12.8495 35.4032 12.872 35.6823 12.7398 35.8371C12.5489 36.0606 12.6273 36.2867 12.5878 36.5129C12.5489 36.7357 12.538 37.008 12.4038 37.1601C12.2041 37.3856 12.3445 37.6342 12.2538 37.8359C12.1679 38.0274 12.2518 38.2284 12.1639 38.3948C12.0446 38.6203 12.0691 38.7955 12.2647 38.9524C11.9819 39.1521 12.3302 39.3389 12.2784 39.5521C12.2232 39.7796 12.2661 40.0309 12.2661 40.0995C12.7377 41.1312 12.9981 42.0344 12.9156 42.9567C12.9872 43.0939 13.024 43.1917 13.0833 43.2719C13.3709 43.6617 13.3852 44.1908 13.7349 44.546C14.0116 44.8271 14.3306 45.0479 14.5398 45.416C14.7688 45.8207 15.1328 46.1501 15.4442 46.5067C16.1388 47.3027 17.112 47.7122 17.9626 48.2915C18.0322 48.3391 18.163 48.2976 18.2578 48.2976C18.7144 48.9741 19.4144 49.203 20.098 49.4196C20.3938 49.5133 20.7469 49.4142 21.0699 49.4413C21.3759 49.4671 21.6786 49.5969 21.9805 49.588C23.0178 49.5588 24.0545 49.4923 25.0905 49.4298C25.1832 49.4244 25.2684 49.3388 25.3624 49.3048C26.5695 48.8702 27.7602 48.3981 28.8725 47.7529C30.0244 47.0847 30.939 46.1922 31.5136 44.9738C31.6104 44.7681 31.7753 44.5949 31.9062 44.4047C32.1379 44.0678 32.4507 43.7575 32.5802 43.3846C32.8433 42.6267 33.2407 41.9156 33.4002 41.1237C33.5576 40.3474 33.848 39.5895 33.7914 38.8546ZM16.6745 12.0422C16.8087 12.3417 16.8892 12.5549 16.9975 12.7533C17.1945 13.1146 17.4174 13.4351 17.8263 13.6253C18.193 13.7958 18.5222 14.0559 18.846 14.3058C19.2106 14.587 20.0087 15.0522 20.3768 15.1323C20.5758 15.1758 20.815 15.0481 20.969 15.277C21.7617 15.3762 22.553 15.6865 23.3498 15.2987C23.7464 15.3789 24.0136 15.0407 24.3564 14.9829C25.2288 14.8362 25.9438 14.4233 26.5593 13.8114C26.8285 13.5438 27.095 13.2735 27.3662 13.0079C28.0649 12.3227 28.4363 11.4955 28.4015 10.5168C28.39 10.1854 28.4602 9.88518 28.6401 9.64C28.8936 9.29363 28.9373 8.93232 28.8855 8.56354C28.5529 8.11394 28.4881 7.59981 28.4268 7.10267C28.4002 6.88602 28.3572 6.69314 28.2441 6.52471C27.9176 6.04183 27.6804 5.51548 27.4235 4.99593C27.0923 4.32628 26.5443 3.84 25.8307 3.61452C25.618 3.54728 25.4565 3.47054 25.2909 3.33607C24.9889 3.09089 24.6679 2.86948 24.2931 2.59171C23.3586 2.65147 22.3506 2.74248 21.3412 2.77236C20.5158 2.79614 19.7852 3.14183 19.137 3.53777C18.2905 4.05461 17.5742 4.78267 16.8885 5.34909C16.7733 5.93995 16.5607 6.38005 16.4107 6.82897C16.1435 7.62834 15.9363 8.41616 16.0147 9.26239C16.027 9.39686 16.0338 9.53541 16.0127 9.66785C15.9602 9.99724 16.0829 10.2825 16.2342 10.5521C16.5143 11.0506 16.7358 11.5607 16.6745 12.0422Z" fill="#28282A"></path>
</symbol></defs><use data-v-1e92d442="" xlink:href="#disabled--sprite" fill="#28282A"></use></svg>