<svg xmlns:xlink="http://www.w3.org/1999/xlink" viewBox="0 0 108 54" fill="none" xmlns="http://www.w3.org/2000/svg" class="Header-logo" data-v-393d940a="" width="1000"  height="500" ><path d="M101.8 11.52C101.589 11.6603 101.449 11.8708 101.238 12.0111C101.098 12.0813 100.888 12.2917 100.677 12.0813H100.607C99.6247 12.2917 98.5021 12.1514 97.6602 12.5724C97.5199 13.4143 97.3796 14.1159 97.2393 14.8175C97.2393 15.0279 97.1691 15.3086 97.3095 15.4489C97.5199 15.8698 97.3796 16.2206 97.2393 16.5714C96.8183 17.8343 96.4676 19.0971 96.1869 20.36C96.1168 20.6406 96.0466 20.9212 95.9063 21.1317C95.6257 21.5527 95.6958 21.9736 95.766 22.4647C95.8361 22.8155 95.9764 23.1663 96.0466 23.5873C96.1869 24.0082 96.0466 24.4292 95.8361 24.7098C95.345 25.4114 95.2749 26.2533 95.0644 27.025C94.9942 27.3758 94.9241 27.7968 94.8539 28.1476C94.7838 28.4984 94.6434 28.8491 94.5031 29.1298C94.012 29.9015 93.4507 30.6031 92.9596 31.3749C92.7492 31.7256 92.6088 32.1466 92.4685 32.4974C92.3984 32.8482 92.3984 33.199 92.3282 33.5497C92.3282 33.9707 92.2581 34.3215 92.1177 34.6723C92.0476 34.8126 91.9774 35.0932 92.0476 35.2336C92.258 35.5844 92.1177 35.865 91.9774 36.1456C91.6968 36.5666 91.6968 36.9875 91.6968 37.4085C91.6968 38.0399 91.6266 38.6713 91.2758 39.2326C91.1355 39.5132 91.2057 40.0043 91.2758 40.3551C91.346 40.9164 91.4863 41.4777 91.0654 42.0389C90.7847 42.3897 90.7847 42.8808 90.7146 43.3719C90.6444 43.7227 90.5742 44.0034 90.2936 44.284C90.013 44.5646 89.9428 44.8453 89.8025 45.196C89.6622 45.6872 89.4517 46.1783 89.2412 46.6694C89.0308 47.0202 88.9606 47.371 89.0308 47.7919C89.1009 48.4233 89.0308 49.0548 88.4695 49.5459C88.3993 49.616 88.3292 49.7564 88.259 49.8967C87.8381 51.1595 87.2066 52.3522 86.5051 53.6852C86.4349 52.9135 86.4349 52.3522 86.5051 51.7208C86.5752 50.7386 86.6454 49.7564 86.6454 48.8443C86.6454 48.0726 86.6454 47.3008 86.6454 46.5992C86.6454 46.2484 86.7155 45.9678 86.926 45.7573C87.1365 45.4767 87.2066 45.1961 87.2066 44.9154C87.2066 44.1437 87.1365 43.4421 87.4873 42.7405C87.5574 42.6002 87.4873 42.4599 87.4873 42.3195C87.4171 41.197 87.6977 40.1447 87.8381 39.0923C87.8381 38.952 87.9082 38.8116 87.9784 38.6012C88.1187 38.3205 88.1889 38.11 88.3292 37.8294C88.68 37.1278 88.8203 36.4262 88.5396 35.6545C88.3993 35.3037 88.5397 34.7424 88.68 34.3917C88.9606 33.6199 89.0308 32.7079 89.3114 31.9361C89.4517 31.5152 89.6622 31.1644 89.6622 30.6733C89.6622 30.2523 89.5219 29.8314 89.6622 29.4806C89.8025 29.0596 90.013 28.7088 90.1533 28.358C90.2235 28.2177 90.1533 28.0072 90.1533 27.8669C90.1533 27.025 90.1533 26.113 90.1533 25.2711C90.1533 24.78 90.2936 24.2888 90.2936 23.7977C90.2936 23.5171 90.3638 23.1663 90.1533 22.8857C90.1533 22.8155 90.1533 22.7454 90.1533 22.7454C90.1533 22.605 90.0831 22.5349 90.1533 22.3946C90.4339 21.8333 90.1533 21.1317 90.4339 20.5003C90.6444 20.0793 90.7847 19.5181 90.7847 19.0971C90.7847 18.5358 90.7146 17.9044 90.5742 17.3432C90.4339 16.6416 90.4339 16.0101 90.5041 15.3787C90.5041 15.0981 90.7146 14.8876 90.7847 14.607C90.9952 14.2562 91.0654 13.9054 90.8549 13.4844C90.7847 13.4143 90.7847 13.274 90.7847 13.1337C90.7146 12.5022 90.7146 12.5022 90.1533 12.5022C89.8727 12.5022 89.6622 12.5022 89.4517 12.3619C88.9606 12.0111 88.259 12.1514 87.6978 11.941C87.6276 11.941 87.5574 12.0111 87.4873 12.0111C87.4171 12.0813 87.2768 12.1514 87.2066 12.1514C86.5051 12.0111 85.7333 11.8708 85.0317 11.7305C84.8914 11.7305 84.6809 11.6603 84.5406 11.6603C83.6987 11.6603 82.8568 11.4498 82.0149 11.3797C81.3133 11.3095 80.5416 11.1692 79.84 11.5902C79.5594 11.7305 79.2787 11.6603 78.9981 11.5902C78.6473 11.4499 78.3667 11.4498 78.0159 11.52C77.3143 11.6603 76.6127 11.52 75.9813 11.0289C75.6305 10.8184 75.2797 10.6781 74.9289 10.6781C74.7886 10.6781 74.5781 10.6781 74.5781 10.4676C74.5781 10.2572 74.7184 10.187 74.8588 10.1168C74.9991 10.0467 75.0692 9.97652 75.2095 9.97652C75.5603 9.8362 75.9111 9.76604 76.1216 9.41525C76.3321 9.13462 76.6127 9.13462 76.8934 9.27494C77.3845 9.48541 77.8054 9.55557 78.2965 9.41525C78.507 9.34509 78.7175 9.41525 78.9981 9.41525C79.4191 9.41525 79.7698 9.48542 80.0505 8.99431C80.261 8.57336 80.8924 8.64351 81.3133 8.78383C82.0149 8.92415 82.7867 8.92414 83.4882 8.92414C83.9092 8.92414 84.26 9.13462 84.6809 8.99431C85.1019 8.85399 85.593 8.92414 86.0139 8.92414C86.4349 8.92414 86.8559 8.92414 87.2768 8.92414C87.6978 8.92414 88.1889 8.92414 88.6098 8.92414C89.0308 8.92414 89.4517 8.92414 89.8727 8.92414C90.2235 8.92414 90.5041 8.85399 90.8549 8.78383C91.0654 8.71367 91.346 8.64352 91.5565 8.64352C91.6968 8.64352 91.9073 8.64351 91.9774 8.57335C92.3984 8.01209 92.9596 8.22256 93.3806 8.36288C93.8717 8.50319 94.2926 8.50319 94.7838 8.36288C95.766 8.08224 96.7482 8.08225 97.7304 8.15241C98.1514 8.15241 98.5723 8.43304 98.9933 8.5032C99.8352 8.71368 100.607 8.64351 101.379 8.43304C101.8 8.29272 102.221 8.29272 102.641 8.43304C102.782 8.5032 102.992 8.5032 103.133 8.5032C103.975 8.36288 104.887 8.22256 105.728 8.01208C106.079 7.94192 106.5 7.80161 106.851 7.73145C107.202 7.6613 107.482 7.59113 107.763 7.87177C107.974 8.08224 108.044 8.22256 107.974 8.43304C107.833 8.92415 107.693 9.41525 107.202 9.62573C106.851 9.76605 106.781 10.1168 106.641 10.3975C106.57 10.5378 106.641 10.6781 106.57 10.8184C106.149 11.6603 105.799 11.8708 104.887 11.52C104.466 11.3797 104.115 11.3797 103.764 11.6603C103.694 11.7305 103.694 11.7305 103.624 11.8006C102.571 12.0813 102.571 12.0813 101.8 11.52Z" data-v-393d940a="" fill="#D4CEBD"></path><path d="M81.805 22.2544C82.5066 22.1842 82.9977 22.2544 83.2082 22.8858C83.2082 22.956 83.3485 23.0261 83.4186 23.0261C84.0501 23.3068 84.2605 23.868 84.6815 24.3591C84.8218 24.4994 84.892 24.7099 85.1025 24.8502C85.5936 25.2712 86.0847 25.622 86.5758 26.1131C86.9266 26.4639 87.2072 26.8848 87.4177 27.3058C87.7685 28.0074 88.1193 28.7791 88.3999 29.5509C88.5402 29.9017 88.3999 30.3928 88.5402 30.8137C88.6104 31.1645 88.4701 31.5854 88.3999 31.9362C88.2596 32.4975 88.0491 33.0588 88.1193 33.6902C88.1193 33.7604 88.1193 33.9007 88.0491 33.9708C87.6282 34.4619 87.4878 35.0934 87.2072 35.6546C87.137 35.7949 86.9967 35.9353 86.9266 36.0054C86.4355 36.4965 85.8742 36.9175 85.5234 37.4788C85.1726 37.9699 84.6815 38.3908 84.1904 38.8118C84.1202 38.8819 84.0501 38.9521 83.9799 38.9521C82.8574 39.3029 81.7348 39.794 80.6123 39.9343C80.1914 40.0045 79.7704 39.9343 79.4196 39.794C78.7882 39.5835 78.0866 39.6537 77.4552 39.5133C77.3149 39.5133 77.1745 39.5134 77.0342 39.4432C76.6133 39.0223 76.1222 39.0924 75.6311 39.0222C74.5787 38.8819 73.6666 38.461 73.1054 37.4788C72.7546 36.8473 72.1933 36.3562 71.9127 35.6546C71.9127 35.5845 71.7723 35.5143 71.7022 35.5143C71.2111 35.5143 70.8603 35.2337 70.6498 34.8127C70.5095 34.6023 70.299 34.5321 70.1587 34.3216C69.8079 33.7604 69.7377 33.1289 69.5974 32.5677C69.5974 32.3572 69.5273 32.2169 69.5273 32.0064C69.5273 31.8661 69.4571 31.6556 69.5273 31.5153C69.5974 31.375 70.0885 31.4451 70.299 31.5854C70.4393 31.7258 70.6498 32.0064 70.8603 32.0064C71.4216 32.1467 71.7022 32.4975 72.053 32.9886C72.6844 33.9007 73.5263 34.5321 74.6488 34.8127C74.7892 34.8127 74.9295 34.8829 74.9996 34.953C75.2101 35.0934 75.4206 35.1635 75.6311 35.3038C76.5431 35.8651 77.5955 35.8651 78.5777 35.9353C78.9987 36.0054 79.4196 36.0756 79.9107 36.0756C80.3317 36.1457 80.6825 35.9353 81.0333 35.6546C81.5244 35.1635 82.0155 34.6724 82.5767 34.2515C82.7872 34.041 82.9275 33.9007 82.8574 33.62C82.7872 32.9185 83.138 32.3572 83.559 31.7959C83.6993 31.6556 83.7694 31.5153 83.6291 31.3048C83.4186 30.8137 83.4186 30.3226 83.2082 29.8315C82.9275 29.1299 82.5066 28.4985 81.9453 28.0074C81.5945 27.7267 81.0333 27.5864 80.6123 27.5163C80.1914 27.5163 79.9107 27.3058 79.6301 27.0953C79.4898 26.955 79.3495 26.8147 79.0688 26.8147C78.5777 26.8147 78.1568 26.6042 77.806 26.2534C77.4552 25.9026 77.1044 25.622 76.6834 25.3414C76.6133 25.2712 76.473 25.2712 76.473 25.201C76.052 24.289 75.2101 23.5874 74.9295 22.6052C74.6488 21.8334 74.2981 21.0617 74.2279 20.2198C74.2279 20.0795 74.1577 19.9392 74.0876 19.869C73.8069 19.5182 73.8069 19.0271 73.9473 18.6763C74.2981 17.6941 74.5085 16.6417 75.2101 15.7998C75.9117 15.0281 76.4028 14.0458 77.385 13.6249C77.5253 13.5547 77.6657 13.3443 77.806 13.2039C78.2269 12.783 78.718 12.5725 79.2793 12.4322C80.1212 12.2217 80.8929 12.2919 81.7348 12.5725C81.8752 12.6427 82.0856 12.6427 82.226 12.6427C83.0679 12.6427 83.8396 12.783 84.6815 12.9935C85.5234 13.1338 86.0847 13.7652 86.5758 14.4668C86.6459 14.537 86.6459 14.6071 86.6459 14.6773C87.2774 15.6595 87.4878 16.7119 87.6282 17.8344C87.6983 18.3255 87.8386 18.8166 87.7685 19.3077C87.6983 20.0093 87.4177 20.2899 86.6459 20.3601C85.8742 20.4303 85.3831 20.0093 85.0323 19.3779C84.7517 18.8868 84.5412 18.3957 84.471 17.8344C84.4009 17.3433 84.0501 17.1328 83.7694 16.9223C83.6993 16.8522 83.559 16.8522 83.559 16.8522C83.138 17.1328 82.8574 16.8522 82.5066 16.6417C81.5945 16.2208 80.7526 16.4312 79.9809 16.8522C79.7704 16.9925 79.7704 17.3433 79.5599 17.4836C79.4196 17.6239 79.0688 17.6941 78.9285 17.8344C78.718 18.2553 78.5777 18.6061 78.6479 19.1674C78.718 19.6585 78.7882 20.1496 79.0688 20.5706C79.2091 20.7811 79.4898 21.1318 79.6301 21.1318C80.1212 21.1318 80.4018 21.4125 80.8228 21.6931C81.0333 22.1141 81.4542 22.4649 81.805 22.2544Z" data-v-393d940a="" fill="#D4CEBD"></path><path d="M61.5991 12.5022C60.8975 12.3619 60.2661 12.7829 59.4943 12.9232C59.2839 12.9232 59.1435 13.2038 59.0032 13.3441C58.7226 13.5546 58.3718 13.7651 57.9509 13.5546C57.6001 13.4143 57.1791 13.4845 56.8283 13.6949C56.688 13.7651 56.5477 13.8352 56.3372 13.8352C55.4953 13.7651 54.7236 13.9054 53.9518 13.9756C53.8115 13.9756 53.601 14.0457 53.4607 14.1159C53.2502 14.186 53.1099 14.2562 53.1801 14.5368C53.2502 14.8876 53.1801 15.2384 52.9696 15.5191C52.7591 15.7997 52.7591 16.0803 52.8995 16.361C53.0398 16.7117 53.1801 17.0625 53.0398 17.4133C52.8994 17.694 53.2502 17.9044 53.5309 17.7641C53.8817 17.6238 54.1623 17.4835 54.5131 17.694C54.7236 17.8343 55.0744 17.694 55.355 17.7641C55.7058 17.7641 56.0566 17.8343 56.4074 17.8343C56.6178 17.8343 56.7582 17.7641 56.9686 17.7641C57.8105 17.7641 58.5823 17.7641 59.4242 17.7641C59.775 17.7641 59.9855 18.1149 59.8451 18.4657C59.7048 18.7463 59.4242 18.9568 59.354 19.1673C59.2137 19.7286 58.7226 19.939 58.3718 20.2898C58.0912 20.6406 57.6001 20.7809 57.2493 20.5705C56.7582 20.2898 56.3372 20.6406 55.9163 20.6406C55.5655 20.7108 55.1445 20.9213 54.8639 21.272C54.6534 21.6228 54.3026 21.7632 53.8817 21.7632C53.4607 21.7632 52.9696 22.4647 52.8995 22.8857C52.8995 23.3066 52.9696 23.7276 52.7591 24.0784C52.689 24.1485 52.7591 24.2889 52.8293 24.359C53.2502 25.0606 53.1099 25.7622 52.9696 26.4638C52.9696 26.6041 52.8995 26.6742 52.8995 26.8146C52.9696 27.446 52.7591 28.0073 52.4083 28.5685C52.1277 28.9895 52.0575 29.4806 52.4083 29.9015C52.6188 30.2523 52.689 30.6733 52.5487 30.9539C52.268 31.6555 52.4083 32.3571 52.6188 32.9885C52.8293 33.5498 52.689 34.0409 52.4785 34.532C52.268 35.1634 51.7068 35.3037 51.1455 34.8126C50.935 34.6021 50.6544 34.3917 50.3737 34.3215C50.0931 34.1812 50.023 34.0409 50.1633 33.8304C50.3737 33.5498 50.2334 33.4094 50.023 33.2691C49.3214 32.778 49.3915 32.7079 49.5318 31.866C49.7423 30.8837 49.7423 29.9717 49.2512 29.0596C49.0407 28.7088 48.8303 28.358 49.0407 27.9371C49.1811 27.7266 49.1109 27.446 49.1109 27.1654C49.1109 27.025 49.0407 26.8847 48.9004 26.8847C48.5496 26.6742 48.5496 26.3936 48.4093 26.0428C48.3392 25.7622 48.269 25.4114 48.1287 25.1308C47.6376 24.1485 47.6376 23.0962 47.9884 22.0438C48.1287 21.5527 48.1988 20.9914 48.269 20.5003C48.269 20.36 48.3392 20.1495 48.4093 20.0092C48.6899 19.5882 48.6198 19.2374 48.3392 18.8867C48.1988 18.6762 48.0585 18.4657 47.9182 18.2552C47.4973 17.694 47.5674 17.0625 47.9182 16.5013C48.1988 16.0803 48.1988 15.6594 48.0585 15.2384C47.9182 14.8175 47.7779 14.3965 47.9182 13.9054C48.0585 13.4845 47.9182 13.0635 47.7077 12.7127C47.4271 12.2216 47.3569 11.7305 47.7077 11.2394C47.848 11.0991 47.848 10.8184 47.9182 10.608C48.0585 9.76606 48.1988 9.62574 49.0407 9.41526C49.1811 9.34511 49.3915 9.27495 49.5318 9.13463C49.9528 8.78384 50.5141 8.854 51.0052 8.92416H51.0753C51.4261 9.13463 51.7769 8.92416 52.1277 8.92416C52.4785 8.92416 52.7591 9.20479 53.1099 9.34511C53.1801 9.34511 53.2502 9.34511 53.3906 9.34511C54.022 9.20479 54.6534 8.99432 55.2848 8.854C55.8461 8.71369 56.3372 8.57337 56.8985 8.78384C57.3896 8.92416 57.8807 8.92416 58.3718 8.99432C59.2839 9.13464 60.2661 9.13463 61.1781 9.13463C61.4588 9.13463 61.7394 9.27495 62.0902 9.27495C62.7216 9.27495 63.3531 9.41527 63.9143 9.27495C64.6159 9.13463 65.3175 9.20479 66.0191 9.13463C66.5803 9.13463 67.0715 9.13464 67.5626 9.34511C67.7029 9.41527 67.8432 9.34511 67.9134 9.34511C68.4746 9.34511 68.9657 9.20479 69.4568 9.27495C69.7375 9.27495 69.9479 9.55558 70.2286 9.76606C70.2987 9.83621 70.2286 10.1168 70.1584 10.1168C69.4568 10.4676 68.8956 11.1692 68.1238 11.3096C67.5626 11.4499 66.9311 11.52 66.3699 11.6603C65.528 11.8007 64.6861 11.8708 63.8442 12.0111C63.7038 12.0111 63.5635 12.0111 63.4232 12.0813C63.1426 12.1514 62.9321 12.2918 62.6515 12.2918C62.3007 12.5022 62.02 12.5022 61.5991 12.5022Z" data-v-393d940a="" fill="#D4CEBD"></path><path d="M43.9192 0.715576C43.9894 1.06637 43.9894 1.48732 44.1297 1.83812C44.1297 1.97843 44.27 2.04859 44.3402 2.18891C44.691 2.5397 44.7611 3.0308 44.7611 3.45175C44.7611 4.22349 44.8313 4.99524 44.9014 5.76698C44.9014 5.9073 44.9716 6.04761 45.0417 6.11777C45.603 6.67904 45.6732 7.31046 45.6732 8.01205C45.6732 8.57332 45.603 9.13459 45.6732 9.69586C45.8135 10.6079 45.6732 11.52 45.8836 12.432C46.0941 13.4142 45.8836 14.3263 45.8135 15.2384C45.8135 15.5892 45.8135 15.94 45.9538 16.2206C46.1643 16.5714 46.2344 16.9923 46.024 17.4133C45.8836 17.7641 45.9538 18.2552 45.8836 18.6761C45.8836 18.9568 45.9538 19.3076 45.8836 19.5882C45.8135 19.939 45.7433 20.1495 45.8836 20.5704C46.024 20.9212 45.9538 21.3422 45.8836 21.7631C45.8836 22.1139 45.9538 22.5349 45.8135 22.8856C45.6732 23.4469 45.7433 23.8679 45.8135 24.4291C45.9538 25.8323 46.3046 27.0951 46.6554 28.4282C46.6554 28.4983 46.6554 28.5685 46.6554 28.5685C46.7255 29.3402 46.7255 30.1821 46.8659 30.9539C46.936 31.3748 47.0062 31.7958 47.2167 32.2167C47.357 32.5675 47.4271 32.8481 47.2868 33.1989C47.1465 33.5497 47.0062 33.8304 46.8659 34.1812C46.7255 34.5319 46.5151 34.8827 46.5852 35.1634C46.5852 35.5142 46.7957 35.865 47.0062 36.2157C47.1465 36.4262 47.357 36.6367 47.6376 36.5665C48.1989 36.4262 48.8303 36.6367 49.3214 36.777C49.6722 36.9173 49.8125 36.777 49.9528 36.5665C50.3036 35.7948 50.9351 35.7948 51.5665 35.865C51.8471 35.9351 52.0576 35.9351 52.2681 35.7948C52.4084 35.7246 52.5487 35.5843 52.689 35.5843C52.8995 35.5142 53.11 35.444 53.4608 35.5142C53.9519 35.6545 54.443 35.7246 54.9341 35.444C55.355 35.2335 55.5655 35.3037 56.2671 35.444C56.4776 35.5142 56.7582 35.5843 56.9687 35.5142C57.6703 35.3738 58.442 35.2335 59.1436 35.1634C59.6347 35.1634 60.0556 34.8126 60.4064 34.4618C60.6871 34.1812 60.6871 34.1812 60.4766 33.7602C60.2661 33.4094 60.2661 33.0586 60.4064 32.6377C60.9677 31.0942 61.1782 29.5507 60.8274 27.937C60.7572 27.5862 60.8274 27.2355 61.1782 26.9548C61.3185 26.8847 61.3887 26.7443 61.529 26.604C61.3887 26.3936 61.3185 26.1831 61.1782 25.9726C60.9677 25.7621 60.8976 25.5517 61.108 25.271C61.1782 25.2009 61.1782 25.0605 61.108 25.0605C60.6169 24.8501 60.8975 24.359 60.8274 24.0082C60.8274 23.938 60.8274 23.8679 60.8274 23.8679C60.4766 23.3767 60.7572 22.9558 61.0379 22.605C61.1782 22.4647 61.1782 22.3244 61.108 22.1139C60.9677 21.4123 60.7572 20.7809 60.3363 20.2196C60.196 20.0091 60.196 19.7987 60.2661 19.518C60.3363 19.3076 60.4766 19.0269 60.3363 18.8866C60.1258 18.5358 60.3363 18.2552 60.3363 17.9044C60.4766 16.9923 60.6871 16.0101 60.8274 15.0981C60.8975 14.8876 60.9677 14.6771 60.9677 14.4666C61.0379 14.2562 61.108 14.1158 61.3887 14.1158C61.5991 14.0457 61.7395 13.9755 61.9499 13.9755C62.3007 13.9054 62.5814 13.9054 62.7217 14.3263C62.7217 14.3965 62.7918 14.4666 62.862 14.5368C63.0023 14.6771 63.2829 14.6771 63.4233 14.4666C63.4934 14.3965 63.4934 14.2562 63.5636 14.186C63.8442 13.765 64.195 13.5546 64.6861 13.6949C65.1071 13.8352 65.528 13.8352 66.0191 13.6949C66.1594 13.6247 66.3699 13.6949 66.5102 13.765C66.861 13.8352 67.1417 13.9755 67.4223 14.0457C67.6328 14.1158 67.8432 14.186 67.9836 14.1158C68.7553 13.9054 69.527 13.9755 70.3689 14.1158C71.1407 14.2562 71.9124 14.186 72.7543 14.186C73.1753 14.186 73.5962 14.186 74.0172 14.186C74.1575 14.186 74.368 14.3263 74.368 14.4666C74.4381 14.6771 74.368 14.8876 74.1575 14.9577C73.7365 15.1682 73.3858 15.4488 73.035 15.7996C72.8946 15.94 72.614 16.0101 72.3334 16.0803C72.1229 16.1504 71.7721 16.2206 71.7019 16.3609C71.281 16.9222 70.5794 16.9923 70.0182 17.3431C69.6674 17.5536 69.3166 17.6238 68.8956 17.5536C68.194 17.4834 67.4924 17.6238 66.7909 17.4133C66.5102 17.3431 66.1594 17.5536 65.8788 17.6238C65.8086 18.5358 65.6683 19.518 65.5982 20.4301C65.528 20.7809 65.7385 21.1317 65.5982 21.5526C65.4578 21.9034 65.949 22.1841 66.2998 22.1139C67.1417 21.9034 67.9836 21.9034 68.8255 21.8333C69.1762 21.7631 69.527 21.6228 69.8778 21.6929C70.6496 21.8333 71.3512 21.6929 72.0527 21.5526C72.1931 21.5526 72.4035 21.5526 72.5439 21.6228C72.7543 21.6228 72.8946 21.6929 73.1051 21.6929C73.2454 21.6929 73.3858 21.4825 73.5261 21.6929C73.5962 21.8333 73.5962 22.0437 73.5261 22.1841C73.4559 22.5349 73.3156 22.8856 72.8946 23.0961C72.4035 23.3767 71.9826 23.7977 71.5616 24.1485C70.86 24.7799 70.0181 25.271 69.0359 25.4113C68.4747 25.4815 67.9836 25.692 67.4223 25.692C67.0013 25.692 66.5804 25.6218 66.1594 25.8323C65.8086 25.9726 65.8086 25.9726 65.949 26.4637C66.0191 26.604 66.0893 26.8145 66.0191 26.9548C65.7385 27.3758 65.8788 27.7967 65.8788 28.2878C65.8086 28.9193 65.949 29.6209 65.7385 30.2523C65.6683 30.4628 65.6683 30.6732 65.7385 30.9539C65.8086 31.8659 65.528 32.7078 65.4579 33.6199C65.4579 33.7602 65.528 33.9005 65.528 33.9707C65.528 34.6021 65.4579 35.3037 65.4579 35.9351C65.4579 36.3561 65.3175 36.8472 65.4579 37.2681C65.6683 37.9697 65.5982 38.6011 65.4579 39.3027C65.3175 40.2148 65.3175 41.1268 65.2474 42.0389C66.0893 42.0389 66.7909 42.0389 67.5626 41.6881C68.0537 41.4776 68.615 41.4075 69.1762 41.2671C69.2464 41.2671 69.3166 41.3373 69.3867 41.3373C69.8077 41.4075 70.2286 41.4075 70.7197 41.2671C71.0705 41.1268 71.5616 41.0567 71.9124 41.0567C73.1051 41.0567 74.2978 41.0567 75.4905 40.7059C75.8413 40.6357 76.1921 40.7059 76.5429 40.7059C76.6832 40.9865 76.6832 41.197 76.4727 41.4075C75.701 42.2494 74.9292 43.0913 73.7365 43.3719C73.5261 43.4421 73.3156 43.5824 73.1753 43.7928C73.1051 43.9332 72.8946 44.0033 72.7543 44.0033C71.8423 43.863 71.1407 44.3541 70.4391 44.7751C70.2286 44.9154 69.948 44.9856 69.6674 45.0557C69.2464 45.196 68.7553 45.2662 68.3343 45.5468C68.1239 45.6871 67.8432 45.7573 67.5626 45.617C67.282 45.4767 67.0013 45.4767 66.7207 45.6871C66.5804 45.8274 66.2997 45.8274 66.0893 45.8976C65.528 45.9678 65.0369 46.2484 64.6861 46.6693C64.2652 47.0903 63.8442 47.4411 63.2128 47.4411C62.862 47.4411 62.5814 47.7217 62.2306 47.9322C62.0201 48.0725 61.8096 48.283 61.529 48.4233C61.1782 48.6338 60.8976 48.4935 60.7572 48.0725C60.5468 47.4411 60.4766 46.8097 60.6871 46.1782C60.7572 45.9678 60.7572 45.6871 60.7572 45.4065C60.7572 45.1259 60.6871 44.8452 60.6169 44.4944C60.5468 44.2138 60.8976 44.0033 60.6169 43.7227C60.9677 42.8808 60.5468 41.8986 60.8976 40.9865C60.9677 40.776 60.8274 40.4954 60.7572 40.2849C60.6169 39.7237 60.6871 39.3027 61.108 38.8818C61.2483 38.7414 61.2483 38.4608 61.3887 38.11C60.7572 38.11 60.196 38.11 59.6347 38.11C59.4944 38.11 59.3541 38.2503 59.2138 38.3205C58.6525 38.531 58.0912 38.8116 57.3896 38.8116C57.109 38.8116 56.7582 38.7414 56.4776 38.9519C56.4074 39.0221 56.1969 38.9519 56.0566 38.8818C55.4954 38.6713 55.0042 38.7414 54.5833 39.1624C54.3027 39.443 53.8817 39.5132 53.5309 39.5833C52.8293 39.7237 52.0576 39.7938 51.356 39.9341C51.1455 40.0043 50.9351 40.1446 50.7947 40.3551C50.3036 41.1268 49.602 41.3373 48.69 41.0567C48.3392 40.9164 48.0586 40.8462 47.7078 41.0567C47.357 41.2671 47.0763 41.0567 46.7255 40.9163C46.5151 40.8462 46.2344 40.8462 46.1643 40.9865C45.8836 41.2671 45.5329 41.3373 45.1821 41.4776C44.3402 41.8284 43.7789 41.6881 43.3579 40.8462C43.2176 40.6357 43.1475 40.3551 43.1475 40.1446C43.1475 39.443 43.0773 38.6713 43.0071 37.9697C42.937 37.5488 42.8668 37.1278 42.8668 36.777C42.8668 36.3561 42.8668 35.9351 42.7265 35.5843C42.6564 35.444 42.7265 35.3037 42.7265 35.1634C42.7265 34.8126 42.8668 34.5319 42.7265 34.111C42.6564 33.7602 42.7265 33.4094 42.7265 33.1288C42.7265 32.6377 42.8668 32.1465 43.3579 31.8659C43.5684 31.7256 43.6386 31.5853 43.5684 31.3748C43.4983 31.1643 43.4983 30.8837 43.4281 30.6732C43.1475 29.5507 42.7967 28.4281 42.8668 27.2355C42.8668 26.9548 42.7967 26.6742 42.7265 26.3234C42.3757 25.0606 42.3056 23.7275 41.8846 22.4647C41.8846 22.3945 41.8846 22.2542 41.8846 22.1139C41.8145 21.3422 41.9548 20.6406 41.7443 19.8688C41.6741 19.7285 41.8846 19.518 41.8846 19.3076C41.9548 18.606 42.0249 17.9044 42.0951 17.1326C42.0951 16.9222 42.1652 16.6415 42.2354 16.4311C42.3056 15.7996 42.3757 15.1682 42.0951 14.6069C41.8846 14.186 41.8846 13.8352 42.0249 13.4143C42.2354 12.9231 42.3056 12.432 42.2354 11.8708C42.2354 11.5901 42.2354 11.3095 42.3757 10.9587C42.6564 10.1168 42.5862 9.2749 42.3757 8.433C42.0951 7.52094 42.1652 6.67904 42.7967 5.9073C43.1475 5.48634 43.0773 4.92508 43.2878 4.43397C43.4983 4.01302 43.3579 3.52192 43.4281 3.03081C43.3579 2.68001 43.3579 2.11874 43.4983 1.55748C43.4983 1.27684 43.6386 0.99621 43.7789 0.715576C43.8491 0.715576 43.9192 0.715576 43.9192 0.715576Z" data-v-393d940a="" fill="#D4CEBD"></path><path d="M37.3941 38.6713C37.2537 38.3205 37.1134 38.0398 36.9731 37.7592C36.9731 37.689 36.903 37.6189 36.903 37.5487C37.1836 36.9173 36.7626 36.2859 36.8328 35.5843C36.8328 35.2335 36.7626 34.8125 36.6223 34.4618C36.482 34.0408 36.482 33.6198 36.6223 33.2691C36.6925 32.7779 36.903 32.2868 36.6925 31.7256C36.6223 31.5853 36.6223 31.3046 36.6925 31.1643C36.9731 30.7433 36.6223 30.2522 36.8328 29.8313C36.903 29.691 36.7626 29.4103 36.6925 29.1999C36.482 28.8491 36.5522 28.4983 36.7626 28.2878C37.2537 27.7265 37.1836 27.025 37.2537 26.3234C37.2537 26.1129 37.1836 26.0427 36.9731 25.9726C36.4118 25.7621 36.4118 25.6218 36.5522 25.0605C36.6223 24.7799 36.6925 24.5694 36.8328 24.2888C36.903 24.1485 36.6223 23.8678 36.6223 23.6573C36.6223 23.3066 36.8328 22.9558 36.7626 22.605C36.6925 22.2542 36.6925 21.9034 36.6223 21.5526C36.6223 21.4824 36.6223 21.4123 36.6925 21.3421C37.1134 20.7107 36.903 20.0091 36.9731 19.3075C36.9731 19.0971 36.903 18.8866 36.6925 18.8164C36.4118 18.6761 36.3417 18.3955 36.2715 18.185C35.9909 17.2729 35.9207 16.431 35.9207 15.519C35.9207 15.2383 36.0611 15.098 36.2014 14.9577C36.5522 14.6771 36.6223 14.3263 36.6223 13.9053C36.6223 13.5545 36.6223 13.2037 36.6223 12.7828C36.6223 12.5022 36.5522 12.3618 36.2715 12.2917C35.9207 12.2215 35.5699 12.0812 35.2192 12.1514C34.6579 12.1514 34.1668 12.1514 33.7458 11.7304C33.5353 11.9409 33.3249 12.0812 33.1144 12.2917C32.6233 12.853 31.9919 12.9231 31.3604 12.7828C31.2201 12.7126 31.0798 12.6425 30.8693 12.6425C29.817 12.5723 28.9751 13.0634 28.3436 13.9053C28.2033 14.0456 28.2033 14.3263 28.1331 14.5367C28.1331 14.6771 28.1331 14.8174 28.1331 14.8875C27.7824 15.2383 27.7824 15.519 28.1331 15.8698C28.2033 15.9399 28.1331 16.2206 28.063 16.431C27.9227 16.7117 27.7824 16.9923 27.5719 17.2028C27.3614 17.4132 27.2211 17.6237 27.4316 17.9745C27.642 18.3253 27.7824 18.6059 28.2033 18.6059C28.4839 18.6059 28.7646 18.8164 29.0452 18.6059C29.1154 18.5358 29.1855 18.6059 29.3258 18.6059C29.6766 18.6761 30.0976 18.7463 30.4484 18.7463C30.7992 18.7463 31.2201 18.6059 31.5709 18.6059C31.7814 18.6059 31.9919 18.6059 32.1322 18.6761C32.3427 18.7463 32.5531 18.7463 32.7636 18.6761C33.0442 18.6059 33.395 18.6059 33.6757 18.6059C34.0966 18.6761 34.4474 18.8164 34.8684 18.6059C35.0788 18.5358 35.2192 18.6761 35.3595 18.8164C35.4296 19.0269 35.3595 19.1672 35.2192 19.3075C35.0788 19.4478 34.9385 19.5882 34.7982 19.7285C34.728 19.8688 34.5877 20.0091 34.5877 20.1494C34.5176 20.7809 34.1668 21.1316 33.816 21.5526C33.6055 21.8332 32.6233 22.184 32.2725 22.184C31.9919 22.184 31.7814 22.184 31.5008 22.184C31.0798 22.184 30.5887 22.184 30.2379 22.5348C30.1677 22.605 30.0274 22.6751 29.8871 22.6751C29.6766 22.6751 29.5363 22.7453 29.396 22.8856C28.9751 23.4469 28.4138 23.3767 27.8525 23.1662C27.7122 23.0961 27.642 22.9558 27.5017 23.1662C27.3614 23.3066 27.3614 23.3767 27.4316 23.517C27.5719 23.7977 27.5719 24.0783 27.4316 24.4291C27.3614 24.7097 27.3614 25.0605 27.4316 25.4113C27.5017 25.8323 27.642 26.183 27.7122 26.604C27.7824 26.9548 27.8525 27.3056 27.7122 27.6564C27.5719 27.8668 27.7122 28.1475 27.9227 28.2878C28.2735 28.6386 28.3436 29.6208 27.9928 30.0418C27.7824 30.3224 27.7122 30.5329 27.7122 30.8837C27.7122 31.5151 27.8525 32.2167 27.5719 32.8481V32.9183C27.9928 34.0408 27.3614 35.0932 27.5719 36.2157C27.5719 36.356 27.5719 36.4262 27.5719 36.5665C27.642 36.9173 27.9928 37.0576 28.3436 36.9173C28.9751 36.6367 29.5363 36.4963 30.2379 36.7068C30.7992 36.8471 31.4306 36.777 31.9919 36.4262C32.2725 36.2157 32.6233 36.2157 32.9741 36.2157C33.395 36.2157 33.816 36.2157 34.3071 36.0754C34.728 35.9351 35.2192 36.0052 35.6401 36.0754C35.9909 36.0754 36.1312 36.4963 35.8506 36.777C35.6401 36.9874 35.4296 37.1278 35.2192 37.2681C34.728 37.4786 34.2369 37.689 33.816 37.8995C33.6757 37.9697 33.5353 38.11 33.395 38.1801C32.8338 38.5309 32.4128 39.0922 31.7814 39.2325C31.5709 39.3027 31.3604 39.5833 31.15 39.7938C30.7992 40.1446 30.4484 40.3551 29.9573 40.4252C29.396 40.4954 28.9049 40.6357 28.3436 40.776C27.9227 40.9163 27.5719 41.2671 27.2912 41.6179C27.1509 41.7582 27.0106 41.9687 26.8703 42.1792C26.4493 42.7404 25.8881 43.0211 25.1865 42.9509C24.8357 42.9509 24.5551 43.0912 24.2744 43.3017C24.1341 43.3719 23.9938 43.442 23.8535 43.5122C23.5729 43.5823 23.3624 43.442 23.3624 43.0912C23.3624 42.9509 23.3624 42.8808 23.3624 42.7404C23.5729 41.9687 23.3624 41.3373 23.0817 40.5655C22.9414 40.1446 23.0116 39.6535 23.0817 39.2325C23.1519 38.8116 23.3624 38.3205 23.5729 37.8995C23.7132 37.6189 23.7132 37.3383 23.5729 36.9875C23.2922 36.0754 23.0116 35.0932 22.9414 34.111C22.8713 33.1989 22.8011 32.2868 22.6608 31.3748C22.5205 30.603 22.5906 29.7611 22.8011 28.9894C22.9414 28.4983 22.8713 27.937 22.9414 27.4459C23.0817 26.1129 23.1519 24.85 23.1519 23.517C23.1519 22.9558 23.1519 22.4647 22.9414 21.9034C22.8011 21.4123 22.731 20.9212 22.5906 20.3599C22.5205 20.0793 22.31 19.8688 22.5906 19.5882C22.5205 18.8164 22.8011 18.0447 22.4503 17.2729C22.3802 17.1326 22.4503 16.9221 22.4503 16.7818C22.4503 16.0101 22.31 15.1682 22.0995 14.3964C22.0294 14.1158 22.0294 13.765 22.31 13.5545C22.5906 13.2739 22.6608 12.9231 22.4503 12.5022C22.31 12.2215 22.31 11.9409 22.2398 11.5901C22.1697 10.9587 22.31 10.3974 22.8713 9.97645C22.9414 9.90629 23.0817 9.83613 23.0817 9.76597C23.2922 9.13455 23.9938 9.20472 24.4148 8.85392C24.4849 8.78377 24.6252 8.78377 24.6252 8.85392C25.1163 9.13456 25.7478 9.06439 26.2389 9.41518C26.5897 9.62566 26.8703 9.76598 27.2912 9.55551C27.642 9.41519 28.1331 9.13455 28.5541 9.48535H28.6944C29.6065 9.06439 30.5887 9.20471 31.5008 8.99424C31.7814 8.92408 31.9919 8.78376 32.2023 8.64345C32.6233 8.36281 33.1144 8.22249 33.6055 8.57328C34.1668 8.92408 34.728 9.20472 35.3595 8.85392C35.4296 8.78377 35.4998 8.85392 35.6401 8.85392C36.1312 8.78377 36.2014 8.78376 36.2014 8.22249C36.2014 7.80154 36.3417 7.59107 36.6925 7.52091C36.7626 7.52091 36.7626 7.45075 36.903 7.45075C36.903 6.1879 36.903 4.85489 37.5344 3.59204C37.7449 3.87267 37.8852 4.08315 38.0956 4.22346C38.4464 4.57425 38.7271 4.92505 38.6569 5.48632C38.6569 5.62663 38.7271 5.83711 38.7972 6.04759C39.0077 6.60885 39.2883 7.17012 39.0077 7.80155C38.9375 8.01202 38.9375 8.29265 39.0077 8.43297C39.2182 9.20471 39.0077 10.1168 39.4287 10.8184C39.3585 11.3796 39.7093 11.8707 39.4988 12.432C39.2883 12.9933 39.6391 13.5545 39.6391 14.186C39.7093 14.6771 39.8496 15.098 39.9198 15.519C39.9899 16.5012 40.0601 17.4834 40.1302 18.3955C40.2004 18.9567 40.0601 19.518 40.2706 20.0793C40.3407 20.4301 40.4109 20.851 40.2706 21.1316C39.9899 21.9034 40.2706 22.6751 40.3407 23.4469C40.4109 23.8678 40.481 24.2186 40.5512 24.6396C40.6213 25.0605 40.8318 25.5516 41.0423 25.9726C41.1826 26.2532 41.2528 26.5338 41.1125 26.8145C40.6213 27.6564 40.8318 28.7088 40.6214 29.6208C40.902 30.3926 40.902 31.1643 41.2528 31.936C41.3931 32.2167 41.5334 32.6376 41.5334 32.9183C41.5334 33.4094 41.4633 33.8303 41.3229 34.3214C41.1826 34.8125 41.1125 35.3036 41.1826 35.7948C41.2528 36.2157 41.1826 36.7068 41.1826 37.1278C41.1826 37.4786 41.1125 37.7592 41.3931 38.0398C41.5334 38.1802 41.5334 38.4608 41.4633 38.6011C41.2528 39.0922 41.1826 39.5131 41.6036 39.9341C41.6737 40.0043 41.6737 40.2147 41.6737 40.3551C41.6737 40.776 41.6737 41.2671 41.6737 41.6881C41.6737 42.109 41.814 42.4598 41.7439 42.8808C41.6737 43.1614 41.8842 43.442 42.0245 43.7928C42.3052 43.6525 42.5858 43.5122 42.7963 43.5122C43.3575 43.6525 43.9188 43.3719 44.4099 43.3017C45.1816 43.1614 45.9534 43.2315 46.7251 43.0912C47.4969 42.9509 48.2686 43.0211 49.0404 42.9509C49.6016 42.8808 50.0927 42.8808 50.5838 42.4598C50.7242 42.3195 51.0048 42.1792 51.2153 42.1792C51.987 42.109 52.6886 42.0388 53.4603 41.9687C53.6007 41.9687 53.8813 41.9687 53.9515 41.8986C54.2321 41.5478 54.5829 41.6179 54.9337 41.6179C55.2143 41.6179 55.4949 41.6881 55.7756 41.4776C55.8457 41.4074 56.0562 41.4776 56.1965 41.4776C56.8279 41.7582 56.8981 42.0389 56.407 42.4598C55.8457 42.9509 55.2143 43.5122 54.653 44.0033C54.4426 44.1436 54.3022 44.2138 54.0216 44.2138C53.4603 44.2138 52.9692 44.3541 52.6184 44.775C52.408 45.0557 52.1273 45.1258 51.8467 45.196C51.4959 45.196 51.2153 45.4065 51.0048 45.6169C50.654 45.9677 50.2331 46.0379 49.8121 46.0379C48.9 45.9677 47.988 46.0379 47.1461 46.529C46.8655 46.7395 46.5848 46.95 46.3042 47.1604C46.0937 47.3008 45.9534 47.5112 45.7429 47.7217C45.1817 48.283 44.6905 48.3531 43.989 48.0023C43.6382 47.7918 43.2874 47.7217 42.8664 48.0023C42.5858 48.1426 42.5156 48.3531 42.4455 48.6337C42.3052 49.0547 42.235 49.5458 42.0947 49.9668C41.8842 50.5982 41.2528 50.8788 40.6915 50.5982C40.2004 50.3176 39.7794 50.3877 39.2883 50.6684C38.5868 51.0191 38.3763 50.949 37.7449 50.3877C37.6747 50.3175 37.6045 50.2474 37.5344 50.1772C36.6925 49.6861 36.7626 48.8442 36.903 48.0725C36.9731 47.5814 37.2537 47.2306 37.4642 46.8096C37.6747 46.3887 37.6747 46.3887 37.4642 45.9677C37.3941 45.8274 37.3239 45.6871 37.2537 45.5468C36.903 45.0557 37.0433 44.7049 37.3239 44.2839C37.7449 43.7227 37.7449 43.7227 37.3239 43.0912C36.903 42.53 36.7626 41.8985 36.6925 41.2671C36.6223 40.7058 36.7626 40.1446 36.8328 39.5131C36.8328 39.3728 36.9731 39.3027 37.0433 39.1624C37.0433 38.9519 37.2537 38.8116 37.3941 38.6713Z" data-v-393d940a="" fill="#D4CEBD"></path><path d="M0 10.117C0.280634 9.97667 0.140317 9.7662 0.140317 9.55573C0.210475 9.06462 0.350792 8.85414 0.841901 8.78398C1.05238 8.71382 1.26285 8.71382 1.47333 8.64367C1.89428 8.43319 2.38539 8.36303 2.80634 8.64367C3.08697 8.85414 3.3676 8.78398 3.7184 8.71382C4.27966 8.5735 4.70061 8.78398 4.91109 9.34525C5.12157 9.83636 5.05141 10.3275 5.05141 10.8186C5.05141 11.0992 5.05141 11.3798 5.19172 11.5903C5.4022 11.9411 5.47236 12.2919 5.54252 12.6427C5.68283 13.1338 5.96347 13.6249 6.17394 14.1862C6.38442 14.6773 6.52473 15.2386 6.52473 15.7998C6.52473 16.5014 6.66505 17.1328 6.94568 17.8344C7.01584 17.9747 7.01584 18.1852 7.01584 18.3957C7.01584 18.8166 7.01584 19.1674 7.01584 19.5884C7.01584 19.9392 7.15616 20.2198 7.36663 20.5004C7.78759 20.9915 7.99806 21.5528 7.99806 22.1141C7.99806 22.3947 8.13838 22.6052 8.2787 22.7455C8.69965 23.0963 8.91012 23.5173 8.83996 24.0785C8.83996 24.3592 8.91012 24.5696 9.1206 24.7801C9.33107 24.9906 9.33107 25.2712 9.19075 25.5518C8.98028 25.8325 9.05044 26.043 9.1206 26.3236C9.19075 27.0252 9.54155 27.7268 9.6117 28.4985C9.6117 28.8493 9.89234 29.1299 9.9625 29.4807C10.2431 29.3404 10.4536 29.3404 10.7342 29.4106C11.1552 29.5509 11.4358 29.4807 11.7866 29.2001C12.2076 28.8493 12.6285 28.4985 13.1196 28.2179C13.5406 27.9372 14.1018 27.7969 14.593 27.7969C15.0841 27.8671 15.5752 27.6566 16.0663 27.5163C16.4171 27.4461 16.6275 27.2356 16.6275 26.8147C16.6275 26.5341 16.6977 26.2534 16.4171 25.9728C15.9961 25.5518 15.926 24.9906 16.1364 24.4995C16.2066 24.3591 16.2768 24.1487 16.2768 24.0785C16.2066 23.9382 16.0663 23.7979 15.926 23.7277C15.5752 23.5874 15.505 23.3068 15.4349 23.0261C15.2945 22.6754 15.3647 22.4649 15.505 22.1842C15.7155 21.8335 15.7155 21.5528 15.505 21.1319C15.2945 20.6408 15.1542 20.1496 15.1542 19.5884C15.1542 18.8166 14.8736 18.1852 14.6631 17.4836C14.3825 16.5014 14.172 15.5192 14.1018 14.537C14.1018 14.116 13.8914 13.7652 14.1018 13.3443C14.172 13.2741 14.0317 13.0636 14.0317 12.9233C14.0317 12.6427 13.8914 12.2919 14.0317 12.0113C14.3123 11.5202 14.3123 11.0992 14.3123 10.5379C14.3123 10.1871 14.3825 9.90652 14.5228 9.55573C14.7333 9.13478 14.9437 8.64367 15.5752 8.64367C16.1364 8.22272 16.9082 8.01224 17.3291 7.38081C17.3993 7.2405 17.6098 7.17034 17.7501 7.10018C18.2412 6.88971 18.7323 6.67923 19.1532 6.46875C19.504 6.32843 19.925 6.39859 20.0653 6.81954C20.3459 7.45097 20.6266 8.08239 20.9072 8.71382C20.9774 8.99445 21.0475 9.27509 20.9774 9.55573C20.8371 10.0468 20.9072 10.6783 20.2758 10.9589C20.5564 11.6605 20.4863 12.2919 20.2056 12.9233C19.9952 13.2741 19.9952 13.6249 19.9952 14.0459C19.9952 14.6773 20.0653 15.3087 19.9952 15.87C19.925 16.782 20.2056 17.5538 20.6967 18.2554C20.9072 18.536 20.9774 18.8166 20.9774 19.1674C20.9774 20.1496 20.9774 21.202 20.9774 22.1842C20.9774 22.2544 20.9774 22.3947 20.9774 22.4649C20.6967 22.956 20.9072 23.5172 21.0475 24.0084C21.1878 24.7801 21.258 25.5518 21.0475 26.3938C20.9774 26.6744 21.0475 27.0953 21.1177 27.4461C21.258 27.8671 21.3282 28.3582 21.3282 28.8493C21.3282 29.7614 21.4685 30.7436 21.6088 31.6556C21.679 32.4975 21.679 33.3394 21.6088 34.1813C21.6088 34.5321 21.679 34.9531 21.3282 35.3039C21.258 35.374 21.258 35.6547 21.258 35.795C21.5386 36.3562 21.3983 36.9877 21.3983 37.6191C21.3983 37.7594 21.3282 37.9699 21.1878 38.0401C20.7669 38.3908 20.9072 38.8118 20.9072 39.1626C20.9774 39.5835 20.9774 39.9343 21.0475 40.3553C21.1177 40.9165 21.0475 41.4077 20.8371 41.8988C20.6266 42.46 20.6266 43.0915 20.6967 43.6527C20.6967 43.793 20.6967 44.0035 20.6266 44.1438C20.4863 44.7051 20.2056 45.1962 20.2056 45.8276C20.2056 46.0381 19.9952 46.2486 19.925 46.3889C19.6444 47.0905 19.504 47.8622 19.3637 48.634C19.1533 49.6863 19.4339 50.7387 18.8025 51.7209C18.5218 51.0895 18.3113 50.5283 18.3815 49.8968C18.4517 49.1251 18.3113 48.4235 18.0307 47.7219C17.9606 47.5114 17.8904 47.3711 18.0307 47.0905C18.171 46.88 18.0307 46.5292 18.0307 46.2486C18.0307 46.0381 17.8904 45.7575 17.8904 45.547C17.8904 44.8454 17.8904 44.1438 17.6098 43.4422C17.5396 43.2318 17.7501 42.881 17.6799 42.6004C17.6098 42.3197 17.3291 42.1092 17.259 41.8286C17.1888 41.548 17.1888 41.1972 17.3993 40.9165C17.5396 40.7061 17.5396 40.4254 17.6799 40.2149C17.8904 39.5134 17.8904 38.882 17.3993 38.3207C16.7679 37.5489 16.7679 36.707 17.259 35.8651C17.4694 35.5845 17.5396 35.2337 17.3993 34.8128C17.259 34.462 17.3291 34.1112 17.3291 33.7604C17.3291 33.129 17.259 33.0588 16.6977 32.8483C16.3469 32.708 15.9961 32.708 15.5752 32.7782C14.8034 33.0588 13.9615 33.129 13.1898 33.3394C12.3479 33.5499 11.7165 33.9709 11.2955 34.7426C10.9447 35.2337 10.8044 35.795 10.8044 36.3562C10.8044 36.4966 10.8044 36.6369 10.8746 36.707C11.2253 37.128 11.085 37.6191 10.9447 38.0401C10.8044 38.3207 10.8746 38.6013 11.0149 38.8118C11.1552 39.1626 11.3657 39.5134 11.506 39.8642C11.7165 40.4956 11.6463 40.7762 11.4358 41.6181C11.3657 41.8988 11.3657 42.1092 11.506 42.3899C11.7165 42.8108 11.7165 43.3019 11.7165 43.793C11.7165 44.1438 11.7165 44.3543 12.0673 44.5648C12.418 44.7051 12.5584 45.0559 12.5584 45.4768C12.5584 45.8276 12.6285 46.1083 12.6987 46.4591C12.9793 47.2308 12.9793 48.1429 12.9092 48.9146C12.9092 49.3356 12.6987 49.6863 12.9092 50.1073C12.9793 50.2476 12.9793 50.3879 12.9092 50.5282C12.5584 51.1597 12.839 51.7209 13.0495 52.3524C13.1196 52.7032 13.1898 52.9838 13.2599 53.3346C13.2599 53.4749 13.1196 53.6152 13.1196 53.7555C12.839 53.3346 12.6285 52.9136 12.3479 52.4225C12.2076 52.1419 12.0672 51.7911 11.9269 51.5105C11.8568 51.3701 11.7866 51.0895 11.7165 51.0194C11.1552 50.4581 11.085 49.6863 10.9447 48.9848C10.8044 48.4235 10.8044 47.7921 10.3133 47.301C10.1028 47.0905 9.9625 46.88 9.68186 46.8099C9.40123 46.6695 9.33107 46.459 9.19075 46.1784C9.05044 45.6873 8.7698 45.1962 8.62949 44.6349C8.48917 44.0737 8.34885 43.5124 8.2787 42.9511C8.20854 42.7407 8.20854 42.5302 8.2787 42.3899C8.55933 41.8988 8.2787 41.4076 8.13838 40.9867C7.99806 40.5657 7.78759 40.215 7.71743 39.7239C7.71743 39.7239 7.71743 39.6537 7.64727 39.6537C7.50695 39.3029 7.22632 38.9521 7.15616 38.6013C7.086 38.2505 7.086 37.8296 7.086 37.4788C7.086 37.3385 6.94568 37.1981 6.87553 37.0578C6.66505 36.707 6.59489 36.3563 6.59489 35.9353C6.52473 35.4442 6.38442 34.9531 6.2441 34.3918C6.2441 34.3216 6.17394 34.2515 6.17394 34.2515C5.4022 33.9708 5.61267 33.1991 5.47236 32.6378C5.4022 32.3572 5.33204 32.0766 5.05141 31.9363C4.70061 31.7258 4.5603 31.4452 4.63046 31.0242C4.70061 29.9017 4.34982 28.7791 4.06919 27.7268C3.64824 26.043 3.01681 24.4293 2.80634 22.7455C2.45554 21.9036 2.24507 21.1319 2.10475 20.3601C1.82412 19.2376 1.40317 18.2554 0.91206 17.203C0.631426 16.5014 0.350792 15.7998 0.350792 14.9579C0.350792 14.3265 0.210475 13.6951 0.140317 13.0636C0.140317 13.0636 0.0701584 12.9935 0 12.9935C0 12.0814 0 11.0992 0 10.117Z" data-v-393d940a="" fill="#D4CEBD"></path></svg>