<svg xmlns:xlink="http://www.w3.org/1999/xlink" xmlns="http://www.w3.org/2000/svg" viewBox="0 0 36 28" preserveAspectRatio="xMidYMid" class="BaseIcon-icon" data-v-1e92d442="" width="36"  height="28" ><defs><symbol xmlns="http://www.w3.org/2000/svg" viewBox="0 0 36 28" id="discord--sprite">
<path d="M30.4755 2.49328C28.181 1.43621 25.7205 0.657399 23.1478 0.211344C23.101 0.202735 23.0542 0.224249 23.0301 0.267277C22.7136 0.832374 22.3631 1.56959 22.1176 2.14904C19.3506 1.73311 16.5978 1.73311 13.8875 2.14904C13.642 1.55671 13.2787 0.832374 12.9609 0.267277C12.9367 0.225684 12.8899 0.204171 12.8431 0.211344C10.2719 0.655974 7.81134 1.43478 5.5154 2.49328C5.49553 2.50189 5.47849 2.51624 5.46718 2.53488C0.800088 9.53559 -0.478425 16.3642 0.14877 23.1082C0.151608 23.1412 0.170055 23.1728 0.195597 23.1928C3.27481 25.4633 6.25756 26.8416 9.18492 27.7552C9.23177 27.7696 9.28141 27.7524 9.31122 27.7136C10.0037 26.7642 10.621 25.7631 11.1502 24.7103C11.1814 24.6486 11.1516 24.5755 11.0878 24.5511C10.1087 24.1782 9.1764 23.7235 8.27959 23.2072C8.20866 23.1656 8.20298 23.0637 8.26824 23.0149C8.45696 22.873 8.64573 22.7252 8.82593 22.5761C8.85853 22.5488 8.90397 22.5431 8.9423 22.5603C14.8339 25.2611 21.2123 25.2611 27.0344 22.5603C27.0728 22.5416 27.1182 22.5474 27.1522 22.5746C27.3325 22.7238 27.5212 22.873 27.7113 23.0149C27.7766 23.0637 27.7723 23.1656 27.7014 23.2072C26.8046 23.7335 25.8723 24.1782 24.8918 24.5497C24.8279 24.574 24.7995 24.6486 24.8308 24.7103C25.3714 25.7616 25.9887 26.7627 26.6683 27.7122C26.6967 27.7524 26.7478 27.7696 26.7946 27.7552C29.7362 26.8416 32.7189 25.4633 35.7981 23.1928C35.8251 23.1728 35.8422 23.1426 35.845 23.1096C36.5956 15.3129 34.5877 8.54021 30.5223 2.5363C30.5124 2.51624 30.4954 2.50189 30.4755 2.49328ZM12.03 19.0018C10.2562 19.0018 8.7947 17.3668 8.7947 15.3588C8.7947 13.3508 10.2279 11.7157 12.03 11.7157C13.8463 11.7157 15.2937 13.3651 15.2653 15.3588C15.2653 17.3668 13.8321 19.0018 12.03 19.0018ZM23.9921 19.0018C22.2184 19.0018 20.7568 17.3668 20.7568 15.3588C20.7568 13.3508 22.19 11.7157 23.9921 11.7157C25.8084 11.7157 27.2558 13.3651 27.2275 15.3588C27.2275 17.3668 25.8084 19.0018 23.9921 19.0018Z"></path>
</symbol></defs><use xlink:href="#discord--sprite" data-v-1e92d442="" fill="#D4CEBD"></use></svg>