<svg xmlns:xlink="http://www.w3.org/1999/xlink" xmlns="http://www.w3.org/2000/svg" data-v-1e92d442="" viewBox="0 0 50 35" preserveAspectRatio="xMidYMid" class="BaseIcon-icon" width="50"  height="35" ><defs><symbol xmlns="http://www.w3.org/2000/svg" viewBox="0 0 50 35" fill="none" id="cashless--sprite">
<path d="M49.9395 5.49974C49.94 5.496 49.9793 5.49921 50 5.49921C50 5.07294 50 4.64667 50 4.22041C49.8099 4.03054 49.7239 3.77114 49.7653 3.53635C49.7924 3.38178 49.5327 3.33632 49.6931 3.16303C49.7419 3.11008 49.6516 2.92129 49.6171 2.7972C49.5799 2.66403 49.5337 2.53406 49.4912 2.40249C49.4488 2.27092 49.4243 2.12973 49.359 2.01099C49.3001 1.90402 49.1854 1.83022 49.1137 1.72806C48.4004 0.715078 48.0037 0.510236 47.0005 0.240142C46.3532 0.0663199 45.717 0.186124 45.0791 0.125152C44.9756 0.11499 44.8104 0.213935 44.7876 0C44.2369 0 43.6856 0 43.1349 0C43.1349 0.0213935 43.1376 0.0609715 43.1344 0.0615064C42.9745 0.0855741 42.8131 0.101084 42.6538 0.129966C42.5263 0.152964 42.3394 0.258327 42.2878 0.209657C42.162 0.0909225 42.0138 0.31395 41.898 0.137453C41.8593 0.0786212 41.658 0.128361 41.5311 0.128361C40.0287 0.128361 38.5263 0.137988 37.0239 0.120873C36.6941 0.11713 36.3749 0.285604 36.043 0.164195C35.9517 0.320903 35.7722 0.0716683 35.684 0.242816C35.5656 0.0609715 35.3818 0.13264 35.2236 0.131035C34.6734 0.124082 34.1232 0.1305 33.573 0.126757C33.4812 0.125152 33.3473 0.175962 33.3452 0C31.9889 0 30.633 0 29.2767 0C29.2432 0.042787 29.2098 0.122478 29.1763 0.122478C27.8025 0.128896 26.4286 0.128896 25.0547 0.122478C25.0213 0.122478 24.9878 0.042787 24.9543 0C24.8694 0 24.7849 0 24.7 0C24.6984 0.175962 24.5645 0.125687 24.4727 0.126222C23.7748 0.129431 23.077 0.126757 22.3792 0.128896C22.1158 0.129966 21.8609 0.126222 21.6028 0.24656C21.3155 0.380805 20.8869 0.39578 20.427 0.241212C20.0574 0.11713 19.6989 0.140662 19.3325 0.129966C19.0791 0.122478 18.8248 0.133175 18.5714 0.123013C18.5364 0.120873 18.5045 0.042787 18.4711 0C18.3017 0 18.1322 0 17.9623 0C17.9474 0.036369 17.9315 0.104293 17.9182 0.103759C17.5507 0.0871786 17.2029 0.252978 16.8455 0.247095C16.1838 0.235864 15.5242 0.152964 14.8625 0.133175C14.1492 0.111781 13.4355 0.129966 12.7217 0.123013C12.6883 0.121943 12.6559 0.042787 12.6224 0C11.5629 0 10.5035 0 9.44398 0C9.42115 0.21447 9.25439 0.123013 9.15243 0.123548C7.8391 0.129966 6.52524 0.127826 5.21191 0.127826C4.55498 0.127826 3.89751 0.149755 3.24165 0.120873C2.72067 0.0978754 2.29475 0.306462 1.91823 0.611855C1.35423 1.07021 0.891141 1.63233 0.552851 2.27788C0.380785 2.60573 0.279351 2.9737 0.166234 3.33044C-0.0169847 3.9086 -0.0031769 3.96208 0.158268 4.82317C0.193318 5.00822 0.175793 5.20665 0.15933 5.39705C0.146053 5.55536 0.34839 5.69175 0.173138 5.8768C0.109409 5.94366 0.163047 6.12283 0.163047 6.25065C0.163047 6.7411 0.182697 7.23208 0.158268 7.72092C0.127997 8.32155 0.212968 8.91789 0.0563027 9.52761C-0.098238 10.1298 0.139149 10.7535 0.211374 11.3674C0.241645 11.6263 0.260764 11.8884 0.279351 12.1467C0.315995 12.6553 0.374412 13.187 0.272447 13.6763C0.07489 14.6209 0.209781 15.5633 0.170482 16.5046C0.160392 16.7415 0.115251 16.9822 0.272447 17.2303C0.366446 17.3785 0.355825 17.6882 0.260233 17.8417C0.12959 18.0519 0.168889 18.246 0.167296 18.4444C0.158799 19.7655 0.168358 21.0871 0.158799 22.4086C0.156674 22.6916 0.232617 22.9825 0.0467434 23.2585C-0.0222953 23.3607 -0.0100808 23.5687 0.043557 23.6949C0.310684 24.3293 0.090291 24.986 0.157205 25.6278C0.161454 25.6706 0.0817939 25.722 0.0409017 25.7696C0.0802007 25.8129 0.157737 25.8589 0.157737 25.9049C0.163047 26.927 0.161454 27.9496 0.152957 28.9716C0.152957 29.0176 0.07489 29.0631 0.0531163 29.0866C0.0929463 29.284 0.152957 29.4589 0.158799 29.6354C0.173138 30.0825 0.170482 30.5307 0.161985 30.9778C0.149239 31.6597 0.406276 32.2732 0.63729 32.8904C0.829537 33.4033 1.31281 33.6119 1.73076 33.8991C2.2374 34.2468 2.83379 34.3136 3.38291 34.5217C3.9469 34.7351 4.00691 34.7062 5.05524 34.5329C5.21191 34.7816 5.34998 34.4495 5.52524 34.5179C5.66756 34.573 5.85184 34.634 5.97664 34.6356C6.38291 34.6404 6.81042 34.7773 7.20235 34.5479C7.21881 34.5382 7.23952 34.5318 7.25864 34.5308C7.8768 34.4874 8.4955 34.4532 9.11207 34.396C9.25067 34.3831 9.37654 34.6308 9.51355 34.4083C9.61817 34.5677 9.79396 34.419 9.94 34.5147C10.059 34.5928 10.2687 34.5308 10.4381 34.5308C10.6076 34.5308 10.777 34.5308 10.9464 34.5308C11.1158 34.5308 11.2852 34.5308 11.4546 34.5308C11.6453 34.5308 11.8359 34.5308 12.0266 34.5308C12.196 34.5308 12.3861 34.58 12.5305 34.5195C12.7669 34.4206 12.9427 34.6982 13.2034 34.5505C13.3808 34.4505 13.6585 34.5361 13.8917 34.5286C14.0552 34.5233 14.2645 34.5591 14.3718 34.4735C14.5534 34.3286 14.5868 34.6399 14.7446 34.5388C14.872 34.4575 15.0457 34.4045 15.1949 34.412C15.4551 34.4254 15.7408 34.2906 15.9777 34.5131C16.0016 34.5356 16.0558 34.5275 16.0961 34.5308C16.6718 34.5741 17.247 34.6286 17.8232 34.6522C18.0175 34.6602 18.2459 34.7516 18.4116 34.5356C18.4355 34.5045 18.5353 34.5201 18.5964 34.5329C18.9012 34.5981 19.1721 34.711 19.5189 34.5548C19.7833 34.4356 20.1439 34.5313 20.4615 34.5313C20.8003 34.5313 21.1397 34.5313 21.4785 34.5313C21.7961 34.5313 22.1142 34.5313 22.4318 34.5313C22.7706 34.5313 23.1137 34.4992 23.4477 34.5414C23.7154 34.5751 23.9517 34.4206 24.2395 34.5131C24.5088 34.5997 24.8269 34.5318 25.1232 34.5318C25.4196 34.5318 25.7164 34.5318 26.0133 34.5318C26.3102 34.5318 26.6065 34.5318 26.9034 34.5318C27.2002 34.5318 27.4966 34.5318 27.7934 34.5318C28.0903 34.5318 28.3866 34.5318 28.6835 34.5318C28.9804 34.5318 29.2767 34.5318 29.5736 34.5318C29.8699 34.5318 30.1673 34.5222 30.4631 34.5356C30.641 34.5436 30.8226 34.4778 30.9974 34.6399C31.0781 34.7147 31.3086 34.711 31.4227 34.65C31.8009 34.4479 32.1965 34.5521 32.5831 34.5366C33.0696 34.5174 33.5587 34.5521 34.0446 34.5259C34.5151 34.5008 34.9756 34.3393 35.4541 34.4061C35.6532 34.4339 35.8561 34.3313 36.0606 34.488C36.1461 34.5532 36.3808 34.4008 36.4918 34.4575C36.6431 34.535 36.778 34.4051 36.9416 34.5131C37.0855 34.6083 37.3234 34.5933 37.5173 34.635C37.8773 34.7126 38.2682 34.6436 38.6463 34.6356C38.76 34.4254 38.8423 34.6511 38.9299 34.6698C39.0446 34.6944 39.0876 34.4211 39.2289 34.6201C39.2772 34.6885 39.4127 34.4585 39.4923 34.6399C39.9198 34.6217 40.3548 34.7693 40.7748 34.5511C40.8757 34.4987 41.0218 34.5334 41.1477 34.5324C41.3808 34.5302 41.6474 34.6024 41.837 34.511C42.0069 34.4286 42.196 34.5933 42.3325 34.4099C42.3627 34.3687 42.5056 34.3767 42.5767 34.4083C43.077 34.6297 43.6022 34.5045 44.1153 34.5281C44.538 34.5473 44.9623 34.5318 45.3861 34.5318C45.4918 34.5318 45.5985 34.5238 45.7037 34.534C45.8232 34.5457 45.94 34.5821 46.0595 34.5923C46.1333 34.5987 46.2093 34.5671 46.2841 34.5666C46.8641 34.5634 47.923 34.3521 48.2815 33.8938C48.4063 33.7344 48.5056 33.5515 48.6463 33.4097C48.7876 33.268 48.9655 33.1632 49.1285 33.0434C49.6038 32.6947 49.6649 32.1603 49.7435 31.6378C49.7701 31.4624 49.9241 30.8286 50.0011 30.6944C50.0011 30.6093 50.0011 30.5237 50.0011 30.4387C49.9798 30.4387 49.9416 30.4435 49.94 30.4382C49.8736 30.2098 49.7456 29.9771 49.7594 29.7525C49.7934 29.1947 49.598 28.6187 49.8688 28.0779C49.667 27.9859 49.9219 27.7752 49.7642 27.6715C49.9007 27.4661 49.6702 27.2767 49.7419 27.066C49.8062 26.8783 49.8704 26.6756 49.8635 26.482C49.8545 26.244 49.9634 25.9942 49.7605 25.7562C49.6766 25.6583 49.76 25.4262 49.7424 25.2577C49.7281 25.1208 49.932 24.9994 49.7632 24.8593C49.9549 24.7159 49.8667 24.5084 49.8694 24.3303C49.8795 23.5853 49.8752 22.8397 49.8726 22.0947C49.872 21.8995 49.9097 21.6952 49.7759 21.5213C49.9782 21.3261 49.8412 21.0796 49.8678 20.8587C49.8933 20.649 49.8832 20.433 49.8694 20.2206C49.8619 20.1056 49.8147 19.9933 49.7791 19.8559C49.7902 19.8441 49.8322 19.7981 49.8768 19.75C49.7451 19.3815 49.6495 19.0178 49.8412 18.6295C49.9007 18.5097 49.8715 18.3423 49.872 18.1963C49.8741 17.3657 49.872 16.5356 49.8752 15.705C49.8757 15.613 49.8253 15.4777 50.0005 15.4761C50.0005 14.8792 50.0005 14.2823 50.0005 13.6854C49.9793 13.6854 49.9405 13.6886 49.94 13.6849C49.8933 13.4282 49.8784 13.1618 49.7987 12.9169C49.7095 12.6436 49.7329 12.4125 49.8651 12.1617C49.9172 12.0627 49.8736 11.9119 49.8736 11.7852C49.8736 10.493 49.872 9.20135 49.8747 7.90919C49.8752 7.45618 49.6596 7.02563 49.7462 6.56407C49.8115 6.20894 49.8731 5.8538 49.9395 5.49974ZM47.6883 9.24682C47.7616 9.50568 47.6522 9.74475 47.6272 9.99238C47.5969 10.2972 47.5104 10.5962 47.6665 10.8989C47.7191 11.0005 47.7095 11.1407 47.7095 11.2632C47.7127 12.3077 47.6936 13.3528 47.7254 14.3957C47.7324 14.6198 47.5481 14.8262 47.6893 15.0482C47.4743 15.2279 47.6952 15.5344 47.5422 15.6831C47.3999 15.821 47.6192 15.8697 47.5444 15.9708C47.4891 16.0451 47.4551 16.1601 47.4642 16.2516C47.4758 16.365 47.5688 16.4703 47.5783 16.5837C47.5975 16.8164 47.6145 17.0581 47.5714 17.2844C47.5497 17.3999 47.5603 17.5892 47.5433 17.6021C47.3473 17.7443 47.5884 17.8042 47.5922 17.9058C47.6182 18.5706 47.6904 19.2344 47.7026 19.8997C47.71 20.3083 47.7865 20.7244 47.5922 21.1298C47.4674 21.3903 47.7031 21.6818 47.6155 21.9653C47.7738 22.054 47.5348 22.2198 47.6984 22.3471C47.7701 22.4028 47.7106 22.6301 47.7106 22.7788C47.7106 22.9494 47.7106 23.12 47.7106 23.2901C47.7106 24.1426 47.6994 24.9957 47.7138 25.8477C47.727 26.6194 47.914 27.3832 47.838 28.1608C47.794 28.6117 47.7366 29.0626 47.7154 29.515C47.6941 29.9616 47.7281 30.4109 47.7037 30.8575C47.6904 31.0933 47.6161 31.3287 47.5475 31.5576C47.4127 32.0111 46.9947 32.1069 46.6251 32.2138C46.4387 32.2678 46.2374 32.2759 46.0425 32.3449C45.8598 32.409 45.6394 32.3133 45.4562 32.4759C45.3967 32.5289 45.2401 32.5149 45.1476 32.4791C44.4551 32.2128 43.7382 32.4256 43.0372 32.3561C42.6697 32.5529 42.3064 32.5117 41.932 32.3631C41.8221 32.3192 41.6803 32.3561 41.5534 32.3561C40.6633 32.3561 39.7727 32.3342 38.8837 32.3636C38.2576 32.3844 37.6569 32.1416 37.0287 32.2267C36.6447 32.2785 36.2549 32.2935 35.8752 32.3631C35.607 32.4123 35.3712 32.2368 35.0834 32.3385C34.838 32.4246 34.5385 32.3561 34.2634 32.3561C33.9666 32.3561 33.6702 32.3561 33.3734 32.3561C33.0977 32.3561 32.8226 32.3561 32.547 32.3561C32.3564 32.3561 32.1588 32.3251 31.9766 32.3652C31.8104 32.4016 31.6644 32.1486 31.5061 32.3513C31.419 32.1406 31.1864 32.4208 31.094 32.2277C30.7292 32.2823 30.3452 32.1095 29.992 32.332C29.9304 32.3711 29.8274 32.3668 29.7488 32.3529C28.9002 32.1978 28.9087 32.2283 28.1062 32.4278C27.7589 32.5139 27.3601 32.4914 27.0074 32.4133C26.7987 32.3668 26.5709 32.309 26.4047 32.3705C25.8933 32.5599 25.376 32.4625 24.8625 32.4791C24.2486 32.4989 23.615 32.5781 23.0239 32.4599C22.2921 32.3133 21.5709 32.3962 20.8465 32.3614C20.6713 32.3529 20.4923 32.3128 20.3118 32.4593C20.2082 32.5433 19.932 32.5508 19.8295 32.47C19.572 32.2668 19.2533 32.4738 19.0574 32.3379C18.8067 32.1646 18.5698 32.2802 18.3351 32.2277C17.9559 32.1432 17.6091 32.3235 17.2512 32.3828C16.7647 32.4636 16.7727 32.5 16.2608 32.3754C16.1418 32.3465 16.0117 32.3566 15.8869 32.3566C15.2724 32.355 14.658 32.3647 14.0436 32.3524C13.7408 32.3465 13.4286 32.4272 13.1365 32.2379C13.0558 32.1855 12.8317 32.2085 12.7892 32.2732C12.6734 32.4508 12.6107 32.1903 12.4997 32.2711C12.4137 32.3336 12.2119 32.3684 12.1572 32.3155C11.9766 32.1411 11.8927 32.4117 11.7276 32.3721C11.5459 32.3283 11.3298 32.2999 11.1376 32.4716C11.0547 32.546 10.8168 32.5401 10.7111 32.4722C10.4971 32.3352 10.273 32.3288 10.059 32.3663C9.85184 32.4026 9.67818 32.1855 9.47638 32.3245C9.35583 32.1122 9.29635 32.3855 9.18588 32.3631C9.04303 32.3342 8.89061 32.3507 8.74244 32.3577C8.62295 32.3636 8.51568 32.3668 8.39088 32.4326C8.24005 32.5117 8.00001 32.4187 7.84866 32.4973C7.65535 32.5978 7.53426 32.2449 7.36698 32.4641C7.08976 32.2593 6.77218 32.3748 6.47425 32.3614C6.03028 32.3417 5.58418 32.347 5.13968 32.3604C4.94212 32.3663 4.72704 32.2812 4.54648 32.4716C4.4955 32.5251 4.31812 32.524 4.24324 32.477C3.89273 32.2561 3.51037 32.4123 3.09082 32.3278C2.91504 32.1871 2.69093 32.0085 2.53161 31.8806C2.22624 31.2099 2.24961 30.5585 2.35689 29.9627C2.4477 29.4583 2.51302 28.9476 2.42433 28.4807C2.32077 27.9357 2.34892 27.403 2.33193 26.8655C2.32555 26.6697 2.23474 26.4403 2.44823 26.2734C2.47903 26.2493 2.46257 26.1493 2.45089 26.0873C2.41371 25.891 2.36698 25.6963 2.32609 25.5005C2.2836 25.3032 2.31865 25.1085 2.25174 24.8946C2.1503 24.5694 2.15349 24.1731 2.24058 23.8409C2.28838 23.6591 2.31759 23.4826 2.32077 23.3045C2.33246 22.729 2.33193 22.1535 2.32077 21.578C2.31759 21.3999 2.393 21.2058 2.21403 21.0459C2.04143 20.8918 2.44398 20.694 2.20022 20.5228C2.43973 20.319 2.31281 20.0447 2.31387 19.8072C2.31493 19.5895 2.41106 19.3542 2.23527 19.137C2.18323 19.0729 2.26767 18.9049 2.27404 18.784C2.28413 18.584 2.32821 18.369 2.27351 18.185C2.17579 17.8566 2.18748 17.5619 2.27882 17.2303C2.3861 16.8415 2.43708 16.4265 2.44451 16.0216C2.46576 14.8926 2.44451 13.7625 2.4562 12.6329C2.45938 12.3029 2.32024 11.983 2.4015 11.6509C2.24218 11.5054 2.5332 11.4434 2.46257 11.2835C2.40734 11.1589 2.50983 10.9481 2.43973 10.8492C2.28626 10.6342 2.32237 10.4122 2.32927 10.1903C2.33458 10.0116 2.25652 9.81749 2.43495 9.6549C2.48859 9.60623 2.48912 9.42973 2.44504 9.35164C2.23368 8.97619 2.35211 8.57399 2.32821 8.1857C2.31015 7.88833 2.24908 7.56047 2.3468 7.29894C2.43761 7.05451 2.26076 6.801 2.44451 6.59295C2.22253 6.33944 2.34945 6.03458 2.33033 5.75379C2.30856 5.43556 2.32555 5.11466 2.32555 4.79482C2.32555 4.49638 2.31546 4.19741 2.3298 3.90004C2.33671 3.74173 2.31759 3.59144 2.4015 3.41975C2.58312 3.04644 2.55285 3.032 2.95328 2.62926C4.09666 2.18963 5.18163 2.2875 6.25174 2.32173C6.58684 2.33243 6.93097 2.45063 7.28041 2.42816C7.53214 2.41158 7.7828 2.35543 8.03294 2.36024C8.22996 2.36398 8.41584 2.35436 8.60702 2.30515C8.85981 2.2399 9.15721 2.43137 9.38025 2.17465C9.53586 2.41747 9.67712 2.10459 9.85078 2.16182C10.0234 2.21851 10.2284 2.17198 10.419 2.17465C10.6012 2.17733 10.7732 2.16395 10.9474 2.28911C11.0457 2.35971 11.2353 2.30194 11.3834 2.30194C12.5698 2.30194 13.7568 2.30194 14.9432 2.30194C15.0701 2.30194 15.1976 2.29927 15.3245 2.30301C15.4275 2.30622 15.5884 2.27895 15.6224 2.33189C15.7308 2.49983 15.863 2.26557 15.8938 2.3442C15.983 2.56883 16.1556 2.1554 16.2172 2.40142C16.3229 2.36826 16.4281 2.30783 16.5343 2.30676C17.3181 2.29873 18.103 2.32013 18.8853 2.2859C19.0271 2.27948 19.153 2.56455 19.2916 2.30783C19.3675 2.50946 19.5645 2.24151 19.6511 2.40196C19.7547 2.33082 19.9273 2.41747 19.9543 2.38645C20.0712 2.2522 20.2411 2.49395 20.3256 2.31264C20.4875 2.52337 20.6208 2.21423 20.8019 2.28964C20.9464 2.35008 21.18 2.23616 21.2963 2.31531C21.5343 2.47737 21.777 2.43458 22.0154 2.42335C22.4227 2.40356 22.8285 2.34954 23.2342 2.2998C23.4854 2.26932 24.316 2.32762 24.6129 2.40196C24.7111 2.42656 24.8173 2.42816 24.9198 2.4287C25.4493 2.43137 25.9931 2.50625 26.5061 2.41372C27.5916 2.21797 28.6771 2.33136 29.7621 2.30729C30.8423 2.28269 31.9257 2.25702 33.0032 2.31638C33.8333 2.36238 34.6692 2.52764 35.4918 2.41533C37.043 2.20353 38.5953 2.36559 40.145 2.29713C40.4042 2.2859 40.6739 2.1431 40.9166 2.18695C41.7881 2.34473 42.6623 2.28376 43.5359 2.30515C43.7759 2.31104 44 2.52069 44.2443 2.42496C44.8747 2.17733 45.529 2.29446 46.1631 2.32227C46.727 2.34687 47.2353 2.58915 47.521 3.17533C47.6224 3.38392 47.4583 3.65669 47.7122 3.80002C47.7047 4.55254 47.9793 5.30185 47.8216 6.04528C47.7244 6.50256 47.7345 6.94915 47.7069 7.40269C47.6984 7.5364 47.6166 7.66369 47.5868 7.79794C47.47 8.32475 47.4843 8.52692 47.6883 9.24682Z" fill="#28282A"></path>
<path d="M25.1184 23.6602C24.743 23.6436 24.384 23.6655 24.0127 23.5516C23.7031 23.4564 23.3409 23.5345 23.0021 23.5318C22.3324 23.5265 21.6978 23.5313 21.0483 23.1767C20.2443 22.7376 19.743 22.4996 19.3086 21.8813C19.1922 21.7155 19.0664 21.5567 18.9506 21.3909C18.8099 21.1898 18.6845 20.9806 18.727 20.718C18.7334 20.6801 18.7557 20.6453 18.7812 20.5843C18.9018 20.5126 19.0388 20.4314 19.1344 20.3741C19.5353 20.5346 19.9671 20.5399 20.3096 20.4281C20.6283 20.3244 20.9209 20.3763 21.222 20.3378C21.5433 20.2966 21.8455 20.1623 22.1869 20.1885C22.3176 20.1987 22.4148 20.4051 22.5443 20.2597C22.6447 20.1468 22.7058 20.4185 22.8311 20.2581C22.8943 20.1773 23.1004 20.2094 23.3086 20.1811C23.4551 19.9767 23.6999 19.7516 23.795 19.474C23.932 19.0734 23.6691 18.6835 23.6591 18.3305C23.4004 18.0486 23.1243 18.0182 22.8285 18.0299C22.5534 18.0406 22.2581 17.969 22.008 18.0486C21.7238 18.1396 21.4859 17.9855 21.2172 18.0224C20.667 18.0979 20.1105 17.9727 19.5497 18.1401C19.1992 18.2444 18.7929 18.1594 18.4116 18.1594C18.0005 18.0963 17.9681 17.6566 17.7122 17.447C17.7122 17.2314 17.7122 17.0196 17.7122 16.8768C17.8832 16.6768 18.0207 16.5163 18.1471 16.3687C18.4041 16.3687 18.6373 16.3687 18.8699 16.3687C19.103 16.3687 19.3388 16.3917 19.5677 16.3618C19.7589 16.3366 19.9405 16.2955 20.1407 16.312C20.3463 16.3291 20.5571 16.2564 20.7669 16.2441C20.9989 16.2307 21.2363 16.2676 21.4647 16.2361C22.1126 16.1473 22.7329 16.4356 23.3643 16.3479C23.7292 16.2323 23.9591 15.9644 24.0526 15.628C24.154 15.2621 24.1689 14.8717 24.2209 14.4973C23.991 14.3337 23.8088 14.2048 23.6437 14.0871C23.418 14.0096 23.1593 14.177 22.9846 13.9406C22.7653 14.1689 22.5635 13.8427 22.3234 13.924C22.1142 13.9951 21.8625 13.939 21.6293 13.939C20.8476 13.939 20.0653 13.939 19.3043 13.939C19.1354 13.8266 18.9862 13.7277 18.8497 13.6368C18.8481 13.1672 19.1179 12.8634 19.3542 12.5355C19.4753 12.3676 19.6198 12.2574 19.7796 12.1317C20.1503 11.8397 20.6208 11.782 20.9952 11.5156C21.1163 11.4295 21.3038 11.4439 21.444 11.3765C21.7063 11.2509 22.0361 11.3391 22.2544 11.1926C22.5608 10.9872 22.8715 10.9824 23.1938 11.0022C23.6999 11.0332 24.136 10.8519 24.5555 10.6133C24.7939 10.6133 25.0266 10.6133 25.3006 10.6133C25.4296 10.4363 25.573 10.2395 25.6957 10.0705C25.6957 9.47198 25.6957 8.90292 25.6957 8.32797C25.5465 8.23865 25.4095 8.15628 25.2246 8.04504C24.2825 8.13863 23.2847 7.96374 22.2809 8.1611C21.7042 8.27448 21.103 8.3761 20.4944 8.32369C20.2937 8.30657 20.042 8.38519 19.8821 8.50928C19.6229 8.71091 19.3277 8.81253 19.0457 8.95533C18.6415 9.16071 18.2586 9.40887 17.8593 9.62548C17.35 9.90199 17.0228 10.3769 16.6113 10.7593C16.025 11.3038 15.6654 12.0114 15.316 12.712C15.0303 13.2854 14.974 13.4421 14.7244 13.6801C14.5369 13.8593 14.3266 13.948 14.0669 13.9395C13.6272 13.9245 13.2507 14.0994 12.9124 14.3358C12.7382 14.9466 12.6059 15.536 12.9262 16.1061C13.359 16.1366 13.7849 16.0195 14.0489 16.2307C14.3914 16.8923 14.3229 17.4523 14.0228 17.9887C13.6845 18.0577 13.3712 18.1219 13.0664 18.184C12.9586 18.2818 12.8486 18.3808 12.7531 18.4674C12.7531 19.0424 12.7531 19.5954 12.7531 20.1714C12.8986 20.2618 13.0499 20.3565 13.162 20.426C13.6368 20.3222 14.0648 20.5442 14.461 20.4549C14.6352 20.6303 14.77 20.7656 14.8619 20.8587C14.9315 21.0806 14.9873 21.2502 15.0372 21.4213C15.2448 22.1289 15.5406 22.7793 16.1142 23.2756C16.3861 23.5115 16.7058 23.7436 16.8619 24.0501C17.0866 24.4913 17.5066 24.6518 17.8407 24.9293C18.2762 25.2904 18.7488 25.6064 19.2146 25.9477C19.5799 26.0439 19.9681 26.1285 20.3447 26.2504C20.9968 26.4622 20.9915 26.46 21.6001 26.3499C21.7743 26.3183 21.9851 26.3338 22.1439 26.4066C22.4525 26.5483 22.7987 26.5456 23.1014 26.7066C23.2932 26.8088 23.5651 26.62 23.7414 26.8483C23.7865 26.8077 23.8391 26.7253 23.8763 26.7317C24.3181 26.8082 24.7185 26.5365 25.1498 26.5986C25.3505 26.4488 25.5443 26.3039 25.7169 26.1755C25.7169 25.7685 25.7042 25.4053 25.7196 25.0438C25.7446 24.4785 25.6107 23.9896 25.1184 23.6602Z" fill="#28282A"></path>
<path d="M36.8986 14.9065C36.777 14.4626 36.6957 14.0112 36.5916 13.564C36.4636 13.0174 36.3643 12.4516 35.8911 12.0643C35.8688 12.0462 35.8954 11.974 35.8736 11.9467C35.5879 11.583 35.4434 11.1476 35.2432 10.7385C34.9485 10.1363 34.5523 9.59927 34.0903 9.10134C33.8412 8.83285 33.6368 8.62266 33.2624 8.71679C33.12 8.86013 32.9851 8.99544 32.8375 9.14413C32.8375 9.25377 32.8646 9.34095 32.8327 9.37785C32.6734 9.56398 32.7573 9.70624 32.8131 9.92178C32.9368 10.4015 33.188 10.7695 33.5167 11.1016C33.8773 11.4664 34.1721 11.8632 34.3771 12.343C34.5778 12.8142 34.8513 13.2533 35.086 13.71C35.1976 13.9267 35.2751 14.1486 35.2597 14.408C35.239 14.7556 35.1976 15.1225 35.3861 15.4381C35.5252 15.6708 35.504 15.9109 35.5072 16.1559C35.5104 16.3901 35.496 16.6254 35.5114 16.8592C35.5252 17.072 35.6543 17.3245 35.5778 17.4844C35.4636 17.7224 35.5252 17.939 35.5146 18.1604C35.4934 18.6102 35.5491 19.067 35.2873 19.4761C35.2475 19.5382 35.2491 19.6371 35.256 19.7168C35.291 20.1185 35.1184 20.4645 34.9644 20.8116C34.8683 21.0282 34.6479 21.2224 34.6352 21.4358C34.6049 21.9305 34.3303 22.2894 34.1291 22.7028C33.8603 23.2558 33.5858 23.7757 33.136 24.2132C32.8582 24.4833 32.6463 24.8502 32.7217 25.27C32.88 25.4294 33.0149 25.5653 33.1524 25.7033C33.4031 25.7033 33.6564 25.7033 33.9278 25.7033C34.1418 25.4444 34.3441 25.154 34.5921 24.9117C34.8402 24.6694 35.1344 24.4753 35.3802 24.2822C35.3802 24.1602 35.3606 24.088 35.3834 24.0335C35.7414 23.181 36.0749 22.3156 36.478 21.485C36.7323 20.9608 36.9798 20.4351 37.0212 19.8601C37.0754 19.1119 37.0212 18.3605 37.146 17.6095C37.222 17.1533 37.1933 16.6709 37.1503 16.2061C37.1099 15.7686 37.0149 15.3311 36.8986 14.9065Z" fill="#28282A"></path>
<path d="M33.607 17.5951C33.6001 17.4015 33.7191 17.2047 33.7175 17.0095C33.7159 16.7923 33.6564 16.572 33.5964 16.3607C33.4769 15.9398 33.4657 15.4921 33.2799 15.0872C33.1306 14.7626 33.0568 14.4085 32.9421 14.0764C32.6845 13.3303 32.4514 12.55 31.8444 11.9782C31.7138 11.8558 31.6107 11.7039 31.4158 11.4717C31.2645 11.4455 30.9931 11.3995 30.7685 11.361C30.2979 11.7718 30.2379 12.2157 30.4673 12.7634C30.8178 13.1003 31.1014 13.5581 31.265 14.0876C31.3468 14.3513 31.3792 14.6171 31.5199 14.8781C31.7982 15.3948 31.8678 16.3949 31.871 17.0432C31.872 17.2261 31.8109 17.3871 31.8083 17.5635C31.8051 17.7989 31.889 17.9994 31.9411 18.215C31.9634 18.3075 31.957 18.4423 31.9039 18.5129C31.5762 18.9504 31.5858 19.4932 31.4519 19.9858C31.3117 20.5046 31.1338 20.9844 30.7392 21.3497C30.445 21.6219 30.3011 21.9685 30.1487 22.3076C30.2602 22.6071 30.3627 22.882 30.4673 23.1644C30.7403 23.2147 30.9957 23.2617 31.2204 23.3029C31.5879 22.9333 31.9363 22.6183 32.24 22.2642C32.4312 22.0412 32.6522 21.7733 32.6893 21.5021C32.7642 20.9576 33.0372 20.4896 33.1678 19.9671C33.3648 19.182 33.6368 18.423 33.607 17.5951Z" fill="#28282A"></path>
<path d="M30.1503 17.0902C29.9756 16.8998 30.1174 16.6361 30.0276 16.4538C29.8502 16.0922 29.9097 15.6681 29.6649 15.3247C29.436 15.0038 29.2645 14.6417 29.0621 14.301C28.9591 14.1277 28.8449 13.9609 28.7631 13.8336C28.3941 13.7539 28.153 13.8967 27.9357 14.0652C27.761 14.4235 27.7223 14.7851 27.7568 15.1605C27.9628 15.3959 28.0462 15.5397 28.1322 15.8307C28.3133 16.4415 28.3941 17.0645 28.3956 17.7042C28.3962 17.9636 28.3186 18.1792 28.2135 18.3984C28.1455 18.5407 28.068 18.6782 28.0074 18.8236C27.9549 18.9504 27.9586 19.1296 27.8694 19.2066C27.7238 19.3328 27.8619 19.4617 27.8046 19.5911C27.6479 19.9457 27.778 20.2634 28.0202 20.5421C28.1168 20.6533 28.213 20.7651 28.2841 20.8464C28.445 20.8464 28.5513 20.8464 28.7047 20.8464C28.7759 20.7747 28.8327 20.7116 28.8959 20.6549C29.2045 20.3784 29.4827 20.0698 29.6511 19.6922C29.8109 19.3344 29.9474 18.9579 30.0308 18.5755C30.1365 18.0898 29.8991 17.5694 30.1503 17.0902Z" fill="#28282A"></path>
</symbol></defs><use data-v-1e92d442="" xlink:href="#cashless--sprite" fill="#28282A"></use></svg>