<svg xmlns:xlink="http://www.w3.org/1999/xlink" xmlns="http://www.w3.org/2000/svg" data-v-1e92d442="" viewBox="0 0 46 61" preserveAspectRatio="xMidYMid" class="BaseIcon-icon" width="46"  height="61" ><defs><symbol xmlns="http://www.w3.org/2000/svg" viewBox="0 0 46 61" fill="none" id="map--sprite">
<path d="M22.4132 61.0006C22.3551 60.5674 21.8189 61.0006 21.7349 60.6146C21.0176 60.3061 20.6161 59.6613 20.2478 59.0367C19.9868 58.5942 19.6144 58.3127 19.2736 57.9747C18.4615 57.1706 17.6568 56.3589 16.8538 55.5455C16.7898 55.4806 16.7649 55.3778 16.7034 55.3087C16.0741 54.5982 15.4515 53.8809 14.8064 53.1847C14.237 52.5702 13.6036 52.0198 13.2495 51.2174C13.1356 50.9595 12.8305 50.7943 12.6352 50.5675C11.7624 49.5544 10.9777 48.4755 10.2919 47.3225C10.0491 46.9145 9.78979 46.5007 9.46477 46.1635C9.01423 45.6966 8.61606 45.1765 8.38248 44.5975C8.21706 44.187 7.71914 44.0462 7.71498 43.5675C7.06161 43.0154 6.83052 42.202 6.45396 41.478C6.07824 40.754 5.70666 40.0342 5.20459 39.3784C4.57616 38.5583 4.2636 37.5654 3.94108 36.5885C3.72661 35.9395 3.58613 35.2517 3.27773 34.6524C2.96851 34.0523 2.86377 33.4117 2.65595 32.7939C2.32096 31.7951 1.83966 30.8527 1.52212 29.843C1.46809 29.6702 1.37333 29.5084 1.35254 29.3094C1.30267 28.8315 1.30516 28.3233 1.13143 27.8926C1.01505 27.6052 0.99178 27.343 0.953542 27.0581C0.921123 26.8129 0.817216 26.5777 0.764847 26.3341C0.709153 26.0728 0.592777 25.7803 0.661771 25.5494C0.722453 25.3463 0.472245 25.1263 0.723284 24.9712C0.392444 24.7739 0.950217 24.5607 0.704996 24.3357C0.51547 24.1612 0.729934 23.9159 0.668421 23.6984C0.606908 23.4801 0.580308 23.2475 0.567839 23.0199C0.551214 22.7182 0.563683 22.4156 0.563683 22.113C0.563683 21.8441 0.557864 21.5752 0.565345 21.3072C0.577814 20.8436 0.457282 20.3034 0.653458 19.9384C0.867091 19.5397 0.525445 19.0517 0.952711 18.7407C1.01505 18.6951 0.966011 18.4844 0.961023 18.3496C0.917798 17.1746 1.3567 16.1219 1.74989 15.0531C1.91032 14.6165 2.17216 14.2085 2.16136 13.7104C2.15886 13.5975 2.24781 13.4811 2.30018 13.369C2.86294 12.162 3.48056 10.9803 3.94606 9.72699C4.02088 9.5247 4.12977 9.32072 4.26942 9.15973C4.93775 8.3944 5.61523 7.63666 6.306 6.8924C6.44981 6.739 6.6676 6.65387 6.84881 6.5325C7.43485 6.13803 7.79312 5.51262 8.31099 5.0482C9.34757 4.11767 10.518 3.4459 11.8039 2.90225C12.9012 2.43867 14.1048 2.2035 15.0791 1.42806C15.4315 1.14739 15.991 1.25612 16.3542 0.916439C17.3401 0.889467 18.2595 0.402286 19.2678 0.507645C19.9718 0.580975 20.6443 0.42673 21.3019 0.146053C21.5837 0.0255222 21.9195 0.00866479 22.232 0.00107894C22.4897 -0.00566404 22.7516 0.0617658 23.0084 0.113181C23.3127 0.173868 23.6152 0.244669 23.9137 0.328956C24.0591 0.370257 24.1913 0.458759 24.3351 0.511017C24.3941 0.532089 24.4881 0.543046 24.5288 0.510174C25.0334 0.114024 25.6593 0.453701 26.198 0.217697C26.4108 0.124981 26.7158 0.0904234 26.9236 0.173025C28.1298 0.652619 29.4224 0.837209 30.6252 1.31849C30.8247 1.39856 31.0691 1.40615 31.2304 1.53089C31.6601 1.86383 32.1306 1.98352 32.4906 1.93631C33.1107 2.12175 33.4798 2.45552 33.996 2.5651C34.3493 2.64011 34.7308 2.82892 35.0641 3.11465C35.7707 3.71983 36.7433 3.90864 37.4523 4.54332C37.6161 4.68998 37.8414 4.77427 37.9818 4.93694C38.6701 5.73008 39.5862 6.31082 40.0932 7.2717C41.0824 7.73275 41.4573 8.77707 42.0791 9.55841C42.8222 10.4923 43.2819 11.658 43.8638 12.7234C43.8979 13.5882 44.3119 14.3678 44.4307 15.1981C44.5429 15.9786 44.8688 16.6284 45.2005 17.301C45.3094 17.5219 45.4191 17.7612 45.444 18.0015C45.533 18.8443 45.6111 19.6906 45.6444 20.5377C45.6776 21.3763 45.7067 22.2217 45.6352 23.0553C45.572 23.8004 45.4307 24.5337 45.4307 25.2915C45.4307 25.6042 45.2412 25.9683 45.0309 26.2153C44.8198 26.4631 44.7757 26.7682 44.8779 26.9435C45.1365 27.3852 45.0193 27.8369 45.0542 28.2837C45.0891 28.7203 44.9968 29.1173 44.6269 29.4797C44.9212 30.4903 44.2229 31.3315 44.0409 32.2915C43.6477 32.5292 44.065 33.0678 43.6319 33.3434C43.3559 33.5187 43.183 33.8753 42.9935 34.1703C42.8605 34.3768 42.6909 34.6136 42.6868 34.8404C42.6726 35.6504 42.2479 36.2918 41.8372 36.9004C41.6344 37.2004 41.5055 37.503 41.3742 37.8216C41.0924 38.5094 40.7483 39.1795 40.5513 39.8917C40.3892 40.4792 39.9461 40.8475 39.6577 41.3263C39.3825 41.784 39.1223 42.2391 38.8838 42.7187C38.6311 43.2253 38.3551 43.7184 37.9544 44.1533C37.5853 44.5536 37.3534 45.0981 37.1198 45.6064C36.9353 46.0076 36.8297 46.4071 36.3401 46.5892C36.0907 46.6819 35.8239 46.9659 35.7375 47.223C35.4158 48.1755 34.7491 48.8986 34.2163 49.7061C33.6094 50.6265 32.9461 51.5107 32.1232 52.2575C31.7532 52.593 31.2961 52.9057 31.0899 53.3338C30.4823 54.599 29.3493 55.3618 28.4656 56.3589C27.5936 57.3442 26.5986 58.2335 25.8322 59.2946C25.2778 60.0625 24.5687 60.4831 23.8031 60.902C23.789 60.9096 23.8006 60.9669 23.8006 61.0006C23.3401 61.0006 22.8763 61.0006 22.4132 61.0006ZM17.838 3.94067C17.5088 4.10081 17.2669 4.24494 17.0076 4.34019C15.5961 4.86024 14.1514 5.29685 12.8804 6.15236C12.5246 6.39258 12.1373 6.68337 11.7374 6.73394C11.1605 6.80643 10.8131 7.13852 10.4573 7.50939C9.22288 8.79561 7.91864 10.0102 6.78563 11.3992C6.45563 11.8038 6.16967 12.2337 5.99178 12.6863C5.79727 13.1819 5.52462 13.6404 5.35089 14.1293C4.99594 15.1298 4.45978 16.0898 4.52545 17.2151C4.53709 17.4174 4.43734 17.6491 4.33177 17.8329C4.01755 18.3791 3.87125 18.9489 3.93443 19.5852C3.97017 19.951 3.95687 20.3244 3.93692 20.6928C3.91614 21.0737 4.06992 21.491 3.74241 21.8188C3.75072 22.5547 3.60774 23.336 3.80891 24.0128C4.01423 24.7057 4.00176 25.4491 4.32678 26.1091C4.40575 26.27 4.37915 26.5178 4.32678 26.7041C4.27524 26.8887 4.58862 26.898 4.43235 27.1896C4.28023 27.4737 4.45147 27.9288 4.45895 28.309C4.46394 28.5643 4.62936 29.049 4.92944 29.7216C5.27025 30.4844 5.67508 31.2396 5.86543 32.0437C6.00758 32.6447 6.25862 33.1538 6.51132 33.6941C6.99594 34.7308 7.54623 35.7439 7.85629 36.8565C7.95854 37.2232 8.01922 37.6058 8.28855 37.8831C8.82554 38.4369 9.15887 39.1196 9.49802 39.7965C10.0059 40.8079 10.5728 41.7924 11.2545 42.6782C11.8762 43.4866 12.4116 44.3438 12.8546 45.2414C13.3168 46.177 13.8239 47.0334 14.5945 47.7397C14.9452 48.0617 15.3384 48.3567 15.5321 48.8514C15.656 49.1675 15.9203 49.4347 16.1514 49.6977C16.7108 50.3366 17.4107 50.8465 17.8347 51.6119C18.2038 52.2777 18.6718 52.8534 19.2911 53.3069C19.5562 53.5007 19.8555 53.7342 19.9785 54.0208C20.2004 54.5383 20.5903 54.9142 20.9976 55.1865C21.6626 55.6315 22.1331 56.2645 22.7233 56.7593C23.06 56.7593 23.3891 56.7593 23.7241 56.7593C24.0733 56.3328 24.4166 55.9021 24.7724 55.4832C25.1506 55.039 25.6418 54.7018 25.9087 54.1472C25.9943 53.9685 26.247 53.8716 26.4274 53.7418C27.2911 53.1172 28.1373 52.4792 28.6809 51.5166C29.3617 50.3113 30.1888 49.2088 31.1473 48.226C31.8505 47.5054 32.3393 46.6381 32.9411 45.8491C33.0766 45.6721 33.3118 45.4951 33.3193 45.3097C33.3476 44.675 33.7832 44.337 34.1539 43.9392C34.2861 43.7976 34.4299 43.6568 34.5263 43.4908C34.9536 42.7549 35.3069 41.9812 35.8946 41.3372C36.1963 41.0068 36.3152 40.5112 36.5471 40.1092C36.7823 39.7004 37.07 39.3228 37.3077 38.9157C37.5263 38.5406 37.8123 38.1613 37.8771 37.7525C37.9353 37.3859 38.0841 37.0934 38.2296 36.784C38.666 35.8586 38.9727 34.8682 39.5579 34.0152C39.6261 33.9157 39.6543 33.7876 39.6942 33.6705C39.9079 33.0552 40.0641 32.4104 40.3468 31.8288C40.7416 31.0171 41.2296 30.2518 41.6818 29.4603C41.6818 29.0254 41.5737 28.5509 41.71 28.1665C41.8705 27.713 41.7225 27.1964 41.9162 26.8491C42.1789 26.3771 41.9885 25.9396 42.0791 25.5013C42.1049 25.3783 42.1232 25.2519 42.1597 25.1322C42.3484 24.5186 42.5479 23.9033 42.4723 23.25C42.3975 22.6069 42.6851 21.925 42.2778 21.3173C42.4274 20.8411 42.0932 20.4441 42.0708 19.9898C42.0359 19.2767 41.9478 18.567 41.8779 17.8556C41.8721 17.7966 41.8322 17.741 41.8123 17.682C41.5961 17.044 41.4083 16.4009 41.469 15.9052C40.8563 14.5583 40.2844 13.3867 39.7907 12.1823C39.5571 11.6125 39.2811 11.1026 38.8696 10.6516C38.6577 10.419 38.2936 10.2892 38.3019 9.88544C37.7591 9.39995 37.4756 8.65991 36.7715 8.32529C35.902 7.91228 35.1389 7.34671 34.4764 6.63027C34.3268 6.46844 34.0292 6.44568 33.7998 6.35971C33.3983 6.20884 32.9669 6.10938 32.6011 5.89529C32.0101 5.54887 31.4615 5.12743 31.0783 4.86361C30.4332 4.72707 30.0043 4.63772 29.5754 4.54501C29.2079 4.46578 28.779 4.73297 28.4656 4.34356C28.0251 4.41689 27.6876 4.1851 27.3143 3.99967C26.9885 3.83868 26.5978 3.79569 26.2295 3.74512C25.8239 3.68949 25.3858 3.84458 25.0217 3.53693C23.9627 3.53693 22.8945 3.45686 21.8488 3.5757C21.4191 3.62459 20.9785 3.76703 20.5379 3.72826C20.0749 3.6878 19.6651 3.88588 19.2279 3.92886C18.7358 3.97775 18.2362 3.94067 17.838 3.94067Z" fill="#28282A"></path>
<path d="M12.3343 23.5973C12.3817 23.4608 12.469 23.3166 12.4748 23.1691C12.4931 22.6997 12.4981 22.2285 12.4773 21.759C12.4515 21.169 12.7233 20.6329 12.7109 20.0286C12.6992 19.4833 12.9079 18.9185 13.0883 18.3867C13.267 17.8607 13.5081 17.3516 13.7691 16.8611C13.9619 16.5003 14.2321 16.1817 14.4673 15.8437C15.1731 14.8314 15.9021 13.8301 16.9802 13.1963C17.9611 12.6197 18.9819 12.1132 20.0833 11.8047C20.3518 11.7297 20.6219 11.6597 20.8946 11.6041C21.1689 11.5485 21.4964 11.7314 21.7084 11.4085C22.0517 11.728 22.3668 11.272 22.7375 11.3774C23.1057 11.4819 23.5704 11.2855 23.9129 11.4237C24.617 11.7078 25.3235 11.5257 26.0692 11.626C26.8647 12.0626 27.5895 12.7243 28.5072 13.0547C29.0293 13.2426 29.553 13.4474 29.9794 13.8208C30.8223 14.5592 31.7333 15.2453 31.9553 16.4708C31.9927 16.6757 32.1265 16.8737 32.2537 17.0474C32.8156 17.8177 33.129 18.6918 33.3418 19.6139C33.39 19.8229 33.4948 20.0193 33.5837 20.2166C33.7799 20.6506 33.9628 21.0822 33.9395 21.5812C33.927 21.8644 33.873 22.1476 34.1141 22.4198C34.2504 22.5732 34.0118 22.8244 33.9503 23.0309C33.7275 23.7785 33.7109 24.5852 33.3368 25.2932C33.3609 26.3291 32.7949 27.1787 32.3111 27.9786C31.4491 29.4022 30.2562 30.5738 28.804 31.4006C28.1664 31.7639 27.6028 32.2519 26.8431 32.4382C26.1074 32.6186 25.3751 32.8757 24.6519 33.1319C24.2238 33.2828 23.6286 33.3283 23.1406 33.0164C23.0442 32.9549 22.8871 32.9583 22.7641 32.976C21.8165 33.1134 20.8963 32.836 19.9711 32.7349C19.4249 32.6751 18.9071 32.2823 18.3917 32.0109C17.3069 31.4386 16.4507 30.5274 15.38 29.9163C14.9129 29.65 14.6136 29.0608 14.2753 28.5897C14.0409 28.2635 13.9162 27.8496 13.6627 27.5437C13.1539 26.93 13.1132 26.1512 12.9095 25.4424C12.8239 25.144 12.6959 24.8549 12.6219 24.5515C12.5421 24.2253 12.4283 23.905 12.3343 23.5973ZM16.0567 19.6645C16.0567 19.8246 16.1631 20.2225 16.0342 20.3312C15.7849 20.5411 16.0076 20.7408 15.932 20.944C15.7591 21.4118 15.6244 21.9537 15.6859 22.4375C15.7882 23.2391 16.0459 24.0213 16.2578 24.8068C16.5829 26.0088 17.1631 27.0253 18.2703 27.6726C18.5962 27.8631 18.9254 28.0957 19.1639 28.3857C19.7741 29.1274 20.6377 29.3069 21.4756 29.5362C21.7533 29.6121 22.0675 29.548 22.3651 29.548C22.6627 29.548 22.9761 29.6087 23.2529 29.5311C23.5463 29.4494 23.7707 29.8093 24.011 29.6196C24.183 29.4839 24.2903 29.9104 24.4565 29.6163C24.5039 29.5328 24.7533 29.5573 24.9112 29.5497C25.1074 29.5396 25.3052 29.5472 25.4532 29.5472C25.9528 29.2673 26.454 29.0659 26.8572 28.7397C27.3269 28.3596 27.8364 28.0401 28.3019 27.6676C28.6602 27.381 28.9678 26.9545 29.144 26.5246C29.3601 25.9987 29.5638 25.4963 29.9096 25.0285C30.2138 24.6164 30.5413 24.1376 30.543 23.5956C30.5463 22.4662 30.7383 21.3047 30.1614 20.2385C30.0742 20.0766 29.9653 19.8912 29.9702 19.7201C29.9944 18.8545 29.4166 18.315 28.9378 17.7377C28.5081 17.2185 27.9279 16.8771 27.3825 16.4843C26.7159 16.0039 26.119 15.456 25.3069 15.2234C25.0168 15.1408 24.7608 14.8702 24.4765 14.8466C23.7865 14.7901 23.0891 14.8154 22.3958 14.8373C22.2229 14.8432 22.0584 14.9798 21.8821 15.027C21.1066 15.2352 20.3277 15.429 19.5529 15.6389C19.4075 15.6785 19.2695 15.7569 19.1382 15.8361C18.6161 16.1505 18.2579 16.6175 17.8605 17.0794C17.1889 17.8599 16.5164 18.6202 16.0567 19.6645Z" fill="#28282A"></path>
</symbol></defs><use data-v-1e92d442="" xlink:href="#map--sprite" fill="#28282A"></use></svg>