<svg xmlns:xlink="http://www.w3.org/1999/xlink" xmlns="http://www.w3.org/2000/svg" data-v-1e92d442="" viewBox="0 0 61 60" preserveAspectRatio="xMidYMid" class="BaseIcon-icon" width="61"  height="60" ><defs><symbol xmlns="http://www.w3.org/2000/svg" viewBox="0 0 61 60" fill="none" id="plane--sprite">
<path d="M31.7461 0C32.3699 0.461674 32.9933 0.923871 33.6171 1.38554C33.6837 1.43458 33.7691 1.47058 33.8137 1.53474C34.4653 2.47113 35.2233 3.34857 35.3932 4.54267C35.444 4.90105 35.6102 5.24222 35.6993 5.59696C35.8969 6.38728 36.0395 7.19325 36.2775 7.97054C36.5858 8.97839 36.5008 10.017 36.6151 11.039C36.6309 11.1803 36.6193 11.3264 36.6062 11.4688C36.5229 12.3572 36.5008 13.2336 36.6115 14.133C36.7163 14.9849 36.7163 15.8701 36.5564 16.8107C36.8149 17.8864 36.8458 19.0471 36.6676 20.2255C36.5999 20.6736 36.6335 21.1405 36.6529 21.597C36.6665 21.9126 36.9092 22.0602 37.1897 22.1066C38.1983 22.2741 39.1173 22.6867 40.0509 23.0769C40.8834 23.4244 41.7667 23.6523 42.5992 23.9992C43.8846 24.5355 45.1354 25.1521 46.4213 25.6863C47.0063 25.9294 47.6406 26.0551 48.2519 26.2367C48.5046 26.3118 48.7599 26.3822 49.0068 26.4735C49.6028 26.6931 50.1989 26.9138 50.787 27.1522C51.3747 27.3901 51.9456 27.6697 52.5374 27.8961C54.4519 28.6296 56.3669 29.3615 58.2939 30.061C58.8376 30.2582 59.2984 30.5326 59.6721 30.9624C59.9993 31.3386 60.3573 31.6928 60.6409 32.0992C60.8186 32.3537 60.8841 32.6866 61 32.9844C61 33.3178 61 33.6506 61 33.9839C60.8018 34.3794 60.6136 34.7795 60.4045 35.1692C59.8346 36.2302 58.9786 36.8531 57.7325 36.8573C56.9378 36.8599 56.141 36.8896 55.3483 36.8484C54.5877 36.8093 53.8312 36.6909 53.0721 36.6163C52.8257 36.5917 52.5767 36.5949 52.3288 36.585C51.4795 36.5516 50.6287 36.4738 49.7805 36.4952C48.7321 36.5213 47.745 36.2678 46.7531 35.9986C46.6939 35.9824 46.6289 35.9861 46.566 35.984C45.4656 35.9417 44.3653 35.8943 43.2644 35.863C43.0411 35.8567 42.8162 35.9334 42.5923 35.9318C42.3313 35.9308 42.0707 35.8833 41.8097 35.8604C40.8425 35.7753 39.8758 35.6783 38.9076 35.6136C38.4075 35.5802 37.9037 35.5954 37.402 35.61C37.207 35.6157 37.0135 35.6783 36.7619 35.7263C36.7619 36.1582 36.7902 36.537 36.753 36.9089C36.7231 37.2084 36.645 37.512 36.5328 37.7916C36.3881 38.1515 36.3708 38.4932 36.4458 38.8735C36.5994 39.6571 36.7897 40.4432 36.5318 41.2502C36.4715 41.4396 36.4767 41.6743 36.526 41.87C36.7661 42.8272 36.6099 43.7892 36.602 44.7501C36.5989 45.1424 36.6655 45.5347 36.6712 45.928C36.6807 46.5597 36.7263 47.1993 36.6461 47.8216C36.5459 48.5984 36.8474 49.1962 37.5378 49.5463C38.4122 49.9897 39.2525 50.5004 40.1044 50.9876C40.3366 51.1207 40.5442 51.3064 40.788 51.4081C41.7468 51.8072 42.4419 52.4613 42.9032 53.391C43.0652 53.7175 43.3084 54.0138 43.5553 54.2872C44.1226 54.9147 44.4324 55.6805 44.7501 56.4375C44.9519 56.9185 44.7155 57.3452 44.2442 57.6175C43.6796 57.9435 43.0673 57.8809 42.4775 57.8319C41.6571 57.763 40.8441 57.6045 40.0299 57.4709C39.6441 57.4078 39.263 57.3149 38.8363 57.2268C38.0583 57.5387 37.2987 57.0963 36.5077 57.0426C35.6778 56.9863 34.828 56.9012 34.0144 57.0186C33.3917 57.1083 32.8769 57.5778 32.4722 58.1011C32.1692 58.4934 31.8824 58.9097 31.5212 59.243C30.7627 59.9441 30.2778 59.9493 29.5203 59.3134C28.9683 58.8502 28.3895 58.4209 28.0367 57.7505C27.8936 57.4787 27.5549 57.3097 27.3206 57.1068C25.75 57.0609 24.2366 57.1516 22.7378 57.4526C22.5365 57.4933 22.32 57.4553 22.113 57.4751C20.9434 57.5878 19.776 57.7302 18.6043 57.8162C17.743 57.8799 16.8571 57.9446 16.196 57.1767C16.1268 56.5335 16.4466 56.0144 16.7365 55.5042C17.1412 54.7916 17.6764 54.1442 18.0151 53.4045C18.4664 52.4191 19.0625 51.7039 20.1628 51.4071C20.6383 51.2787 21.0849 50.9522 21.4786 50.635C22.1156 50.1222 22.8311 49.7544 23.5546 49.4033C24.1103 49.1336 24.3661 48.7716 24.3503 48.1393C24.3294 47.2974 24.4279 46.4528 24.4232 45.6093C24.4112 43.5998 24.4237 41.5872 24.3079 39.5825C24.267 38.8735 24.2738 38.2162 24.4347 37.526C24.5443 37.0576 24.5469 36.5297 24.2434 36.0852C23.8827 35.5573 23.2411 35.347 22.5239 35.5103C22.4238 35.5333 22.3295 35.5959 22.2304 35.6021C21.4225 35.6507 20.6131 35.7414 19.8069 35.7195C18.8607 35.694 17.9585 35.9303 17.0369 36.0497C16.9137 36.0659 16.791 36.0993 16.6673 36.1035C15.3782 36.1483 14.0881 36.1697 12.8001 36.2386C12.0814 36.2772 11.3663 36.394 10.6497 36.4718C10.5255 36.4853 10.3986 36.4738 10.2738 36.4832C9.75801 36.5218 9.2427 36.574 8.72633 36.6017C8.34784 36.622 7.96673 36.5964 7.58824 36.6183C7.05248 36.6496 6.51882 36.7175 5.98359 36.7477C5.53642 36.7728 5.08716 36.7702 4.63895 36.7707C4.43135 36.7707 4.20594 36.6909 4.01879 36.7467C3.58211 36.8776 3.16535 36.7639 2.73811 36.7582C1.99528 36.7482 1.50775 36.4347 1.05901 35.888C0.576202 35.2991 0.286829 34.6585 0.0813328 33.9271C-0.14356 33.1258 0.135328 32.4831 0.462445 31.8211C0.795328 31.1471 1.31274 30.7355 2.03931 30.4366C3.38395 29.8836 4.71182 29.2962 6.08371 28.8064C7.35706 28.3515 8.59423 27.7959 9.86128 27.3228C11.6688 26.6477 13.4915 26.0134 15.3027 25.3478C15.7468 25.1845 16.1625 24.9471 16.6039 24.7765C17.0206 24.6153 17.4542 24.498 17.8793 24.3582C17.9758 24.3263 18.0675 24.2804 18.1629 24.2434C19.463 23.7442 20.7646 23.2486 22.0632 22.7452C22.3478 22.6346 22.6235 22.501 22.8993 22.369C23.3019 22.1765 23.7003 21.9762 24.2114 21.7243C24.2025 21.741 24.3084 21.6345 24.31 21.5265C24.3241 20.6329 24.3205 19.7388 24.3194 18.8447C24.3189 18.2338 24.3194 17.6224 24.3095 17.0115C24.2937 16.0183 24.2707 15.025 24.2481 14.0318C24.2445 13.8664 24.2109 13.701 24.2161 13.5367C24.2528 12.4668 24.2885 11.3963 24.3425 10.3269C24.3566 10.0426 24.4347 9.76194 24.4793 9.47867C24.5202 9.21732 24.5836 8.95596 24.5894 8.69304C24.6245 7.13587 24.9647 5.65121 25.6043 4.23071C25.7118 3.99179 25.7574 3.72626 25.8496 3.47951C25.9424 3.2312 26.0336 2.97715 26.1673 2.75074C26.4189 2.32559 26.6879 1.90878 26.973 1.50553C27.362 0.956214 27.9769 0.740244 28.5688 0.506016C29.0353 0.321346 29.514 0.167976 29.9873 0.000521666C30.5745 0 31.16 0 31.7461 0ZM41.276 55.0159C40.8362 53.7827 40.0561 53.0148 38.8331 52.6778C38.3891 52.5558 37.9744 52.2975 37.5724 52.0581C36.9354 51.6788 36.3242 51.2579 35.6956 50.8645C35.1746 50.5385 34.7148 50.1551 34.643 49.5066C34.568 48.83 34.525 48.1482 34.5135 47.4674C34.4936 46.2838 34.5313 45.0991 34.502 43.9154C34.4663 42.4443 34.6383 40.968 34.3866 39.5021C34.3589 39.3409 34.3772 39.1688 34.3919 39.0034C34.4244 38.6362 34.4805 38.271 34.5056 37.9037C34.5806 36.8197 34.3835 35.7373 34.492 34.6496C34.5303 34.2672 34.3887 33.8702 34.3935 33.4805C34.4003 32.926 34.4988 32.373 34.502 31.8185C34.5151 29.508 34.5245 27.1971 34.4962 24.8866C34.4878 24.2079 34.3992 23.5329 34.5041 22.8526C34.5696 22.4269 34.632 21.994 34.6246 21.5657C34.6094 20.6355 34.5298 19.707 34.5119 18.7768C34.4894 17.5708 34.5015 16.3636 34.4983 15.157C34.4973 14.8336 34.4773 14.5091 34.4946 14.1867C34.5303 13.5289 34.6121 12.8721 34.6262 12.2143C34.6467 11.2862 34.6037 10.3697 34.4181 9.4432C34.2823 8.7666 34.2037 8.07852 34.0076 7.40818C33.8477 6.86095 33.7733 6.28973 33.6213 5.73937C33.4226 5.01895 33.3906 4.22967 32.8732 3.62819C32.2027 2.84882 31.4678 2.15187 30.3197 2.25255C29.7798 2.30003 29.244 2.40905 28.9085 2.89629C28.4079 3.62349 27.9193 4.35956 27.4422 5.10242C27.3353 5.26883 27.2635 5.47228 27.231 5.66842C27.1245 6.31477 27.0533 6.96685 26.95 7.61372C26.7586 8.81563 26.5474 10.0139 26.3618 11.2169C26.3246 11.4594 26.3555 11.7151 26.3728 11.9634C26.3959 12.291 26.4394 12.6175 26.4703 12.9451C26.5033 13.2952 26.54 13.6447 26.5584 13.9953C26.5678 14.1778 26.571 14.3693 26.5259 14.544C26.355 15.2045 26.2695 15.8618 26.442 16.5379C26.4871 16.7152 26.4766 16.9103 26.4682 17.096C26.4373 17.7773 26.3634 18.4586 26.3686 19.1394C26.3744 19.9245 26.4551 20.7091 26.4855 21.4947C26.5044 21.9929 26.4247 22.5031 26.5086 22.9872C26.5946 23.487 26.6375 23.9549 26.4908 24.4484C26.4043 24.7384 26.3744 25.0546 26.3744 25.3587C26.3744 25.7051 26.4378 26.0515 26.4708 26.3984C26.5117 26.8298 26.5731 27.2612 26.583 27.6937C26.5961 28.2738 26.5741 28.8549 26.5579 29.4355C26.5364 30.2003 26.4106 30.9776 26.5133 31.7241C26.5809 32.2171 26.5395 32.6516 26.4546 33.1169C26.4011 33.4101 26.4221 33.7179 26.421 34.0189C26.4195 34.5223 26.5196 35.0147 26.506 35.5286C26.4855 36.322 26.2758 37.1165 26.4677 37.9173C26.5432 38.2334 26.5872 38.5663 26.5809 38.8902C26.5626 39.7969 26.4766 40.703 26.4829 41.6086C26.4876 42.243 26.5348 42.858 26.2475 43.4631C26.1615 43.6447 26.2365 43.9691 26.3497 44.1637C26.6769 44.7271 26.5977 45.325 26.5872 45.9197C26.5731 46.7215 26.528 47.5233 26.5269 48.3251C26.5259 49.4675 26.2255 50.4039 25.1037 50.9788C23.8937 51.599 22.7263 52.3022 21.551 52.9867C20.9424 53.3414 20.3437 53.7191 19.9212 54.306C19.6543 54.6763 19.5364 55.0592 19.7791 55.4714C20.3222 55.6503 20.6069 55.6289 21.378 55.4374C21.8944 55.3096 22.4416 55.0806 22.9386 55.1516C23.8712 55.2851 24.7315 55.1025 25.6153 54.9022C26.6889 54.6591 27.7845 54.3785 28.6385 55.438C28.7371 55.56 28.9164 55.6143 29.0395 55.7207C29.2718 55.921 29.5203 56.1135 29.7085 56.3519C29.9811 56.6968 30.3019 56.9164 30.7606 56.9633C31.5223 56.2398 32.2861 55.5141 32.9891 54.8469C33.9033 54.8469 34.6938 54.8141 35.4797 54.8563C36.2864 54.8996 37.1058 54.9455 37.89 55.1198C38.8939 55.3425 39.8957 55.3681 40.9091 55.3451C40.9709 55.3436 41.0322 55.3295 41.1119 55.319C41.1691 55.2178 41.2252 55.1114 41.276 55.0159ZM22.4547 33.5494C22.4783 33.5708 22.5019 33.5916 22.5255 33.613C23.0775 33.4064 23.629 33.2004 24.1517 33.0048C24.2172 32.2447 24.2513 31.5227 24.3493 30.8091C24.4479 30.0918 24.2607 29.3839 24.3362 28.6702C24.3739 28.3119 24.418 27.9493 24.4007 27.5914C24.3603 26.7693 24.2665 25.9492 24.2313 25.1271C24.2172 24.7901 24.1815 24.5094 23.7145 24.3263C23.4775 24.3905 23.141 24.4661 22.8159 24.5752C22.6052 24.6456 22.4139 24.7724 22.2078 24.86C21.8147 25.0274 21.4152 25.1798 21.0226 25.3478C20.4349 25.5982 19.8687 25.9174 19.2601 26.0927C18.706 26.2523 18.1571 26.3587 17.6476 26.6733C17.2759 26.9028 16.8041 26.9712 16.3769 27.1115C15.9318 27.2581 15.4841 27.3969 15.0433 27.5544C14.8121 27.6368 14.5929 27.8382 14.3691 27.8371C13.8564 27.8345 13.4659 28.1006 13.0391 28.2973C12.3498 28.6149 11.6741 28.9666 10.9669 29.2389C9.92157 29.6421 8.77561 29.7809 7.82309 30.4371C7.7193 30.5086 7.53425 30.4517 7.39637 30.4893C7.16414 30.5524 6.93296 30.6286 6.71383 30.7267C6.26562 30.927 5.84519 31.2306 5.37758 31.338C4.37317 31.5686 3.50924 32.0694 2.58189 32.5473C2.45974 33.0001 2.33917 33.4487 2.22856 33.8587C2.49487 34.5254 2.78791 34.7988 3.33939 34.8494C3.69167 34.8817 4.05077 34.8713 4.40462 34.8499C5.62082 34.7763 6.83545 34.6809 8.05218 34.6115C8.53132 34.5839 9.01885 34.6496 9.4917 34.5896C10.7147 34.4336 11.9304 34.2208 13.1524 34.0544C13.4475 34.0142 13.7563 34.0815 14.0577 34.0711C14.4299 34.058 14.8126 33.9427 15.1691 34.0017C15.6613 34.0831 16.1027 33.9751 16.5562 33.8493C16.6956 33.8107 16.833 33.7393 16.9734 33.7341C18.0518 33.6902 19.1312 33.6621 20.21 33.6229C20.6986 33.6052 21.1861 33.5703 21.6747 33.5515C21.9352 33.541 22.1953 33.5494 22.4547 33.5494ZM36.5271 33.0502C37.1089 33.36 37.6657 33.4492 38.2507 33.4967C38.9736 33.5551 39.6887 33.7028 40.4089 33.4899C40.4629 33.4737 40.5348 33.492 40.5914 33.5129C41.2582 33.7539 41.935 33.8186 42.6469 33.7492C43.0699 33.708 43.5092 33.8076 43.9386 33.8619C44.283 33.9052 44.6227 33.9928 44.9676 34.0283C45.2481 34.057 45.5338 34.0518 45.8158 34.0371C46.6236 33.9954 47.4304 33.9406 48.233 34.1044C48.5135 34.1618 48.7981 34.2171 49.0833 34.2291C50.0542 34.2703 51.0413 34.1154 51.9854 34.4759C52.0405 34.4967 52.1128 34.4946 52.172 34.4811C53.0292 34.2818 53.8375 34.7143 54.7025 34.6511C55.4909 34.5938 56.2966 34.7904 57.0966 34.8546C57.6607 34.9 58.122 34.6407 58.4413 34.2114C58.8381 33.6782 58.89 33.0559 58.4171 32.5885C57.949 32.1263 57.3666 31.8816 56.7333 31.7335C56.3952 31.6542 56.0015 31.6349 55.7389 31.4439C54.9782 30.891 54.0855 30.7454 53.2257 30.4721C52.1123 30.1173 51.014 29.7063 49.9315 29.2655C48.9056 28.8476 47.9421 28.2451 46.8889 27.9347C45.8955 27.642 44.9629 27.2351 44.013 26.8533C43.3467 26.5851 42.6946 26.2805 42.0241 26.0233C41.0286 25.6415 40.0194 25.294 39.0213 24.9189C38.3923 24.6826 37.7716 24.4239 37.1409 24.1724C36.9354 24.402 36.7855 24.5689 36.602 24.7739C36.6508 25.2142 36.7399 25.6628 36.7409 26.112C36.742 26.701 36.9197 27.2889 36.7666 27.8784C36.5973 28.5294 36.6172 29.1695 36.7399 29.8351C36.8285 30.3145 36.8589 30.8691 36.6995 31.313C36.4883 31.8999 36.4825 32.4581 36.5271 33.0502Z" fill="#28282A"></path>
</symbol></defs><use data-v-1e92d442="" xlink:href="#plane--sprite" fill="#28282A"></use></svg>