<svg xmlns:xlink="http://www.w3.org/1999/xlink" xmlns="http://www.w3.org/2000/svg" data-v-1e92d442="" viewBox="0 0 44 61" preserveAspectRatio="xMidYMid" class="BaseIcon-icon" width="44"  height="61" ><defs><symbol xmlns="http://www.w3.org/2000/svg" viewBox="0 0 44 61" fill="none" id="food--sprite">
<path d="M12.7098 60.9006C12.634 60.8418 12.5546 60.7286 12.4833 60.733C11.7916 60.7793 11.1969 60.4867 10.5595 60.286C9.88688 60.0743 9.43845 59.6582 8.99002 59.1929C8.70112 58.8929 8.58276 58.4813 8.33797 58.1394C7.91233 57.5469 7.61534 56.8625 7.26248 56.2171C7.16985 56.048 7.07282 55.8811 6.91182 55.5959C6.91182 55.5342 6.89271 55.3305 6.91476 55.1313C7.00812 54.2903 6.67732 53.5486 6.3818 52.8002C6.13774 52.1834 5.79737 51.5814 6.20831 50.9073C6.12597 50.4052 6.3818 49.873 6.05614 49.3848C5.98777 49.2826 6.04731 49.1003 6.03041 48.9577C5.98777 48.5924 6.14803 48.2035 5.92087 47.8609C5.7268 47.5676 6.00321 47.1897 5.70034 46.8854C5.58345 46.7678 5.61947 46.4142 5.69151 46.2047C6.02232 45.2417 5.77164 44.2544 5.85912 43.284C5.93778 42.4107 6.0407 41.5403 6.11568 40.667C6.12965 40.5016 6.02379 40.3259 6.03996 40.1612C6.10098 39.5114 5.8753 38.8431 6.19655 38.2043C6.27888 38.0404 6.27888 37.7588 6.18993 37.6059C6.09363 37.4405 6.14876 37.3663 6.16861 37.217C6.2061 36.9362 6.23992 35.6269 6.30755 35.377C6.34357 35.2439 6.37298 35.1057 6.3818 34.969C6.40312 34.6338 6.36636 34.3103 6.54205 33.9773C6.69055 33.6965 6.40459 33.2826 6.73539 33.004C6.70525 32.3909 6.67217 31.7778 6.64497 31.1647C6.6141 30.473 6.55529 29.7798 6.57587 29.0895C6.58469 28.8079 6.77068 28.5322 6.87654 28.2536C6.83831 28.1809 6.77582 28.089 6.7376 27.9875C6.6707 27.8096 6.66482 27.5869 6.55161 27.4523C5.96131 26.7518 5.37247 26.0453 4.71968 25.4058C4.55427 25.244 4.38078 25.1213 4.22935 24.9169C4.00219 24.6089 3.73976 24.2935 3.34867 24.1134C3.14577 24.02 3.00536 23.7591 2.87378 23.551C2.39153 22.7887 1.92473 22.0154 1.46895 21.2736C1.45204 20.8994 1.46087 20.5775 1.30649 20.2459C1.1455 19.8997 1.0933 19.5027 1.09918 19.0954C1.10506 18.6514 1.01905 18.2015 0.93378 17.7619C0.705891 16.5813 0.69707 16.038 0.937456 14.6531C0.942602 14.6244 0.941867 14.5935 0.937456 14.5656C0.803663 13.7547 1.16902 12.9843 1.12638 12.175C1.10948 11.8515 1.17858 11.4986 1.30134 11.198C1.50571 10.6988 1.45719 10.1916 1.46381 9.68289C1.46895 9.30209 1.45204 8.91982 1.46895 8.53976C1.48292 8.21999 1.50718 7.89726 1.57628 7.58631C1.60863 7.43855 1.37045 7.25624 1.63288 7.14891C1.30796 6.98571 1.67552 6.84015 1.65053 6.67402C1.62039 6.47921 1.5851 6.21089 1.68802 6.08592C1.84607 5.89331 1.78138 5.70586 1.82108 5.51766C1.86004 5.33241 1.95781 5.15819 1.98501 4.97293C2.01442 4.77225 1.97472 4.562 1.9953 4.35837C2.04309 3.88348 2.07249 3.40124 2.18349 2.93958C2.23716 2.71389 2.43638 2.50953 2.60472 2.32795C2.96346 1.94201 3.33985 1.57151 3.72064 1.20688C4.08747 0.85476 4.51972 0.636427 5.03137 0.553358C5.57316 0.464408 6.08334 0.237989 6.64056 0.177709C6.79347 0.161536 6.99048 -0.00901317 7.18455 0.0372998C7.58005 0.132866 7.9682 0.263718 8.35782 0.385014C8.40854 0.400452 8.45191 0.441619 8.49602 0.473964C8.74449 0.655541 8.99149 0.838587 9.29142 1.05986C9.48403 1.05986 9.73985 1.05986 9.93319 1.05986C10.4184 0.896662 10.7661 0.586439 11.2719 0.53645C11.7166 0.492343 12.1422 0.252692 12.6046 0.0894937C13.4243 0.309296 14.2918 0.495283 15.0835 0.909894C15.3297 0.6254 15.7069 1.02531 15.959 0.745226C16.0164 0.796685 16.0781 0.852554 16.0678 0.842998C16.8889 0.591585 17.6645 0.353404 18.8017 0.00495422C19.2877 -0.042829 20.0235 0.224757 20.7763 0.701854C21.374 1.08044 21.9415 1.45536 22.4561 1.94348C23.0353 2.49262 23.1985 3.21819 23.4242 3.92097C23.6734 4.69947 23.8638 5.4934 23.78 6.3241C24.0983 6.92028 23.9785 7.5716 23.9285 8.18396C23.8954 8.59416 23.7418 9.00584 23.783 9.43221C23.8285 9.90783 23.9197 10.3791 23.9491 10.8554C23.9785 11.323 23.9557 11.7934 23.9557 12.2624C23.9557 12.3205 23.9344 12.3948 23.9623 12.4345C24.4218 13.0953 24.2718 13.8496 24.3152 14.5781C24.3402 14.9912 24.4321 15.4036 24.5225 15.8094C24.5872 16.0991 24.6989 16.3777 24.7916 16.6666C24.6703 17.1165 24.4446 17.5723 24.4857 18.0832C24.5615 19.0087 24.2483 19.8291 23.8521 20.6363C23.733 20.8789 23.6337 21.1244 23.5771 21.4074C23.4999 21.7911 23.3037 22.2138 23.025 22.4822C22.4039 23.0813 21.9819 23.773 21.6584 24.5633C21.4563 25.0566 21.0814 25.4543 20.5668 25.6785C19.3391 26.2129 18.7444 27.3972 18.3636 28.4279C18.2783 28.6594 18.296 28.9549 18.346 29.2049C18.3923 29.4372 18.5452 29.6489 18.6577 29.8834C18.6863 30.2855 18.6128 30.7626 18.7775 31.1331C18.9576 31.5382 18.6577 32.0035 19.0318 32.3505C19.2421 32.5453 18.7268 32.7725 19.0186 32.9989C18.7121 33.3473 18.8958 33.7656 18.8679 34.1501C18.8414 34.5125 18.7848 34.8948 19.0363 35.2197C18.9936 35.9658 19.3399 36.6796 19.2134 37.4339C19.073 38.2727 19.4193 39.0769 19.3935 39.9113C19.3678 40.7603 19.4148 41.6131 19.3678 42.4607C19.3568 42.6614 19.7089 42.829 19.4053 43.0267C19.6493 43.1907 19.3906 43.3355 19.3884 43.4891C19.3854 43.7236 19.3876 43.9581 19.3876 44.1926C19.3876 44.3977 19.4126 44.6065 19.3832 44.8079C19.2634 45.6202 19.5295 46.3995 19.5788 47.1971C19.631 48.0388 19.445 48.8217 19.1539 49.5796C19.0782 49.7781 19.0451 49.9545 19.0392 50.1457C19.0274 50.5559 19.0583 50.9683 19.0289 51.3763C19.001 51.7644 18.9377 52.1533 18.8554 52.5341C18.6937 53.2854 18.5569 54.0477 18.3077 54.7704C18.2114 55.0497 18.185 55.3085 18.1534 55.5849C18.0901 56.134 17.935 56.631 17.6674 57.1456C17.3631 57.7307 16.864 58.1336 16.5471 58.6959C16.2435 59.234 15.7627 59.6729 15.4143 60.0897C14.7505 60.3772 14.0866 60.3573 13.5405 60.6918C13.3331 60.8182 13.0045 60.5257 12.8862 60.8998C12.8274 60.9006 12.7686 60.9006 12.7098 60.9006ZM7.10296 3.37404C6.94417 3.37404 6.7376 3.38727 6.53397 3.3711C6.15611 3.34022 5.81207 3.49901 5.51361 3.66073C5.20192 3.82981 5.01961 4.16136 4.96521 4.56494C4.90787 4.99352 4.79319 5.43018 4.61161 5.82127C4.47121 6.12414 4.46312 6.41378 4.44989 6.72253C4.43298 7.11803 4.46238 7.50397 4.61235 7.87448C4.36902 8.55153 4.47562 9.25578 4.44989 9.94974C4.44474 10.0901 4.46018 10.2526 4.39696 10.3658C4.18524 10.7415 4.17863 11.1803 4.13011 11.567C3.98749 12.705 3.96397 13.8591 3.93015 15.0081C3.90148 15.9748 3.9625 16.9445 3.91324 17.9097C3.86546 18.8403 4.08379 19.6732 4.55574 20.4635C4.69321 20.6929 4.76305 20.9634 4.86817 21.2258C5.22986 21.6669 5.65255 22.1028 5.97748 22.602C6.30902 23.1107 6.71113 23.4716 7.26615 23.7164C7.56461 23.848 7.89836 24.0649 8.04759 24.3361C8.30856 24.8088 8.70553 25.1316 9.06868 25.4888C9.70383 26.1137 9.53328 26.013 9.85012 27.0135C9.9795 27.4229 9.98612 27.8986 9.73471 28.3367C9.60385 28.5639 9.56783 28.8653 9.55239 29.1365C9.48256 30.3723 9.67075 31.6161 9.38332 32.8482C9.29878 33.2099 9.37008 33.6076 9.37008 33.9884C9.37008 34.3691 9.35391 34.7514 9.37449 35.1315C9.39434 35.5057 9.26055 35.8504 9.21865 36.2048C9.17527 36.5694 9.1194 36.9208 9.02384 37.2736C8.95106 37.5397 9.11941 37.8338 8.87902 38.0977C8.67098 38.3263 8.96723 38.5998 8.88196 38.9108C8.7908 39.246 8.74302 39.6687 8.9937 40.0737C9.1863 40.3854 8.89666 40.8566 9.13631 41.2426C9.21644 41.372 9.2532 41.6234 9.18116 41.7351C8.92092 42.1394 9.06427 42.5724 9.01649 42.99C8.9687 43.4068 8.89666 43.8207 8.84447 44.2367C8.7886 44.6815 8.97165 45.1556 8.67318 45.5747C8.63202 45.6327 8.63055 45.7893 8.67392 45.8268C8.88196 46.0077 8.82536 46.2407 8.84667 46.4642C8.86873 46.6957 8.99149 46.9471 8.93268 47.15C8.86285 47.3897 9.03413 47.5316 9.03413 47.7411C9.03634 48.9592 8.9687 50.1758 9.16939 51.3961C9.26864 52.0004 9.37523 52.5922 9.53328 53.1847C9.65972 53.6603 9.96333 54.0948 9.8979 54.6182C10.2603 54.8277 9.99567 55.2416 10.2133 55.5518C10.4125 55.8356 10.6654 56.0561 10.8668 56.3266C10.9506 56.4391 11.0829 56.5354 11.1197 56.6604C11.2549 57.1235 11.6005 57.4168 11.8776 57.6873C12.2437 57.7403 12.5686 57.8586 12.8715 57.8182C13.8632 57.6851 14.6549 57.0831 14.9107 56.1031C15.0357 55.6246 15.2695 55.1894 15.3665 54.6998C15.4327 54.3668 15.7546 54.094 15.6973 53.6978C15.6753 53.5442 15.9833 53.3957 15.7083 53.2332C15.962 53.0722 15.8318 52.8135 15.8759 52.5981C15.9134 52.4128 15.9921 52.2364 16.0465 52.0541C16.109 51.8453 16.1862 51.6373 16.217 51.4226C16.2457 51.2219 16.1472 50.9676 16.2369 50.8161C16.5471 50.2934 16.3942 49.7392 16.3802 49.2106C16.3663 48.6798 16.5633 48.1351 16.2479 47.597C16.1421 47.4162 16.1722 47.0706 16.3303 46.7744C16.5508 46.3598 16.7037 45.857 16.5603 45.3872C16.3795 44.7954 16.3626 44.2007 16.4221 43.6111C16.4427 43.4075 16.0347 43.2392 16.392 43.048C16.109 42.9459 16.3178 42.6989 16.2898 42.5452C16.2031 42.0711 16.1332 41.5307 16.2832 41.0933C16.4155 40.7096 16.4707 40.3134 16.3685 40.0105C16.1854 39.468 16.2626 38.9372 16.2185 38.4028C16.2053 38.244 16.1443 38.0889 16.098 37.9066C16.1274 37.8301 16.2031 37.7088 16.2163 37.5802C16.2398 37.3486 16.1325 37.0377 16.2472 36.895C16.4905 36.5929 16.4633 36.243 16.3729 35.9923C16.2207 35.5696 16.2082 35.1572 16.2362 34.7374C16.2472 34.5698 15.8826 34.4294 16.2075 34.2603C15.9568 34.1442 16.1406 33.9082 16.1215 33.759C16.0509 33.2025 15.7951 32.6739 15.8671 32.0954C15.9142 31.7161 15.8179 31.3691 15.4768 31.0346C15.5444 30.584 15.6017 30.0826 15.6995 29.5894C15.8105 29.0314 15.5459 28.5278 15.5099 27.9912C15.476 27.4913 15.3687 26.9958 15.3092 26.6011C15.4724 26.3305 15.5415 26.1335 15.676 26.0064C16.2817 25.4344 16.8544 24.8044 17.5395 24.3457C18.1071 23.9664 18.4945 23.4342 19.0024 23.0151C19.5347 22.5763 19.8912 22.0198 20.1286 21.3721C20.2022 21.1707 20.3955 21.0156 20.4881 20.8178C20.6962 20.3753 21.0659 20.043 21.1711 19.5115C21.2622 19.0521 21.3651 18.547 21.6673 18.1412C21.6673 17.3201 21.7871 16.4754 21.6276 15.6867C21.5114 15.1111 21.6357 14.5259 21.4673 14.0003C21.2843 13.4284 21.3445 12.8711 21.3181 12.3065C21.3048 12.014 21.4078 11.6743 21.2909 11.4398C21.1659 11.1884 21.163 10.9591 21.1358 10.7091C21.1137 10.5033 20.9505 10.2298 21.0321 10.1115C21.2284 9.82624 20.8204 9.69759 20.9446 9.42265C21.0431 9.20358 20.9645 8.90365 20.9645 8.64048C20.9645 8.17147 20.9652 7.70246 20.9645 7.23345C20.9645 7.08789 21.0101 6.91661 20.9505 6.80046C20.7028 6.31527 20.6175 5.80583 20.6079 5.26846C20.6035 5.01778 20.3477 4.52524 20.2617 4.32896C20.0581 3.86363 19.6038 3.67985 19.2752 3.38359C18.9723 3.38359 18.6827 3.38359 18.4085 3.38359C17.9541 3.75777 17.5138 4.12019 17.1308 4.43556C16.9705 5.21038 17.4138 5.85582 17.2793 6.55346C17.2712 6.59609 17.3374 6.64755 17.3455 6.69901C17.4359 7.30549 17.6549 7.89653 17.6197 8.51698C17.6028 8.81764 17.4748 9.11169 17.4594 9.41236C17.4344 9.89166 17.4587 10.3607 17.6042 10.8407C17.7182 11.2164 17.6042 11.656 17.6336 12.0647C17.6616 12.4528 17.7777 12.8358 17.7939 13.224C17.8115 13.643 17.7939 14.051 17.6572 14.4796C17.5212 14.9052 17.6417 15.4088 17.6241 15.8771C17.6035 16.4233 17.4697 16.9283 17.0088 17.2613C16.6397 17.2613 16.2906 17.2613 16.1494 17.2613C15.193 17.0216 14.8335 16.4012 14.4946 15.7712C14.3697 15.4933 14.5851 15.1691 14.3079 14.8729C14.1918 14.7486 14.1954 14.3421 14.3109 14.2054C14.5439 13.9312 14.4535 13.6526 14.4564 13.3806C14.4601 12.9219 14.4513 12.4573 14.3785 12.0066C14.3094 11.578 14.5314 11.1899 14.4711 10.7694C14.4476 10.6069 14.4792 10.4276 14.5233 10.2666C14.6836 9.68362 14.6152 8.87645 14.5292 8.25527C14.4035 7.35327 14.0271 6.45127 14.4469 5.51325C14.5351 5.31697 14.4086 5.01851 14.3653 4.77004C14.2682 4.19003 13.958 3.73498 13.4934 3.38139C12.8369 3.30567 12.2312 3.48283 11.7291 3.76586C11.4453 4.2628 11.2292 4.71564 11.2998 5.2442C11.3093 5.31624 11.2358 5.39637 11.2292 5.47503C11.191 5.90066 11.0079 6.39614 11.1601 6.74018C11.5108 7.53044 11.2086 8.23983 11.0601 8.95879C10.9653 9.4153 10.9227 9.81962 11.0601 10.2717C11.1491 10.5636 11.2307 10.9745 11.094 11.1914C10.8734 11.5405 10.9675 11.8684 10.9675 12.1948C10.9668 12.5808 11.066 12.9682 11.1307 13.3526C11.2277 13.9319 10.9793 14.4737 10.955 15.039C10.9227 15.7955 10.522 16.3946 10.0942 16.9636C9.96627 17.1341 9.67148 17.2091 9.43918 17.2613C9.21791 17.3106 8.97679 17.2716 8.82903 17.2716C8.46588 17.0841 8.17477 16.9342 7.91527 16.8004C7.74619 16.471 7.59622 16.1807 7.43597 15.8682C7.48743 15.3691 7.33526 14.828 7.56461 14.3171C7.34628 14.1899 7.70723 13.9415 7.4617 13.8194C7.80574 13.7349 7.37716 13.543 7.52565 13.3673C7.64621 13.2247 7.60211 12.9351 7.61387 12.7101C7.62563 12.4764 7.62489 12.2411 7.61387 12.0066C7.60578 11.8236 7.7631 11.6626 7.76604 11.5508C7.77486 11.1796 8.07185 10.8789 7.96158 10.4842C7.73296 9.66598 7.75869 9.66524 7.93365 8.94188C8.03142 8.53756 8.23211 8.05973 8.10273 7.72525C7.95276 7.34445 7.96305 6.99453 7.97849 6.64094C8.00937 5.93301 8.11302 5.22802 8.17403 4.64213C7.97849 4.26133 7.84176 3.99448 7.75428 3.82393C7.51757 3.66074 7.35951 3.5512 7.10296 3.37404Z" fill="#28282A"></path>
<path d="M43.4584 33.1048C43.171 33.3106 43.1901 33.6679 43.0769 33.9502C42.9122 34.3626 42.6034 34.5486 42.2403 34.6838C41.758 34.8639 41.2743 35.0727 40.7722 35.1617C40.0511 35.2896 39.302 35.4248 38.5838 35.3565C38.0611 35.3072 37.5274 35.097 36.9981 34.9617C36.721 34.8911 36.5666 34.8823 36.3181 35.0286C35.6337 35.4307 35.4102 35.8865 35.6308 36.615C35.6624 36.7194 35.7175 36.8216 35.7234 36.9274C35.7873 38.075 35.8528 39.2232 35.8954 40.3715C35.9042 40.6141 35.8998 40.8456 35.7668 41.1088C35.5573 41.5249 35.8726 41.9674 35.9638 42.399C35.9858 42.5034 36.0652 42.5997 36.0733 42.7033C36.0902 42.9363 36.0696 43.1723 36.0814 43.4061C36.091 43.6024 36.1233 43.7979 36.1476 43.9935C36.1681 44.1596 36.2424 44.4573 36.2078 44.4705C35.8851 44.5911 36.446 44.8359 36.1321 44.9263C36.3034 45.2601 36.2497 45.621 36.2527 45.9739C36.2571 46.4657 36.1909 46.9472 36.1182 47.4353C36.0564 47.8499 36.1689 48.3329 36.3446 48.721C36.4306 48.9107 36.1483 48.9923 36.335 49.1085C36.5188 49.2224 36.0968 49.4547 36.4188 49.5436C36.2372 49.6686 36.2725 49.7929 36.4196 49.9164C36.2027 50.0288 36.424 50.2258 36.3843 50.2788C36.1027 50.6566 36.2784 51.0727 36.2696 51.4609C36.2622 51.8152 36.0858 52.2195 36.4196 52.5349C36.1226 52.7245 36.457 52.8973 36.4372 53.0892C36.2916 54.5366 36.7379 55.9628 36.5703 57.5837C35.9947 58.3225 35.322 59.1863 34.7692 59.8957C33.7606 60.3103 32.8682 60.3654 32.0051 60.5154C31.1237 60.6676 30.196 60.5573 29.2888 60.5411C29.1367 60.5382 28.9845 60.4353 28.8345 60.3728C28.1354 60.0809 27.4238 59.8148 26.7453 59.4818C26.4255 59.3252 26.1719 59.0613 26.0278 58.682C25.6838 57.7741 25.2971 56.8765 25.3699 55.8826C25.4059 55.3938 25.55 54.913 25.6786 54.4359C25.6823 54.1896 25.3405 53.9706 25.6294 53.6751C25.6808 53.6229 25.7073 53.5244 25.708 53.4472C25.7132 52.5974 25.8543 51.7145 25.6713 50.9066C25.4868 50.0913 25.4507 49.2739 25.5794 48.5159C25.7374 47.589 25.6794 46.6811 25.6963 45.7673C25.7058 45.2711 25.561 44.7727 25.6161 44.2853C25.7602 43.8494 25.9036 43.4127 26.0587 42.943C26.0124 42.8547 25.9006 42.7364 25.8948 42.6144C25.8639 41.9028 25.8756 41.1992 25.7426 40.4832C25.6441 39.9532 25.7382 39.3305 25.9359 38.8233C26.0602 38.5043 25.9065 38.1419 26.1013 37.9338C26.4204 37.592 26.0749 37.3648 26.0653 37.0877C26.0528 36.7363 26.0741 36.3842 26.0602 36.0328C25.9925 34.2942 26.3674 32.5703 26.2381 30.8296C26.4821 30.1665 26.5093 29.4556 26.3814 28.7984C26.2763 28.2573 26.1668 27.717 26.2557 27.1973C26.4512 26.0498 26.391 24.9 26.4211 23.7503C26.4292 23.4511 26.5468 23.1556 26.5843 22.8549C26.6189 22.5785 26.6872 22.3065 26.7321 22.0433C26.835 21.4457 26.7644 20.8179 26.7644 20.2026C26.4564 19.9291 26.8019 19.6615 26.7843 19.38C26.7299 18.5044 26.7644 17.623 26.7644 16.7431C26.7644 16.3035 26.7644 15.8639 26.7644 15.4243C27.1643 15.1545 26.7446 14.6333 27.1026 14.3238C27.1893 14.2488 27.1356 13.9841 27.1114 13.8121C27.0688 13.5115 26.9872 13.2167 26.943 12.9167C26.8975 12.6095 26.8791 12.2978 26.8453 11.989C26.8409 11.9464 26.7953 11.8809 26.8093 11.8685C27.1467 11.545 26.8063 11.1017 27.032 10.7231C27.1952 10.4497 27.2136 10.063 27.2011 9.71159C27.1687 8.81106 27.1423 7.9098 27.1173 7.00927C27.1107 6.77476 27.021 6.44543 27.1379 6.32781C27.3282 6.13594 27.0871 5.97201 27.2217 5.78602C27.3356 5.6287 27.2812 5.34568 27.2908 5.11779C27.2988 4.91269 27.2922 4.70759 27.2922 4.50249C27.2922 4.26799 27.2922 4.03348 27.2922 3.79898C27.2922 3.56447 27.2474 3.31894 27.3025 3.0984C27.3929 2.73157 27.4687 2.31549 27.6958 2.04055C27.9693 1.70975 28.1604 1.33924 28.3266 0.973887C28.5419 0.500466 28.9117 0.335062 29.3396 0.213031C29.6307 0.129962 29.9424 0.0167528 30.2298 0.0498334C30.6576 0.099822 31.0892 0.225529 31.4861 0.396813C31.8096 0.536487 32.1066 0.764376 32.3764 0.998146C32.8005 1.36644 33.2034 1.72886 33.7062 2.02144C34.2767 2.35298 34.7435 2.91903 35.0162 3.56226C35.2279 4.06215 35.5969 4.44589 35.9175 4.85241C36.3159 5.35818 36.6695 5.89188 36.9378 6.4594C37.2436 7.10631 37.6193 7.67529 38.142 8.16268C38.2603 8.78019 38.4463 9.35138 38.7933 9.91449C39.3733 10.8569 39.7864 11.8949 40.1356 12.9594C40.4186 13.8209 40.5517 14.7149 40.8237 15.5742C40.8729 15.7286 40.9744 15.8742 40.9891 16.03C41.006 16.2086 41.0045 16.3733 41.1714 16.4828C40.845 16.6416 41.2052 16.7931 41.1802 16.9548C41.153 17.1261 41.1744 17.3054 41.1744 17.4811C41.1744 17.6568 41.1744 17.8325 41.1744 18.009C41.5647 18.7132 41.9161 19.416 41.8962 20.268C41.8874 20.6326 42.1028 20.998 42.1874 21.3692C42.3403 22.0433 42.6586 22.6888 42.5755 23.4048C42.5476 23.6481 42.3454 23.9422 42.4285 24.112C42.6196 24.5023 42.4726 24.9228 42.6078 25.2713C42.7468 25.63 42.6689 25.9843 42.7203 26.3298C42.8071 26.9106 42.846 27.4796 43.0952 28.0309C43.2533 28.3816 43.3444 28.7763 43.293 29.1843C43.2842 29.252 43.4003 29.335 43.4591 29.4108C43.4584 30.6421 43.4584 31.8734 43.4584 33.1048ZM40.079 32.03C40.1922 31.8528 40.326 31.6426 40.501 31.3677C40.4355 30.4341 40.3245 29.435 40.3106 28.4338C40.3018 27.8023 39.9864 27.2113 40.1187 26.5717C40.1239 26.5467 40.115 26.5151 40.1033 26.4916C39.796 25.8983 39.7467 25.2602 39.7666 24.6074C39.771 24.4663 39.7783 24.3097 39.7254 24.1862C39.5615 23.8025 39.4865 23.4026 39.388 23.0019C39.277 22.5498 39.2616 22.111 39.2358 21.6611C39.2285 21.5302 39.1447 21.406 39.1123 21.2751C38.9763 20.7157 38.805 20.1592 38.7286 19.5909C38.6786 19.2182 38.6624 18.8639 38.3868 18.6147C38.2868 18.264 38.4853 17.9127 38.2485 17.5855C38.0493 17.3106 38.2015 16.9555 38.0457 16.6152C37.8001 16.0778 37.7935 15.4345 37.6546 14.8428C37.5428 14.3657 37.4701 13.8481 37.2245 13.4438C36.9797 13.041 36.7636 12.6462 36.5923 12.2059C36.4166 11.753 36.1365 11.3399 35.9028 10.9091C35.7859 10.6937 35.6389 10.4894 35.5565 10.2615C35.1257 9.0735 34.6045 8.08108 33.8356 7.01736C33.6915 6.8174 33.5489 6.6101 33.4474 6.38735C33.0505 5.51476 32.4227 4.81565 31.703 4.22388C31.4428 4.00996 31.1774 3.58652 30.7936 3.71444C30.5694 3.90557 30.415 4.03789 30.3018 4.13493C30.2217 4.46132 30.2901 4.7267 30.1739 5.02443C30.0482 5.34862 29.9651 5.76029 30.0497 6.15138C30.0563 6.18225 29.9732 6.23298 29.9321 6.27414C30.2496 6.51821 29.9666 6.92547 30.132 7.15041C30.3386 7.43123 30.2577 7.70029 30.2761 7.97449C30.2974 8.2928 30.2813 8.61405 30.2813 8.90295C29.9262 9.52119 29.9056 9.52266 29.9372 10.027C29.9578 10.357 30.0637 10.6805 30.1026 11.0098C30.2129 11.9324 29.9799 12.8366 29.9277 13.7504C29.9247 13.8018 29.8872 13.8503 29.8703 13.9018C29.6983 14.434 29.5616 14.9655 29.5704 15.5397C29.5932 16.9754 29.5924 18.4125 29.5697 19.8482C29.5623 20.3231 29.4432 20.7951 29.4109 21.2714C29.3991 21.4435 29.5748 21.6508 29.5248 21.7927C29.2359 22.6182 29.4858 23.4614 29.405 24.2913C29.3947 24.3994 29.4013 24.5325 29.4557 24.6192C29.7292 25.0551 29.4998 25.5286 29.577 25.977C29.2616 26.2247 29.452 26.5717 29.4006 26.8716C29.344 27.1995 29.2425 27.5252 29.2322 27.8545C29.1808 29.4821 29.2565 31.1082 29.0771 32.7394C28.9404 33.9847 29.0499 35.2572 29.0499 36.518C29.0499 36.6937 29.1095 36.8995 29.0396 37.0406C28.6669 37.7927 28.9411 38.5807 28.8889 39.3482C28.8632 39.7334 28.8514 40.4788 28.7809 40.8618C28.6853 41.3815 28.3574 41.9395 28.553 42.4144C28.8353 43.0995 28.6221 43.7986 28.8367 44.4911C29.0926 45.3189 28.7235 46.2077 28.6787 47.0744C28.6721 47.1993 28.5118 47.3419 28.5155 47.5301C28.5192 47.7213 28.575 47.919 28.414 48.1072C28.3604 48.1704 28.4964 48.3807 28.5177 48.5277C28.5383 48.6711 28.5802 48.8615 28.5118 48.9592C28.253 49.329 28.3626 49.7348 28.3508 50.1251C28.3332 50.711 28.3677 51.2984 28.339 51.8836C28.3199 52.2717 28.1906 52.6554 28.1832 53.0421C28.1781 53.3391 28.3243 53.6368 28.3383 53.9368C28.3648 54.5219 28.3545 55.1093 28.3398 55.6952C28.3368 55.8231 28.2538 55.9488 28.206 56.0774C28.2435 56.148 28.3376 56.2436 28.339 56.3406C28.3523 57.1368 28.7941 57.5477 29.5226 57.741C29.7549 57.8028 29.9674 57.9403 30.0401 57.9741C30.5319 57.966 30.9524 58.2931 31.2685 57.9101C31.7456 57.9792 32.0382 57.4602 32.4866 57.5462C32.7608 57.2713 33.0527 57.0522 33.2468 56.7663C33.4732 56.4332 33.7444 56.0488 33.7628 55.6753C33.7907 55.0924 33.9863 54.4631 33.6173 53.9029C33.7356 53.4898 33.4416 53.1399 33.4416 52.7444C33.4416 51.6601 33.4305 50.575 33.4445 49.4907C33.4585 48.3961 33.1225 47.3192 33.2747 46.2231C33.3364 45.7754 33.1644 45.3777 33.0541 44.9866C32.9939 44.7749 32.9108 44.5669 32.9189 44.3456C32.9358 43.8677 32.9453 43.4009 33.0549 42.915C33.1887 42.3247 33.0453 41.6837 32.9468 41.0559C32.8108 40.1884 32.977 39.2813 32.7425 38.4065C32.6814 38.1801 32.5528 37.8831 32.6425 37.725C32.7917 37.4604 32.7402 37.2141 32.7307 36.9708C32.6932 35.9975 32.6337 35.0249 32.5601 34.0538C32.5094 33.3878 32.6998 32.7938 32.9755 32.291C33.4063 32.066 33.7974 31.8874 34.2009 32.1925C34.3325 31.9565 34.5369 32.2638 34.7045 32.1204C34.8111 32.0293 34.9765 32.2256 35.1573 32.0682C35.2742 31.9668 35.5999 31.9712 35.7462 32.0646C36.1255 32.305 36.5232 32.2123 36.9128 32.2182C37.2216 32.2226 37.5311 32.1403 37.8406 32.1395C38.1265 32.1388 38.4154 32.2344 38.6992 32.2167C39.1447 32.1881 39.5872 32.0999 40.079 32.03Z" fill="#28282A"></path>
</symbol></defs><use data-v-1e92d442="" xlink:href="#food--sprite" fill="#28282A"></use></svg>