<svg xmlns:xlink="http://www.w3.org/1999/xlink" xmlns="http://www.w3.org/2000/svg" data-v-1e92d442="" viewBox="0 0 59 61" preserveAspectRatio="xMidYMid" class="BaseIcon-icon" width="59"  height="61" ><defs><symbol xmlns="http://www.w3.org/2000/svg" viewBox="0 0 59 61" fill="none" id="prevention--sprite">
<path d="M56.3111 53.2652C55.5922 52.2033 55.0888 51.0653 54.6755 49.8628C54.3624 48.9507 53.9969 48.0519 53.5929 47.1764C52.8158 45.4939 52.0051 43.8264 51.1905 42.1617C50.6675 41.0932 50.1164 40.0397 49.5718 38.9814C49.0263 37.9222 48.4526 36.8762 47.9286 35.8067C47.3072 34.5385 46.7373 33.2441 46.1215 31.9731C45.4569 30.6018 44.7558 29.2473 44.0856 27.8779C43.2364 26.1429 42.39 24.4061 41.5689 22.658C41.3046 22.0956 41.1528 21.4826 40.8997 20.9146C40.5398 20.1047 40.1667 19.2977 39.7393 18.5225C39.3465 17.812 38.7832 17.1869 38.4523 16.4529C37.0782 13.4085 35.8007 10.3219 34.4144 7.28313C33.5202 5.3232 32.5125 3.41481 31.5274 1.49799C31.3446 1.14275 31.0681 0.812812 30.7701 0.543801C29.814 -0.318533 28.7192 -0.134818 28.0209 0.949661C27.7416 1.38458 27.3985 1.77825 27.1164 2.21129C26.8961 2.54779 26.5877 2.90397 26.5559 3.27234C26.4397 4.60708 25.6073 5.61658 24.9765 6.66825C24.2801 7.83053 23.6783 9.00218 23.2509 10.2788C22.7522 11.7663 22.172 13.2164 21.1963 14.4724C21.0829 14.6177 20.9919 14.7873 20.9216 14.9588C20.2777 16.5429 19.6535 18.1345 18.9926 19.7111C18.8221 20.1169 18.5343 20.4722 18.3215 20.863C17.8454 21.7375 17.3495 22.6036 16.923 23.5016C16.3513 24.706 15.8611 25.9499 15.293 27.1562C14.7241 28.3635 14.068 29.5295 13.5121 30.7414C12.7398 32.4239 12.0912 34.1664 11.2663 35.8226C10.2212 37.9194 9.01206 39.9337 7.94914 42.0221C7.00901 43.8677 6.17011 45.7657 5.2909 47.6423C4.51949 49.2891 3.75182 50.9369 2.99166 52.5885C2.86793 52.8566 2.80138 53.1499 2.68796 53.4236C2.54737 53.7639 2.45738 54.1576 2.22399 54.42C1.00079 55.7951 0.939863 57.6238 0.220001 59.116C0.754274 60.2623 1.57349 60.7029 2.69078 60.6888C3.90929 60.6729 5.12781 60.6738 6.34632 60.6916C7.00807 60.701 7.67076 60.8135 8.33063 60.7919C12.0537 60.6701 15.7748 60.507 19.4941 60.8847C19.8934 60.925 20.3058 60.835 20.7117 60.7985C21.9246 60.6897 23.1253 60.5304 24.3588 60.7019C25.2596 60.8275 26.1922 60.7638 27.1089 60.7338C27.8447 60.7094 28.617 60.4292 29.3041 60.5791C30.637 60.8697 31.9305 61.0141 33.2783 60.7432C33.8182 60.6344 34.4153 60.6035 34.9486 60.716C36.0659 60.9522 37.1448 60.8144 38.2621 60.7272C40.6719 60.5398 43.0968 60.522 45.516 60.4742C46.1028 60.4629 46.6914 60.6523 47.281 60.6663C48.7226 60.7001 50.1651 60.6654 51.6067 60.6982C52.2703 60.7132 52.933 60.8838 53.5947 60.8772C54.4833 60.8678 55.37 60.7113 56.2586 60.6944C58.0498 60.6607 58.286 60.5079 58.78 58.8254C58.78 58.7504 58.78 58.6764 58.78 58.6014C58.3357 56.6461 57.4199 54.9018 56.3111 53.2652ZM51.8335 56.7427C50.4575 56.7286 49.0759 56.8224 47.7074 56.7211C44.6218 56.4943 41.5436 56.872 38.4617 56.7361C37.0511 56.6743 35.6423 56.5608 34.2307 56.5271C33.6055 56.5121 32.9775 56.6396 32.3504 56.6996C32.1648 56.7174 31.9755 56.7521 31.7927 56.7314C29.0107 56.4221 26.2325 56.8533 23.4477 56.7586C20.6883 56.6649 17.9241 56.7577 15.1618 56.7296C14.0136 56.7183 12.8673 56.5477 11.72 56.5524C10.3103 56.558 8.90052 56.7164 7.49079 56.7174C6.85154 56.7183 6.21229 56.499 5.36308 56.3406C5.65083 55.7819 5.81393 55.4342 6.0042 55.1014C7.1646 53.0712 8.38312 51.0719 8.95582 48.7623C9.0683 48.3087 9.40949 47.9141 9.62413 47.482C10.2175 46.2878 10.8173 45.0965 11.3825 43.8892C11.9178 42.7466 12.3649 41.5609 12.9357 40.438C13.8421 38.6562 14.8178 36.9099 15.7683 35.1506C15.8742 34.9547 16.0785 34.7869 16.1188 34.5835C16.5106 32.5955 17.9316 31.0986 18.6393 29.2623C18.8258 28.7787 19.1211 28.3381 19.3395 27.8648C19.6319 27.2293 19.8897 26.5769 20.1774 25.9395C20.7885 24.5861 21.4062 23.2344 22.0286 21.8856C23.1525 19.4533 24.1788 16.9675 25.4386 14.6073C26.7105 12.2247 27.6113 9.62268 29.5919 7.35531C29.8909 7.66556 30.2264 7.90176 30.4092 8.2242C31.3446 9.87295 32.2688 11.5123 32.8706 13.3429C33.3646 14.8464 34.1454 16.2692 34.9018 17.6714C36.1578 19.9998 37.4279 22.3121 38.2658 24.8391C38.4842 25.4981 38.9585 26.067 39.2613 26.7025C40.91 30.1622 42.5194 33.6406 44.1887 37.0908C45.0455 38.8614 45.7466 40.7098 46.8929 42.3436C47.4187 43.0934 47.8293 43.9745 48.0749 44.8575C48.3504 45.8492 48.7441 46.7387 49.3571 47.5485C49.4912 47.7257 49.6477 47.9103 49.7039 48.1156C50.2579 50.1496 51.4117 51.8996 52.3341 53.7601C52.6912 54.48 52.9508 55.2477 53.1805 55.811C52.8796 56.6705 52.3931 56.7493 51.8335 56.7427Z" fill="#28282A"></path>
<path d="M30.9924 31.9366C30.5819 31.0499 28.6444 31.2786 28.0614 31.6292C27.4784 31.9797 27.3678 33.3763 27.3397 33.7372C27.216 35.3278 27.3791 35.9005 27.3444 37.4959C27.3153 38.8606 27.4269 40.2225 27.3706 41.5948C27.3144 42.9567 27.5534 44.328 27.59 45.6974C27.6274 47.1006 27.5768 48.5056 27.5646 49.9107C27.5637 49.9857 27.5675 50.0597 27.5712 50.1347C27.5956 50.6877 27.8946 51.0336 28.4045 51.1976C28.6857 51.2885 28.9781 51.3495 29.2678 51.4113C30.476 51.671 31.2108 51.0973 31.2811 49.8488C31.3139 49.2545 31.3702 48.6612 31.3823 48.067C31.4236 46.0199 31.4855 43.9718 31.4705 41.9247C31.4564 39.9188 31.3439 37.9139 31.3027 35.9071C31.2783 34.6614 31.4227 32.8674 30.9924 31.9366Z" fill="#28282A"></path>
<path d="M28.914 25.8327C28.4219 25.9368 27.7133 26.561 27.7218 27.3521C27.7311 28.1432 27.5521 28.775 28.6891 29.5005C29.7098 29.5895 31.4729 29.6579 31.5966 28.4966C31.6782 27.7299 32.1131 27.3596 31.3764 26.3679C30.6406 25.3772 29.4061 25.7287 28.914 25.8327Z" fill="#28282A"></path>
</symbol></defs><use data-v-1e92d442="" xlink:href="#prevention--sprite" fill="#28282A"></use></svg>