<svg xmlns:xlink="http://www.w3.org/1999/xlink" xmlns="http://www.w3.org/2000/svg" viewBox="0 0 21 21" preserveAspectRatio="xMidYMid" class="BaseIcon-icon" data-v-1e92d442="" width="21"  height="21" ><defs><symbol xmlns="http://www.w3.org/2000/svg" viewBox="0 0 21 21" id="instagram--sprite">
<g clip-path="url(#instagram--sprite_clip0_34_4161)">
<path d="M10.5783 16.2233C9.24923 16.2216 7.9617 15.7599 6.93441 14.9166C5.90712 14.0733 5.20341 12.9003 4.94281 11.597H0.0751953V17.6056C0.0751953 18.5116 0.435138 19.3806 1.07584 20.0213C1.71654 20.662 2.58552 21.022 3.49161 21.022H17.665C18.5711 21.022 19.4401 20.662 20.0808 20.0213C20.7215 19.3806 21.0815 18.5116 21.0815 17.6056V11.597H16.2139C15.9532 12.9003 15.2495 14.0733 14.2222 14.9166C13.195 15.7599 11.9074 16.2216 10.5783 16.2233Z"></path>
<path d="M17.6651 0.0188003H3.49165C3.04183 0.0183825 2.59635 0.106882 2.18085 0.27921C1.76534 0.451537 1.388 0.704295 1.07051 1.02295C0.753016 1.34161 0.501642 1.71988 0.330837 2.13601C0.160032 2.55214 0.0731658 2.99794 0.0752313 3.44776V9.40298H4.93657C5.18547 8.08884 5.88531 6.90281 6.91531 6.04957C7.94532 5.19634 9.24086 4.72943 10.5784 4.72943C11.9159 4.72943 13.2114 5.19634 14.2414 6.04957C15.2714 6.90281 15.9713 8.08884 16.2202 9.40298H21.0815V3.44776C21.0836 2.99794 20.9967 2.55214 20.8259 2.13601C20.6551 1.71988 20.4037 1.34161 20.0862 1.02295C19.7687 0.704295 19.3914 0.451537 18.9759 0.27921C18.5604 0.106882 18.1149 0.0183825 17.6651 0.0188003ZM18.5866 3.6797C18.4375 3.68032 18.2917 3.63665 18.1675 3.55423C18.0433 3.47181 17.9464 3.35436 17.8891 3.21678C17.8317 3.0792 17.8166 2.92769 17.8455 2.78148C17.8744 2.63526 17.9461 2.50094 18.0515 2.39555C18.1569 2.29016 18.2913 2.21845 18.4375 2.18953C18.5837 2.1606 18.7352 2.17576 18.8728 2.23309C19.0103 2.29041 19.1278 2.38731 19.2102 2.51149C19.2926 2.63568 19.3363 2.78155 19.3357 2.93059C19.3357 3.12927 19.2568 3.3198 19.1163 3.46029C18.9758 3.60077 18.7853 3.6797 18.5866 3.6797Z"></path>
<path d="M10.5784 14.0292C11.324 14.0281 12.0505 13.7926 12.6551 13.3562C13.2597 12.9198 13.7119 12.3044 13.9478 11.597C14.1837 10.8847 14.1837 10.1152 13.9478 9.40293C13.7123 8.69552 13.2601 8.08018 12.6554 7.64412C12.0506 7.20805 11.3239 6.97339 10.5784 6.97339C9.83279 6.97339 9.10613 7.20805 8.50137 7.64412C7.89662 8.08018 7.44445 8.69552 7.20896 9.40293C6.97299 10.1152 6.97299 10.8847 7.20896 11.597C7.44482 12.3044 7.89699 12.9198 8.5016 13.3562C9.10621 13.7926 9.83268 14.0281 10.5784 14.0292Z"></path>
</g>
<defs>
<clipPath id="instagram--sprite_clip0_34_4161">
<rect width="21" height="21"></rect>
</clipPath>
</defs>
</symbol></defs><use xlink:href="#instagram--sprite" data-v-1e92d442="" fill="#D4CEBD"></use></svg>