<svg xmlns:xlink="http://www.w3.org/1999/xlink" xmlns="http://www.w3.org/2000/svg" viewBox="0 0 24 20" preserveAspectRatio="xMidYMid" class="BaseIcon-icon" data-v-1e92d442="" width="24"  height="20" ><defs><symbol xmlns="http://www.w3.org/2000/svg" viewBox="0 0 24 20" id="twitter--sprite">
<path fill-rule="evenodd" clip-rule="evenodd" d="M24 2.36732C23.1177 2.76926 22.1681 3.03994 21.1722 3.16216C22.1889 2.53711 22.9697 1.54786 23.3368 0.369122C22.3865 0.948238 21.3314 1.3674 20.2107 1.59462C19.3123 0.613568 18.0316 0 16.6165 0C13.8975 0 11.6928 2.26068 11.6928 5.0488C11.6928 5.44418 11.7368 5.82971 11.8208 6.19965C7.72829 5.98966 4.10053 3.97916 1.67189 0.924451C1.24792 1.67008 1.00553 2.53712 1.00553 3.4624C1.00553 5.21369 1.87347 6.75909 3.19579 7.66468C2.38784 7.63843 1.62949 7.41121 0.964734 7.03306V7.09622C0.964734 9.54311 2.66302 11.5831 4.91407 12.0482C4.5013 12.1631 4.06613 12.2254 3.61736 12.2254C3.29978 12.2254 2.991 12.1934 2.69022 12.1344C3.31658 14.1399 5.13566 15.6 7.28991 15.6411C5.60523 16.9945 3.48217 17.8025 1.17512 17.8025C0.776747 17.8025 0.384774 17.7787 0 17.7311C2.17905 19.1633 4.76688 20 7.5475 20C16.6037 20 21.5562 12.3066 21.5562 5.6353C21.5562 5.41629 21.5522 5.1981 21.5418 4.98237C22.5049 4.26873 23.34 3.37954 24 2.36732Z"></path>
</symbol></defs><use xlink:href="#twitter--sprite" data-v-1e92d442="" fill="#D4CEBD"></use></svg>