<svg xmlns:xlink="http://www.w3.org/1999/xlink" xmlns="http://www.w3.org/2000/svg" data-v-1e92d442="" viewBox="0 0 61 59" preserveAspectRatio="xMidYMid" class="BaseIcon-icon" width="61"  height="59" ><defs><symbol xmlns="http://www.w3.org/2000/svg" viewBox="0 0 61 59" fill="none" id="bus--sprite">
<path d="M45.4055 58.722C45.0293 58.722 44.654 58.722 44.2778 58.722C44.2276 58.6592 44.1875 58.554 44.1263 58.5407C43.4918 58.4048 42.8541 58.2839 42.2173 58.1582C41.8097 58.0781 41.4014 57.9973 40.9193 57.9015C40.8172 57.841 40.6436 57.7303 40.4622 57.6329C39.3448 57.0322 39.3283 56.9112 38.9922 55.7341C38.7975 55.0509 38.726 54.2319 37.9949 53.8872C37.691 53.7977 37.4405 53.6697 37.1861 53.6602C36.4362 53.632 35.6831 53.6744 34.9324 53.643C34.1746 53.6116 33.4192 53.4993 32.6614 53.4741C32.3458 53.4639 32.0262 53.6304 31.7066 53.6414C30.9244 53.6673 30.14 53.683 29.3594 53.6406C28.5577 53.5974 27.7967 53.8526 26.995 53.8668C25.821 53.8872 24.6785 53.544 23.4951 53.6595C23.2171 53.8644 22.9289 54.0764 22.7184 54.2311C22.6588 54.4777 22.6454 54.6316 22.5842 54.7628C22.4373 55.0784 22.1962 55.3666 22.1201 55.6949C21.901 56.6372 21.2037 57.1272 20.4804 57.6368C19.5954 58.2595 18.5542 58.1881 17.575 58.3192C16.6523 58.4433 15.6998 58.3593 14.7614 58.3381C14.4755 58.3318 14.2431 58.4935 13.9918 58.514C13.7115 58.5367 13.4209 58.3977 13.1319 58.3475C12.4095 58.2226 11.7601 57.976 11.2732 57.3847C11.0353 57.0958 10.7471 56.8492 10.4809 56.5838C10.3945 55.9092 10.0498 55.292 10.0679 54.5892C10.0726 54.4094 9.94221 54.1903 9.8095 54.0489C9.45928 53.6744 9.12083 53.2817 8.61904 53.0792C8.35127 52.9708 7.98769 52.853 7.88404 52.6355C7.65788 52.1643 7.23777 51.9036 6.92759 51.5314C6.65746 51.2087 6.37555 50.8953 6.14311 50.6299C6.10306 49.6923 6.28603 48.8105 5.9303 48.0016C5.79917 47.704 5.76697 47.4308 5.76226 47.1324C5.75755 46.819 5.79838 46.5002 5.74969 46.1948C5.70729 45.9254 6.06458 45.671 5.76069 45.4095C5.76069 44.4703 5.76069 43.5311 5.76069 42.592C6.16667 42.0289 5.78974 41.5413 5.63505 41.0167C5.51019 40.595 5.21964 40.1545 5.40811 39.7203C5.51412 39.4753 5.43245 39.2381 5.54631 38.9923C5.66567 38.7348 5.57301 38.3782 5.57301 38.0657C5.57301 37.7838 5.54867 37.4995 5.58008 37.2216C5.61227 36.931 5.72457 36.6491 5.75441 36.3585C5.78582 36.0484 5.77796 35.7319 5.75833 35.4202C5.70493 34.5894 5.62876 33.7609 5.57694 32.9301C5.55573 32.5869 5.57537 32.2414 5.57144 31.8975C5.57065 31.8401 5.54788 31.7828 5.53453 31.7255C5.40182 31.5928 5.26911 31.4601 5.211 31.402C4.87177 31.2912 4.62755 31.1829 4.37234 31.1326C3.2981 30.9222 2.5152 30.1675 1.60272 29.6571C1.1135 29.3831 0.811962 28.8342 0.722442 28.3473C0.555181 27.4403 0.174328 26.56 0.300756 25.5965C0.365147 25.1042 0.336878 24.5945 0.305467 24.0959C0.273271 23.5878 0.193175 23.0821 0.117789 22.578C0.106796 22.5018 0.00314105 22.439 0 22.4358C0.192389 21.3161 0.390276 20.252 0.315676 19.2775C0.471943 18.9336 0.556751 18.6815 0.693387 18.4624C1.0232 17.9308 1.26035 17.2853 1.8061 16.9649C2.4775 16.5707 3.1222 16.1317 3.88155 15.8585C4.59457 15.6017 5.44815 15.392 5.7709 14.2667C5.73399 14.0806 5.58636 13.6754 5.59186 13.271C5.59735 12.8619 5.83764 12.4685 5.76304 12.0335C5.74734 11.9424 5.80074 11.8136 5.75441 11.757C5.3123 11.2199 5.75598 10.7268 5.88083 10.2635C6.05202 9.63056 6.45643 9.06438 6.69044 8.44324C7.06108 7.46009 7.71835 6.68111 8.46042 5.99479C8.88132 5.60452 9.32186 5.1365 9.91787 5.01007C10.3631 4.91505 10.7 4.7046 10.9709 4.37872C11.2905 3.99473 11.7106 3.77721 12.1512 3.59189C12.3907 3.49137 12.6647 3.47331 12.9097 3.38222C13.4516 3.18041 14.0005 2.98723 14.5187 2.73281C15.3456 2.32683 16.317 2.46111 17.1258 1.99388C17.3991 1.83604 17.6975 1.69391 18.0021 1.62088C19.0089 1.38059 20.043 1.2416 21.0607 1.09554C21.9834 0.962827 22.9281 0.727248 23.8885 0.855246C24.1963 0.89608 24.5159 0.885871 24.8261 0.855246C25.1473 0.82305 25.4676 0.750806 25.781 0.670709C26.2034 0.562343 26.6188 0.428848 26.929 0.338543C27.2196 0.401364 27.4198 0.490099 27.6146 0.479105C28.5592 0.424137 29.4976 0.525436 30.4572 0.34404C31.2008 0.203478 32.0497 0.113173 32.813 0.486958C33.8597 0.411572 34.8759 0.810486 35.9289 0.680918C36.2375 0.643225 36.5571 0.650292 36.8665 0.681703C37.1877 0.713899 37.5057 0.79164 37.8214 0.86624C38.0185 0.91257 38.2046 1.00916 38.4025 1.04685C38.8124 1.12381 39.2247 1.2039 39.6393 1.23217C40.1065 1.26358 40.5824 1.20076 41.0465 1.24945C41.5553 1.30285 42.0555 1.43713 42.5699 1.53842C42.5997 1.51173 42.6445 1.47325 42.6201 1.49445C42.9672 1.60674 43.2688 1.7049 43.5703 1.80227C44.3242 2.04649 45.1298 2.0457 45.8774 2.3551C46.9642 2.80505 48.3086 3.23381 49.4205 4.01279C50.11 4.49572 50.8638 4.89778 51.6193 5.27392C52.081 5.50322 52.4132 5.8613 52.7061 6.23508C52.8215 6.3835 52.9196 6.59002 53.0665 6.73215C53.763 7.40591 54.3402 8.16761 54.7415 8.97722C54.8294 9.59758 54.7925 10.2156 55.0202 10.7127C55.2699 11.2584 55.226 11.834 55.4026 12.3421C55.6092 12.9349 55.4898 13.4933 55.5448 14.0626C55.5778 14.3995 55.5511 14.7418 55.5511 15.1023C55.8338 15.3017 56.1023 15.491 56.4101 15.7085C57.0611 15.619 57.6438 15.8899 58.1935 16.2668C58.4605 16.4506 58.7102 16.7058 59.0078 16.7898C59.5418 16.9406 59.8771 17.3136 60.2242 17.6528C60.2548 17.8193 60.2352 18.0022 60.3168 18.1059C60.5775 18.4357 60.6404 18.7977 60.6349 19.2029C60.6325 19.3639 60.7479 19.5272 60.8123 19.6882C60.8814 19.861 60.6341 20.1468 61 20.2128C61 22.6549 61 25.0971 61 27.5393C60.6388 27.7356 60.6977 28.2075 60.382 28.4541C60.064 28.7022 59.8001 29.0203 59.5127 29.3085C59.2693 29.5519 58.9175 29.7545 58.8075 30.0474C58.6269 30.5288 58.239 30.5782 57.8692 30.7384C57.1954 31.0305 56.3717 30.8028 55.7466 31.4687C55.6681 31.6226 55.5369 31.881 55.3956 32.159C55.4301 32.1974 55.4875 32.2626 55.4772 32.2508C55.4317 32.5131 55.3791 32.7063 55.3673 32.9026C55.2841 34.3145 55.511 35.7343 55.1946 37.1454C55.0807 37.6519 55.1765 38.2047 55.1765 38.7363C55.1765 39.2994 55.2118 39.8655 55.1647 40.4246C55.1278 40.8589 55.4506 41.2821 55.1843 41.7133C55.5707 42.442 55.2283 43.2335 55.3854 43.974C55.4317 44.1923 55.0689 44.2245 55.2982 44.5159C55.5723 44.8637 55.1694 45.4205 55.5094 45.8312C55.5346 45.8618 55.3681 46.0141 55.3712 46.1068C55.4011 46.9337 55.0783 47.7252 55.1663 48.5639C55.2778 49.6318 54.9543 50.5993 54.4462 51.5479C54.1494 52.1023 53.8211 52.4729 53.2377 52.7344C52.6291 53.0069 51.92 53.1844 51.5282 53.822C51.4968 53.8731 51.4551 53.917 51.4418 53.9343C51.3766 54.7101 51.1858 55.4734 50.7625 56.0262C50.3408 56.5751 49.9294 57.1633 49.3106 57.6054C48.4908 58.1904 47.6458 58.4794 46.6815 58.532C46.3069 58.5524 45.9308 58.5281 45.5555 58.5438C45.5021 58.5446 45.4549 58.6592 45.4055 58.722ZM22.2677 3.82747C21.8099 4.08111 21.3851 4.33318 20.9445 4.55305C20.7129 4.6677 20.4577 4.75093 20.204 4.80041C19.908 4.85773 19.6002 4.84831 19.301 4.89464C18.9814 4.94411 18.6673 5.07132 18.35 5.07289C18.1364 5.07368 17.8789 5.24565 17.6857 5.00222C17.4258 5.3391 17.0433 5.09802 16.7355 5.20325C16.434 5.30612 16.1426 5.43883 15.838 5.52913C15.5294 5.62022 15.1838 5.62258 14.9004 5.75921C14.3742 6.01285 13.7468 6.10944 13.3927 6.66069C13.2882 6.82324 13.084 6.8201 12.9286 6.89235C12.002 7.32346 11.1311 7.86843 10.488 8.67254C10.3498 8.84529 10.2414 9.09265 10.06 9.23164C9.57785 9.60229 9.3407 10.1229 9.22056 10.6702C9.10748 11.1854 8.76275 11.7217 9.00225 12.2337C9.13339 12.5148 9.10826 12.759 9.14203 13.0221C9.22605 13.6778 8.96063 14.3013 8.95828 14.9484C8.952 16.7325 8.98341 18.5174 8.94807 20.3007C8.91273 22.0903 9.1012 23.8854 8.78317 25.6719C8.66773 26.3205 8.91038 26.9668 9.09963 27.5966C9.14046 27.7324 9.17265 27.9288 9.10591 28.0308C8.7172 28.6292 9.17894 29.3454 8.81772 29.9382C9.11612 30.5908 8.93551 31.2795 8.93943 31.9469C8.94336 32.6081 9.1169 33.2929 8.78159 33.9415C8.71406 34.0719 8.78474 34.3019 8.84599 34.4661C9.03366 34.9726 8.98733 35.4728 8.8774 35.9832C8.82871 36.2101 8.71563 36.5289 8.8185 36.6617C9.02738 36.9318 8.94728 37.1972 8.94964 37.4587C8.96378 38.7418 8.93786 40.0257 8.96456 41.3081C8.97555 41.8468 9.04937 42.3894 9.15852 42.9178C9.20799 43.1574 8.89232 43.294 9.07214 43.5492C9.15145 43.6623 9.01168 43.8374 9.12083 44.0306C9.22841 44.2206 9.15852 44.519 9.14124 44.7687C9.0957 45.433 9.10983 46.0903 9.00068 46.7641C8.85776 47.6443 8.80908 48.5961 9.2606 49.5761C9.56529 49.8329 9.95792 50.1643 10.3066 50.4587C10.8209 50.4587 11.2599 50.476 11.6973 50.454C12.13 50.4312 12.5352 50.4799 12.8257 50.6912C12.9301 50.9754 12.9875 51.2032 13.095 51.405C13.2168 51.6319 12.7613 51.7968 13.0519 52.019C12.9239 52.1698 13.0825 52.4125 13.022 52.4682C12.8304 52.6457 13.172 52.8844 12.9207 53.0148C13.1123 53.5919 13.3039 54.1691 13.4845 54.7149C13.841 54.8664 14.1497 55.0564 14.4826 55.1224C14.843 55.1939 15.227 55.1358 15.5985 55.1601C15.8615 55.1774 16.1324 55.0721 16.3869 55.3179C16.4866 55.4145 16.7936 55.325 16.9978 55.2802C17.5436 55.1585 18.0846 55.0156 18.822 54.8326C18.935 54.7486 19.2217 54.5358 19.4816 54.3434C19.4517 53.1514 19.586 52.0151 19.2523 50.9425C19.6991 50.564 20.1514 50.4344 20.6422 50.4634C21.868 50.5349 23.0907 50.3849 24.3282 50.6071C25.1402 50.7532 26.015 50.677 26.8811 50.4988C27.752 50.3197 28.6888 50.4595 29.5966 50.4595C29.8785 50.4595 30.1863 50.3881 30.4352 50.4784C30.7211 50.582 30.8828 50.3252 31.1624 50.3566C31.4388 50.3873 31.7113 50.5113 32.0105 50.4705C32.3481 50.4242 32.6976 50.4595 33.0423 50.4595C33.9501 50.4595 34.8586 50.4752 35.7656 50.454C36.3749 50.4399 36.9647 50.4823 37.5254 50.7454C37.5764 50.7689 37.6659 50.7045 37.7209 50.7257C38.0193 50.8404 38.2753 50.6111 38.5698 50.6386C38.942 50.6739 39.3236 50.6778 39.695 50.6393C40.196 50.5875 40.6915 50.4831 41.125 50.4116C41.4752 50.7406 41.681 51.0375 41.6409 51.427C41.6197 51.6366 41.4297 51.9766 41.4886 52.0198C41.7304 52.1949 41.3692 52.4454 41.6032 52.575C41.3849 52.8137 41.6236 53.0313 41.6605 53.2441C41.7995 54.0395 41.9896 54.8279 42.9774 55.1554C43.2546 55.1554 43.6433 55.0941 44.0014 55.1727C44.343 55.248 44.6202 54.9913 44.9861 55.1287C45.3152 55.2528 45.7282 55.1444 46.1028 55.1577C46.3761 55.1672 46.6485 55.2378 46.9195 55.2292C47.4275 55.2119 47.6961 54.8821 47.8154 54.5225C47.9379 53.5825 47.7801 52.7352 47.9929 51.8691C48.1295 51.3115 48.263 50.8372 48.6973 50.4579C49.1582 50.4579 49.6302 50.4886 50.0958 50.4493C50.5631 50.41 51.0201 50.2491 51.3994 49.9836C51.7449 49.7426 51.9499 49.3861 51.997 48.9196C52.0362 48.5293 52.1391 48.143 52.176 47.7433C52.26 46.8465 52.0598 45.9764 51.9695 45.0985C51.8957 44.3824 52.1454 43.7157 52.1878 43.0168C52.2396 42.1467 51.9632 41.3214 51.9773 40.4639C51.9899 39.6504 51.9553 38.8353 51.9868 38.0225C52.0182 37.2019 52.1375 36.3852 52.1603 35.5646C52.1917 34.4386 52.1579 33.3109 52.1736 32.1849C52.1791 31.7687 52.0684 31.3352 52.3448 30.9402C52.4186 30.835 52.4218 30.5539 52.3448 30.4918C51.9498 30.1715 52.4084 29.6076 51.9797 29.3195C51.9797 28.8813 51.953 28.4407 51.9875 28.0057C52.0182 27.6225 51.8847 27.2448 52.1415 26.8459C52.3362 26.5435 52.0983 26.1046 52.1375 25.701C52.231 24.7398 52.2082 23.7614 52.1564 22.7939C52.1038 21.8053 52.3111 20.8425 52.3472 19.8665C52.3582 19.5578 52.1548 19.2045 52.2498 18.9446C52.4187 18.4813 52.4367 18.0187 52.2655 17.619C52.0723 17.1683 52.3181 16.7011 52.0888 16.2833C52.0472 16.2079 52.0017 16.1341 51.9938 16.12C52.0653 15.8899 52.1336 15.7281 52.1634 15.5601C52.1956 15.381 52.1218 15.1007 52.2168 15.0308C52.4524 14.8565 52.1579 14.752 52.22 14.6115C52.2899 14.4536 52.3472 14.2754 52.3503 14.105C52.3645 13.4163 52.3605 12.7276 52.3535 12.0397C52.3519 11.8638 52.2883 11.6934 52.2459 11.5262C52.026 10.6467 51.4591 9.96508 51.0193 9.21437C50.6055 8.50842 50.0903 7.8967 49.2611 7.614C48.9925 7.52213 48.7805 7.26849 48.5363 7.09809C48.1523 6.82953 47.7408 6.63478 47.287 6.48401C46.603 6.25707 45.9544 5.92176 45.2908 5.63279C45.0089 5.47416 44.6909 5.62101 44.3477 5.40349C44.0925 5.24094 43.67 5.30376 43.3135 5.20325C42.3893 4.94254 41.509 4.54991 40.562 4.34338C40.1921 4.2625 39.7916 4.38971 39.4917 4.22559C38.4912 3.6767 37.3769 3.8895 36.3278 3.72303C35.168 3.53849 33.9556 3.67591 32.7659 3.6869C32.6096 3.68847 32.4549 3.77485 32.2994 3.82197C32.2083 3.45996 31.9264 4.08974 31.8346 3.73323C31.5644 3.94997 31.3398 3.62958 31.0713 3.6712C30.7383 3.72303 30.2719 3.5754 30.0866 3.75051C29.8612 3.96253 29.7544 3.54713 29.5659 3.78663C29.4631 3.91699 29.1066 3.87066 28.8655 3.86437C28.1996 3.84631 27.529 3.95311 26.8709 3.69633C26.6267 3.60052 26.311 3.65785 26.0322 3.68612C25.638 3.72695 25.2462 3.79606 24.8575 3.8738C24.7193 3.90128 24.5976 4.00179 24.4609 4.04812C23.5673 4.34888 23.305 4.32454 22.2677 3.82747ZM57.8056 26.1289C57.8056 25.8894 57.8056 25.6405 57.8056 25.3916C57.8056 25.1097 57.8056 24.8285 57.8056 24.5466C57.8056 24.2961 57.8056 24.0456 57.8056 23.7959C57.8056 23.514 57.7898 23.2313 57.8103 22.951C57.826 22.7342 57.9563 22.5026 57.9084 22.3094C57.855 22.0942 57.954 21.8838 57.8275 21.6537C57.7215 21.4613 57.8056 21.1653 57.8056 20.9148C57.8056 20.6376 57.8056 20.3604 57.8056 20.0761C57.5323 19.7353 57.2684 19.4055 57.0313 19.111C56.5782 19.0215 56.1832 18.9438 55.8126 18.8707C55.6893 19.0459 55.5864 19.1354 55.5589 19.2437C55.5149 19.4181 55.5911 19.6882 55.493 19.7707C55.1977 20.018 55.5683 20.1287 55.5817 20.3039C55.6257 20.8692 55.3579 21.371 55.3602 21.9184C55.3681 23.5753 55.3626 25.2329 55.3626 26.8231C55.6092 27.0932 55.8188 27.3233 55.9555 27.4733C56.2429 27.5558 56.4313 27.6099 56.5703 27.65C57.4773 27.5353 57.3116 26.5899 57.8056 26.1289ZM5.90753 20.135C5.81173 19.8296 5.69787 19.5319 5.62719 19.2249C5.54474 18.8637 5.2699 18.6972 5.08379 18.5205C4.01505 18.8126 3.78104 19.7385 3.31931 20.5551C3.31931 20.8221 3.31931 21.1637 3.31931 21.5053C3.31931 21.8799 3.38919 22.2717 3.29889 22.6227C3.21644 22.9392 3.65304 23.2093 3.32088 23.5007C3.73628 23.8297 3.346 24.3291 3.58001 24.7037C3.82659 25.0987 3.69309 25.547 3.68131 25.9648C3.66639 26.4933 3.83679 26.9511 3.99777 27.4168C4.39512 27.6076 4.75869 27.7811 5.11913 27.9539C5.35785 27.8353 5.5628 27.7332 5.71122 27.6594C5.92167 27.204 6.12505 26.7886 5.80152 26.3567C5.97114 25.9711 5.64133 25.6028 5.76226 25.2188C5.41046 24.8521 5.61149 24.399 5.58008 23.9867C5.4882 22.7908 5.89889 21.6184 5.7709 20.4161C5.7599 20.3188 5.86905 20.2096 5.90753 20.135Z" fill="#28282A"></path>
<path d="M12.1796 17.6475C12.4575 16.9407 12.6813 16.3761 12.8996 15.8099C12.9311 15.7291 12.9287 15.6348 12.9585 15.5524C13.3041 14.5944 13.9668 13.9245 14.8589 13.4604C15.067 13.3521 15.2664 13.2249 15.5303 13.0717C15.7313 13.0717 16.0156 13.0961 16.2936 13.0647C16.5527 13.0356 16.8032 12.9155 17.0623 12.8919C17.4039 12.8605 17.7753 12.8063 18.0871 12.9068C18.3816 13.0011 18.6164 12.8754 18.8779 12.8825C19.2218 12.8911 19.5665 12.8848 19.9105 12.8848C20.2238 12.8848 20.552 12.9429 20.8441 12.866C21.0695 12.8063 21.2446 13.2633 21.4464 12.8888C21.5501 13.2029 21.799 12.8699 21.9946 13.0136C22.1595 13.1353 22.4689 13.0654 22.7139 13.0709C22.9644 13.0772 23.2149 13.0725 23.4654 13.0725C23.653 13.0725 23.8415 13.0623 24.0284 13.0764C24.1587 13.0859 24.2082 12.7678 24.3739 12.9932C24.5058 13.1722 24.6213 12.7474 24.7925 13.0018C24.8576 13.0984 25.1333 13.0615 25.3131 13.0709C25.5 13.0804 25.6908 13.0906 25.8761 13.0694C26.2287 13.0285 26.6017 13.1872 26.9378 12.8998C27.0462 12.8071 27.3281 12.8252 27.4843 12.8958C28.1958 13.2178 28.9386 13.0278 29.665 13.0686C30.1016 13.0937 30.5461 13.1141 30.978 13.0607C31.34 13.016 31.6682 13.2547 32.0231 13.1243C32.2053 13.4353 32.2854 13.0175 32.455 13.0631C32.6302 13.1102 32.828 13.0733 33.0157 13.0733C34.4865 13.0733 35.9581 13.0733 37.4289 13.0733C37.6794 13.0733 37.9299 13.0741 38.1804 13.0733C38.4301 13.0725 38.7968 13.173 38.906 13.0482C39.1525 12.7655 39.2609 13.1039 39.4345 13.0819C39.681 13.0505 39.9355 13.0576 40.1844 13.0772C40.8479 13.1306 41.5083 13.2233 42.1727 13.2547C42.8284 13.2861 43.51 13.155 44.1374 13.2908C44.7766 13.429 45.4017 13.4314 46.0377 13.4541C46.1485 13.4581 46.256 13.528 46.3668 13.5625C47.1018 13.791 47.6059 14.3423 48.0519 14.9053C48.3857 15.3262 48.5796 15.8696 48.7759 16.3816C48.8592 16.5999 48.7901 16.8771 48.7901 17.1276C48.7901 17.9097 48.6511 18.7264 48.8341 19.4638C48.9801 20.0535 49.0626 20.6472 48.9464 21.1733C48.6943 22.3119 48.8608 23.445 48.7877 24.5758C48.772 24.8138 48.7147 25.0493 48.6966 25.2873C48.6833 25.464 48.637 25.7404 48.6872 25.8016C48.882 26.0403 48.7579 26.2846 48.7838 26.5194C48.8113 26.7667 48.7901 27.0196 48.7901 27.2701C48.7901 27.5206 48.7665 27.7734 48.794 28.0208C48.8961 28.9152 48.604 29.7264 48.3252 30.5509C48.1501 31.0684 47.9648 31.5584 47.5219 31.9094C47.4489 31.9675 47.3782 32.0335 47.3232 32.1089C46.8206 32.7928 46.8222 32.7936 45.9702 32.9766C45.499 33.4477 45.0593 33.8875 44.6777 34.2691C43.7251 34.416 42.87 34.5361 42.0195 34.6861C41.8279 34.7199 41.6568 34.862 41.473 34.9484C40.8809 35.2248 40.2739 35.4407 39.6064 35.4305C39.2311 35.425 38.8494 35.3889 38.4812 35.4415C38.1411 35.4902 37.8176 35.6496 37.4815 35.7383C37.3818 35.7643 37.2601 35.6959 37.1517 35.7061C37.0386 35.7171 36.9295 35.8004 36.8188 35.8012C35.1524 35.8098 33.4987 36.1176 31.826 36.0022C31.5693 35.9841 31.2803 35.8946 31.04 36.1522C30.9654 36.2323 30.711 36.2354 30.5955 36.171C30.0129 35.8491 29.3917 36.0281 28.7894 35.9998C28.1958 35.9716 27.5778 36.098 27.01 35.9739C25.4097 35.6229 23.8007 35.9347 22.4139 35.7988C21.7637 35.5695 21.3082 35.297 20.8371 35.2664C20.0243 35.2146 19.2697 34.8808 18.4593 34.8643C18.3729 34.8628 18.2732 34.8502 18.2033 34.8062C17.4157 34.3068 16.4459 34.1702 15.7172 33.553C15.2413 33.1501 14.584 33.0048 14.1875 32.4873C13.2719 32.1316 13.0858 31.2372 12.7222 30.481C12.5526 30.1284 12.5086 29.7444 12.5204 29.3408C12.5588 28.049 12.207 26.7746 12.3358 25.4757C12.3515 25.3155 12.1026 25.1836 12.3021 24.9677C12.3586 24.9064 12.1772 24.6575 12.1576 24.4887C12.079 23.7874 12.3445 23.1302 12.4301 22.4509C12.4583 22.2255 12.4866 21.9672 12.4308 21.7222C12.3719 21.4662 12.54 21.2361 12.5306 20.9809C12.5196 20.6684 12.4811 20.3464 12.5376 20.0441C12.6452 19.4763 12.2809 18.9816 12.3398 18.4296C11.9966 18.1618 12.211 17.7935 12.1796 17.6475ZM20.7122 32.0217C21.0703 32.0468 21.3852 32.0303 21.6812 32.0986C22.2584 32.2306 22.8191 32.4324 23.4237 32.423C24.0496 32.4135 24.6762 32.4379 25.3013 32.4167C26.1219 32.3892 26.9079 32.6083 27.661 32.8533C28.0364 32.9758 28.44 33.0684 28.7188 32.9562C29.5433 32.6232 30.3717 32.8988 31.1876 32.7967C31.3148 33.0386 31.5441 32.7748 31.6533 32.8721C31.8339 33.0331 32.0546 32.6884 32.1928 32.9507C32.287 32.6028 32.5218 33.1344 32.6733 32.8713C32.7291 32.774 32.9498 32.953 33.1484 32.8219C33.3165 32.7104 33.6958 32.7206 33.8575 32.8423C34.0978 33.0237 34.324 32.986 34.5564 32.9781C34.9734 32.964 35.4178 33.1014 35.7932 32.7967C36.3829 32.9247 36.9255 32.613 37.4996 32.613C38.0469 32.6138 38.5526 32.295 39.1117 32.4198C39.7596 32.0343 40.4796 32.0248 41.1487 32.046C41.5013 31.8419 41.7855 31.5788 42.1114 31.5081C43.038 31.3071 43.7189 30.6883 44.5049 30.2462C44.808 30.0758 45.0617 29.8764 45.2737 29.6266C45.4189 29.4547 45.5634 29.2246 45.5799 29.0102C45.6333 28.3152 45.8508 27.6431 45.7943 26.9285C45.737 26.2131 45.7747 25.4899 45.7865 24.7706C45.7896 24.564 45.8532 24.3599 45.8768 24.1526C46.0212 22.8969 46.0472 21.6405 45.8642 20.3857C45.7448 19.5658 45.6969 18.7476 45.9003 17.9333C45.9066 17.9074 45.9427 17.8885 45.9215 17.9097C45.8532 17.6891 45.7943 17.4967 45.7276 17.2807C45.5438 17.0844 45.3318 16.8567 45.1504 16.6627C44.2568 16.4813 43.4157 16.2536 42.5402 16.2662C42.3886 16.2685 42.1899 16.2308 42.0934 16.3094C41.8232 16.5316 41.6041 16.5245 41.3772 16.2748C41.144 16.6085 40.9194 16.1295 40.6925 16.2654C39.9402 16.7169 39.2735 16.2434 38.5777 16.0769C38.2432 16.4232 37.8011 16.3015 37.4383 16.245C36.6648 16.1233 36.6766 16.0973 35.8984 16.2544C35.6 16.3149 35.2003 16.3722 34.9836 16.2277C34.587 15.9631 34.1936 16.0714 33.8206 16.0981C33.4272 16.1264 33.0778 15.9419 32.6537 16.051C31.8622 16.2552 31.0329 16.3007 30.2029 16.2772C29.6972 16.2622 29.1695 16.139 28.6771 16.4397C28.5405 16.523 28.2719 16.5198 28.1282 16.4405C27.5731 16.1343 26.9857 16.2897 26.4156 16.2772C26.0991 16.2701 25.7803 16.435 25.4607 16.4405C25.1089 16.4468 24.7838 16.1555 24.414 16.2709C24.1776 16.3447 23.9915 16.0243 23.7912 16.1955C23.6326 16.3314 23.5502 15.9489 23.3641 16.1931C23.2777 16.3062 22.9628 16.252 22.7508 16.2622C22.5631 16.2709 22.3738 16.2513 22.1877 16.2662C21.5862 16.3164 20.9863 16.1774 20.3769 16.4248C20.033 16.5646 19.5665 16.5002 19.1786 16.4177C18.2394 16.2183 17.2838 16.2002 16.5056 16.4515C15.6135 16.7405 15.3222 17.2815 15.5295 18.2443C15.5554 18.3628 15.5821 18.545 15.5193 18.6078C15.1691 18.9588 15.3881 19.379 15.3544 19.7622C15.3222 20.1312 15.2908 20.4956 15.1738 20.849C15.524 21.4183 15.2531 22.0481 15.3473 22.6417C15.4423 23.2385 15.586 23.8275 15.5366 24.4423C15.5028 24.8609 15.4572 25.27 15.3834 25.6854C15.2931 26.1927 15.3143 26.7424 15.4926 27.303C15.6724 27.8684 15.5318 28.5351 15.5318 29.1162C16.1836 30.152 17.0529 30.8838 18.0722 31.4642C18.1279 31.4139 18.1931 31.3542 18.179 31.3668C19.0467 31.5961 19.9489 31.5223 20.7122 32.0217Z" fill="#28282A"></path>
<path d="M43.812 47.9946C43.5984 47.8611 43.4351 47.6845 43.2482 47.6546C42.459 47.529 41.9038 47.0468 41.3707 46.5152C41.1272 46.2726 40.9019 46.0064 40.6364 45.7896C40.0899 45.3436 39.9525 44.7107 39.7601 44.084C39.4727 43.1472 39.57 42.1931 39.6015 41.2508C39.6195 40.7058 39.826 40.1671 40.2375 39.736C40.5477 39.4109 40.8547 39.0638 41.0723 38.6751C41.4068 38.076 41.8654 37.7988 42.5415 37.6488C43.1194 37.5208 43.6675 37.2036 44.2565 37.0465C44.456 36.9939 44.6774 36.8989 44.8619 36.9405C45.5726 37.0999 46.3374 37.125 46.9625 37.5161C47.1918 37.6598 47.4164 37.6315 47.6284 37.7344C48.65 38.2338 49.3693 38.8487 49.7824 40.0973C49.9928 40.7325 50.3376 41.3018 50.5488 41.9411C50.8417 42.8268 50.6996 43.6812 50.241 44.3306C49.6725 45.1371 49.1251 45.9946 48.3595 46.6628C47.8766 47.0845 47.1133 47.4638 46.4152 47.6436C45.5702 47.8651 44.7324 48.0889 43.812 47.9946ZM42.7244 41.6536C42.3114 43.0192 43.0817 43.689 43.6503 44.4005C43.9228 44.5442 44.1772 44.6785 44.4434 44.819C45.4179 44.8724 46.2589 44.5717 46.8486 43.8461C46.9405 43.4385 47.0536 43.0985 47.0874 42.7507C47.1266 42.3494 47.0968 41.9418 47.0968 41.5366C46.6311 40.6909 46.1372 40.3281 44.7881 40.325C43.7162 40.3234 43.0056 40.9446 42.7244 41.6536Z" fill="#28282A"></path>
<path d="M21.4824 40.9884C21.5932 41.4384 21.4864 41.9135 21.7015 42.3988C21.8091 42.6422 21.8091 43.0285 21.6191 43.3741C21.4714 43.6418 21.5445 44.0305 21.5225 44.3195C21.1644 44.9941 20.7545 45.5861 20.2025 46.0691C20.0847 46.1719 19.9088 46.274 19.8821 46.402C19.7698 46.9352 19.3041 47.0412 18.928 47.2603C18.8267 47.3192 18.7215 47.3703 18.6469 47.4103C17.6849 47.4865 16.7418 47.6137 15.7987 47.6192C15.1242 47.6239 14.4402 47.503 13.7963 47.2588C13.2623 47.0562 12.704 46.9541 12.3993 46.3219C12.1315 45.7683 11.6612 45.3144 11.2968 44.8056C10.9968 44.387 10.9583 43.8908 11.0133 43.1652C11.0604 42.5432 11.0133 41.9142 11.0251 41.2892C11.0526 39.8443 11.7577 38.7975 12.9773 38.0837C13.3746 37.8505 13.7986 37.6377 14.2368 37.5058C14.6609 37.3786 15.1218 37.3786 15.5623 37.3C15.849 37.249 16.1851 37.2317 16.3979 37.0676C16.7819 36.7731 17.0732 36.942 17.3944 37.1171C17.9566 37.4233 18.6162 37.461 19.1691 37.8238C20.0745 38.4183 20.7945 39.1438 21.1699 40.1772C21.2681 40.4505 21.3772 40.7191 21.4824 40.9884ZM18.5259 43.4227C18.6893 41.9983 18.0799 40.9947 16.9656 40.3626C15.7877 40.1466 14.8533 40.3696 14.3075 41.2688C14.0625 42.043 13.6259 42.7136 14.2627 43.6599C14.6098 44.0619 15.2498 44.5394 15.9479 44.8252C16.5314 44.6697 17.0371 44.5347 17.5491 44.3973C17.8749 44.0729 18.2063 43.7416 18.5259 43.4227Z" fill="#28282A"></path>
<path d="M37.8895 9.88821C37.5535 10.785 36.8122 10.9483 36.0779 10.9892C34.9856 11.0504 33.8863 10.9884 32.7908 11.0111C32.1571 11.0245 31.5266 10.9405 30.885 11.1619C30.563 11.2726 30.1107 11.3252 29.7299 11.0465C29.5854 10.9405 29.3106 11.0096 29.0946 11.0056C28.8441 11.0017 28.5936 11.0049 28.3431 11.0049C28.124 11.0049 27.7848 11.092 27.7094 10.9876C27.5209 10.7277 27.3136 11.0724 27.1275 10.891C27.0435 10.8093 26.7851 10.8831 26.6124 10.9177C25.7023 11.0991 24.7929 11.0685 23.9134 10.8023C23.5279 10.6853 23.1918 10.4057 23.0826 9.96517C22.8416 8.80926 23.5397 8.17713 24.4883 7.62352C24.9201 7.62352 25.418 7.59996 25.9135 7.62901C26.6092 7.66985 27.3011 7.77272 27.9968 7.80413C28.6839 7.83554 29.3914 7.71696 30.0581 7.84025C30.6015 7.94076 31.1324 7.99259 31.6766 7.99966C31.8422 8.00201 31.9985 7.69419 32.1728 7.98395C32.3142 7.74602 32.549 7.81669 32.7586 7.81119C32.9777 7.8057 33.1968 7.80962 33.4159 7.80962C33.635 7.80962 33.8557 7.79627 34.0732 7.81355C34.3072 7.8324 34.5585 7.72324 34.7721 7.95647C34.838 8.02871 35.0972 8.02164 35.1937 7.95018C35.5966 7.65336 36.0882 7.73581 36.4423 7.84653C36.9527 8.00594 37.5739 8.09546 37.8888 8.70639C37.8895 9.0951 37.8895 9.53406 37.8895 9.88821Z" fill="#28282A"></path>
</symbol></defs><use data-v-1e92d442="" xlink:href="#bus--sprite" fill="#28282A"></use></svg>