<svg xmlns:xlink="http://www.w3.org/1999/xlink" xmlns="http://www.w3.org/2000/svg" data-v-1e92d442="" viewBox="0 0 61 61" preserveAspectRatio="xMidYMid" class="BaseIcon-icon" width="61"  height="61" ><defs><symbol xmlns="http://www.w3.org/2000/svg" viewBox="0 0 61 61" fill="none" id="parking--sprite">
<g clip-path="url(#parking--sprite_clip0_601_1865)" fill="none">
<path d="M32.7973 61C32.7314 61 32.6662 61 32.6003 61C32.5484 60.9337 32.4981 60.8136 32.4428 60.8103C32.0825 60.7929 31.7198 60.7887 31.3595 60.8045C30.9003 60.8252 30.4732 60.7722 30.1113 60.3786C29.7214 60.4076 29.2918 60.3844 28.8912 60.4822C28.2835 60.6296 27.6965 60.8558 27.0535 60.8045C26.5184 60.7614 25.9801 60.8799 25.4508 60.6222C25.2109 60.5054 24.7987 60.6926 24.6024 60.5501C24.3065 60.3355 24.1861 60.691 23.9421 60.6222C23.6684 60.5451 23.3551 60.5915 23.0607 60.6131C22.9832 60.6189 22.9132 60.7299 22.8901 60.749C22.6782 60.6934 22.5092 60.628 22.3352 60.6081C21.7383 60.5385 21.1406 60.6852 20.533 60.4349C20.1711 60.2858 19.6443 60.3024 19.2857 60.4598C18.9922 60.589 18.7325 60.5667 18.4571 60.6031C18.1718 60.6404 17.88 60.7075 17.6005 60.6752C17.4414 60.657 17.2699 60.8848 17.0877 60.618C16.9945 60.4805 16.7134 60.9089 16.4949 60.6346C16.3952 60.9975 16.1561 60.478 15.9937 60.7191C15.9129 60.8384 15.6936 60.5882 15.4916 60.7813C15.3704 60.8964 15.0513 60.8053 14.8213 60.802C14.5938 60.7987 14.3555 60.8326 14.142 60.7746C13.6993 60.6553 13.2566 60.6006 12.7998 60.6006C12.3802 60.6006 11.8814 60.7034 11.5607 60.5153C11.1724 60.2875 10.7066 60.6321 10.3817 60.222C10.3067 60.1276 9.98189 60.1532 9.81536 60.2253C8.62652 60.7374 7.347 60.6263 6.10952 60.7954C5.75501 60.8434 5.37989 60.7564 5.02868 60.8169C4.72035 60.8699 4.48291 60.6562 4.16962 60.7075C3.92147 60.7481 3.63456 60.6926 3.36003 60.6247C3.02283 60.541 2.65019 60.6048 2.4886 60.6048C2.19427 60.4929 2.07638 60.459 1.96838 60.4051C0.941131 59.8947 0.255201 58.7688 0.253552 57.5931C0.251903 56.1398 0.245307 54.6874 0.260147 53.235C0.262621 52.9599 0.121642 52.6376 0.417614 52.4122C0.242834 52.0369 0.569311 51.6757 0.449767 51.302C0.319507 50.8944 0.187597 50.4867 0.0952601 50.2009C0.16039 49.8148 0.22717 49.5439 0.248605 49.2696C0.339293 48.1097 0.0688781 46.9323 0.439874 45.7831C0.507478 45.5744 0.54128 45.2554 0.43163 45.1062C0.141428 44.711 0.260972 44.2918 0.259323 43.8875C0.246956 40.3546 0.256025 36.8217 0.246132 33.288C0.245307 32.9798 0.380515 32.6277 0.0680537 32.3741C0.110924 31.6674 -0.0341764 30.9615 0.165337 30.2481C0.324453 29.6789 0.568486 29.0965 0.442348 28.4842C0.347537 28.0243 0.400301 27.5852 0.429981 27.1254C0.493463 26.1386 0.454714 25.1452 0.442348 24.1551C0.440699 24.0449 0.33682 23.9355 0.279109 23.8228C0.595693 23.5975 0.532211 23.1708 0.421737 22.9463C0.202437 22.5013 0.258498 22.0672 0.258498 21.6272C0.258498 20.7266 0.178528 19.8219 0.437401 18.932C0.517371 18.6586 0.449767 18.3413 0.449767 18.0438C0.449767 17.7795 0.469554 17.5136 0.443996 17.2517C0.417614 16.9858 0.214803 16.6187 0.322804 16.4812C0.584975 16.1473 -0.00861887 15.9799 0.252727 15.7148C0.252727 14.4604 0.256025 13.2052 0.24943 11.9508C0.248605 11.7287 0.27004 11.4735 0.174406 11.2913C-0.0589094 10.8497 -0.0374741 10.336 0.106802 9.97307C0.250254 9.61017 0.196666 9.2829 0.253552 8.94485C0.419263 7.97464 0.0424962 7.02597 0.224696 6.03173C0.420912 4.96043 0.390408 3.84688 0.447294 2.75073C0.458012 2.5494 0.547875 2.40441 0.627846 2.22959C1.21072 0.947015 2.17531 0.351298 3.57768 0.337213C4.76651 0.324785 5.96772 0.513691 7.14748 0.164878C7.33133 0.110195 7.56795 0.238618 7.77983 0.280873C8.09311 0.343013 8.42289 0.496292 8.71639 0.444923C9.38253 0.3281 10.0083 0.275902 10.6686 0.526948C10.9844 0.647085 11.4527 0.67277 11.7289 0.518662C12.1452 0.285844 12.5442 0.352127 12.9441 0.363727C13.3448 0.375326 13.7957 0.159079 14.1486 0.537719C14.3934 0.183935 14.6408 0.705911 14.865 0.543518C15.3036 0.22619 15.7983 0.40681 16.2641 0.345499C16.8799 0.264302 17.4843 0.419238 18.1084 0.392725C19.1892 0.347156 20.3022 0.130908 21.3805 0.535233C21.6114 0.621401 21.9576 0.643771 22.153 0.528605C22.6477 0.236961 23.1589 0.372012 23.6601 0.35627C24.5134 0.329757 25.3683 0.35047 26.2225 0.347984C26.4162 0.347156 26.6446 0.397696 26.7987 0.314843C27.6289 -0.128423 28.5696 0.426695 29.3924 0C29.8203 0.404325 30.3669 0.035627 30.8698 0.242761C31.348 0.439952 31.9531 0.314843 32.5014 0.354613C32.841 0.379469 33.2137 0.211276 33.5146 0.538547C33.5723 0.601516 33.813 0.594888 33.8856 0.527776C34.2904 0.15825 34.7644 0.430838 35.1973 0.352127C35.6276 0.274245 36.0621 0.21459 36.4957 0.153279C36.5922 0.139194 36.7291 0.109367 36.7851 0.15825C37.185 0.504577 37.6541 0.303244 38.0894 0.345499C38.3169 0.367869 38.556 0.313186 38.7778 0.355441C39.8388 0.560918 39.8289 0.491321 40.7886 0.382783C41.2618 0.328928 41.7029 0.134223 42.1811 0.148308C42.6081 0.160736 43.0756 0.260988 43.4523 0.122623C43.9017 -0.0430838 44.2677 0.262645 44.6816 0.162393C44.8844 0.112681 45.1441 0.0770537 45.2974 0.324785C45.4425 0.114338 45.6264 0.336385 45.6998 0.3107C45.8572 0.22039 45.9364 0.174821 45.9479 0.168192C46.229 0.241932 46.431 0.334728 46.6363 0.341356C47.2596 0.362069 47.8969 0.420895 48.5045 0.320643C48.8458 0.264302 49.117 0.854219 49.4402 0.37284C49.6241 0.620572 49.7848 0.360412 49.9571 0.352127C50.2193 0.339699 50.484 0.367041 50.7453 0.345499C52.3562 0.21459 53.9664 0.67277 55.579 0.353784C55.7686 0.3165 56.0604 0.265131 56.1528 0.364555C56.438 0.670284 56.7678 0.526119 57.0737 0.540204C57.6293 0.565889 58.1875 0.547661 58.7283 0.547661C59.1554 0.839305 59.7234 1.02904 59.9427 1.41845C60.3887 2.21219 60.7927 3.06723 60.8042 4.02585C60.8108 4.55445 60.8397 5.08554 60.796 5.61C60.7515 6.14192 61.0013 6.70947 60.6262 7.20576C61.0029 7.84539 60.7119 8.54633 60.8125 9.20999C60.8265 9.30361 60.937 9.38149 61.0029 9.46683C61.0029 21.2933 61.0029 33.119 61.0029 44.9455C60.9469 44.9687 60.8488 44.9828 60.8413 45.0167C60.7416 45.4758 60.8793 45.9588 60.6278 46.417C60.5165 46.6191 60.6088 46.9348 60.6088 47.1991C60.6088 47.4634 60.6154 47.7277 60.6072 47.9912C60.5998 48.2157 60.6567 48.509 60.5396 48.6466C60.3689 48.8479 60.6946 49.0666 60.4299 49.2555C60.3475 49.3144 60.4769 49.6764 60.5124 49.8993C60.5429 50.0899 60.5981 50.2779 60.6056 50.4693C60.6649 51.9276 60.5363 53.3849 60.777 54.8473C60.9304 55.7786 60.8282 56.7579 60.8001 57.714C60.7663 58.8624 60.3409 59.7605 59.1908 60.2195C58.6632 60.43 58.1092 60.4946 57.5906 60.6512C57.1355 60.7887 56.7134 60.7647 56.2781 60.7945C55.7851 60.8285 55.2377 60.9387 54.8089 60.7722C54.0364 60.4722 53.2524 60.546 52.5211 60.6512C51.9506 60.7332 51.4617 60.8136 50.897 60.6247C50.4856 60.4863 49.9588 60.6545 49.5762 60.4805C49.0478 60.2394 48.6784 60.8219 48.2093 60.604C47.6767 60.9412 47.0848 60.7796 46.5176 60.7978C45.1944 60.8393 43.8893 60.4656 42.5595 60.604C42.3394 60.6272 42.0854 60.5882 41.9049 60.6852C41.4968 60.9039 41.0145 60.9031 40.6855 60.7664C40.1686 60.5509 39.6764 60.6354 39.176 60.6106C38.5865 60.5816 37.9938 60.604 37.4026 60.604C36.6474 60.604 35.8906 60.5783 35.1371 60.6114C34.4075 60.6437 33.6803 60.7324 32.9532 60.8103C32.8954 60.8161 32.8493 60.9345 32.7973 61ZM4.27103 57.2492C5.04765 57.1995 5.74677 57.3255 6.45413 57.4116C7.23158 57.5052 8.03458 57.492 8.81614 57.4166C9.60348 57.3412 10.3348 57.6668 11.1023 57.6229C11.4395 57.6038 11.7684 57.4713 12.1065 57.4398C12.4651 57.4067 12.8287 57.4323 13.1898 57.4323C14.2739 57.4323 15.3589 57.4199 16.443 57.439C16.814 57.4456 17.2254 57.2965 17.5444 57.6304C18.1982 57.6229 18.866 57.6966 19.5033 57.5889C20.411 57.4356 20.4003 57.3818 21.2363 57.603C21.3583 57.6353 21.5438 57.6809 21.6114 57.6212C21.9824 57.289 22.4177 57.4448 22.82 57.4406C24.5612 57.4224 26.3032 57.4323 28.0445 57.4323C28.2745 57.4323 28.5053 57.4439 28.7345 57.4274C28.8516 57.4191 28.9052 57.1125 29.0964 57.3669C29.1904 57.4912 29.3842 57.1042 29.5078 57.3959C30.1987 57.4738 30.8888 57.5583 31.5805 57.627C31.808 57.6494 32.0405 57.6304 32.2705 57.6304C32.4676 57.6304 32.6646 57.6345 32.8616 57.6295C33.0818 57.6237 33.3274 57.6966 33.4758 57.4456C33.6168 57.6453 33.7553 57.613 33.8938 57.4431C34.0785 57.8093 34.2409 57.4033 34.4256 57.4207C34.8164 57.458 35.2459 57.3354 35.5988 57.4572C36.0085 57.598 36.3564 57.4216 36.7249 57.41C38.3738 57.3586 40.0326 57.6345 41.6749 57.2467C42.0483 57.1581 42.463 57.2625 42.8538 57.2252C43.1968 57.1929 43.5323 57.3122 43.8967 57.1249C44.1193 57.0106 44.501 57.2625 44.7929 57.2202C46.0609 57.0363 47.2217 57.7563 48.4756 57.6295C48.7477 57.9071 49.0824 57.6809 49.3858 57.7231C49.7947 57.7795 50.2671 57.7613 50.6332 57.5972C50.8838 57.4845 51.1204 57.4936 51.3504 57.4182C51.5862 57.3404 51.7882 57.1771 52.0619 57.231C52.2804 57.2741 52.503 57.2973 52.7248 57.3255C53.1691 57.3818 53.6531 57.3478 54.0463 57.5202C54.3473 57.6519 54.6869 57.7057 54.8757 57.6047C55.4388 57.3031 56.0176 57.5144 56.5782 57.4174C56.6227 57.3727 56.6614 57.3097 56.7175 57.2815C57.3672 56.9485 57.8462 56.5342 57.495 55.704C57.8577 55.4911 57.3161 55.3842 57.4331 55.1472C57.5246 54.9616 57.4513 54.694 57.4513 54.4629C57.4513 53.8357 57.4801 53.206 57.4447 52.5813C57.3845 51.5183 57.6368 50.4387 57.2633 49.3906C57.2015 49.2166 57.1784 48.9175 57.2781 48.8189C57.5114 48.5886 57.4323 48.3375 57.4504 48.089C57.4933 47.4858 57.4109 46.8901 57.617 46.2778C57.7448 45.8991 57.7621 45.3954 57.4661 44.9737C57.3729 44.8411 57.4315 44.5851 57.4554 44.3895C57.5626 43.4931 57.2179 42.5659 57.6335 41.691C57.4438 41.5427 57.5255 41.4391 57.6318 41.2569C57.7439 41.0655 57.5634 40.8542 57.4702 40.6471C57.3342 40.343 57.1726 39.9163 57.2872 39.6619C57.4991 39.1913 57.2954 38.6685 57.5263 38.2799C57.6598 38.0554 57.3639 37.9278 57.5238 37.8508C57.8223 37.7074 57.2443 37.4489 57.6128 37.3503C57.5593 37.1846 57.495 37.0214 57.4554 36.8524C57.4059 36.6394 57.3911 36.4182 57.335 36.2078C57.2179 35.767 57.1586 35.337 57.4331 34.9211C57.0687 34.5855 57.2517 34.1298 57.288 33.7371C57.3136 33.462 57.4117 33.1695 57.4414 32.8862C57.4809 32.5092 57.4348 32.1314 57.6368 31.7735C57.6994 31.6624 57.6681 31.4056 57.5807 31.3219C57.3985 31.1479 57.4562 30.9582 57.4554 30.7734C57.4496 29.2216 57.4776 27.6689 57.4447 26.1171C57.4125 24.5917 57.2765 23.068 57.2691 21.5427C57.2633 20.3819 57.4133 19.2203 57.4447 18.0579C57.4776 16.8366 57.448 15.6146 57.4562 14.3925C57.4579 14.177 57.3564 13.9227 57.6104 13.7653C57.3935 13.4521 57.7505 13.1729 57.6557 12.8539C57.5568 12.52 57.781 12.1455 57.5304 11.8132C57.4306 11.6807 57.6607 11.5025 57.4727 11.2995C57.3581 11.1753 57.4513 10.8571 57.4513 10.626C57.4513 10.2631 57.4504 9.89933 57.4521 9.53643C57.4521 9.47346 57.4422 9.39309 57.4743 9.34918C57.8198 8.87609 57.7472 8.27954 57.603 7.85036C57.4381 7.35821 57.4537 6.89755 57.4644 6.43191C57.4842 5.62326 57.3878 4.85852 56.9607 4.09544C56.6656 4.04076 56.3102 3.8792 56.0068 3.94714C55.7603 4.00265 55.6894 3.56684 55.4347 3.83943C55.3407 3.94051 55.1041 3.68035 54.9573 3.88914C54.0843 3.54861 53.1757 3.5047 52.2507 3.51464C50.5095 3.5337 48.7675 3.52707 47.0263 3.51381C46.7204 3.51133 46.4253 3.48896 46.1029 3.37379C45.7286 3.23957 45.2455 3.31828 44.7879 3.41936C44.1795 3.55358 43.5191 3.45747 42.881 3.44173C42.7334 3.43842 42.5537 3.28597 42.4449 3.33402C41.5347 3.73255 40.5858 3.42019 39.6624 3.51796C39.5692 3.5279 39.4588 3.53121 39.3796 3.49061C38.669 3.1302 37.9253 3.38042 37.1965 3.35888C37.0679 3.61324 36.8074 3.22714 36.6087 3.4989C36.5164 3.62567 36.0233 3.41605 35.87 3.54613C35.593 3.78143 35.3201 3.69443 35.0439 3.71432C34.7826 3.73337 34.5138 3.68698 34.2566 3.72509C33.7017 3.80546 33.1939 3.53536 32.6613 3.52873C30.8871 3.50636 29.1121 3.5395 27.3379 3.51464C25.5571 3.48979 23.7755 3.60992 21.9939 3.34479C21.0491 3.20394 20.0952 3.66212 19.1208 3.52376C19.002 3.50719 18.9765 3.67372 18.7555 3.62318C18.1183 3.47736 17.481 3.28762 16.8033 3.30834C16.1957 3.32656 15.6012 3.4641 15.011 3.48896C14.1577 3.52458 13.2673 3.72012 12.4321 3.32159C11.8047 3.4119 11.1617 3.16252 10.5301 3.49724C10.2729 3.63395 9.83927 3.42019 9.5672 3.54447C9.21434 3.70686 8.93404 3.53121 8.63642 3.5047C7.36926 3.39285 6.13673 3.81789 4.87369 3.71763C4.42025 3.68201 3.99319 3.73835 3.55871 4.0507C3.51337 4.37549 3.45319 4.74419 3.41197 5.11454C3.33777 5.79311 3.56778 6.45014 3.58839 7.11297C3.64363 8.86117 3.61148 10.6127 3.60159 12.3634C3.59994 12.6086 3.72443 12.8961 3.45236 13.0917C3.4705 13.7992 3.46226 14.5076 3.5142 15.2127C3.56201 15.8697 3.96434 16.5235 3.77307 17.1598C3.61807 17.6759 3.67743 18.1731 3.59664 18.671C3.50925 19.2063 3.8349 19.6586 3.81017 20.1756C3.78461 20.7026 3.78461 21.2328 3.81017 21.7598C3.83408 22.2461 3.81099 22.7375 3.58839 23.1542C3.42268 23.4649 3.40455 23.7582 3.41279 24.0722C3.42845 24.6439 3.30067 25.2347 3.60653 25.7732C3.50513 26.668 3.82006 27.5918 3.41444 28.4676C3.37651 28.5488 3.37569 28.7327 3.41444 28.7518C3.70959 28.896 3.36167 29.1453 3.53316 29.3475C3.65023 29.4867 3.59664 29.7783 3.60406 30.0021C3.61313 30.2655 3.58097 30.534 3.61395 30.7933C3.64446 31.0344 3.74174 31.2672 3.8011 31.505C3.81676 31.5672 3.8316 31.6649 3.79945 31.6981C3.37651 32.133 3.82831 32.7859 3.41939 33.2317C3.36497 33.2905 3.41197 33.5656 3.46473 33.583C3.8349 33.7073 3.18937 33.96 3.54388 34.1116C3.62714 34.1472 3.59746 34.4695 3.60488 34.6609C3.61395 34.8921 3.5851 35.1257 3.61313 35.3536C3.63869 35.5574 3.81017 35.7811 3.7607 35.9493C3.52904 36.738 3.46803 37.55 3.35343 38.3553C3.34601 38.4075 3.26522 38.4498 3.24378 38.4713C3.30314 38.6263 3.39713 38.7646 3.4029 38.9063C3.43587 39.7406 3.33777 40.5783 3.59829 41.4027C3.77801 41.9719 3.63869 42.5659 3.62137 43.1525C3.57768 44.6704 3.60488 46.19 3.60983 47.7095C3.61065 47.8992 3.58427 48.1378 3.68238 48.2679C3.91487 48.577 3.86128 48.9382 3.76895 49.2C3.67743 49.4593 3.74586 49.6781 3.71783 49.9117C3.67826 50.2349 3.63951 50.5588 3.60818 50.8828C3.53068 51.6798 3.78791 52.5034 3.41526 53.2797C3.37734 53.3584 3.37322 53.5233 3.42186 53.5639C3.73762 53.8266 3.58922 54.1745 3.60076 54.4828C3.62302 55.1075 3.60736 55.733 3.60736 56.3503C3.8382 56.6643 4.06162 56.9659 4.27103 57.2492Z" fill="#28282A"></path>
<path d="M15.3139 11.8348C15.5473 11.6691 15.83 11.4694 16.1367 11.2507C18.9992 11.2507 21.888 11.2408 24.7768 11.2598C25.3086 11.2631 25.8181 11.5407 26.3713 11.4512C26.6458 11.4065 26.9171 11.4984 27.1949 11.2731C27.373 11.1289 27.7605 11.346 27.9773 11.0651C28.1562 11.3518 28.4431 11.2457 28.6896 11.2466C30.3648 11.254 32.0442 11.1828 33.7154 11.2739C34.844 11.3352 35.9891 11.3916 37.0997 11.655C37.4195 11.7313 37.7386 11.8746 38.0173 12.0519C38.3981 12.2938 38.9019 12.0975 39.2391 12.4397C39.8937 12.4297 40.2845 12.9426 40.7799 13.2409C41.1542 13.4662 41.4725 13.7844 41.8418 14.0197C42.3068 14.3163 42.6745 14.6767 42.9317 15.1771C43.0875 15.4812 43.3093 15.7671 43.5558 16.004C44.0018 16.4307 44.2253 16.9618 44.4454 17.5202C44.6358 18.0033 44.9318 18.4449 45.222 18.9793C45.222 19.3099 45.1008 19.7912 45.2558 20.1533C45.4166 20.5295 45.4603 20.9355 45.5716 21.305C45.7191 21.798 45.7604 22.3249 45.9623 22.8311C46.0918 23.1559 46.0398 23.5652 45.9137 23.9571C45.6969 24.6315 45.4124 25.2795 45.3877 26.0301C45.3671 26.6275 45.1206 27.2307 44.9714 27.8289C44.8024 28.5041 44.5954 29.1669 44.2706 29.8149C43.7059 30.94 43.1362 31.8506 42.2392 32.4604C42.0553 32.5855 41.8138 32.718 41.7421 32.9028C41.3595 33.8921 40.4205 34.1307 39.6018 34.3817C39.0354 34.5557 38.5144 34.7695 37.9901 35.0272C37.2637 35.3834 36.5217 35.6262 35.6783 35.6726C35.1589 35.7016 34.6206 35.8325 34.0822 35.8184C33.9396 35.8151 33.8003 35.714 33.6816 35.6668C33.3386 35.7206 33.0039 35.8184 32.6683 35.8201C29.9741 35.8325 27.2798 35.8267 24.5855 35.8267C24.4569 35.8267 24.3283 35.8267 24.2187 35.8267C24.1296 35.9162 24.0596 35.9866 23.9227 36.1241C23.9227 36.6063 23.9458 37.1606 23.9169 37.7124C23.8831 38.3471 24.0488 38.9917 23.7446 39.6214C23.6284 39.8617 23.7496 40.2088 23.7174 40.5029C23.6943 40.7167 24.0571 40.894 23.7619 41.1169C24.1041 41.382 23.5278 41.5643 23.7042 41.8717C23.818 42.0705 23.832 42.5155 23.7026 42.624C23.4561 42.8311 23.7825 43.0441 23.5896 43.2338C23.5097 43.3125 23.6259 43.5892 23.6473 43.7765C23.6762 44.0292 23.7026 44.2827 23.7248 44.5362C23.7479 44.7914 23.7438 45.0516 23.7916 45.3018C23.8774 45.7492 24.015 48.1851 23.9128 48.6458C23.8543 48.9093 23.6935 49.1504 23.5929 49.3699C23.1749 49.5804 22.7668 49.5008 22.3876 49.553C21.9572 49.6118 21.4626 49.8264 21.0998 49.6624C20.7404 49.5 20.4189 49.5207 20.08 49.5083C19.4897 49.4867 18.8903 49.5605 18.3075 49.4884C17.4261 49.3799 16.6009 49.7974 15.7286 49.6906C15.6371 49.5986 15.544 49.505 15.5036 49.4644C15.074 47.2381 15.2942 45.045 15.2529 42.8601C15.2463 42.5213 15.121 42.1526 15.4302 41.8402C15.5126 41.7573 15.4714 41.5162 15.4384 41.358C15.1301 39.8799 15.2101 38.8094 15.4104 36.9237C15.4722 36.342 15.6536 35.6999 15.2571 35.1224C15.1804 35.0106 15.2463 34.8001 15.2463 34.6344C15.2463 33.9741 15.1903 33.3071 15.2612 32.6551C15.3469 31.8646 15.0303 31.1339 15.0419 30.3575C15.0559 29.3558 15.3914 28.379 15.2472 27.369C15.6528 26.5537 15.2595 25.8172 15.0955 25.0276C14.9372 24.2695 15.0542 23.4534 15.0501 22.6621C15.3914 22.3804 15.2274 21.9951 15.2414 21.6546C15.2637 21.0945 15.2472 20.532 15.2472 19.971C15.2472 19.6081 15.2661 19.2436 15.2414 18.8815C15.2183 18.5426 15.3923 18.1607 15.0592 17.8773C15.3972 17.5965 14.9364 17.3504 15.027 17.0405C15.1251 16.7066 15.0493 16.3205 15.0493 15.9576C15.0493 15.5947 15.027 15.2293 15.0534 14.8681C15.1227 13.9095 15.2158 12.9492 15.3139 11.8348ZM24.217 29.2879C25.6903 29.2879 27.1009 29.2954 28.5123 29.2821C28.7869 29.2796 29.0581 29.2241 29.3359 29.1512C29.8471 29.017 30.4588 29.0145 30.9584 29.1769C31.3228 29.2954 31.7235 29.3699 31.9791 29.2589C32.6807 28.954 33.3848 29.1885 33.7508 29.1288C35.7443 28.4602 36.6528 27.0658 37.5515 25.5819C37.5259 25.1444 37.582 24.6349 37.4484 24.1816C37.2868 23.6323 37.2893 23.1095 37.4129 22.5817C37.4806 22.2942 37.3544 22.0183 37.4393 21.7366C37.4616 21.6621 37.3363 21.5519 37.3379 21.4599C37.3503 20.9222 36.9752 20.5535 36.7806 20.1061C36.539 19.5526 36.1186 19.2129 35.6091 18.9229C34.9009 18.5203 34.0732 18.5012 33.3584 18.1723C32.6708 17.8558 31.9832 17.7779 31.2495 17.787C29.7729 17.8061 28.2955 17.7854 26.8189 17.7953C26.0217 17.8011 25.2121 17.6818 24.2929 18.0986C24.1733 18.2618 23.9507 18.5642 23.724 18.8741C23.724 19.198 23.7084 19.5278 23.7298 19.8542C23.7446 20.0829 23.9087 20.353 23.8312 20.5262C23.7067 20.8062 24.067 20.9661 23.9178 21.189C23.7702 21.4094 23.7166 21.6331 23.7149 21.9007C23.7125 22.3067 23.7347 22.6986 23.5624 23.1195C23.4231 23.46 23.6111 23.9306 23.6342 24.3449C23.6589 24.7865 23.7372 25.248 23.6383 25.6647C23.5913 25.8627 23.7273 25.958 23.7001 26.0135C23.6366 26.1461 23.4594 26.2306 23.682 26.3723C23.466 26.717 23.8032 27.0243 23.7405 27.3814C23.6671 27.7974 23.7215 28.2357 23.7257 28.6648C23.7265 28.7245 23.7562 28.7833 23.7727 28.8422C23.9128 28.9813 24.0521 29.1214 24.217 29.2879Z" fill="#28282A"></path>
</g>
<defs>
<clipPath id="parking--sprite_clip0_601_1865">
<rect width="61" height="61" fill="white"></rect>
</clipPath>
</defs>
</symbol></defs><use data-v-1e92d442="" xlink:href="#parking--sprite" fill="#28282A"></use></svg>