<svg xmlns:xlink="http://www.w3.org/1999/xlink" xmlns="http://www.w3.org/2000/svg" data-v-1e92d442="" viewBox="0 0 61 61" preserveAspectRatio="xMidYMid" class="BaseIcon-icon" width="61"  height="61" ><defs><symbol xmlns="http://www.w3.org/2000/svg" viewBox="0 0 61 61" fill="none" id="covid--sprite">
<path d="M43.1041 48.1516C43.551 49.427 44.155 50.3248 45.0212 51.1071C45.7618 51.7758 46.381 52.5845 47.0214 53.3582C47.2016 53.5753 47.333 53.877 47.3746 54.1569C47.4967 54.9847 46.2279 56.5942 45.0779 57.1296C44.2349 57.5223 42.941 57.2853 42.374 56.4272C41.8644 55.6561 41.4148 54.757 41.2577 53.8585C40.9058 51.8418 40.8854 51.6273 39.4053 50.1558C37.8566 50.5783 36.407 51.1506 34.9091 51.3447C32.1636 51.7005 31.8408 53.3291 32.8501 55.9598C33.1795 56.8193 33.47 57.62 33.2739 58.5376C32.9736 59.9437 31.7503 60.9894 30.3878 61C29.1639 61.0092 27.8311 59.7543 27.6654 58.3528C27.5677 57.5296 27.5155 56.682 28.1433 55.9802C28.2991 55.806 28.4516 55.5908 28.5051 55.3703C29.1527 52.7264 28.8028 51.927 26.487 51.4094C25.3918 51.1645 24.3059 50.847 23.2483 50.4707C21.7327 49.932 21.5128 49.9294 20.65 51.3487C20.1965 52.0946 19.9219 52.9528 19.5984 53.7734C19.4248 54.2144 19.3304 54.6857 19.1805 55.1372C18.7244 56.5077 17.923 57.2081 16.8324 57.2068C15.6508 57.2055 14.2552 56.2978 13.8413 55.2627C13.3621 54.0619 14.2301 52.1725 15.7227 51.4226C16.3472 51.1091 16.7539 50.7519 17.0635 50.1122C17.9626 48.2553 17.9824 48.2896 16.5756 46.8195C15.6356 45.8372 14.7939 44.7578 13.8228 43.8092C13.4921 43.4864 12.8564 43.2091 12.4372 43.2936C11.2239 43.5372 9.99797 43.86 9.33584 45.1315C9.09489 45.5942 8.72719 46.018 8.33639 46.3706C7.41549 47.2017 6.25364 47.3033 5.19807 46.7211C4.04216 46.0834 3.31337 44.808 3.54177 43.8224C3.89231 42.3107 4.63497 41.6116 5.9942 41.3594C6.97914 41.1766 7.96671 40.9495 8.91005 40.6194C10.1214 40.1962 10.5558 39.4087 10.2845 38.132C9.95308 36.5694 9.5187 35.0286 9.13186 33.478C8.94966 32.7485 8.46578 32.3359 7.73896 32.3221C6.75535 32.3029 5.74665 32.0342 4.80859 32.6601C4.42769 32.9142 3.9207 32.9895 3.46322 33.1162C2.31985 33.4331 1.29729 33.2034 0.602161 32.2171C-0.0936289 31.2295 -0.195291 30.1066 0.343385 29.0055C0.822649 28.0252 3.27904 27.3241 4.30952 27.8225C4.83829 28.078 5.3433 28.4668 5.8998 28.5672C8.04989 28.954 9.0533 28.1995 9.65271 25.8626C9.93129 24.7753 10.1894 23.6834 10.466 22.5955C10.7254 21.5763 10.5597 21.0376 9.62829 20.4956C8.55357 19.8705 7.4716 19.314 6.14274 19.2737C4.4059 19.2209 3.62825 18.1046 3.91542 16.3955C4.09497 15.3274 4.18475 14.1417 5.57831 13.9998C6.92368 13.8625 8.31064 13.6651 9.18995 15.2145C9.61706 15.9677 10.2957 16.6226 10.9796 17.1758C12.1197 18.0973 13.1627 17.9488 14.1146 16.8628C14.9332 15.9287 15.7313 14.9768 16.5472 14.0407C17.8622 12.5323 17.6688 11.1909 16.138 9.8495C15.3095 9.12334 14.5668 8.22951 14.0103 7.28022C13.1878 5.87742 14.7543 3.55108 16.3961 3.58474C18.0821 3.61907 19.3311 4.87598 19.5542 6.55935C19.6684 7.42083 19.9503 8.29882 20.3417 9.07581C21.1372 10.6555 21.6178 10.7559 23.3408 10.2007C24.4095 9.85676 25.5206 9.64815 26.6065 9.35439C28.7883 8.76356 29.453 7.38584 28.3611 5.36317C27.8443 4.40596 27.6297 3.4778 27.7954 2.46382C28.0819 0.714446 29.3481 -0.230878 30.9225 0.0424208C33.0924 0.419362 34.1717 2.67111 32.9439 4.52347C32.2626 5.55197 32.1576 6.47683 32.3213 7.67565C32.4771 8.81571 33.0455 9.21972 33.9697 9.44549C35.3448 9.7815 36.7443 10.0297 38.0982 10.4337C39.0449 10.7163 39.6799 10.5697 40.2054 9.69898C40.7916 8.72725 41.3257 7.80966 41.3864 6.59103C41.4729 4.8674 42.1898 4.13596 43.5147 3.9465C45.2667 3.69631 46.5071 4.35381 47.1125 5.85497C47.5752 7.00362 47.2399 7.97667 45.9869 8.91275C44.9862 9.6607 43.9973 10.3631 43.3959 11.5487C42.9311 12.4663 43.0533 13.1099 43.7497 13.7661C45 14.9438 46.2041 16.1737 47.5053 17.2906C47.832 17.5712 48.4876 17.6629 48.9365 17.5712C50.3102 17.2919 51.2206 16.3499 51.8596 15.1465C52.2715 14.3715 52.7428 13.749 53.7456 13.7773C54.8995 13.8097 56.0317 13.9279 56.8674 14.8138C57.1229 15.0844 57.2457 15.5564 57.2787 15.9486C57.4332 17.7659 55.9808 19.2988 54.1886 19.584C53.0478 19.7655 51.9348 20.252 50.87 20.7346C50.1722 21.0515 50.1656 21.7618 50.3775 22.451C50.7756 23.7448 51.2067 25.0314 51.5427 26.3418C52.1249 28.6127 53.3812 29.2471 55.5993 28.3553C56.2495 28.0938 56.9341 27.9176 57.6041 27.707C59.1343 27.2271 59.9272 28.2424 60.6645 29.2735C61.229 30.0631 61.087 30.9542 60.4025 31.8936C59.6195 32.9677 58.5924 33.4291 57.2932 33.0924C56.2621 32.8251 55.2705 32.3848 54.2295 32.1821C52.5679 31.8586 52.3652 32.0065 51.8035 33.6423C51.5757 34.3051 51.5328 35.0293 51.3262 35.7007C51.0852 36.4823 50.8179 37.2678 50.4502 37.9953C50.0897 38.7076 50.1689 39.2555 50.7882 39.7137C51.8279 40.4834 52.7937 41.3647 54.2288 41.405C54.7919 41.4208 55.3676 41.7218 55.8996 41.974C57.3645 42.6685 57.8358 43.9604 57.1704 45.3387C56.5175 46.6927 54.848 47.4829 53.5984 46.8406C52.723 46.391 51.9956 45.6437 51.2278 44.9988C50.8238 44.6601 50.5221 44.1861 50.0924 43.8937C48.6044 42.881 48.1403 42.8956 46.8431 44.1756C45.542 45.4622 44.3306 46.8406 43.1041 48.1516ZM30.1699 48.1516C35.2748 48.05 40.0708 46.4319 43.6302 42.4341C47.057 38.5848 48.6704 33.8978 48.1133 28.6596C47.6096 23.9237 45.577 19.8645 42.0135 16.7361C38.9756 14.0691 35.1197 12.702 31.2248 12.636C20.5635 12.4551 12.0959 20.6184 12.8947 31.7979C13.5079 40.4068 20.3054 47.7179 30.1699 48.1516Z" fill="#28282A"></path>
<path d="M31.8375 24.032C32.2508 26.7716 32.4191 29.4069 32.0738 32.0627C32.0283 32.4139 32.0309 32.775 32.0455 33.1301C32.1432 35.4327 32.2541 37.7346 32.3491 40.0372C32.3636 40.3904 32.3465 40.7502 32.297 41.1C32.0712 42.691 31.8666 42.8283 30.2175 42.5926C29.8096 42.5345 29.397 42.5088 28.8669 42.4566C28.7507 41.3397 28.5804 40.2399 28.5335 39.1348C28.4662 37.5465 28.4497 35.9529 28.4827 34.3633C28.519 32.5928 28.6556 30.8249 28.7104 29.0544C28.7447 27.9315 28.7131 26.806 28.7045 25.6817C28.6913 23.9865 29.2993 23.4788 31.0051 23.7832C31.2355 23.8234 31.456 23.9159 31.8375 24.032Z" fill="black"></path>
<path d="M30.7582 18.2346C32.2164 18.2531 32.3234 18.3402 32.3082 19.4994C32.2831 21.4165 32.0441 21.7168 30.5779 21.6812C29.0563 21.6442 28.6629 21.2825 28.7104 19.9668C28.7606 18.5686 29.1798 18.2141 30.7582 18.2346Z" fill="black"></path>
</symbol></defs><use data-v-1e92d442="" xlink:href="#covid--sprite" fill="#28282A"></use></svg>