<svg xmlns:xlink="http://www.w3.org/1999/xlink" xmlns="http://www.w3.org/2000/svg" data-v-1e92d442="" viewBox="0 0 47 61" preserveAspectRatio="xMidYMid" class="BaseIcon-icon" width="47"  height="61" ><defs><symbol xmlns="http://www.w3.org/2000/svg" viewBox="0 0 47 61" fill="none" id="locker--sprite">
<path d="M24.1749 60.9927C23.6332 60.9927 23.0171 61.0133 22.4041 60.9853C22.0449 60.9691 21.6909 60.8411 21.3324 60.8271C20.9902 60.8138 20.6487 60.8087 20.3536 60.635C20.0091 60.4326 19.6441 60.4554 19.279 60.4686C18.5953 60.4937 17.9586 60.334 17.3072 60.1316C16.6493 59.927 15.9795 59.7371 15.259 59.7371C14.7828 59.7371 14.2771 59.5744 13.8385 59.3676C13.388 59.1556 12.9251 59.0217 12.4629 58.8597C11.6732 58.583 10.9438 58.1348 10.1585 57.8426C9.52184 57.6056 8.97057 57.2891 8.45022 56.8497C8.10945 56.562 7.62001 56.456 7.21889 56.2315C6.92891 56.0696 6.65953 55.8628 6.40635 55.6456C5.97284 55.274 5.61735 54.825 5.11834 54.5115C4.79524 54.3091 4.56782 53.9595 4.34334 53.6165C3.9275 52.9813 3.41377 52.4094 2.92801 51.8221C2.29137 51.0515 1.62381 50.3023 1.43687 49.2697C1.05636 48.8406 0.961414 48.293 0.814214 47.7667C0.792134 47.688 0.73767 47.6056 0.747974 47.5327C0.876038 46.662 0.558822 45.8244 0.563238 44.9633C0.563974 44.772 0.558822 44.5916 0.463142 44.3885C0.349797 44.1471 0.299749 43.7695 0.413094 43.5509C0.647142 43.0998 0.566918 42.6486 0.555878 42.2033C0.536006 41.4048 0.404262 40.6077 0.404998 39.8106C0.405734 39.1953 0.537478 38.58 0.611078 37.9647C0.614022 37.9434 0.506566 36.5619 0.500678 36.5339C0.463142 36.344 0.397638 36.1541 0.39543 35.9628C0.383654 35.112 0.397638 34.2604 0.385862 33.4089C0.382917 33.1903 0.48375 32.9489 0.260005 32.7531C0.198181 32.6971 0.175365 32.4977 0.224677 32.4307C0.510246 32.0362 0.379238 31.5946 0.385126 31.1766C0.403526 29.9732 0.365253 28.7691 0.402054 27.5665C0.423398 26.8827 0.662598 26.3197 1.32941 25.9164C1.79825 25.6323 2.29578 25.3923 2.81834 25.0619C3.81415 25.2098 4.67822 24.6895 5.5283 24.2508C5.86244 23.7312 5.85435 23.1954 5.84919 22.6566C5.84183 21.8051 5.86023 20.9535 5.84331 20.1027C5.82564 19.2107 6.10238 18.3473 6.03908 17.4443C5.98683 16.7038 5.76529 15.987 5.83079 15.2274C5.87422 14.7189 6.01038 14.2463 6.13403 13.7628C6.31287 13.0651 6.6242 12.3931 6.54619 11.624C6.97012 11.0352 7.33076 10.3926 7.56481 9.68829C7.86878 8.77197 8.47524 8.04701 9.07067 7.32279C9.27086 7.07844 9.40187 6.81421 9.54244 6.54557C9.76398 6.12311 10.0017 5.74407 10.4566 5.49015C10.7907 5.30394 11.0704 4.96685 11.2897 4.64007C11.5348 4.27427 11.8204 3.98576 12.2127 3.81059C12.8581 3.52208 13.4042 3.10771 13.9334 2.63814C14.3368 2.28045 14.7563 1.91539 15.3407 1.79322C15.7278 1.71226 16.0906 1.47968 16.4432 1.27802C17.0614 0.923999 17.7209 0.706143 18.4252 0.770175C18.794 0.804031 19.0898 0.640639 19.4049 0.559679C20.2078 0.354335 21.0528 0.373471 21.8351 0.0614069C22.0375 -0.0195532 22.3385 -0.0298572 22.527 0.0643509C23.0826 0.341087 23.6575 0.182847 24.2212 0.221855C24.5134 0.242463 24.8086 0.241727 25.1008 0.222591C26.0723 0.158559 26.9673 0.488287 27.8954 0.689951C29.2665 0.987295 30.4949 1.66368 31.8352 2.02579C31.9883 2.06701 32.1421 2.16269 32.2576 2.27309C32.6823 2.67862 33.238 2.74486 33.7672 2.91267C34.3346 3.37267 34.7372 4.04317 35.4327 4.38615C35.6432 4.96611 36.2195 5.11552 36.6516 5.43936C37.205 5.85447 37.5068 6.48964 37.852 7.05636C38.2406 7.69373 38.6123 8.32964 39.0561 8.93831C39.4285 9.44909 39.7987 10.0018 39.8568 10.7216C39.901 11.2722 40.1682 11.8175 40.4074 12.3327C40.4869 12.505 40.506 12.6529 40.5119 12.8178C40.5214 13.0813 40.5781 13.3676 40.4964 13.6038C40.4162 13.8371 40.8342 13.9726 40.5568 14.186C40.7364 14.342 40.5251 14.5555 40.6583 14.7601C40.7658 14.9257 40.6826 15.2134 40.6922 15.446C40.6959 15.5277 40.6973 15.6322 40.7459 15.6852C41.1404 16.1165 41.0308 16.645 41.0411 17.1499C41.0469 17.4141 41.1279 17.7217 41.0212 17.9315C40.8813 18.206 41.3767 18.3672 41.0727 18.6013C41.2692 18.9074 40.9513 19.182 41.0271 19.5029C41.0992 19.809 41.0425 20.1447 41.0425 20.4678C41.0425 20.8203 41.044 21.1721 41.0425 21.5247C41.0396 22.2687 41.3804 22.9841 41.2626 23.4331C41.2906 24.2758 41.7454 24.3722 42.1348 24.4657C42.8884 24.646 43.539 25.0457 44.236 25.3452C44.3619 25.399 44.5084 25.4034 44.6725 25.4365C45.145 25.9105 45.6425 26.4095 46.1231 26.8923C46.1916 27.2058 46.2122 27.5223 46.3307 27.7961C46.5456 28.2929 46.4691 28.8037 46.5014 29.3123C46.5412 29.9349 46.6369 30.5546 46.6663 31.1773C46.6958 31.7926 46.6619 32.4101 46.6766 33.0261C46.6869 33.4353 46.6457 33.8166 46.3292 34.1257C46.3822 34.1853 46.4374 34.2464 46.4963 34.3127C46.4558 34.3487 46.4131 34.387 46.3653 34.4297C46.4094 34.5761 46.4786 34.7175 46.4926 34.8639C46.5456 35.4277 46.3925 36.0069 46.6597 36.5582C46.7083 36.659 46.5007 36.9269 46.5508 36.977C46.8216 37.2464 46.3432 37.3833 46.4735 37.6651C46.5854 37.9073 46.486 38.2429 46.5007 38.5358C46.511 38.7404 46.6472 38.9289 46.5824 39.1489C46.5287 39.3314 46.6045 39.5177 46.578 39.7112C46.5574 39.8599 46.6074 40.0432 46.5773 40.2058C46.5427 40.3942 46.659 40.5768 46.5618 40.7703C46.4978 40.8977 46.7031 41.0714 46.5221 41.2031C46.8503 41.3805 46.4183 41.499 46.4816 41.6889C46.5397 41.8633 46.5294 42.2136 46.4396 42.2571C46.132 42.4057 46.7053 42.6309 46.3675 42.7171C46.6347 43.3463 46.4551 44.0058 46.4889 44.6505C46.5059 44.9817 46.539 45.3092 46.3403 45.6449C46.1791 45.9172 46.4772 46.336 46.1614 46.6252C46.1452 46.6399 46.1415 46.6804 46.1467 46.7054C46.3292 47.6144 45.7699 48.3033 45.435 49.0525C45.1796 49.6237 44.9271 50.1911 44.7262 50.7851C44.6143 51.1156 44.4208 51.4342 44.2029 51.7095C43.5862 52.4882 43.0261 53.3478 42.2761 53.9742C41.6247 54.5181 41.0543 55.1525 40.3514 55.6508C39.7361 56.0872 39.2062 56.654 38.5556 57.0661C38.3856 57.1736 38.2376 57.2538 38.0367 57.3112C37.5716 57.4452 37.116 57.6417 36.6891 57.8735C35.9472 58.2768 35.1737 58.6139 34.434 59.0261C33.8996 59.3234 33.2549 59.4647 32.6411 59.5641C32.145 59.6443 31.6813 59.7996 31.2029 59.9218C30.5324 60.0933 29.8745 60.3295 29.1517 60.306C28.7211 60.292 28.2854 60.4635 27.8505 60.5415C27.6871 60.571 27.3905 60.6247 27.3735 60.5813C27.2484 60.264 27.0026 60.8455 26.9172 60.5054C25.9766 60.3737 25.0802 60.4988 24.1749 60.9927ZM16.6787 57.2759C17.0695 57.3752 17.4927 57.1441 17.8578 57.426C18.1713 57.3083 18.4768 57.376 18.7793 57.4716C18.9338 57.521 19.0803 57.6277 19.2348 57.638C19.6146 57.6623 19.9981 57.6233 20.3771 57.6527C20.7657 57.6829 21.1492 57.8051 21.5363 57.8146C22.5616 57.8382 23.5883 57.8235 24.6143 57.822C24.788 57.822 24.9771 57.8544 25.1317 57.797C25.7713 57.56 26.4292 57.4187 27.1064 57.4775C28.0919 57.5629 29.0501 57.3289 30.0239 57.2899C30.1269 57.2854 30.2285 57.2207 30.33 57.1831C30.8636 56.9852 31.3833 56.7143 31.9345 56.6069C32.7471 56.4486 33.5213 56.2043 34.2743 55.8753C34.3736 55.8318 34.4715 55.7067 34.5562 55.7185C35.0176 55.7833 35.4092 55.5257 35.6948 55.2924C36.2401 54.8478 37.0129 54.758 37.4236 54.1339C38.2133 54.0029 38.5821 53.2728 39.1753 52.8606C39.8627 52.3829 40.4007 51.6889 40.9962 51.0817C41.0904 50.986 41.1441 50.8513 41.2184 50.735C41.5033 50.2912 41.7734 49.8423 42.1068 49.4264C42.4645 48.9804 42.834 48.4851 42.792 47.8713C42.7339 47.0256 43.0871 46.2977 43.372 45.5529C43.5324 45.1341 43.6995 44.7366 43.6877 44.273C43.6671 43.4516 43.6818 42.6302 43.6818 41.8081C43.6818 41.2509 43.6678 40.6923 43.6862 40.1359C43.7039 39.5913 43.3911 39.0886 43.5045 38.5358C43.5162 38.4792 43.5273 38.407 43.503 38.3621C43.2388 37.8801 43.2925 37.4237 43.4838 36.9137C43.5979 36.6097 43.5847 36.1843 43.4588 35.8855C43.3425 35.6102 43.241 35.4321 43.4853 35.2106C43.2572 35.0185 43.5295 34.8485 43.5118 34.6601C43.4875 34.398 43.5965 34.0838 43.4861 33.8792C43.277 33.4898 43.319 33.0997 43.3366 32.7097C43.369 31.9994 43.4448 31.2906 43.5081 30.5819C43.5155 30.5031 43.5611 30.4288 43.5876 30.3515C43.7326 29.9371 43.6649 29.5316 43.6104 29.1055C43.57 28.7897 43.4147 28.4762 43.5155 28.1538C43.3609 27.9985 43.2152 27.8535 43.0533 27.6909C42.4269 27.8211 41.8661 27.5392 41.2906 27.3324C41.189 27.2964 41.1021 27.1882 41.0035 27.1808C40.0835 27.1131 39.2349 26.8187 38.4592 26.4205C38.3223 26.1467 38.2008 25.9039 38.05 25.6028C38.05 24.7947 38.05 23.9144 38.05 23.0342C38.05 22.8583 38.0198 22.6758 38.0558 22.5072C38.2833 21.4422 38.3289 21.3671 38.0293 20.6356C37.9145 20.3544 37.8829 20.099 37.8755 19.8201C37.8696 19.5853 37.8623 19.3498 37.8777 19.1165C37.8947 18.864 37.9653 18.613 37.9587 18.3628C37.9535 18.1744 38.0316 18.0058 38.0382 17.838C38.0669 17.1057 38.0529 16.3712 38.0477 15.6381C38.047 15.5586 38.0154 15.4769 37.9867 15.4004C37.6076 14.3972 37.4516 13.3344 37.1609 12.3085C36.9393 11.5268 36.77 10.7069 36.2799 10.0372C36.0002 9.65517 35.7006 9.29969 35.4894 8.86618C35.3452 8.56957 35.0875 8.32743 34.8793 8.06173C34.6717 7.79751 34.5149 7.44349 34.2441 7.28893C33.3543 6.78256 32.6948 6.0289 32 5.3584C31.8366 5.32602 31.6835 5.3297 31.5665 5.2664C31.0145 4.96685 30.4824 4.62976 29.9238 4.34567C29.5631 4.1624 29.1053 4.12634 28.8028 3.88493C28.3244 3.50221 27.8137 3.36237 27.2388 3.40138C26.2092 3.47203 25.2391 3.23136 24.2706 2.9215C24.0247 2.84275 23.7222 2.93254 23.447 2.95757C23.3402 2.96714 23.2365 3.04147 23.132 3.04074C22.301 3.0319 21.4936 3.34029 20.6538 3.22547C20.5464 3.21075 20.4264 3.2343 20.3219 3.26816C19.3644 3.57507 18.4208 3.93203 17.45 4.18669C16.4329 4.45386 15.5806 5.05664 14.626 5.44231C14.2448 5.59687 13.9717 5.86551 13.7641 6.21437C13.6935 6.3336 13.6162 6.45725 13.5154 6.54999C12.3532 7.61866 11.4215 8.87943 10.4499 10.1144C9.96417 10.7327 9.74116 11.3789 9.73528 12.1083C9.7316 12.5741 9.59176 12.987 9.474 13.4154C9.37979 13.7576 9.26424 14.094 9.16856 14.4362C9.02724 14.9441 9.05374 15.4946 8.81969 15.9598C8.70856 16.1806 8.70193 16.3822 8.6563 16.5993C8.55032 17.1013 8.84987 17.5399 8.84177 18.0242C8.83147 18.6403 8.83883 19.2563 8.83956 19.8731C8.83956 20.0482 8.76891 20.2911 8.85649 20.3875C9.16929 20.7298 9.08392 21.1618 8.9875 21.4636C8.74977 22.2084 8.87268 22.9488 8.84472 23.6885C8.81748 24.4179 8.83883 25.1487 8.83883 25.8398C8.48408 26.4286 8.48408 26.4286 7.49783 27.0079C6.94951 26.8688 6.43726 27.2713 5.84625 27.1977C5.6122 27.169 5.33767 27.3633 5.09994 27.4899C4.59505 27.7578 4.10193 28.0471 3.51607 28.3776C3.48074 28.6145 3.39905 28.9406 3.39022 29.2681C3.36961 30.0306 3.39095 30.7938 3.37844 31.5563C3.3755 31.73 3.21652 31.9553 3.28202 32.0657C3.4307 32.3152 3.09582 32.4425 3.20327 32.6603C3.28644 32.8296 3.35342 33.0166 3.37697 33.202C3.40641 33.4331 3.38433 33.6709 3.38433 33.9057C3.38433 34.111 3.37402 34.3171 3.38727 34.5217C3.39978 34.7197 3.4329 34.9162 3.46382 35.112C3.49031 35.2798 3.46897 35.4446 3.46676 35.6102C3.46455 35.795 3.47191 35.9841 3.45866 36.1703C3.44247 36.3948 3.38874 36.6186 3.38801 36.843C3.38138 38.3982 3.38433 39.9534 3.38433 41.5085C3.38433 41.6844 3.31441 41.9089 3.39684 42.0282C3.73393 42.5161 3.4859 43.046 3.5514 43.5495C3.56244 43.6363 3.45572 43.7386 3.42113 43.8004C3.47044 43.9403 3.54404 44.0647 3.55434 44.1949C3.57495 44.4577 3.47486 44.7639 3.57863 44.978C3.7906 45.4167 3.75012 45.8951 3.89438 46.3433C4.0379 46.7908 3.93486 47.3266 4.1137 47.7506C4.31905 48.2371 4.11738 48.8391 4.57002 49.2343C5.01015 50.3354 5.89703 51.1038 6.62273 51.9921C6.67793 52.0598 6.73534 52.1482 6.81041 52.1747C7.45073 52.4058 7.87467 52.9092 8.3435 53.3604C8.71224 53.7151 9.17224 53.891 9.66536 53.9837C10.1761 54.4754 10.6163 55.0554 11.3258 55.2894C11.4811 55.3409 11.6614 55.3424 11.7975 55.4219C12.0368 55.5632 12.2355 55.7759 12.4791 55.9047C12.7404 56.0431 13.0289 56.138 13.3144 56.2205C14.0482 56.4317 14.7548 56.7629 15.5195 56.8328C15.9692 56.874 16.321 57.0735 16.6787 57.2759Z" fill="#28282A"></path>
<path d="M35.5757 24.8098C35.4425 24.943 35.3181 25.0674 35.1194 25.2662C34.691 25.1962 34.1898 25.1602 33.7173 25.024C33.2661 24.8937 32.8341 24.7245 32.3542 24.6994C32.1481 24.6884 31.9465 24.5618 31.747 24.4757C31.3238 24.2932 30.8977 24.1165 30.4848 23.9126C30.1668 23.7559 29.893 23.8067 29.6575 23.9877C28.6624 23.6359 27.6902 23.2929 26.7201 22.9477C26.5162 22.8749 26.3161 22.7917 26.1137 22.713C25.7273 22.5628 25.3526 22.3972 24.9154 22.4127C24.3495 22.4325 23.8085 22.2272 23.23 22.2206C22.4785 22.211 21.7264 22.2942 21.1066 22.6298C20.4281 22.9971 19.6913 23.0405 19.0032 23.2944C18.7213 23.3982 18.4063 23.407 18.1126 23.4821C17.9036 23.5358 17.6585 23.5792 17.5135 23.7161C17.3383 23.8817 17.1654 23.6182 16.9747 23.8081C16.8585 23.9244 16.5324 23.8295 16.3256 23.8295C15.6256 24.3638 14.8043 24.5029 14.0138 24.6921C13.7062 24.7657 13.4154 24.8363 13.191 25.0395C13.0246 25.1896 12.7898 25.1646 12.6677 25.2573C12.1834 25.6283 11.744 25.4045 11.468 25.0932C11.1986 24.7892 11.0095 24.3351 11.1832 23.8597C11.2391 23.7058 11.3031 23.5402 11.298 23.382C11.2671 22.4848 11.4231 21.5766 11.1331 20.6941C11.0985 20.5881 11.1287 20.4608 11.1287 20.3438C11.1287 20.1973 11.0676 19.9883 11.1412 19.9162C11.3075 19.752 11.1537 19.6026 11.189 19.4576C11.4937 18.23 11.4533 18.2351 11.3377 17.2371C11.2847 16.7771 11.1633 16.284 11.4614 15.81C11.6122 15.5701 11.4084 15.222 11.6314 14.9084C11.7697 14.7141 11.6571 14.3417 11.6571 14.1673C11.8551 13.7183 12.0774 13.3834 12.1451 13.0198C12.2584 12.4119 12.5992 11.9519 12.9768 11.5155C13.2756 11.1695 13.4353 10.7691 13.5921 10.3585C13.8055 9.79763 14.0145 9.29494 14.6556 9.00569C15.159 8.779 15.7044 8.47503 15.9392 7.85532C16.0054 7.67942 16.2741 7.57196 16.4617 7.45273C16.9482 7.14361 17.4266 6.81682 17.936 6.55113C18.3422 6.33989 18.7772 6.15001 19.2217 6.05359C20.1337 5.85634 21.0367 5.64143 21.9317 5.37426C22.2541 5.27785 22.6596 5.25209 22.9628 5.36617C23.2123 5.45964 23.4736 5.58402 23.6841 5.49423C23.9631 5.37573 24.175 5.86002 24.4223 5.52146C24.6107 5.80261 24.9007 5.64658 25.1443 5.69074C25.4432 5.74447 25.7449 5.79305 26.0386 5.86885C26.8386 6.07567 27.6835 6.07567 28.4593 6.39436C28.6595 6.47679 28.8987 6.51433 29.054 6.64901C29.751 7.2518 30.6114 7.57785 31.3775 8.06214C31.8699 8.37346 32.2784 8.74367 32.5963 9.22207C33.2234 10.1642 33.8924 11.0834 34.4496 12.066C34.7374 12.5738 35.123 13.0743 35.0781 13.7477C35.0553 14.087 35.321 14.4072 35.4447 14.7332C35.6633 15.3103 35.6132 15.8534 35.5139 16.4054C35.4601 16.705 35.4932 17.0053 35.4454 17.3063C35.388 17.6669 35.2474 18.1027 35.5757 18.4721C35.6633 18.5708 35.5889 18.8129 35.5889 18.9888C35.5889 19.7226 35.5735 20.4571 35.597 21.1894C35.6058 21.4603 35.731 21.7253 35.7582 21.9976C35.7876 22.2883 35.8487 22.6173 35.7479 22.8705C35.4999 23.4872 35.6323 24.1158 35.5757 24.8098ZM32.5713 21.1563C32.5963 20.9215 32.5441 20.6433 32.653 20.544C32.9172 20.3033 32.5507 20.2348 32.575 20.0376C32.7215 18.8571 32.4521 17.6868 32.4212 16.5077C32.4138 16.2148 32.4433 15.9189 32.4138 15.629C32.3836 15.3279 32.324 15.0262 32.2401 14.7355C32.0598 14.1099 31.9347 13.4504 31.5946 12.8955C31.1832 12.222 30.7298 11.5684 30.1212 11.0385C29.7245 10.6933 29.3712 10.2974 29.0628 9.98899C28.8317 9.90876 28.6661 9.87491 28.5248 9.79689C28.2135 9.62393 27.9191 9.42226 27.6114 9.24268C26.8342 8.7893 25.94 8.6134 25.1414 8.20124C24.9397 8.09673 24.6225 8.12543 24.3877 8.19388C23.796 8.3661 23.2057 8.5398 22.5853 8.50006C21.8117 8.45074 21.0721 8.55158 20.3581 8.85628C20.0593 8.98361 19.7583 9.10946 19.4492 9.20735C18.5535 9.49071 17.8844 10.1259 17.1528 10.6654C17.0079 11.1739 16.5353 11.4087 16.2159 11.7694C15.9355 12.0859 15.7265 12.4362 15.5005 12.7887C15.0957 13.4202 15.031 14.126 14.8264 14.801C14.7469 15.0637 14.6578 15.3375 14.6556 15.6061C14.649 16.454 14.3752 17.2423 14.1787 18.0497C14.1433 18.1932 14.3163 18.3647 14.1227 18.5001C14.0955 18.5192 14.1191 18.612 14.1191 18.6708C14.1191 18.7003 14.1191 18.7297 14.1191 18.7584C14.1191 18.8173 14.094 18.8968 14.1227 18.9307C14.4238 19.2839 14.2479 19.7042 14.2957 20.0921C14.3399 20.4468 14.3892 20.8001 14.4355 21.1504C14.8381 21.213 15.1782 21.3484 15.4851 21.2947C15.9878 21.2064 16.4934 21.0445 16.9534 20.8222C17.4414 20.5859 18.0574 20.6713 18.4489 20.1517C18.5748 19.9846 18.9649 19.9574 19.2306 19.9677C19.7487 19.9868 20.2448 19.9044 20.7394 19.7785C20.9506 19.7248 21.1574 19.6247 21.3701 19.6107C21.9104 19.5747 22.3755 19.3583 22.887 19.0742C23.2322 19.1772 23.6952 18.8732 24.0654 19.2508C24.7955 19.2655 25.4461 19.5864 26.1343 19.7668C27.2942 20.0707 28.4505 20.3681 29.5486 20.8634C30.2073 21.16 30.8741 21.4581 31.6248 21.3602C31.9229 21.3205 32.2166 21.2336 32.5713 21.1563Z" fill="#28282A"></path>
<path d="M30.3082 36.5234C30.4127 38.1927 29.8541 39.8038 29.0637 41.5194C28.9245 42.3533 29.4456 43.193 29.7032 44.0924C29.7702 44.3265 29.8858 44.5465 29.9513 44.7806C30.0256 45.0441 30.1927 45.3701 30.1036 45.5747C29.8556 46.1451 29.9167 46.8465 29.3271 47.2852C28.8561 47.6355 28.522 48.139 27.9155 48.3472C27.2465 48.5769 26.8814 48.6593 26.1807 48.5011C26.0416 48.4694 25.8915 48.4878 25.7458 48.4878C25.218 48.4863 24.6903 48.4871 24.1626 48.4871C23.2831 48.4871 22.4028 48.5151 21.5248 48.479C20.699 48.4451 19.8754 48.3443 18.912 48.2611C18.2606 47.9005 17.5901 47.3419 16.9763 46.6758C16.9064 46.4057 16.7423 46.101 16.7827 45.8272C16.8181 45.5872 16.916 45.3355 16.8114 45.1243C16.6297 44.757 16.9189 44.481 16.9226 44.1631C16.9263 43.8304 17.0764 43.5787 17.2494 43.327C17.4231 43.0731 17.6049 42.825 17.8131 42.5328C17.769 42.1428 17.9044 41.6864 17.6549 41.2456C17.582 41.116 17.5865 40.9269 17.4444 40.8069C17.0749 40.4949 17.0043 40.0525 16.9322 39.6117C16.874 39.2547 16.8365 38.8919 16.7518 38.5415C16.5524 37.7179 16.5619 37.7246 16.7474 37.0121C16.8306 36.6927 16.9675 36.3895 16.9439 36.0303C16.8961 35.3061 17.1279 34.6702 17.6343 34.1174C17.9898 33.7295 18.2032 33.1996 18.5874 32.853C19.6016 31.9374 20.7292 31.197 22.1438 31.0505C22.2004 31.0446 22.2726 31.0616 22.3108 31.0328C22.7031 30.737 23.155 30.8268 23.5959 30.7841C23.8233 30.762 23.9639 30.946 24.1869 30.8849C24.3783 30.8327 24.5976 30.8511 24.7985 30.8805C25.0127 30.9114 25.2313 30.9659 25.4278 31.0557C25.9217 31.2809 26.4634 31.456 26.8777 31.7872C27.6645 32.4165 28.4027 33.1143 29.1041 33.8385C29.3544 34.0961 29.52 34.4987 29.584 34.8593C29.6915 35.4547 30.0617 35.9 30.3082 36.5234ZM26.5119 45.6822C26.6076 45.5865 26.6908 45.5033 26.7975 45.3959C26.7224 45.0875 26.8755 44.7541 26.6886 44.4111C26.2985 43.6957 25.9577 42.9531 25.5588 42.145C25.5588 41.8881 25.5588 41.537 25.5588 41.1992C26.7379 39.8052 27.3377 38.2353 27.1213 36.4807C26.8071 36.0016 26.4854 35.6071 26.2786 35.1581C26.1609 34.902 25.996 34.7173 25.7973 34.5833C25.4845 34.3728 25.1349 34.2057 24.7816 34.0703C24.1582 33.8311 23.4561 33.7075 22.8525 33.8996C21.9193 34.1976 20.8896 34.4221 20.4311 35.1839C20.2235 35.6468 20.1154 35.925 19.9777 36.1878C19.7017 36.7126 19.4507 37.2381 19.5847 37.7753C20.172 38.8528 20.4046 40.0466 21.2966 40.7848C21.3467 41.0962 21.4777 41.3788 21.4115 41.6033C21.2591 42.12 21.1826 42.6432 20.8418 43.1342C20.4304 43.7266 20.2191 44.481 20.2846 45.2347C20.3671 45.3171 20.4296 45.3797 20.5481 45.4982C21.0221 45.3988 21.569 45.6601 22.0849 45.3554C22.3903 45.5203 22.67 45.2649 22.9791 45.3046C23.3251 45.3495 23.7468 45.1942 24.0176 45.3422C24.4497 45.5777 24.9178 45.3245 25.2652 45.5151C25.6972 45.7558 26.1123 45.5895 26.5119 45.6822Z" fill="#28282A"></path>
</symbol></defs><use data-v-1e92d442="" xlink:href="#locker--sprite" fill="#28282A"></use></svg>