<svg xmlns:xlink="http://www.w3.org/1999/xlink" xmlns="http://www.w3.org/2000/svg" data-v-1e92d442="" viewBox="0 0 38 61" preserveAspectRatio="xMidYMid" class="BaseIcon-icon" width="38"  height="61" ><defs><symbol xmlns="http://www.w3.org/2000/svg" viewBox="0 0 38 61" fill="none" id="camping--sprite">
<path d="M37.6239 38.7179C37.6464 37.7865 37.3566 36.9746 36.8464 36.1898C36.4972 35.6531 36.2127 35.0802 35.8212 34.5587C35.5447 34.191 35.4562 33.6749 35.6127 33.1897C35.9196 32.2385 36.2246 31.286 36.5744 30.35C36.6305 30.1995 36.6794 30.0616 36.6655 29.917C36.6067 29.2965 36.7922 28.7156 37.0002 28.1572C37.1606 27.7268 37.1837 27.2971 37.1183 26.8786C37.0912 26.7031 37.0754 26.5103 37.0556 26.3354C36.9922 25.7578 36.7658 25.1974 36.8345 24.6099C36.8747 24.2627 36.9572 23.9182 37.0147 23.5736C37.0642 23.2779 36.9678 23.0251 36.9757 22.7518C36.9804 22.5907 36.8054 22.4046 36.8457 22.2699C36.9071 22.0633 36.5962 21.9537 36.7704 21.7353C36.8305 21.6593 36.6734 21.4778 36.8001 21.3531C36.5084 21.2739 36.9414 21.0871 36.7407 20.9412C36.6754 20.8936 36.8404 20.5907 36.8041 20.4256C36.7645 20.2435 36.5671 20.0976 36.5223 19.9154C36.3916 19.386 36.2681 18.85 36.2173 18.3094C36.2001 18.1272 35.9203 17.9332 36.1869 17.7358C35.8978 17.5721 36.148 17.2421 35.9678 17.0355C35.8206 16.8678 35.7004 16.6751 35.577 16.4876C35.5526 16.4506 35.5889 16.3727 35.5638 16.3364C35.2813 15.9252 35.2721 15.409 35.0252 14.978C34.7975 14.5793 34.5783 14.1509 34.4839 13.708C34.408 13.3535 34.1823 13.104 33.9935 12.8895C33.2251 12.0149 32.6007 11.0346 31.8759 10.133C31.464 9.62073 31.0138 9.1052 30.4046 8.76658C30.0541 8.57185 29.8125 8.22069 29.4772 7.97316C28.9141 7.55731 28.3464 7.3342 27.6573 7.39558C27.5009 7.40945 27.3418 7.39756 27.0989 7.39756C27.0421 7.50714 26.9563 7.67282 26.8705 7.83916C26.7609 8.20023 26.6527 8.62268 26.4527 9.03523C26.3371 9.27286 26.281 9.5567 26.2659 9.82337C26.2157 10.7132 25.9028 11.4274 25.0223 11.8261C24.8909 11.7686 24.7364 11.7013 24.619 11.6505C24.2783 11.0478 23.9569 10.4709 23.6275 9.89862C23.4678 9.62139 23.2057 9.37056 23.1456 9.0755C23.0149 8.43786 22.6281 7.9626 22.2869 7.45499C22.0895 7.16191 21.8499 6.8959 21.6215 6.62461C21.3165 6.26222 21.1344 5.82656 20.8921 5.42721C20.601 4.94799 20.2267 4.55854 19.7594 4.21926C19.236 3.83839 18.7924 3.33937 18.3495 2.85883C18.0326 2.51492 17.6564 2.27993 17.2451 2.08719C17.1356 2.0357 17.0022 2.03306 16.8498 2.00204C16.5917 1.73734 16.2689 1.52611 15.9065 1.32875C15.5633 1.14195 15.1019 1.17363 14.8603 0.798702C14.4556 0.836987 14.181 0.512225 13.8556 0.369647C13.4945 0.212547 13.0807 0.222448 12.7678 0C12.2734 0.31618 11.4958 0.221128 11.2885 1.12874C11.2602 1.92811 11.0159 2.86477 11.1083 3.82519C11.1169 3.91298 11.0575 4.01265 11.014 4.09912C10.7737 4.57174 10.713 5.11103 10.6707 5.60544C10.5988 6.43846 10.2443 7.11637 9.8456 7.80022C9.59939 8.22201 9.32546 8.62862 9.21588 9.11972C9.17958 9.28211 9.12083 9.48079 9.00268 9.57782C8.4515 10.028 8.29836 10.7118 7.967 11.2874C7.62574 11.8802 7.31946 12.3106 6.84618 12.704C6.27125 13.1825 5.8785 13.8228 5.46924 14.4268C5.05999 15.0308 4.68242 15.6387 4.18538 16.1879C3.63883 16.7912 3.22364 17.5134 2.74508 18.1926C2.83089 18.8243 2.51801 19.3504 2.33252 19.9128C2.08829 20.6554 1.64405 21.3108 1.43415 22.0679C1.23282 22.7947 0.997832 23.4997 1.31929 24.2693C1.48101 24.6555 1.29223 25.0872 1.15163 25.4529C1.06582 25.6773 1.01565 25.8806 1.01895 26.107C1.02291 26.4087 1.00113 26.6984 1.15889 26.9974C1.29223 27.2496 1.09288 27.5803 1.31071 27.8872C1.43547 28.0628 1.27045 28.4226 1.35956 28.6503C1.43943 28.8549 1.46847 29.0893 1.46451 29.2536C1.44933 29.9408 1.74901 30.5051 2.02888 31.084C2.39193 31.8339 2.64144 32.6121 2.5893 33.4557C2.56751 33.8075 2.48236 34.1356 2.06519 34.2689C1.8137 34.3495 1.57012 34.4861 1.35494 34.6425C0.933143 34.9488 0.727857 35.4115 0.543694 35.8822C0.455242 36.1086 0.368111 36.3357 0.220912 36.7165C0.108038 37.5007 0.473725 38.3687 0.760201 39.2975C1.25394 39.8064 1.84142 40.3041 2.18136 41.0209C2.27708 41.2223 2.48104 41.4566 2.67775 41.5054C2.94772 41.5728 3.05928 41.7695 3.21572 41.9239C4.63622 43.3306 6.0455 44.7491 7.46996 46.1755C7.46996 46.3399 7.46996 46.5168 7.46996 46.6963C6.8178 47.2072 6.00589 47.4066 5.33921 47.8667C4.67054 48.3281 3.98207 48.7538 3.25268 49.1142C2.53187 49.4713 1.817 49.8403 1.081 50.2133C1.00839 50.3856 0.962847 50.5842 0.852613 50.7361C0.457223 51.2819 0.43676 51.9262 0.399135 52.546C0.35821 53.2233 0.350289 53.8913 0.661849 54.5639C0.938424 55.1606 1.13645 55.8108 1.54042 56.3243C1.89951 56.7805 2.00908 57.3739 2.43352 57.7772C2.44672 57.7897 2.42361 57.8392 2.43682 57.8531C3.00713 58.4287 3.50681 59.0564 3.86524 59.7885C4.43357 60.0367 4.73655 60.5872 5.21577 60.9634C5.42964 60.9634 5.66595 60.9634 5.90226 60.9634C6.13857 60.9634 6.46465 61.0591 6.59073 60.941C6.77885 60.7654 6.95839 60.9786 7.14256 60.8261C7.28118 60.7113 7.56237 60.8149 7.78152 60.6637C7.92674 60.5641 8.19143 60.6604 8.38418 60.6043C8.88188 60.4584 9.37826 60.3376 9.75715 59.8987C10.035 59.5766 10.8133 59.2815 11.2839 59.2373C11.6582 59.2016 11.9348 59.0511 12.2278 58.834C12.7572 58.4425 13.3467 58.1666 14.0266 58.2854C14.4801 57.9917 14.9401 57.7422 15.3421 57.4194C15.6814 57.1475 16.0517 56.9917 16.4484 56.8432C16.7197 56.7415 16.9904 56.5699 17.1897 56.3606C17.6848 55.8418 18.2722 55.4675 19.0531 55.0946C19.3792 55.1342 19.8525 55.1923 20.2664 55.2425C21.0954 55.9065 21.8473 56.5613 22.7489 57.0267C23.1819 57.2504 23.6222 57.4801 24.0077 57.8148C24.38 58.1382 24.8685 58.2993 25.3266 58.2795C25.5576 58.426 25.846 58.5079 25.9107 58.6762C25.9932 58.8907 26.1365 59.0142 26.2725 59.1574C26.7781 59.6914 27.487 59.9165 28.0758 60.3264C28.2527 60.4499 28.4738 60.5079 28.6653 60.6129C29.3392 60.9839 30.0745 61.04 30.8046 60.9429C31.1214 60.9007 31.4139 60.6472 31.7096 60.4763C32.4073 60.0723 32.8192 59.4234 33.204 58.7429C33.375 58.4399 33.6133 58.1746 33.8192 57.8914C33.8773 57.8108 33.9591 57.7343 33.9822 57.6438C34.0945 57.2036 34.3262 56.8412 34.5849 56.4676C34.9585 55.9283 35.2278 55.3164 35.5433 54.7316C35.5222 54.7012 35.4958 54.6642 35.4509 54.6002C35.6153 54.2055 35.7816 53.7909 35.9585 53.3817C36.2417 52.7282 36.2952 52.4595 36.0226 51.8945C35.884 51.6067 35.7625 51.3176 35.6542 51.0199C35.5163 50.6397 35.2107 50.3908 34.9229 50.144C34.7031 49.9552 34.4245 49.8337 34.1677 49.6905C33.2898 49.2 32.4561 48.635 31.5703 48.1571C31.3485 48.0376 31.1861 47.8079 31.0033 47.6356C30.8759 46.8132 31.3472 46.3432 31.9564 45.9551C32.1215 45.8501 32.3327 45.7933 32.4594 45.6554C33.0839 44.9775 33.9077 44.5808 34.6357 44.0507C34.9222 43.8421 35.206 43.5893 35.3928 43.2943C35.6061 42.9583 35.849 42.6844 36.2107 42.5484C37.0338 42.2388 37.4807 41.6394 37.6444 40.7959C37.6497 40.7694 37.7289 40.7576 37.7738 40.7391C37.7738 40.1067 37.7738 39.475 37.7738 38.8427C37.7223 38.8011 37.6226 38.7582 37.6239 38.7179ZM3.83553 25.1591C4.00188 24.9129 3.72266 24.503 4.00452 24.2033C4.06986 24.1333 4.01508 23.9492 4.01376 23.8178C4.00518 22.6488 4.34578 21.5683 4.86197 20.5365C5.1458 19.9689 5.48839 19.4283 5.7412 18.8474C6.15771 17.8896 6.71944 17.0434 7.48118 16.3311C7.94654 15.8955 8.30431 15.3892 8.60068 14.8215C8.78419 14.4697 9.07858 14.1766 9.32018 13.8552C9.50038 13.6149 9.70368 13.3865 9.84626 13.1251C10.243 12.3964 10.5974 11.6445 11.0007 10.9198C11.2054 10.5514 11.4476 10.195 11.7262 9.88014C12.144 9.40884 12.4384 8.9085 12.3856 8.31376C12.7117 7.66952 12.985 7.08799 13.0325 6.3817C13.0728 5.78366 13.3269 5.1975 13.5071 4.61267C13.5922 4.33477 13.7256 4.07206 13.8358 3.80605C13.9942 3.7374 14.15 3.66941 14.2999 3.60472C14.523 3.65951 14.7546 3.67667 14.9487 3.77172C15.4365 4.00935 16.0002 4.17635 16.3058 4.65095C16.5468 5.02522 16.8583 5.26945 17.1897 5.54537C17.6353 5.917 18.0359 6.35727 18.4056 6.83385C18.8861 7.45367 19.2366 8.18901 19.8795 8.68473C19.9878 8.7679 20.0446 8.92764 20.1046 9.06098C20.2248 9.32699 20.3027 9.61545 20.4492 9.8643C20.601 10.1231 20.7878 10.3745 21.007 10.5765C21.1845 10.7402 21.1509 10.9501 21.2354 11.1178C21.5218 11.6842 21.7337 12.2795 22.0849 12.8268C22.444 13.3865 22.7707 14.0017 22.9569 14.6717C23.0598 15.0413 23.2631 15.3885 23.4572 15.7252C23.6638 16.0843 24.0783 16.11 24.4605 16.2645C24.8612 16.0797 25.2929 15.9094 25.6315 15.5456C25.8526 15.3074 26.1239 15.1067 26.3985 14.9291C27.1821 14.4222 27.4923 13.5245 28.1148 12.8868C28.1359 12.5548 28.4032 12.2961 28.4422 12.003C28.4884 11.6584 28.7267 11.5449 28.8983 11.2881C29.429 11.6333 29.9696 11.9033 30.4059 12.2908C30.9274 12.7541 31.2033 13.4175 31.4515 14.0598C31.6145 14.4816 31.8251 14.8519 32.0746 15.2268C32.4515 15.7925 32.771 16.4084 33.0284 17.0388C33.3228 17.7596 33.5222 18.5193 33.7624 19.2619C33.7849 19.3319 33.8199 19.3999 33.8278 19.4712C33.8839 20.0019 33.8601 20.5544 34.002 21.06C34.379 22.3993 34.2892 23.7604 34.3057 25.1195C34.3077 25.2911 34.2568 25.4647 34.4179 25.6317C34.4998 25.7162 34.5011 25.9459 34.4522 26.078C34.1842 26.8093 34.3466 27.5638 34.3044 28.3064C34.2859 28.6338 34.3446 28.9691 34.1459 29.2688C33.9512 29.5625 33.9426 29.9309 33.8628 30.251C33.7486 30.7091 33.5169 31.0246 33.208 31.3276C32.9835 31.5474 32.4509 31.7111 32.1122 31.6748C32.0013 31.6629 31.8885 31.6689 31.7782 31.653C31.6561 31.6352 31.538 31.5864 31.4158 31.5784C30.4567 31.5177 28.8937 31.9091 27.9207 32.663C27.2527 33.1805 26.5391 33.6379 25.8441 34.1204C25.7642 34.1759 25.6757 34.2214 25.5873 34.2617C25.0493 34.5046 24.5972 34.8551 24.1978 35.2914C23.4585 36.0994 22.5885 36.7423 21.5614 37.2565C21.4103 37.2565 21.2024 37.2565 20.9759 37.2565C20.933 37.2169 20.873 37.168 20.8208 37.1119C20.3825 36.6479 19.8465 36.3106 19.3436 35.9264C18.7317 35.4591 17.6227 35.4135 17.0471 35.6848C16.5633 35.9125 16.0233 35.9911 15.5619 36.2987C15.3976 36.4076 15.1005 36.3159 14.9936 36.3159C14.1705 36.0993 13.7401 35.5436 13.253 35.0624C12.5229 34.3409 11.707 33.7178 10.9446 33.0352C10.4087 32.5554 9.86343 32.154 9.18354 31.9355C8.85944 31.8312 8.53468 31.7263 8.21982 31.6246C7.4561 31.8253 6.75905 32.2418 5.78674 32.2979C5.77222 32.2761 5.69499 32.2101 5.62568 32.2187C5.30026 32.2577 5.13326 32.0332 4.99794 31.8332C4.82368 31.5745 4.71873 31.2675 4.59925 30.9745C4.47846 30.6794 4.41047 30.3612 4.30683 30.0675C4.08241 29.4312 4.11079 28.7454 3.85534 28.1236C3.8461 28.1011 3.856 28.0714 3.85402 28.045C3.80187 27.4087 3.72134 26.773 3.70814 26.1354C3.70418 25.8172 3.60847 25.4944 3.83553 25.1591ZM16.9481 52.944C16.4695 53.6523 15.7131 53.9381 15.0768 54.3843C14.352 54.8926 13.6101 55.4121 12.7836 55.7006C11.9942 55.9765 11.2516 56.323 10.5096 56.692C10.239 56.8267 10.0034 56.997 9.75517 57.1613C9.30829 57.4577 8.81719 57.6881 8.33863 57.9488C8.31619 57.925 8.27988 57.8874 8.23236 57.8379C7.62574 58.0623 6.99602 58.1785 6.28643 58.1019C5.42436 57.2676 4.6547 56.2926 3.91474 55.284C3.63421 54.9019 3.65005 54.4438 3.39658 54.0682C3.26852 53.8781 3.33783 53.5566 3.21373 53.3599C2.91868 52.8919 3.09492 52.5031 3.36621 52.0094C4.0065 51.8483 4.49892 51.4192 5.0019 51.0272C5.32997 50.7717 5.71083 50.5961 6.06728 50.5631C6.68116 50.5063 7.09569 50.1499 7.48712 49.7954C8.10958 49.2331 8.86868 48.9281 9.58223 48.5452C9.8489 48.402 10.2423 48.4938 10.5783 48.4812C10.6819 48.4773 10.7856 48.4806 10.8265 48.4806C11.0509 48.6053 11.214 48.7571 11.3961 48.7862C11.9486 48.8726 12.3196 49.2469 12.7388 49.5525C13.4846 50.0964 14.1817 50.7539 15.0055 51.1308C15.7685 51.4793 16.3996 51.9176 16.9481 52.5196C16.9481 52.6747 16.9481 52.8325 16.9481 52.944ZM31.233 51.0034C31.7795 51.2245 32.2416 51.5473 32.6509 51.9612C33.1888 52.5051 33.1981 52.5242 33.1908 53.2635C32.7116 54.1065 32.4792 55.0259 31.9393 55.7936C31.3934 56.5686 30.8633 57.3541 30.3505 58.0993C29.6085 58.2293 29.095 57.8293 28.5801 57.5039C28.1596 57.2385 27.6943 57.0187 27.3649 56.622C26.6599 56.4319 26.1761 55.8306 25.5002 55.6029C25.1681 55.4913 24.9477 55.2708 24.6942 55.0642C24.4275 54.8464 24.1278 54.6649 23.8301 54.4886C23.1971 54.1144 22.6077 53.6708 21.9284 53.3678C21.638 53.2384 21.3562 53.012 21.1641 52.7579C20.939 52.4595 20.5938 52.35 20.3244 52.3044C19.7508 52.2067 19.3383 51.8496 18.8861 51.5777C18.432 51.3044 18.0663 50.8852 17.6577 50.5347C16.7065 49.7175 15.7151 48.9552 14.6292 48.3228C14.5012 48.2482 14.352 48.1829 14.2629 48.0726C13.8054 47.5049 13.1348 47.2112 12.5988 46.7465C12.4688 46.6343 12.2615 46.5848 12.1764 46.4515C11.7843 45.8376 11.1849 45.4316 10.6549 44.9781C9.9664 44.3893 9.37826 43.6699 8.53666 43.2573C8.22642 43.1055 7.9703 42.8382 7.69967 42.6111C7.24685 42.2315 6.92275 41.7134 6.3762 41.4269C6.22108 41.3457 6.17091 41.0011 6.02966 40.9695C5.74318 40.9048 5.75836 40.6414 5.6006 40.5067C5.44086 40.3701 5.22699 40.2361 5.16824 40.0572C5.06131 39.7311 4.79794 39.5681 4.59067 39.3496C4.157 38.8908 3.7022 38.4526 3.26852 38.0182C3.2177 37.7403 3.18271 37.5469 3.13518 37.2849C3.20119 37.1535 3.30879 36.941 3.42298 36.7145C4.07647 36.3528 4.74315 35.9396 5.44746 35.6049C6.23626 35.23 7.05411 34.9132 7.86931 34.597C8.17229 34.4795 8.46009 34.6954 8.7129 34.8062C9.23238 35.034 9.75847 35.2683 10.1519 35.7297C10.4126 36.0353 10.812 36.2215 11.0714 36.5277C11.5935 37.1449 12.1856 37.6723 12.8457 38.1311C12.8879 38.1608 12.9341 38.1978 12.9559 38.2426C13.2695 38.8981 13.9322 39.1126 14.4768 39.4876C14.9533 39.8156 15.3626 40.2427 15.7956 40.6203C16.0827 40.5318 16.3171 40.4592 16.6108 40.3681C16.8973 40.075 17.2498 39.7661 17.3085 39.2202C17.3343 38.9793 17.6023 38.7648 17.758 38.5423C18.0174 38.5423 18.2458 38.5423 18.461 38.5423C18.7046 38.7687 18.8782 39.0229 18.8379 39.3476C18.7798 39.8176 19.0214 40.2592 18.9805 40.7028C18.9369 41.1774 19.3818 41.4678 19.3158 41.9167C19.6564 42.1972 19.4366 42.6269 19.5937 42.9873C19.7753 43.4038 20.0089 43.7306 20.3178 44.0263C20.44 44.1438 20.5977 44.2309 20.7522 44.3068C21.2439 44.5504 21.7284 44.7808 22.1278 45.192C22.5047 45.5808 23.0717 45.7201 23.4895 46.0877C23.8414 46.3973 24.2559 46.6383 24.6487 46.8997C25.0388 47.1597 25.4335 47.4139 25.8335 47.6581C26.2098 47.8878 26.5721 48.1855 26.9834 48.3023C27.5088 48.4508 27.9088 48.7631 28.3266 49.0614C28.6573 49.2971 28.9247 49.635 29.2752 49.8258C29.9478 50.1915 30.5234 50.7163 31.233 51.0034ZM35.0925 39.7113C34.9704 40.2255 34.6932 40.4645 34.3691 40.5615C34.136 40.6315 33.9789 40.776 33.8984 40.9285C33.6119 41.4711 33.1486 41.8051 32.6713 42.1457C32.3406 42.3814 32.033 42.652 31.732 42.9253C31.3954 43.2309 31.07 43.5174 30.5907 43.6111C30.3689 43.6547 30.1802 43.885 29.9841 44.0415C29.5841 44.361 29.2547 44.7531 28.8428 45.0732C28.4019 45.4158 27.9082 45.6369 27.3959 45.9544C27.058 45.9016 26.6507 46.0521 26.2619 45.8019C25.5384 45.3372 24.7853 44.9187 24.0599 44.4573C23.3595 44.0111 22.6644 43.5537 22.075 42.9563C22.0492 42.9299 21.9733 42.953 21.9212 42.953C21.7977 42.7134 21.675 42.4744 21.5727 42.2751C21.3225 41.32 21.7119 40.6427 22.4123 40.0856C22.6288 39.9133 22.8103 39.7127 23.0645 39.5688C23.4136 39.372 23.6955 39.0592 24.0137 38.8044C24.1886 38.6644 24.3648 38.5172 24.5628 38.4169C24.9701 38.2103 25.3371 37.9581 25.6579 37.6314C26.1028 37.1786 26.5385 36.7238 27.1359 36.4419C27.4461 36.2961 27.6197 35.9403 27.9616 35.7693C28.2936 35.6036 28.5537 35.296 28.8541 35.061C29.1359 34.8399 29.5326 34.9732 29.8303 34.7442C29.9742 34.6333 30.1973 34.5957 30.3887 34.5831C30.7551 34.5587 31.1241 34.5759 31.53 34.5759C32.5261 35.164 33.4925 35.8413 34.3037 36.7132C34.3737 37.1172 34.4423 37.5139 34.5361 38.0519C34.6687 38.3087 34.8701 38.7001 35.0938 39.1331C35.0925 39.343 35.0925 39.6064 35.0925 39.7113Z" fill="#28282A"></path>
<path d="M11.2899 27.6166C11.2748 27.7975 11.4622 28.0245 11.6075 28.1823C11.7533 28.3407 11.9639 28.4397 12.1454 28.5645C13.5692 27.9295 14.0808 27.7955 14.8227 28.0991C14.9389 28.3434 15.1158 28.5704 15.0571 28.8694C14.9521 29.4054 14.9125 29.9658 14.7197 30.4675C14.5818 30.8279 14.5811 31.1665 14.5957 31.5157C14.6036 31.6986 14.7296 31.8768 14.7712 31.9791C15.0247 32.0715 15.2069 32.1375 15.3396 32.1857C15.5449 32.1329 15.7627 32.0022 15.865 32.0636C16.2835 32.3144 16.7238 32.1606 17.1495 32.2055C17.5495 32.2478 17.902 32.1461 18.1819 31.8405C18.2354 31.5487 18.2974 31.2715 18.2281 30.9553C18.1561 30.6286 18.2327 30.2728 18.2063 29.9322C18.1812 29.6094 18.1495 29.2761 18.0426 28.9744C17.9297 28.6549 17.875 28.344 17.9007 28.0232C18.0354 27.8846 18.1634 27.7526 18.2354 27.678C18.7852 27.4503 19.2677 27.5777 19.78 27.6694C19.8829 27.845 19.9945 28.0364 20.143 28.2886C20.0816 28.9203 20.0922 29.6285 19.9192 30.288C19.8116 30.6999 19.7945 31.0919 19.8011 31.4933C19.8044 31.6755 19.9298 31.8563 19.9846 31.9969C20.1305 32.0695 20.2394 32.1237 20.4031 32.2055C20.5734 32.2055 20.8295 32.1474 21.0394 32.222C21.2506 32.2966 21.3701 31.9283 21.5622 32.1639C21.7008 31.989 21.9312 32.261 22.0638 32.0603C22.1833 32.2887 22.4441 31.9705 22.5695 32.1969C22.8091 32.018 23.048 31.8392 23.2711 31.6722C23.2157 31.117 23.3682 30.5923 23.1068 30.1058C23.0738 30.0444 23.0738 29.9348 23.1068 29.8734C23.3563 29.4134 23.2474 28.917 23.2527 28.4358C23.2553 28.1981 23.3305 28.0424 23.5332 27.9387C24.0329 27.9387 24.5352 27.9057 25.0309 27.9486C25.4857 27.9876 25.9333 28.1084 26.4039 28.1968C26.5498 28.107 26.7188 28.0034 26.8884 27.8998C26.8884 27.2984 26.895 26.7215 26.8838 26.1446C26.8811 26.0146 26.7749 25.7776 26.7868 25.7723C27.0534 25.6694 26.5577 25.4495 26.8508 25.3512C26.8712 25.3446 26.6996 25.1684 26.8613 25.0159C26.9617 24.9215 26.9696 24.6938 27.0132 24.5386C27.0891 24.272 27.1769 23.9069 26.7795 23.6634C26.1953 23.7412 25.5663 23.6106 24.922 23.8059C24.4883 23.9373 23.9834 23.831 23.5101 23.831C22.9688 23.2898 22.885 22.9676 23.1028 22.2435C23.1517 22.0798 23.2322 21.9214 23.254 21.7551C23.2804 21.5478 23.2606 21.3346 23.2606 21.124C23.2606 20.889 23.2606 20.654 23.2606 20.4699C23.1074 20.2996 22.9853 20.1629 22.8896 20.0553C22.1147 19.9748 21.3635 20.1471 20.681 19.988C20.2559 19.9418 19.9918 20.1596 19.7899 20.4692C19.7899 20.6534 19.7298 20.8692 19.805 21.0144C19.9034 21.2052 19.9806 21.3821 19.9437 21.5881C19.9173 21.7333 20.2433 21.8692 19.9503 22.0118C20.1694 22.1544 20.0909 22.3775 20.1074 22.5769C20.1219 22.7491 20.0876 22.9122 20.2064 23.0924C20.3047 23.2416 20.2546 23.4911 20.2618 23.6964C20.2684 23.8779 20.2631 24.0607 20.2631 24.1828C20.1067 24.3604 19.9866 24.4977 19.8836 24.6145C19.104 24.7604 19.104 24.7604 18.3621 24.5333C18.0723 24.2667 18.0433 23.9215 18.0512 23.5551C18.0637 23.0026 18.0545 22.4495 18.0545 21.8963C17.8499 21.7815 18.0004 21.5834 17.974 21.4336C17.9416 21.2508 18.0684 21.0415 18.1179 20.8415C18.1647 20.6507 18.201 20.458 18.2373 20.2883C17.9099 20.0454 17.8868 20.1121 17.539 19.9906C16.9317 19.7788 16.3231 19.9398 15.7198 19.8798C15.3415 19.8421 15.0267 19.9735 14.7415 20.2758C14.7415 20.8224 14.7792 21.4012 14.731 21.9729C14.6821 22.5524 15.133 23.0092 15.0544 23.5987C14.8749 23.769 14.6848 23.9492 14.4808 24.1426C14.123 24.1663 13.7679 24.1294 13.4332 23.8792C13.1969 23.703 12.894 23.6277 12.5758 23.6667C12.3718 23.6917 12.1626 23.6713 11.9943 23.6713C11.7923 23.8086 11.5527 23.8845 11.4794 24.0389C11.3137 24.3888 11.1718 24.7703 11.1262 25.1518C11.0279 25.977 11.3612 26.7816 11.2899 27.6166Z" fill="#28282A"></path>
<path d="M14.4313 42.5642C14.2194 42.3352 13.9917 42.1206 13.7712 41.8988C13.5349 41.6619 13.2992 41.4249 13.0821 41.2064C12.9401 41.2137 12.8398 41.219 12.7164 41.2256C12.7164 41.4685 12.7164 41.6969 12.7164 41.9939C13.2266 42.4408 13.7844 42.9286 14.3514 43.4243C14.4696 43.4243 14.5989 43.4302 14.7276 43.4223C14.8412 43.4151 14.9541 43.3926 15.1224 43.3689C14.9409 42.9913 14.6531 42.8045 14.4313 42.5642Z" fill="#28282A"></path>
<path d="M24.5358 48.9756C24.2816 48.9202 24.0731 48.8113 23.8724 48.6872C23.578 48.505 23.2717 48.4541 22.941 48.4838C22.8955 48.4878 22.8526 48.5202 22.7984 48.5439C22.7984 48.6409 22.7984 48.7426 22.7984 48.9083C22.9384 49.0106 23.1047 49.1618 23.2968 49.2674C23.782 49.5347 24.2572 49.8192 24.8064 49.9598C25.2216 50.0654 25.2137 50.0964 25.4698 49.6925C25.2275 49.3611 24.9285 49.0614 24.5358 48.9756Z" fill="#28282A"></path>
<path d="M19.0095 47.8766C18.6418 47.8548 18.2794 47.4898 17.8312 47.8179C17.9527 47.9571 18.0293 48.1076 18.1514 48.173C18.9613 48.61 19.7811 49.0285 20.6485 49.4799C20.7231 49.3684 20.7924 49.2634 20.8676 49.1499C20.5944 48.8918 20.3026 48.5954 19.9877 48.3261C19.7072 48.0872 19.3481 47.8971 19.0095 47.8766Z" fill="#28282A"></path>
<path d="M9.45618 41.0896C9.6278 41.2731 9.81526 41.4732 10.0397 41.7134C10.1578 41.6613 10.3103 41.5939 10.5856 41.4725C10.2476 41.2329 10.0087 41.0639 9.79876 40.9154C9.64166 40.9959 9.51492 41.0599 9.45618 41.0896Z" fill="#28282A"></path>
<path d="M29.4706 38.7238C28.8897 39.0914 28.2316 39.3832 27.9392 40.0816C27.9187 40.1311 27.8824 40.174 27.8342 40.2492C28.1247 40.2492 28.3517 40.2492 28.5623 40.2492C28.7438 40.0677 28.8943 39.8822 29.0785 39.7416C29.2897 39.5799 29.5227 39.4419 29.761 39.3218C30.0046 39.199 30.0871 39.0195 30.0277 38.6782C29.8125 38.6914 29.6 38.6419 29.4706 38.7238Z" fill="#28282A"></path>
<path d="M24.9966 40.1265C24.9966 40.3483 24.9966 40.5041 24.9966 40.7094C25.1114 40.7219 25.2315 40.7345 25.4203 40.7543C25.5385 40.5734 25.6553 40.3596 25.8052 40.1721C25.9722 39.9635 26.2712 39.8104 26.0223 39.4731C25.6685 39.6988 25.3174 39.9219 24.9966 40.1265Z" fill="#28282A"></path>
<path d="M9.078 50.6489C8.7671 50.8859 8.51693 51.212 8.20603 51.2866C7.47268 51.4628 6.99412 51.9638 6.47067 52.4232C6.43965 52.4503 6.4238 52.4952 6.41522 52.509C6.48651 52.5982 6.55252 52.6793 6.65219 52.8041C7.775 52.4246 8.82717 51.9539 9.55194 50.8819C9.38428 50.7994 9.2318 50.7248 9.078 50.6489Z" fill="#28282A"></path>
<path d="M9.2271 52.9777C9.03568 53.1249 9.01258 53.3045 9.15053 53.6015C9.91953 53.3269 10.6014 52.9421 11.2021 52.2384C10.9466 52.111 10.7757 52.0265 10.5823 51.9301C10.1281 52.2813 9.6786 52.6305 9.2271 52.9777Z" fill="#28282A"></path>
</symbol></defs><use data-v-1e92d442="" xlink:href="#camping--sprite" fill="#28282A"></use></svg>