<svg xmlns:xlink="http://www.w3.org/1999/xlink" xmlns="http://www.w3.org/2000/svg" data-v-1e92d442="" viewBox="0 0 61 39" preserveAspectRatio="xMidYMid" class="BaseIcon-icon" width="61"  height="39" ><defs><symbol xmlns="http://www.w3.org/2000/svg" viewBox="0 0 61 39" fill="none" id="shuttle--sprite">
<path d="M14.1956 38.9065C13.7759 38.9065 13.3556 38.9065 12.936 38.9065C12.9176 38.8617 12.9057 38.7828 12.8794 38.7775C11.9348 38.5907 11.087 38.1645 10.251 37.7139C10.0556 37.6087 9.85828 37.4831 9.70699 37.3239C9.32088 36.9154 8.9624 36.4813 8.58747 36.0616C8.46578 35.9248 8.33752 35.7906 8.1961 35.6755C8.10401 35.6005 7.98298 35.5604 7.87445 35.5052C7.76658 35.4499 7.65081 35.4045 7.55149 35.3361C7.35613 35.2019 7.11868 35.3532 6.89438 35.1953C6.75953 35.1013 6.45762 35.2999 6.23924 35.1394C6.23266 35.1348 6.14189 35.2447 6.13597 35.2401C5.9051 35.0677 5.69461 35.3986 5.49925 35.2841C5.1684 35.0901 4.78952 35.1039 4.44354 34.9816C3.5891 34.6803 2.77018 34.3074 2.19858 33.5858C1.97823 33.3069 1.77629 33.0135 1.51384 32.7754C1.14944 32.4446 0.956056 32.0269 0.807401 31.5724C0.732415 31.3435 0.611386 31.1297 0.53377 30.9593C0.464704 30.4357 0.391692 29.9628 0.343017 29.4872C0.315391 29.2136 0.352226 28.9472 0.19502 28.6808C0.0766216 28.4795 0.0529419 28.2105 0.0305779 27.9671C0.00426718 27.6817 0.0312356 27.3909 0.0220269 27.1035C0.0147915 26.8897 0.124639 26.6996 0.114772 26.4819C0.105563 26.2839 0.152923 26.0826 0.18318 25.8847C0.214753 25.6761 0.349595 25.4157 0.269347 25.2756C0.172656 25.1065 0.43642 24.9072 0.182522 24.8092C0.242379 24.0376 -0.091109 23.2917 0.0266313 22.5175C0.0983279 22.0433 0.196993 21.5776 0.206859 21.0902C0.211464 20.8718 0.0733327 20.7179 0.0963546 20.487C0.120034 20.2535 0.220673 20.0266 0.190415 19.7779C0.155554 19.4938 0.182522 19.2024 0.182522 18.9143C0.182522 17.3166 0.1891 15.7189 0.176602 14.1211C0.173971 13.8002 0.253561 13.4765 0.0457065 13.1516C-0.0483542 13.0049 0.0647817 12.7129 0.110825 12.4925C0.207517 12.0294 0.335124 11.5809 0.352226 11.0954C0.397612 9.80093 0.0700439 8.52618 0.180549 7.23104C0.193704 7.07515 0.116088 6.84032 0.194362 6.77323C0.488384 6.51999 0.266716 6.18453 0.388403 5.90169C0.503512 5.63332 0.496935 5.31299 0.558765 4.92096C0.871204 4.57497 1.25337 4.16255 1.62303 3.73895C1.71775 3.63108 1.77958 3.49163 1.84799 3.36205C2.22357 2.65166 2.2216 2.64903 2.84122 2.21556C3.30428 1.89194 3.78906 1.58016 4.35145 1.50188C4.9191 1.42295 5.43545 1.12696 6.03007 1.16905C6.53589 1.20457 7.04237 1.14537 7.54359 1.31771C7.73632 1.38414 7.98824 1.2743 8.21386 1.25522C8.36186 1.24272 8.58418 1.20457 8.64601 1.24667C8.87294 1.4019 9.1025 1.32363 9.32351 1.32692C9.96089 1.33613 10.5989 1.37691 11.2291 1.18747C11.4698 1.11512 11.75 1.17563 12.0125 1.17563C12.2749 1.17563 12.5946 1.26969 12.786 1.15327C13.059 0.98751 13.232 1.21181 13.4576 1.18484C13.9851 1.12038 14.514 1.13551 15.0494 1.05855C15.6835 0.966462 16.3564 0.971724 17.0339 1.13945C17.5982 1.2789 18.2356 1.19668 18.8539 1.0421C19.7116 0.828331 20.5812 1.23944 21.4587 1.17629C22.1322 1.49925 22.8064 1.59266 23.48 1.17629C24.293 1.17629 25.1066 1.17169 25.9196 1.18352C26.0078 1.18484 26.0571 1.41374 26.2077 1.22431C26.2676 1.14866 26.434 1.41835 26.5333 1.19865C27.2187 1.23549 27.9081 1.03684 28.5954 1.3039C28.8362 1.3973 29.1808 1.37099 29.4216 1.26838C29.5933 1.19536 29.6235 1.27035 29.7097 1.32823C29.8057 1.16905 29.959 1.17958 30.1188 1.17366C31.9066 1.1092 33.6997 1.3131 35.4862 1.0329C36.0058 0.951333 36.5465 1.09867 37.074 1.14472C37.8015 1.20786 38.5619 1.31179 39.2927 1.02961C39.4756 0.959226 39.7084 1.01908 39.9182 1.01908C40.1281 1.01908 40.3392 1.00593 40.5477 1.02237C40.7681 1.04013 41.0259 0.917787 41.1936 1.16971C41.3627 0.892134 41.5225 1.18813 41.6903 1.1855C42.7394 1.16642 43.7885 1.16577 44.8377 1.18221C45.1593 1.18681 45.4836 1.10459 45.8085 1.3131C45.9565 1.40782 46.2532 1.30784 46.4703 1.25193C47.0076 1.11314 47.5714 0.866481 48.0963 1.04276C48.7599 1.2664 49.4315 1.3723 50.1084 1.50978C50.6372 1.61699 51.2134 1.82156 51.4791 2.34317C51.8126 2.99962 52.3435 3.46532 52.8256 3.98693C53.434 4.64535 53.9754 5.34127 54.2049 6.24636C54.2852 6.56406 54.5062 6.86992 54.7292 7.12316C55.0824 7.5244 55.233 8.01575 55.4468 8.48079C55.5172 8.63405 55.5132 8.84257 55.6185 8.9557C55.9816 9.34247 56.1638 9.83777 56.4571 10.2601C56.963 10.9882 57.4438 11.721 57.8187 12.5287C58.1989 13.3489 58.8179 14.037 59.1737 14.8763C59.2987 15.1709 59.4552 15.4419 59.6605 15.7011C59.9782 16.103 60.3281 16.5352 60.4636 17.0114C60.707 17.8645 60.9865 18.7262 60.9635 19.6378C60.9549 19.9661 60.8668 20.2818 60.8273 20.5969C60.7464 21.2415 60.78 21.9045 60.8096 22.5577C60.8379 23.1918 60.6688 23.8397 60.9517 24.4612C61.0108 24.5915 61.0207 24.8105 60.949 24.9217C60.7004 25.3078 60.7964 25.7248 60.8142 26.1201C60.8425 26.7496 60.6517 27.3962 60.9332 28.0086C60.7931 28.2881 61.022 28.5466 60.972 28.8341C60.9188 29.1393 61.001 29.4675 60.9484 29.7727C60.8997 30.0536 60.7491 30.316 60.6458 30.5877C60.5958 30.7192 60.53 30.8501 60.509 30.987C60.3754 31.8736 60.2669 32.1334 59.7821 32.6149C59.3638 33.0306 58.9316 33.4253 58.4673 33.795C57.8194 34.3107 57.2274 34.8961 56.442 35.292C56.1947 35.292 55.9066 35.2769 55.6204 35.2947C54.6983 35.3512 53.7616 35.1434 52.8512 35.4446C52.7565 35.4762 52.596 35.494 52.5454 35.4414C52.2533 35.1381 51.8988 35.3664 51.641 35.292C51.3443 35.4617 51.0904 35.5657 50.9661 35.8952C50.7036 36.5905 50.1505 37.0332 49.4789 37.3377C49.1033 37.5081 48.6882 37.6396 48.3765 37.8942C47.6667 38.4743 46.8037 38.5618 45.9697 38.7387C45.6586 38.8045 45.3244 38.7716 45.0087 38.6046C44.7989 38.4941 44.5219 38.5184 44.295 38.4309C43.5044 38.125 42.6545 37.9599 41.9455 37.4548C41.4074 37.0713 40.8667 36.6773 40.5753 36.0689C40.3997 35.7018 40.1366 35.4775 39.6874 35.292C37.5674 35.292 35.3395 35.292 33.1117 35.292C33.0327 35.292 32.9538 35.2874 32.8755 35.2934C32.7499 35.3026 32.596 35.2769 32.5032 35.3394C32.1632 35.5676 31.7935 35.3874 31.4449 35.4492C31.3521 35.2059 31.1831 35.4315 31.0502 35.3887C30.8621 35.3289 30.6582 35.3111 30.4602 35.2947C30.278 35.2802 30.0932 35.2914 29.9096 35.2914C29.5163 35.2914 29.123 35.2914 28.729 35.2914C28.335 35.2914 27.9423 35.2914 27.5483 35.2914C27.1286 35.2914 26.6872 35.2098 26.2952 35.3144C25.9163 35.4157 25.5927 35.2585 25.2382 35.2736C24.1647 35.321 23.0879 35.3026 22.0125 35.2848C21.6132 35.2782 21.2015 35.3887 20.8101 35.1467C20.6772 35.0645 20.3819 35.0566 20.2799 35.148C19.9695 35.4256 19.6248 35.2144 19.2117 35.3374C19.0236 35.5834 18.798 35.9242 18.5257 36.2228C18.1409 36.6451 17.8547 37.1772 17.3134 37.4344C16.9997 37.5837 16.7129 37.7613 16.4254 37.9553C16.0847 38.1856 15.69 38.3184 15.2993 38.4631C14.9349 38.5986 14.487 38.5776 14.1956 38.9065ZM27.4062 20.4166C26.9142 20.5015 26.4307 20.6094 25.9413 20.662C25.5782 20.7015 25.2066 20.658 24.8402 20.6732C24.4818 20.6876 24.1779 20.4278 23.8016 20.5041C23.5747 20.5502 23.3307 20.5127 23.0945 20.5127C22.8847 20.5127 22.6749 20.5127 22.4644 20.5127C22.2282 20.5127 21.9842 20.5495 21.7579 20.5015C21.5534 20.4581 21.3824 20.76 21.185 20.5298C20.9331 20.7166 20.7022 20.4489 20.4398 20.4989C20.1359 20.5567 19.8109 20.5331 19.4979 20.5081C18.942 20.4627 18.3639 20.6594 17.8284 20.3601C17.7686 20.3265 17.6318 20.3226 17.6015 20.3607C17.4193 20.5896 17.174 20.5002 16.951 20.5114C16.1321 20.5528 15.3026 20.4055 14.4942 20.6646C14.3015 20.7264 14.0877 20.7475 13.8838 20.7455C13.6325 20.7429 13.3813 20.6975 13.1307 20.6692C12.934 20.6469 12.7064 20.7521 12.5591 20.5291C12.1019 20.5403 11.6836 20.2496 11.2146 20.3555C10.9995 20.4041 10.7877 20.4758 10.5706 20.5074C10.3759 20.5357 10.1608 20.4666 10.0115 20.6574C9.83986 20.412 9.58267 20.5192 9.36298 20.5166C8.33949 20.5061 7.31601 20.5186 6.29252 20.5061C6.07348 20.5035 5.86366 20.5061 5.62686 20.4074C5.34336 20.2897 4.94081 20.3022 4.64876 20.4127C4.44156 20.491 4.25673 20.4975 4.06072 20.5087C3.46675 20.5416 3.18326 20.7021 2.8649 21.2145C2.91357 21.2684 2.96356 21.323 2.97606 21.3362C2.93199 21.5033 2.86424 21.6427 2.86358 21.7828C2.85635 23.3812 2.86161 24.9796 2.85635 26.5779C2.85569 26.8174 2.92146 27.045 2.95435 27.2758C3.03131 27.8099 3.06091 28.3276 2.93067 28.8611C2.81622 29.3294 2.82148 29.7997 2.95041 30.2864C3.17602 31.1389 3.81603 31.5678 4.4955 31.9914C5.04737 32.3354 5.70316 32.361 6.28989 32.6024C6.5109 32.6932 6.80097 32.6169 7.0825 32.6169C7.25878 32.3637 7.4298 32.119 7.61068 31.8592C7.36994 30.787 7.94352 29.9161 8.42303 29.0696C8.75323 28.4868 9.42744 28.1553 9.96483 27.7277C10.5213 27.2844 11.1896 27.1167 11.802 26.8239C12.169 26.6483 12.6406 26.4556 13.084 26.7911C13.1675 26.8542 13.3708 26.8503 13.4655 26.7917C14.0423 26.4345 14.5797 26.7069 15.1244 26.8654C15.3566 26.9331 15.5789 27.0943 15.8084 27.1009C16.2603 27.1134 16.5714 27.335 16.8484 27.6422C17.243 28.0796 17.6009 28.5532 18.0271 28.9571C18.4211 29.3307 18.7112 29.7569 18.917 30.245C19.1427 30.7804 19.3702 31.3185 19.5393 31.873C19.6399 32.2038 19.7925 32.4005 20.1339 32.4636C20.3306 32.4998 23.3734 32.8438 23.4898 32.7662C23.8727 32.5103 24.3292 32.5367 24.6811 32.6452C25.2994 32.8353 25.9052 32.7274 26.5136 32.7741C26.6932 32.7879 26.8806 32.7636 27.053 32.805C27.6555 32.9504 27.6469 32.9241 28.2804 32.803C28.5487 32.7517 28.8105 32.6426 29.0736 32.6287C29.7281 32.5945 30.3898 32.5761 31.0384 32.6445C31.216 32.6636 31.4554 32.5847 31.6218 32.7478C32.273 32.5774 32.2671 32.5959 32.8479 32.7531C33.0577 32.8103 33.4241 32.8254 33.505 32.711C33.6688 32.4761 33.7977 32.9313 33.9444 32.6675C33.9983 32.5715 34.3298 32.6208 34.5344 32.6189C35.0856 32.6136 35.6684 32.7307 36.1795 32.5886C36.8267 32.4084 37.4556 32.5025 38.091 32.4689C38.2771 32.459 38.4685 32.557 38.5468 32.5774C38.8822 32.5097 39.121 32.4617 39.3578 32.4137C39.421 32.1505 39.5387 31.8874 39.5328 31.627C39.5255 31.3204 39.6597 31.0876 39.813 30.8751C39.9741 30.6508 40.1116 30.4318 40.2004 30.1674C40.2997 29.8701 40.4116 29.5609 40.5938 29.3123C40.8075 29.0196 41.1029 28.7854 41.3627 28.5262C41.6041 28.2855 41.8179 28.0046 42.0941 27.8145C42.3921 27.6093 42.6657 27.3817 43.036 27.2429C43.6787 27.0029 44.3601 26.8845 44.9758 26.6102C45.2955 26.4674 45.6395 26.4161 45.8566 26.5168C46.2117 26.6819 46.5597 26.5793 46.834 26.651C47.3299 26.9516 47.8016 27.1568 48.3015 27.266C48.9527 27.4087 49.5197 27.7646 49.9505 28.1947C50.5708 28.8137 50.9635 29.6221 51.2088 30.4917C51.3996 31.1672 51.562 31.867 52.0027 32.4044C52.2165 32.4722 52.4862 32.6294 52.5553 32.5663C52.8105 32.3354 52.9539 32.8267 53.1637 32.6176C53.7188 32.6774 54.297 32.4729 54.8331 32.7702C54.8916 32.8024 54.9975 32.7952 55.0627 32.7649C56.0394 32.3058 57.128 32.0275 57.7759 31.1435C57.8259 30.9679 57.847 30.8442 57.895 30.7317C58.1206 30.2049 58.2489 29.6359 58.2693 29.0853C58.3647 26.4628 58.1311 23.8331 58.4745 21.2816C58.3133 21.031 58.1923 20.8429 58.0798 20.6679C57.6812 20.6679 57.2543 20.787 56.961 20.6409C56.492 20.4068 56.0434 20.5383 55.5941 20.5278C55.1462 20.5173 54.6963 20.4429 54.2326 20.6469C53.8576 20.8113 53.3946 20.7995 52.969 20.8166C52.7572 20.8251 52.5408 20.6784 52.3264 20.6771C51.0858 20.6712 49.8577 20.4009 48.6126 20.5094C48.3784 20.5298 48.1383 20.5304 47.9048 20.5061C47.7384 20.489 47.5779 20.4147 47.4023 20.362C47.0767 20.5107 46.8642 20.5094 46.2677 20.5587C46.1085 20.5719 45.9927 20.535 45.8546 20.5179C45.6737 20.4956 45.4875 20.5035 45.304 20.514C44.172 20.5804 43.0282 20.3634 41.9027 20.6613C41.6824 20.7199 41.4304 20.6903 41.1969 20.664C40.9536 20.637 40.7161 20.5258 40.474 20.5186C38.781 20.4686 37.0826 20.6146 35.3934 20.364C35.0679 20.3153 34.6614 20.2759 34.4055 20.4252C34.0957 20.6067 33.7372 20.3476 33.4603 20.6528C33.3669 20.7554 32.9946 20.7482 32.8657 20.6455C32.619 20.4489 32.371 20.5192 32.127 20.5173C30.7884 20.5068 29.4505 20.516 28.112 20.5081C27.8903 20.5074 27.6732 20.4528 27.4062 20.4166ZM57.2931 17.7875C57.599 17.5915 57.5365 17.3212 57.4405 17.089C57.3293 16.8206 57.134 16.5884 57.0083 16.3247C56.8202 15.9287 56.5321 15.5965 56.3821 15.1683C56.0546 14.2336 55.4974 13.418 54.8831 12.6471C54.6798 12.3919 54.4759 12.1584 54.3358 11.8499C53.9747 11.0546 53.6333 10.2337 53.144 9.51809C52.5724 8.68273 52.1626 7.76975 51.6725 6.89755C51.4206 6.44895 51.2252 5.97207 50.8858 5.57281C50.6287 5.27023 50.4451 4.88347 50.1399 4.64864C49.6604 4.27964 49.1026 3.97114 48.506 3.86721C47.9259 3.76592 47.3109 3.90931 46.7294 3.70935C46.415 3.96522 46.044 3.80999 45.7 3.84617C45.3257 3.88563 44.96 3.82643 44.5746 3.97904C44.2575 4.10533 43.8431 4.05073 43.484 3.99482C42.7874 3.88695 42.104 3.7429 41.4054 3.99482C41.2831 4.03889 41.1141 3.95799 40.9674 3.9297C40.847 3.90602 40.7279 3.85209 40.6082 3.85143C39.7985 3.84419 38.9888 3.84748 38.1732 3.84748C38.0988 3.97048 38.0179 4.06981 37.9758 4.1836C37.9081 4.3658 37.8449 4.55524 37.8206 4.74665C37.7943 4.95319 37.7805 5.17222 37.8239 5.37284C37.8673 5.57215 37.6397 5.71488 37.7483 5.90037C37.8226 6.02732 37.5687 6.19637 37.8081 6.29109C37.5167 6.43645 37.8469 6.56735 37.8213 6.71469C37.791 6.89294 37.814 7.08041 37.814 7.26392C37.814 7.44744 37.814 7.63096 37.814 7.81382C37.814 9.30695 37.8219 10.8007 37.8081 12.2939C37.8048 12.6668 37.9173 13.0608 37.6641 13.4134C37.6206 13.4739 37.641 13.6535 37.697 13.6995C37.8792 13.8488 37.8055 14.0363 37.8101 14.2073C37.8206 14.6263 37.8364 15.0473 37.8081 15.4643C37.7719 15.9938 37.9495 16.5424 37.6641 17.0541C37.6266 17.1212 37.67 17.2561 37.7134 17.3403C37.8568 17.6238 38.0173 17.898 38.1725 18.1789C38.9605 18.1164 39.7084 18.0066 40.4556 18.0092C41.4837 18.0132 42.5112 18.1131 43.5392 18.1467C43.807 18.1552 44.0668 18.1723 44.3568 18.0335C44.6219 17.9059 45.0462 17.95 45.329 18.0776C45.5014 18.1552 45.5435 17.952 45.6862 18.0533C45.8138 18.1441 46.0197 18.125 46.1914 18.1552C46.5801 18.223 46.934 18.0204 47.3069 18.0039C48.9375 17.9316 50.5727 18.1112 52.2033 17.8592C52.6612 17.7889 53.1551 17.9362 53.6307 18.0007C53.9504 18.0441 54.3095 17.8481 54.5878 18.1506C54.8028 18.0033 55.0778 18.173 55.2455 18.0921C55.5816 17.9303 55.9085 18.0533 56.2309 17.9961C56.5736 17.9349 56.9149 17.8619 57.2931 17.7875ZM17.9745 4.18163C17.6166 4.01127 17.3108 3.86787 16.9543 3.84288C16.7063 3.82512 16.4366 3.95601 16.2057 3.74684C16.1801 3.72382 16.0584 3.83564 15.9913 3.82446C15.8749 3.80473 15.7703 3.72251 15.6539 3.6962C15.5545 3.67317 15.4453 3.69159 15.3401 3.69159C15.2092 3.69159 15.0178 3.637 14.9586 3.70212C14.8001 3.87642 14.5995 3.6837 14.4179 3.82709C14.289 3.92905 14.0147 3.84814 13.8049 3.8488C13.5687 3.84946 13.3326 3.8488 13.0971 3.8488C12.7564 3.8488 12.3657 3.95536 12.0855 3.82578C11.5724 3.58766 11.0666 3.76658 10.5667 3.69159C10.2773 3.92641 9.93326 3.85801 9.60964 3.84222C9.26168 3.82512 8.89004 3.96917 8.56642 3.69948C8.51051 3.65278 8.32173 3.66725 8.27635 3.72185C8.10533 3.92641 7.88958 3.83893 7.69422 3.84485C7.27522 3.85735 6.8536 3.87116 6.43591 3.84419C5.59266 3.78763 4.38763 4.48683 3.90285 4.94069C3.72789 5.10447 3.55555 5.33009 3.50622 5.55439C3.44439 5.83262 3.34112 6.05692 3.18589 6.2924C3.03197 6.52459 2.86095 6.84164 2.90502 7.0837C2.96422 7.40798 2.79715 7.67898 2.84648 7.98944C2.8991 8.32161 2.9412 8.69654 2.83595 9.00109C2.72282 9.328 2.70769 9.63846 2.70111 9.96472C2.67217 11.3335 2.94185 12.6885 2.86884 14.0633C2.81754 15.0295 2.87345 16.0004 2.8524 16.9686C2.84319 17.3764 2.94646 17.7119 3.21614 17.9625C3.95087 18.0967 4.68625 17.8415 5.41637 18.146C5.49004 18.1079 5.60252 17.9974 5.70513 18.0066C6.31291 18.0612 6.93253 17.8559 7.53636 18.1381C7.71264 18.2204 7.98167 18.1112 8.20662 18.0809C8.3533 18.0612 8.4967 18.0151 8.64404 17.9993C8.96634 17.9651 9.2801 18.0151 9.61227 17.8652C9.86551 17.7507 10.2371 17.8053 10.5272 17.8875C11.0087 18.0243 11.502 18.1006 11.9894 18.1368C12.4604 18.1717 12.9662 18.2782 13.4175 17.9974C14.0233 18.0704 14.6251 17.9296 15.25 18.123C15.7525 18.2789 16.3419 18.1677 16.8924 18.1506C17.3798 18.1348 17.8298 18.0072 18.1336 17.5902C18.1336 17.0818 18.2448 16.5496 18.1021 16.0971C17.9633 15.6564 18.1205 15.1959 17.9508 14.8289C17.7475 14.3882 17.8291 13.9685 17.8311 13.5469C17.8344 12.9135 17.9455 12.282 17.9699 11.6479C17.9962 10.9685 17.9758 10.287 17.9758 9.60623C17.9758 9.10896 17.9633 8.61103 17.981 8.11376C17.9896 7.86907 17.9363 7.63293 18.1047 7.37575C18.2251 7.19289 18.233 6.79691 18.11 6.62392C17.9107 6.34305 17.9929 6.07731 17.9817 5.80829C17.9593 5.28536 17.9745 4.76178 17.9745 4.18163ZM20.789 3.94352C20.4056 4.35725 20.4095 4.85584 20.524 5.27286C20.6147 5.60175 20.6549 5.91484 20.645 6.23781C20.6325 6.63181 20.7516 7.04357 20.5259 7.41718C20.8233 7.4948 20.3733 7.67108 20.5845 7.82763C20.6924 7.90788 20.6582 8.21242 20.6476 8.4137C20.5753 9.83251 20.7884 11.2553 20.5134 12.6754C20.4095 13.2101 20.4339 13.7909 20.6404 14.3395C20.7095 14.523 20.6516 14.7546 20.6516 14.9644C20.6516 15.1479 20.6516 15.3314 20.6516 15.5143C20.6516 15.7241 20.7239 15.9754 20.6318 16.1319C20.5319 16.3023 20.5601 16.472 20.5713 16.5996C20.6068 17.0133 20.4141 17.4975 20.8923 17.8264C21.383 17.9178 21.9434 17.6803 22.4164 18.0191C22.6571 17.7908 22.8755 17.75 23.0932 17.9921C23.1478 17.9434 23.2024 17.8954 23.253 17.8507C23.3175 17.9053 23.3754 17.9546 23.4287 18.0007C23.6003 17.9454 23.7602 17.854 23.9246 17.8467C24.979 17.8014 26.0374 17.9178 27.0898 17.6981C27.4739 17.6178 27.8831 17.7376 28.2863 17.8125C28.8697 17.9211 29.492 17.8842 30.0905 17.8283C30.718 17.7698 31.3002 18.0204 31.9158 18.0007C32.4138 17.9849 32.9143 18.023 33.4109 17.9901C33.9128 17.9572 34.4114 17.8678 34.9356 17.8C35.2974 17.3238 35.2612 17.3205 35.3106 16.8068C35.3362 16.5457 35.2474 16.3089 35.2369 16.0609C35.2231 15.732 35.354 15.4301 35.3066 15.0992C35.2553 14.7394 35.2948 14.3672 35.2948 14.0008C35.2948 13.2411 35.2895 12.4813 35.3 11.7216C35.302 11.5815 35.3685 11.4427 35.3888 11.3638C35.3533 11.1612 35.3027 10.9961 35.2987 10.8297C35.2876 10.3581 35.2501 9.88118 35.3079 9.4168C35.3606 8.99648 35.0475 8.59261 35.2869 8.17888C35.0119 7.67174 35.0955 7.17249 35.2849 6.65812C35.3435 6.49894 35.3599 6.23781 35.2685 6.12862C35.0679 5.88722 35.1527 5.63595 35.1415 5.3906C35.1238 5.00121 35.1369 4.61049 35.1369 4.30068C34.9731 4.10664 34.8561 3.9672 34.7554 3.84748C34.3529 3.84748 33.9845 3.83104 33.6181 3.85209C33.2932 3.87116 32.9834 3.78039 32.6433 3.82446C32.0244 3.90537 31.3863 3.82709 30.7575 3.8534C30.1484 3.87905 29.542 3.9718 28.9329 3.99811C28.4941 4.01719 28.0284 4.05797 27.62 3.9376C27.1773 3.80736 26.7524 3.87971 26.3215 3.8534C25.8769 3.82578 25.4296 3.84748 24.9836 3.84748C24.1437 3.84748 23.3043 3.85735 22.465 3.84222C22.1954 3.83762 21.8961 3.96128 21.656 3.69817C21.6099 3.64818 21.4488 3.67186 21.3541 3.70277C21.1706 3.76329 20.9969 3.85274 20.789 3.94352ZM16.5418 34.2843C16.5603 34.1291 16.5511 34.0206 16.5872 33.9298C16.7425 33.5384 16.9391 33.1332 16.8543 32.7195C16.7852 32.3821 16.7615 32.0321 16.6563 31.7072C16.5524 31.3882 16.3932 31.081 16.2182 30.7936C15.8768 30.2312 15.4532 29.7484 14.8001 29.5241C14.6863 29.4853 14.5791 29.4228 14.4765 29.3596C14.0101 29.0722 13.4668 29.0525 13.0037 29.1985C11.946 29.5313 10.9916 30.0674 10.4634 31.0843C10.3523 32.1058 9.75237 33.0773 10.4101 34.2679C11.1462 34.7829 11.8184 35.7137 12.8432 36.2136C13.0623 35.9623 13.2991 36.4195 13.4793 36.2267C13.7259 35.963 14.0219 36.1465 14.2647 36.0248C14.5343 35.9182 14.804 35.8123 15.148 35.6762C15.567 35.2572 16.0479 34.7777 16.5418 34.2843ZM48.8362 31.6441C48.7132 31.425 48.6179 31.2534 48.5212 31.0836C48.0798 30.3081 47.5773 29.5813 46.6261 29.4077C46.3512 29.3577 46.0578 29.3221 45.7684 29.3031C45.1218 29.2603 44.7055 29.2715 44.2483 29.5767C44.0411 29.7155 43.8484 29.876 43.6438 30.0187C42.7624 30.6337 42.3809 31.3468 42.3809 32.3906C42.3809 32.7563 42.3809 33.1221 42.3809 33.3358C42.548 33.7627 42.6342 34.0706 42.7822 34.3455C43.0663 34.8724 43.5182 35.2677 43.953 35.6637C44.1043 35.8012 44.347 35.8419 44.5515 35.9176C45.1442 36.1379 45.7631 36.0689 46.3749 36.0748C46.5518 36.0768 46.7024 36.007 46.8702 35.9426C47.6569 35.6407 48.1232 35.0539 48.4514 34.3284C48.5304 34.1534 48.5152 33.9377 48.5731 33.7496C48.6442 33.5187 48.7849 33.3049 48.8264 33.0714C48.8711 32.8175 48.8369 32.5492 48.8369 32.2874C48.8362 32.0545 48.8362 31.8203 48.8362 31.6441Z" fill="#28282A"></path>
</symbol></defs><use data-v-1e92d442="" xlink:href="#shuttle--sprite" fill="#28282A"></use></svg>