<svg xmlns:xlink="http://www.w3.org/1999/xlink" xmlns="http://www.w3.org/2000/svg" data-v-1e92d442="" viewBox="0 0 232 65" preserveAspectRatio="none" class="BaseIcon-icon" width="232"  height="65" ><defs><symbol xmlns="http://www.w3.org/2000/svg" viewBox="0 0 232 65" id="button--sprite">
<path d="M88.779 0C88.8821 0 88.9851 0 89.0885 0C89.1615 0.114499 89.2435 0.224736 89.306 0.34378C89.4926 0.698072 89.6717 1.05549 89.8537 1.41177C90.1195 1.09385 90.6214 0.944969 90.6517 0.448051C90.6554 0.387534 90.967 0.267353 90.997 0.296333C91.1131 0.40799 91.2108 0.562549 91.2415 0.713983C91.2653 0.831323 91.1882 0.970255 91.1412 1.0947C90.9163 1.6902 90.9144 1.68964 91.5265 1.70299C92.4557 1.72316 92.4557 1.72316 92.4906 1.08646C92.5033 0.854904 92.5154 0.623066 92.5278 0.391511C92.7462 0.520216 92.9672 0.645795 93.1831 0.778193C93.5622 1.01032 93.7463 0.715972 93.9221 0.518227C94.1492 0.262807 94.3834 0.302583 94.462 0.548343C94.7365 1.40637 95.4144 1.47911 96.2193 1.42598C96.783 1.38904 97.3552 1.45212 97.9177 1.40865C98.4029 1.37114 98.9045 1.59076 99.381 1.2217C99.9132 0.809446 100.354 1.48053 100.91 1.44359C101.418 1.40978 101.498 1.24386 101.472 0.850074C101.458 0.651477 101.312 0.308834 101.707 0.300879C101.975 0.29548 102.286 0.407706 102.504 0.557719C102.676 0.675911 102.729 0.935309 102.846 1.12623C103.072 1.49644 103.272 1.35665 103.51 1.11686C103.596 1.02964 103.836 0.959743 103.929 1.00747C104.393 1.24727 104.495 1.22937 104.37 0.868542C104.279 0.603746 104.437 0.576755 104.522 0.457426C104.704 0.204279 104.843 0.373896 104.955 0.513681C105.192 0.80973 105.509 0.911727 105.886 0.848938C106.619 0.727052 107.17 0.97196 107.6 1.5115C107.768 1.72288 107.97 1.79533 108.239 1.59616C108.489 1.41092 108.699 0.899795 109.072 1.19868C109.828 1.80357 109.314 0.780182 109.638 0.865417C109.716 0.885873 110.973 1.25466 111.047 1.3558C111.121 1.45695 111.163 1.57798 111.219 1.69049C111.266 1.56661 111.311 1.44189 111.361 1.31887C111.425 1.16203 111.493 1.00691 111.56 0.851211C111.731 0.927638 111.909 0.994973 112.072 1.08419C112.157 1.1305 112.281 1.21857 112.278 1.28221C112.26 1.56832 112.356 1.77118 112.688 1.68339C112.798 1.65441 112.895 1.39927 112.895 1.24784C112.895 0.945821 113.01 0.847801 113.338 0.842687C113.765 0.835868 114.114 0.875929 114.415 1.22255C114.767 1.62855 114.66 1.18277 114.778 1.04583C115.008 0.780466 116.017 0.771942 116.292 0.984461C116.294 0.986166 116.249 1.05776 116.214 1.07907C115.977 1.22056 116.057 1.31517 116.213 1.49019C116.479 1.78965 116.598 1.57542 116.772 1.42456C117.095 1.14357 117.385 0.599768 117.868 1.28023C117.902 1.32767 118.05 1.37114 118.076 1.34927C118.783 0.730462 119.33 1.56548 119.975 1.52826C120.148 1.51831 120.332 1.69333 120.508 1.68736C120.658 1.68225 120.925 1.54616 120.93 1.45723C120.962 0.935877 121.005 0.559708 121.676 1.07168C121.803 1.16828 122.14 1.20351 122.248 1.1214C122.877 0.643238 123.203 0.874792 123.427 1.47456C123.458 1.5561 123.526 1.62599 123.577 1.701C123.629 1.6277 123.7 1.56036 123.731 1.48024C124.036 0.688128 124.106 0.639545 124.842 1.17624C125.208 1.44274 125.501 1.56491 125.914 1.28051C126.039 1.19442 126.334 1.14357 126.421 1.21346C126.947 1.6331 127.322 1.41206 127.711 1.03986C128.109 0.659433 128.011 1.05549 128.077 1.23619C128.092 1.27767 128.266 1.29216 128.363 1.2825C128.541 1.26432 128.856 1.16289 128.871 1.19272C129.208 1.91068 129.779 1.35949 130.229 1.41944C130.679 1.47911 131.246 0.933888 131.583 1.64702C131.613 1.71038 131.89 1.74277 132.004 1.69418C132.836 1.33819 133.91 1.71009 134.614 0.958606C134.691 0.876213 134.921 0.818822 135.017 0.863712C135.361 1.02253 135.688 1.39501 136.001 1.37768C136.391 1.3558 136.773 1.20948 137.134 1.42569C137.381 1.57372 137.536 1.76294 137.821 1.42683C138.251 0.921387 139.03 0.601757 139.531 0.896669C140.401 1.40836 141.073 1.74845 141.84 0.857461C141.88 0.811435 142.038 0.854904 142.141 0.850927C142.709 0.82905 143.261 0.805184 143.622 1.34983C143.856 1.70327 144.504 1.90187 144.616 1.63224C144.879 0.995257 145.347 1.18448 145.8 1.12936C146.49 1.04526 147.11 1.75782 147.791 1.32426C148.569 0.827913 149.069 1.24443 149.6 1.66833C149.857 1.21829 150.058 1.70043 150.287 1.70214C151.094 1.70839 151.909 1.81237 152.474 1.04356C152.743 0.677048 153.014 0.706028 153.147 1.23874C153.217 1.51604 153.529 1.76692 153.975 1.7118C154.329 1.66804 154.695 1.70867 155.055 1.70185C155.954 1.68481 156.918 1.88766 157.525 0.965425C157.6 0.852915 158.218 0.850643 158.307 0.970255C158.733 1.549 159.17 1.26233 159.701 1.16061C160.535 1.00094 161.386 1.29727 162.099 1.62372C162.909 1.99421 163.591 1.19215 164.327 1.61065C164.384 1.64304 164.549 1.54303 164.647 1.48223C165.352 1.04498 165.37 1.0214 166.023 1.49814C166.311 1.70839 166.48 1.77231 166.793 1.53309C166.953 1.41035 167.396 1.34756 167.483 1.43933C167.912 1.89193 168.445 1.66748 168.925 1.69163C169.41 1.71606 169.87 1.68935 170.368 1.46916C170.696 1.32398 171.228 1.82203 171.76 1.70782C172.184 1.6169 172.67 1.86465 173.052 1.46433C173.146 1.3666 173.496 1.3504 173.631 1.43223C174.477 1.94733 175.41 1.60866 176.295 1.69163C176.486 1.70952 176.821 1.48081 176.873 1.53621C177.224 1.91181 177.333 1.26744 177.612 1.41632C177.817 1.52599 178.035 1.67827 178.255 1.6902C178.923 1.72629 179.594 1.70327 180.264 1.70327C180.934 1.70327 181.641 1.82715 182.262 1.66861C182.894 1.5078 183.445 1.77402 184.024 1.69361C184.3 1.65526 184.722 1.36972 184.798 1.44302C185.285 1.9067 185.867 1.66605 186.398 1.69276C187.042 1.72515 187.745 1.85414 188.192 1.19783C188.224 1.15038 188.673 1.26971 188.671 1.28562C188.618 1.73509 188.935 1.70725 189.258 1.70555C190.289 1.69986 191.32 1.68481 192.349 1.71293C192.746 1.72373 193.042 1.62344 193.265 1.33762C193.418 1.14129 193.505 1.17738 193.713 1.32284C194.467 1.85045 194.965 1.87545 195.695 1.35978C196.15 1.03901 196.45 1.06884 196.88 1.38933C197.5 1.85101 198.186 1.86607 198.747 1.38961C199.183 1.01969 199.411 1.13419 199.732 1.46405C200.197 1.94051 200.098 1.48166 200.142 1.24471C200.166 1.11657 200.228 0.994689 200.274 0.869962C200.449 0.924797 200.678 0.934457 200.79 1.04413C200.98 1.23079 201.047 1.60184 201.257 1.67486C201.573 1.78425 201.967 1.70327 202.327 1.70327C203.203 1.70327 204.08 1.72174 204.954 1.69532C205.392 1.68225 206.017 1.955 206.094 1.2055C206.27 1.22568 206.519 1.18561 206.609 1.27682C206.894 1.56832 207.099 1.70555 207.549 1.44302C207.869 1.25664 208.77 1.50922 209.193 1.62003C209.517 1.70469 209.995 1.79192 210.2 1.64247C210.535 1.39842 210.852 1.40723 211.193 1.42711C211.58 1.44984 211.882 1.36063 212.12 1.07282C212.344 0.802059 212.62 0.723359 212.858 1.03731C213.132 1.397 213.492 1.44757 213.927 1.42655C214.368 1.40524 214.799 1.3791 215.212 1.67657C215.369 1.78908 215.867 1.87971 215.96 1.29955C216.014 0.966278 216.48 0.570504 216.988 1.10834C217.167 1.29756 217.514 1.34785 217.712 1.52797C217.926 1.72146 217.992 1.60042 218.168 1.49899C218.488 1.31432 218.974 1.52996 219.237 1.09782C219.326 0.951219 219.654 0.908034 219.884 0.856325C220.51 0.714835 220.961 0.975653 221.328 1.41774C221.619 1.76834 221.989 1.85386 222.379 1.58338C223.131 1.06174 223.146 1.05719 223.948 1.26261C224.276 1.34642 224.641 1.45808 224.956 1.40097C225.567 1.28989 226.146 1.03191 226.611 1.68736C226.667 1.76635 227.071 1.63992 227.313 1.60383C227.423 1.58735 227.553 1.51064 227.637 1.54303C228.642 1.9317 229.492 1.79874 230.179 0.976222C230.25 0.890987 230.466 0.834448 230.574 0.869678C230.667 0.899794 230.754 1.08049 230.753 1.19414C230.751 1.5061 230.88 1.85187 230.509 2.09905C230.447 2.14081 230.511 2.34282 230.516 2.47095C230.692 2.46044 230.872 2.46982 231.043 2.43572C231.473 2.34907 231.612 2.46755 231.454 2.90309C231.258 3.44576 231.424 3.78641 232 3.9745C232 5.48826 232 7.00203 232 8.5158C231.29 8.28141 231.424 8.98232 231.115 9.19626C230.874 9.36389 230.521 9.57868 230.509 9.78722C230.497 9.97417 230.891 10.1748 231.091 10.3813C231.4 10.7004 231.697 11.0294 232 11.3541C232 11.7326 232 12.111 232 12.4894C231.81 12.4571 231.563 12.4804 231.444 12.3786C231.28 12.2394 231.251 11.9729 231.093 11.8221C230.983 11.7161 230.756 11.7121 230.581 11.6624C230.538 11.834 230.423 12.0258 230.471 12.1721C230.537 12.3744 230.729 12.5412 230.864 12.7253C231.016 12.9327 231.111 13.6841 231.156 13.9847C231.238 14.5328 231.398 15.0718 231.558 15.6068C231.569 15.6426 231.847 15.6113 232 15.6113C232 16.4628 232 17.3143 232 18.1658C231.897 18.1658 231.793 18.1598 231.691 18.1669C231.186 18.2019 230.897 18.492 231.082 18.8116C231.197 19.0099 231.442 19.144 231.56 19.3417C231.635 19.4682 231.656 19.7 231.577 19.812C231.275 20.2438 231.087 20.9055 231.057 21.5144C231.042 21.8099 230.9 22.1139 230.755 22.3869C230.532 22.8057 230.296 23.1921 230.878 23.5364C230.939 23.5728 230.972 23.7734 230.924 23.822C230.159 24.6124 230.169 25.3602 230.939 26.1648C231.16 26.3961 231.366 26.7836 230.693 26.9972C230.268 27.1319 230.404 27.5544 230.676 27.8922C231.192 28.5318 231.183 28.5533 230.688 29.1517C230.53 29.3426 230.28 29.546 230.549 29.7293C231.247 30.206 231.12 30.5859 230.528 31.0459C230.394 31.1502 230.499 31.4908 230.448 31.7139C230.307 32.3312 230.892 32.9523 230.712 33.4248C230.27 34.5803 230.473 35.7287 230.484 36.8694C230.493 37.7942 229.992 38.8645 231.072 39.6131C230.984 40.4916 231.202 41.3366 231.356 42.1943C231.412 42.5094 230.977 42.9827 231.114 43.1833C231.386 43.5814 231.363 43.9604 231.383 44.3664C231.398 44.6891 231.297 45.1062 231.477 45.3131C231.795 45.6784 231.699 45.8679 231.389 46.1219C231.121 46.3421 230.88 46.5907 230.62 46.82C230.396 47.0175 230.426 47.178 230.604 47.4112C231.251 48.2576 231.242 48.5477 230.661 49.3458C230.602 49.4265 230.551 49.6109 230.585 49.6339C231.055 49.9475 231.08 50.2385 230.59 50.5567C230.554 50.5803 230.591 50.788 230.658 50.8408C231.063 51.1576 231.278 51.4352 230.742 51.85C230.555 51.9946 230.47 52.3304 230.466 52.5804C230.44 54.0456 230.465 55.5117 230.445 56.9771C230.44 57.3314 230.515 57.6121 230.832 57.8266C231.262 58.1176 231.082 58.3747 230.764 58.61C230.389 58.8864 230.371 59.1805 230.56 59.587C230.706 59.9001 230.841 60.3604 230.693 60.6144C230.399 61.1213 230.402 61.4912 230.7 61.996C230.973 62.4572 230.619 62.9436 230.08 63.0069C229.596 63.0637 229.068 62.8771 228.681 63.3479C228.347 63.7556 227.555 63.455 227.285 64.0474C227.261 64.1002 226.923 64.0945 226.786 64.0243C226.66 63.9593 226.54 63.7718 226.54 63.6377C226.539 63.4766 226.776 63.2214 226.722 63.1689C226.415 62.8686 226.386 63.3172 226.195 63.3751C226.015 63.4297 225.849 63.5544 225.668 63.5703C225.311 63.6019 224.948 63.5797 224.587 63.5797C224.02 63.5797 223.453 63.5797 222.887 63.5797C222.268 63.5797 221.65 63.5914 221.032 63.5763C220.478 63.5627 219.925 63.5192 219.372 63.4891C218.83 62.4765 218.46 63.7212 217.99 63.5769C217.765 63.5078 217.486 63.4592 217.345 63.3109C216.942 62.8867 216.845 63.0743 216.764 63.4854C216.76 63.5075 216.411 63.5198 216.267 63.4544C216.183 63.4158 216.187 63.1038 216.149 63.1032C215.561 63.0967 214.849 62.9393 214.418 63.1868C213.935 63.4632 213.727 63.5286 213.385 63.1308C213.362 63.1044 213.086 63.2194 212.969 63.3121C212.738 63.4939 212.524 63.7698 212.223 63.4479C211.849 63.0464 211.504 62.8967 210.983 63.2785C210.826 63.3939 210.379 63.3965 210.244 63.2785C209.754 62.8507 209.185 63.0214 208.654 63.0206C201.131 63.0092 193.608 63.0112 186.085 63.0157C185.443 63.016 184.756 62.8575 184.274 63.4862C184.178 63.6101 183.805 63.5607 183.559 63.5791C182.67 63.6459 181.776 63.4541 180.888 63.8311C180.499 63.9962 179.889 63.9993 179.501 63.5342C179.325 63.3234 179.051 63.0558 178.814 63.0493C178.584 63.043 178.352 63.3499 178.106 63.4967C177.906 63.6155 177.632 63.6576 177.481 63.8093C177.027 64.2667 176.551 64.2576 175.992 64.0019C175.783 63.9059 175.432 63.9826 175.299 63.8505C174.834 63.3922 174.526 63.601 174.188 63.9633C174.131 64.0238 173.91 64.0559 173.877 64.0184C173.412 63.4859 172.496 64.5167 172.138 63.5965C172.12 63.549 171.85 63.5811 171.697 63.5808C171.233 63.5794 170.769 63.5803 170.306 63.5803C169.842 63.5803 169.334 63.4703 168.926 63.609C168.449 63.7706 167.872 64.0712 167.527 63.8255C166.86 63.3504 166.871 64.2147 166.491 64.1417C166.213 64.088 165.919 64.0195 165.684 63.8834C164.987 63.4811 164.72 63.4536 164.099 63.8763C163.905 64.009 163.838 64.1596 163.526 63.9525C163.295 63.7996 162.792 63.8025 162.529 63.9343C162.258 64.0701 162.187 64.0647 161.956 63.9005C161.333 63.4572 160.376 63.6428 159.924 64.2406C159.728 64.4997 159.514 64.7468 159.307 64.9994C159.204 64.9994 159.101 64.9994 158.998 64.9994C158.856 64.5073 158.461 64.4335 157.973 64.4204C157.548 64.4093 157.036 64.6187 156.719 64.1783C156.403 63.7391 156.193 63.9917 155.959 64.238C155.826 64.3775 155.654 64.5551 155.602 64.2031C155.539 63.7865 155.317 63.7473 155.016 63.9809C154.713 64.2164 154.482 64.4863 153.996 64.4636C153.818 64.4554 153.619 64.8102 153.43 64.9994C153.121 64.9994 152.811 64.9994 152.502 64.9994C152.291 64.6642 152.106 64.3124 151.861 63.9993C151.689 63.7777 151.363 63.7757 151.289 64.0363C151.216 64.2934 151.19 64.45 150.857 64.4357C150.455 64.4187 150.052 64.4448 149.65 64.4284C149.187 64.409 148.911 64.5988 148.79 64.9994C147.759 64.9994 146.727 64.9994 145.696 64.9994C145.634 64.6073 145.731 64.3741 146.251 64.4247C146.776 64.4758 146.631 64.0823 146.614 63.8422C146.589 63.4942 146.338 63.5422 146.079 63.6533C145.26 64.005 145.259 64.0028 144.214 63.865C144.164 63.8584 144.09 63.8436 144.063 63.8672C143.465 64.398 143.036 64.1028 142.526 63.6959C142.315 63.5269 141.85 63.5726 141.517 63.6189C141.434 63.6303 141.433 64.0292 141.361 64.24C141.277 64.4826 140.974 64.5096 140.766 64.3079C140.405 63.9567 139.596 63.5899 139.113 63.5831C138.392 63.5732 137.67 63.5723 136.949 63.5837C136.535 63.5902 136.131 63.6112 135.872 63.226C135.749 63.0436 135.591 62.9666 135.438 63.2027C135.189 63.5885 134.793 63.5683 134.372 63.5925C133.709 63.6303 133.066 63.5689 132.521 63.2405C132.258 63.0816 132.167 63.0552 131.956 63.2635C131.482 63.7331 131.455 63.697 130.504 63.5837C130.01 63.5249 129.405 63.6485 129.037 63.4277C128.298 62.9845 127.534 63.0157 126.744 63.0135C125.868 63.0109 124.992 63.0086 124.117 63.0152C123.815 63.0174 123.43 62.9456 123.23 63.0851C122.773 63.4021 122.459 63.3663 122.033 63.0453C121.831 62.893 121.601 63.0297 121.552 63.3555C121.503 63.6783 121.057 63.6732 121.028 63.4749C120.941 62.889 120.522 63.0183 120.149 63.0152C119.274 63.0081 118.398 63.0129 117.523 63.0129C116.699 63.0129 115.875 63.0129 115.05 63.0129C114.175 63.0129 113.299 63.0115 112.423 63.0132C111.601 63.0149 110.779 63.02 109.956 63.0237C109.243 64.0653 108.558 62.5972 107.829 63.0007C107.636 63.1072 107.216 62.9808 107.121 63.1044C106.593 63.7871 105.839 63.5419 105.157 63.5766C104.696 63.6002 104.159 63.4487 103.786 63.6181C102.956 63.9951 102.326 63.9837 101.636 63.3601C101.363 63.1126 100.822 62.9552 100.461 63.4808C100.352 63.6405 100 63.6468 99.8501 63.7988C99.4017 64.2528 98.9227 64.2525 98.363 64.0127C98.1495 63.9212 97.8137 63.9837 97.6726 63.8513C97.219 63.4254 96.8994 63.5601 96.5581 63.9522C96.5012 64.0175 96.2746 64.0627 96.2483 64.0312C95.7885 63.4808 94.8674 64.5295 94.51 63.6098C94.4902 63.559 94.225 63.5828 94.074 63.582C93.6105 63.5791 93.1469 63.5808 92.6834 63.5808C92.2199 63.5808 91.7254 63.4874 91.3012 63.6058C90.8278 63.738 90.2488 64.0965 89.9057 63.8323C89.2255 63.3087 89.2438 64.2028 88.8709 64.1417C88.5915 64.0959 88.2938 64.0329 88.0571 63.8985C87.3479 63.4959 87.0187 63.4246 86.4862 63.8732C86.1727 64.1374 86.0681 64.007 85.7896 63.8885C85.5418 63.7831 85.1432 63.7965 84.8991 63.913C84.6627 64.0258 84.5559 64.1661 84.3341 63.9107C83.9479 63.4669 83.5948 63.547 83.0434 63.8181C82.4333 64.1178 82.0199 64.5039 81.664 65C81.561 65 81.4579 65 81.3546 65C81.2122 64.5079 80.818 64.434 80.3301 64.421C79.9046 64.4099 79.3925 64.6193 79.0759 64.1789C78.76 63.7397 78.5499 63.9925 78.3157 64.2386C78.1829 64.3781 78.0106 64.5556 77.9583 64.2036C77.8961 63.7871 77.6736 63.7479 77.3728 63.9814C77.0693 64.217 76.8388 64.4869 76.3527 64.4642C76.1744 64.4559 75.9761 64.8108 75.7867 65C75.4773 65 75.1682 65 74.8587 65C74.648 64.6647 74.4623 64.313 74.2182 63.9999C74.0455 63.7783 73.72 63.7763 73.6461 64.0368C73.5731 64.294 73.5467 64.4505 73.2138 64.4363C72.8125 64.4193 72.4087 64.4454 72.007 64.4289C71.5444 64.4096 71.2678 64.5994 71.1468 65C70.1158 65 69.0845 65 68.0534 65C67.9903 64.6068 68.0893 64.3752 68.6089 64.4252C69.1346 64.4758 68.9888 64.0803 68.9703 63.8411C68.9434 63.4942 68.6933 63.5431 68.4337 63.6556C67.6311 64.003 67.6298 64.0002 66.566 63.8655C66.5156 63.859 66.441 63.8442 66.4147 63.8678C65.8126 64.4085 65.3874 64.0922 64.8784 63.6919C64.6658 63.5246 64.201 63.5743 63.8687 63.6246C63.7849 63.6374 63.8164 64.0553 63.7041 64.2406C63.6413 64.344 63.2607 64.4187 63.2446 64.3926C62.6901 63.4851 61.7442 63.5851 60.8391 63.5814C60.2205 63.5788 59.6014 63.5936 58.9834 63.5729C58.8083 63.5669 58.6041 63.5016 58.4695 63.4004C57.8045 62.901 57.7272 62.887 57.0736 63.2956C56.4229 63.7024 55.8044 63.726 55.192 63.2516C54.8414 62.9799 54.6452 62.9544 54.3157 63.2564C53.8194 63.7115 53.7965 63.6837 52.8673 63.5834C52.3712 63.53 51.7623 63.653 51.3978 63.4303C50.6589 62.9788 49.893 63.0183 49.1027 63.0143C48.2264 63.0101 47.3498 63.0089 46.4735 63.0157C46.1721 63.018 45.7875 62.9473 45.5861 63.0865C45.1281 63.4033 44.8134 63.3626 44.3883 63.0439C44.185 62.8916 43.96 63.0351 43.9087 63.3592C43.8579 63.6789 43.4207 63.6763 43.3826 63.4712C43.2972 63.012 43.0367 63.0078 42.6558 63.0086C39.408 63.0166 36.1599 63.0169 32.9122 63.0081C32.5396 63.0069 32.2005 63.0132 31.9746 63.3351C31.7877 63.6019 31.6107 63.5564 31.4266 63.326C31.2335 63.0845 30.99 62.9933 30.6406 63.0027C29.5589 63.0316 28.4731 62.9711 27.3938 63.0251C26.3006 63.0797 25.1668 62.7532 24.1135 63.2888C23.9969 63.3481 23.7329 63.3516 23.6701 63.2811C23.2607 62.8228 22.7171 63.0524 22.2353 63.0217C21.6709 62.9856 21.1019 63.0132 20.5347 63.0132C19.9675 63.0132 19.4006 63.0132 18.8334 63.0132C18.2149 63.0132 17.5038 62.837 17.0016 63.0592C16.4165 63.318 16.0176 62.9771 15.5318 62.9856C12.4397 63.0402 9.34601 63.012 6.25264 63.0152C5.91939 63.0154 5.52424 62.8978 5.5227 63.455C5.52208 63.6226 5.16623 63.7752 5.00935 63.9604C4.82958 64.1727 4.70735 64.1192 4.56594 63.9391C4.33913 63.6507 4.03929 63.5487 3.64508 63.5729C3.13174 63.6044 2.61468 63.582 2.09917 63.5803C0.833293 63.576 0.664345 63.355 1.03968 62.2012C1.10807 61.9904 1.21946 61.7804 1.2306 61.5667C1.33302 59.6191 1.11549 57.6718 1.49238 55.7154C1.66504 54.8181 1.88628 53.7678 1.24545 52.8575C1.2077 52.804 1.24329 52.6495 1.30146 52.606C1.69351 52.3128 1.49795 52.1151 1.28537 51.7957C1.13901 51.5755 1.17676 51.0741 1.36056 50.8846C1.73776 50.4956 0.942832 50.3777 1.22503 50.0581C1.27423 50.0024 1.18233 49.7947 1.10033 49.6961C0.295505 48.7312 0.292411 48.7145 0.804207 47.9354C0.875995 47.8263 0.941594 47.5814 0.921172 47.5729C0.276011 47.295 0.85712 46.8961 0.796781 46.5671C0.723137 46.166 0.689099 45.7583 0.616074 45.3571C0.549856 44.9931 0.220933 45.1744 0.000928289 45.1315C0.000928289 44.9423 0.000928289 44.7531 0.000928289 44.5638C0.207008 44.3868 0.569041 44.2212 0.586059 44.03C0.617931 43.6694 0.766147 43.4387 1.01679 43.187C1.2337 42.9694 1.52023 42.6549 1.48774 42.4159C1.42461 41.952 1.26649 41.4286 0.948711 41.0837C0.615146 40.7215 0.745416 40.5999 1.01864 40.3544C1.35406 40.0532 1.38253 39.681 1.00843 39.4012C0.588225 39.0867 0.488898 38.7898 0.871044 38.4085C0.293958 37.8141 0.816584 37.6496 1.30455 37.4661C1.39212 37.4331 1.53044 37.3788 1.53755 37.3229C1.61398 36.7188 1.81202 36.0864 1.68701 35.515C1.57561 35.0065 1.51837 34.5686 1.66968 34.0677C1.74209 33.8282 1.64214 33.5157 1.53601 33.2665C1.38532 32.9134 1.9655 32.6577 1.65669 32.3247C1.35221 31.9963 1.83801 31.8212 1.80769 31.6428C1.75973 31.3621 1.44565 31.1277 1.31972 30.8456C1.28382 30.7652 1.48959 30.5677 1.61832 30.4572C1.87978 30.2328 1.91196 30.1282 1.49454 30.0702C1.38965 30.0557 1.2405 29.6941 1.24948 29.6887C1.79624 29.3671 0.823082 28.7349 1.54003 28.4519C1.54436 28.4502 1.4537 28.1226 1.38934 28.1169C0.459193 28.0351 0.626904 27.4027 0.620406 26.8614C0.613599 26.2949 0.630927 25.7281 0.614836 25.1621C0.603697 24.7769 0.673628 24.4786 1.00224 24.164C1.4011 23.7825 1.6474 23.2608 1.54498 22.6827C1.48402 22.3389 1.20739 22.3352 1.00998 22.5113C0.663726 22.8202 0.612051 22.642 0.627523 22.3531C0.636496 22.1829 0.736751 22.0184 0.781309 21.8482C0.837935 21.6323 0.820916 21.3777 0.944379 21.2053C1.08146 21.0141 1.49578 20.9146 1.51868 20.7441C1.59418 20.1864 1.56633 19.6134 1.53044 19.0488C1.52332 18.9383 1.30517 18.7531 1.17955 18.7499C0.590082 18.7343 0.510868 18.6619 0.785951 18.0962C1.0304 17.5942 1.6276 16.879 0.674556 16.346C0.627832 16.3199 0.690956 15.9744 0.802969 15.8917C1.19625 15.6011 1.30951 15.3684 0.812871 15.0735C0.523245 14.9016 0.269822 14.6783 0 14.478C0 13.3426 0 12.2073 0 11.072C0.309739 10.9169 0.916221 10.8771 0.322735 10.3691C0.295815 10.3461 0.289935 10.2648 0.312524 10.237C0.742012 9.70994 0.601531 9.10051 0.623191 8.51324C0.626285 8.43199 0.690956 8.28396 0.730872 8.28283C1.53601 8.26123 1.18078 7.70749 1.23122 7.35746C1.29651 6.90458 1.20894 6.40255 1.39646 6.0045C1.54869 5.68089 1.5719 5.50986 1.29496 5.30842C0.78626 4.93793 0.489827 4.49244 0.611123 3.86596C0.634949 3.74351 0.572445 3.60287 0.534075 3.47474C0.329852 2.79144 0.334803 2.75308 1.03319 2.56386C1.26093 2.50221 1.58706 2.6042 1.54158 2.23912C1.48743 1.80612 1.66813 1.68452 2.13352 1.6868C2.50669 1.6885 3.1206 1.99392 3.14937 1.24301C3.15092 1.20295 3.4981 1.10578 3.53245 1.14555C3.93285 1.61122 4.48054 1.38648 4.96046 1.41035C5.56385 1.44047 6.14898 1.34557 6.60601 1.90784C6.85201 2.21042 7.13452 1.83454 7.30934 1.63764C7.34833 1.59361 7.193 1.35665 7.07696 1.2592C6.98166 1.17908 6.78393 1.20465 6.68275 1.12709C6.58621 1.05322 6.49678 0.89809 6.51442 0.794672C6.52927 0.707448 6.69358 0.593802 6.80683 0.576755C7.30872 0.500612 7.87405 0.29889 8.3088 0.433845C9.02234 0.655455 9.71082 0.498339 10.4046 0.561981C10.8232 0.600337 11.0253 0.334404 11.1364 0.000568228C11.2394 0.000568228 11.3424 0.000568228 11.4458 0.000568228C11.5188 0.114783 11.6002 0.22502 11.6627 0.34378C11.8493 0.698072 12.0285 1.05549 12.2104 1.41177C12.4777 1.09527 12.9772 0.945537 13.009 0.449755C13.0131 0.388386 13.3234 0.268205 13.3534 0.297185C13.4698 0.408558 13.6127 0.580164 13.5923 0.708869C13.5595 0.915421 13.3534 1.09896 13.3216 1.30523C13.3033 1.42484 13.4623 1.66407 13.5775 1.68537C13.8745 1.74021 14.1979 1.73652 14.4977 1.68878C14.6304 1.66748 14.8105 1.49473 14.8328 1.37029C14.8907 1.05094 14.8721 0.719949 14.8842 0.393784C15.1429 0.546639 15.3851 0.772227 15.6664 0.825924C15.8425 0.859734 16.1247 0.673638 16.2751 0.517659C16.5093 0.275024 16.738 0.298606 16.8178 0.548059C17.0926 1.40438 17.7677 1.4811 18.5741 1.42711C19.1379 1.38933 19.7097 1.45297 20.2726 1.40978C20.7581 1.37256 21.2612 1.59275 21.7359 1.22369C22.2715 0.806889 22.7087 1.4828 23.2645 1.44444C23.7676 1.41007 23.8573 1.25039 23.8289 0.853768C23.8146 0.654887 23.6701 0.312811 24.0612 0.302299C24.3286 0.295196 24.6408 0.407422 24.8593 0.556867C25.0313 0.674775 25.0842 0.934172 25.2009 1.1251C25.4243 1.49076 25.6254 1.36688 25.8649 1.1197C25.9506 1.03134 26.2223 0.960595 26.2764 1.00833C26.3841 1.10351 26.1468 1.55497 26.6184 1.25949C26.8446 1.11771 26.8789 1.00918 26.6926 0.739837C26.5602 0.548343 27.081 0.301447 27.3028 0.518511C27.5723 0.782739 27.8604 0.91258 28.2398 0.84979C28.9706 0.729041 29.5248 0.967698 29.9543 1.50951C30.1211 1.72004 30.3219 1.7993 30.5927 1.59929C30.8436 1.41376 31.0577 0.901215 31.4257 1.19726C32.172 1.79788 31.6828 0.79524 31.991 0.873088C32.1256 0.907182 32.3023 0.869394 32.4016 0.93673C32.6067 1.07509 32.7658 1.26915 32.9561 1.42825C33.4623 1.85073 33.5013 1.83539 33.7176 1.15777C33.8318 0.80007 34.0604 0.733587 34.3331 0.999519C34.4627 1.12623 34.5224 1.31318 34.6518 1.44047C34.7647 1.55184 34.9306 1.61776 35.0732 1.70384C35.137 1.59275 35.2666 1.47428 35.253 1.37199C35.192 0.910875 35.4346 0.851495 35.8709 0.835016C36.2933 0.819106 36.53 0.996962 36.7831 1.2396C36.8441 1.29784 36.9945 1.27767 37.1037 1.29329C37.2466 0.39833 37.9936 1.02594 38.4274 0.861439C38.4782 0.842119 38.5852 0.947526 38.666 0.995257C38.5843 1.04214 38.4955 1.13732 38.4219 1.12822C38.027 1.08049 37.7263 1.20863 37.5084 1.50042C37.4824 1.53508 37.5542 1.68878 37.5762 1.68793C38.0252 1.67117 38.4868 1.6885 38.9169 1.59076C39.1311 1.54218 39.317 1.2967 39.4625 1.10606C39.771 0.702334 40.0377 1.00264 40.1017 1.20209C40.2413 1.6385 40.5907 1.91664 40.9205 1.67003C41.2531 1.42115 41.5468 1.75555 41.7133 1.58281C42.1626 1.11629 42.3974 1.73623 42.757 1.71322C43.0905 1.69191 43.3678 1.7118 43.3223 1.27426C43.3084 1.14158 43.4724 0.993269 43.5547 0.852347C43.9464 1.39302 44.9582 0.708017 45.2293 1.58934C45.3054 1.83709 45.9688 1.73566 46.0914 1.48962C46.4809 0.707448 46.5026 0.681594 47.1936 1.17255C47.5587 1.43223 47.8492 1.56605 48.2651 1.28648C48.3938 1.2001 48.6893 1.14072 48.7726 1.20891C49.2946 1.63594 49.6826 1.4328 50.0598 1.04356C50.2052 0.89326 50.2606 0.800638 50.4407 1.08078C50.8532 1.72203 51.274 1.92971 51.8384 1.62599C52.2481 1.40552 52.7327 1.30352 52.9647 1.45126C53.6894 1.91238 54.4531 1.58196 55.1775 1.70725C55.6107 1.78226 56.0296 1.01145 56.4635 1.69532C56.7775 1.15834 57.4351 1.62287 57.8308 1.29784C58.1449 1.03958 58.631 1.79163 58.9021 1.1609C58.9748 1.21147 59.0667 1.24926 59.1177 1.31432C59.5274 1.83681 59.9124 1.77317 60.3131 1.30011C60.3567 1.24869 60.5665 1.23988 60.6244 1.28761C60.8632 1.48422 61.0811 1.48081 61.2655 1.2575C61.665 0.773363 62.0428 0.732166 62.4599 1.24187C62.5363 1.33534 62.7062 1.40438 62.8383 1.41319C63.6772 1.46888 64.5352 1.28562 65.35 1.6814C65.5174 1.76265 65.962 1.41802 66.0892 1.50439C66.549 1.81664 66.9045 1.79874 67.2737 1.42711C67.7186 1.96835 68.0222 1.60184 68.3551 1.29983C68.4127 1.24755 68.6311 1.24215 68.6661 1.28676C69.2831 2.07887 70.0533 1.69816 70.6533 1.3862C71.097 1.1555 71.2746 1.118 71.6561 1.43336C72.1586 1.84846 73.828 1.85187 74.3395 1.44672C74.7077 1.15493 74.8931 1.06657 75.3399 1.38734C75.7406 1.67515 76.3121 1.78908 76.8877 1.71435C77.2918 1.66179 77.711 1.69077 78.1223 1.70754C78.6978 1.73083 79.2195 1.71748 79.6035 1.20124C79.9439 0.743531 80.3811 0.666535 80.8787 1.10066C81.0482 1.24869 81.4223 1.37825 81.6018 1.30551C82.2485 1.04327 82.7792 1.15749 83.4256 1.37398C83.8473 1.51519 84.3727 1.5203 84.8261 1.70072C84.8582 1.7135 84.9471 1.68367 84.9536 1.66037C84.9712 1.59787 84.9873 1.48848 84.9532 1.46774C84.7543 1.34614 84.5256 1.26233 84.3381 1.12936C84.2397 1.05947 84.1441 0.90775 84.1583 0.806036C84.1707 0.717392 84.3291 0.594938 84.4399 0.577607C84.9436 0.498907 85.5142 0.291787 85.9468 0.430435C86.6622 0.659433 87.3516 0.49635 88.046 0.562549C88.4653 0.601473 88.6673 0.33412 88.779 0Z"></path>
</symbol></defs><use data-v-1e92d442="" xlink:href="#button--sprite" fill="#D4CEBD"></use></svg>