<svg xmlns:xlink="http://www.w3.org/1999/xlink" xmlns="http://www.w3.org/2000/svg" data-v-1e92d442="" viewBox="0 0 61 61" preserveAspectRatio="xMidYMid" class="BaseIcon-icon" width="61"  height="61" ><defs><symbol xmlns="http://www.w3.org/2000/svg" viewBox="0 0 61 61" fill="none" id="accomodation--sprite">
<path d="M26.5457 60.9995C26.5433 60.7281 26.3397 60.8071 26.2006 60.8054C25.3671 60.7997 24.5327 60.817 23.7001 60.7972C23.2415 60.7865 22.7732 60.9058 22.3267 60.6229C22.1642 60.5201 21.8512 60.5291 21.6694 60.6196C20.8439 61.0308 19.9815 60.6911 19.1448 60.7939C19.0844 60.8013 19.008 60.6747 19.012 60.678C18.3796 60.9017 17.7754 60.7783 17.1897 60.798C16.5815 60.8186 15.9709 60.7816 15.3626 60.8087C14.7657 60.8351 14.1953 60.7076 13.612 60.6262C12.9828 60.5382 12.3319 60.6064 11.6907 60.6064C11.0817 60.6064 10.4719 60.622 9.86362 60.6015C9.32056 60.5834 8.80485 60.7536 8.27466 60.7923C7.66885 60.8367 7.05659 60.803 6.48055 60.803C5.56337 60.3523 5.16915 59.6121 5.17559 58.612C5.178 58.2411 4.89159 57.9113 4.98733 57.5133C5.05893 57.2147 5.12249 56.9137 5.17961 56.6119C5.2311 56.3397 5.2319 56.0732 5.3196 55.7895C5.46602 55.3125 5.47407 54.7261 5.33649 54.2466C5.248 53.9366 5.27294 53.6166 5.16754 53.3395C4.96641 52.8123 5.15226 52.2712 5.02192 51.7333C4.93905 51.3912 5.18363 50.9701 5.2657 50.5811C5.31719 50.3376 5.43948 50.0399 5.35419 49.8491C5.15869 49.4173 5.17237 48.9839 5.18846 48.5448C5.20133 48.2034 4.73953 47.9214 5.15547 47.5027C5.34937 47.3078 5.06295 46.8366 5.35661 46.5109C5.46844 46.3867 5.45959 46.0158 5.35902 45.8497C5.06376 45.3611 5.19329 44.8463 5.1949 44.3479C5.1965 43.8882 5.03399 43.3956 5.34534 42.9671C5.06858 42.8478 5.53119 42.5082 5.18363 42.4111C5.53441 42.2014 5.12892 42.0048 5.16915 41.7869C5.21581 41.5336 5.16111 41.263 5.18444 41.0031C5.21984 40.601 5.11686 40.2037 5.34374 39.7892C5.48292 39.5351 5.34374 39.1436 5.20375 38.7957C4.93664 38.1312 4.8232 37.3984 5.18524 36.7109C5.40568 36.2915 5.36787 35.8539 5.37189 35.4131C5.37511 35.0537 5.3727 34.6943 5.26489 34.4377C5.12168 34.2264 4.97767 34.015 4.824 33.7888C3.79098 34.6532 2.80703 35.4773 1.72654 36.3803C1.55195 36.3803 1.23818 36.3803 0.732129 36.3803C0.674202 36.3046 0.510881 36.1097 0.371696 35.8983C0.254234 35.7199 0.165735 35.5225 0 35.2133C0 34.9065 0 34.4525 0 33.8242C0.0450541 33.7913 0.256647 33.7132 0.345146 33.5602C0.65248 33.033 0.890623 32.4919 1.48598 32.1736C1.81021 32.0001 1.93974 31.4663 2.25914 31.2574C2.96552 30.796 3.46997 30.1323 4.06935 29.5665C4.2029 29.4407 4.34852 29.2885 4.40082 29.1199C4.65827 28.2926 5.27133 27.7522 5.84094 27.1724C6.34056 26.6633 6.84017 26.1543 7.33738 25.6427C7.83941 25.1271 8.3881 24.6476 8.64716 23.9362C8.66728 23.8803 8.7236 23.8367 8.76624 23.7898C9.83144 22.6343 10.8387 21.4138 11.9868 20.3521C12.5934 19.7912 13.155 19.2985 13.2644 18.435C13.653 18.1924 13.6844 17.6775 14.1671 17.4308C15.0247 16.9916 15.674 16.2408 16.1535 15.3665C16.2275 15.2317 16.3128 15.0968 16.419 14.9882C17.1479 14.2447 17.7642 13.4092 18.4022 12.5876C18.7039 12.1986 19.1078 11.8301 19.5438 11.6261C20.1915 11.3219 20.4296 10.6795 20.8705 10.2132C21.2462 9.81517 21.4932 9.29376 21.8408 8.86363C22.3396 8.24599 22.8786 7.66289 23.3992 7.06252C23.8771 6.5115 24.3268 5.93333 24.8344 5.41356C25.3196 4.91682 25.9334 4.53932 26.3663 4.00475C27.5248 2.57538 28.8579 1.32611 30.0824 0.0307965C30.5957 -0.0909222 30.9441 0.187879 31.3142 0.402532C31.6151 0.576886 31.9908 0.917369 32.1622 1.12133C32.6529 1.70443 33.1292 2.30233 33.6618 2.84349C34.4784 3.67413 35.2226 4.54344 35.8067 5.57393C36.0859 6.06656 36.5372 6.50245 37.0015 6.82731C37.551 7.21138 37.9693 7.66207 38.3603 8.20816C38.6604 8.62677 39.082 8.9763 39.5293 9.29869C40.2333 9.80613 40.7699 10.5315 41.1851 11.3293C41.5777 12.0842 42.1859 12.6863 42.8376 13.1616C43.3629 13.5449 43.7338 13.9898 44.0653 14.517C44.1972 14.7267 44.3324 14.9446 44.5078 15.114C44.9471 15.5384 45.3823 15.962 45.7991 16.4135C46.4628 17.1331 47.1418 17.8305 47.6173 18.6998C47.9094 19.2336 48.3551 19.579 48.8129 19.9622C49.6126 20.6333 50.3833 21.3793 50.9312 22.2955C51.3665 23.0225 51.8226 23.6763 52.5435 24.1698C53.0126 24.4905 53.3118 25.0703 53.686 25.535C54.0617 26.0013 54.2258 26.6584 54.8614 26.8887C55.859 27.9085 56.9829 28.8321 57.8148 29.9777C58.5035 30.9251 59.3233 31.7821 59.897 32.8184C59.9428 32.9006 60.0249 33.0133 60.0989 33.0199C60.6098 33.0684 60.6717 33.6087 61 33.8521C61 34.3111 61 34.77 61 35.2297C60.6806 35.2659 60.8592 35.525 60.7981 35.664C60.5977 36.1755 60.119 36.2158 59.7031 36.363C59.658 36.317 59.609 36.2273 59.5679 36.2306C58.9066 36.2873 58.452 35.9271 58.0498 35.4592C57.5799 34.9123 57.1133 34.3612 56.6917 33.8661C56.1688 33.7855 56.0247 34.154 55.8936 34.2782C55.7794 34.8152 55.6474 35.2059 55.6225 35.6031C55.5871 36.1697 55.534 36.752 55.8035 37.2907C55.6619 38.4553 56.0537 39.5894 55.9942 40.7482C55.9234 42.1298 56.0762 43.5082 55.8389 44.9006C55.6603 45.95 55.7472 47.0611 55.8196 48.1377C55.8912 49.2101 55.5814 50.2431 55.6176 51.3015C55.641 51.9973 55.5082 52.6972 55.7834 53.3921C55.9065 53.7013 55.9073 54.1512 55.7769 54.453C55.6225 54.8108 55.8083 55.0797 55.8172 55.3832C55.8381 56.0782 55.7786 56.8389 56.0344 57.4483C56.3602 58.223 55.9612 58.7576 55.7544 59.3637C55.604 59.8078 55.291 60.1549 54.8284 60.335C54.579 60.4321 53.332 60.803 53.0962 60.8071C52.2828 60.8227 51.4735 60.6673 50.6746 60.6451C48.7799 60.5941 46.8876 60.9189 44.9841 60.8112C44.935 60.8087 44.8779 60.8671 44.8344 60.9082C44.8183 60.9231 44.832 60.9708 44.832 61.0037C38.736 60.9995 32.6409 60.9995 26.5457 60.9995ZM8.85956 57.0568C9.35918 57.0889 9.788 57.0083 10.2056 57.2476C10.4566 57.3916 10.7832 57.4228 11.0809 57.4508C11.4309 57.4837 11.7873 57.4787 12.1381 57.4541C12.8501 57.4047 13.5733 57.5931 14.2789 57.2789C14.5211 57.1703 14.8518 57.2361 15.1366 57.269C15.4342 57.3027 15.7231 57.4097 16.0199 57.4557C16.9677 57.6021 17.8921 57.3324 18.8238 57.2394C19.4296 57.1794 20.0708 56.8537 20.1673 56.1711C20.2872 55.324 20.5994 54.4892 20.2325 53.5689C20.0265 53.0541 20.0016 52.4101 19.9742 51.7991C19.9155 50.4997 20.2084 49.2364 20.2261 47.9468C20.2333 47.4378 20.4216 46.8489 20.856 46.4583C21.1642 46.1811 21.3661 45.839 21.5463 45.4705C21.6276 45.3052 21.7426 45.1449 21.8778 45.0231C22.202 44.7303 22.5166 44.408 22.8899 44.1991C23.3131 43.9622 23.4587 43.4992 23.8135 43.2113C24.0444 43.0238 24.1884 42.7236 24.3662 42.4695C24.507 42.268 24.6124 42.0336 24.7797 41.8609C26.2464 40.3468 27.7203 38.841 29.2015 37.3417C29.3479 37.1937 29.5788 37.1328 29.7244 36.9848C30.0824 36.6204 30.5451 36.7471 30.8966 36.8326C31.3777 36.9494 31.9369 36.9362 32.3279 37.3137C32.5467 37.5243 32.6883 37.8162 32.8806 38.058C33.2137 38.4775 33.6023 38.8574 33.8847 39.3089C34.0866 39.6321 34.2974 39.8665 34.6233 40.073C34.9949 40.3082 35.3892 40.6454 35.5654 41.0368C36.0328 42.0772 36.8076 42.838 37.5566 43.6365C37.921 44.0255 38.3016 44.4228 38.5631 44.8825C38.7908 45.2838 39.0715 45.6194 39.4094 45.8875C39.6444 46.0742 39.8358 46.2831 39.9935 46.5199C40.4763 47.2461 40.9332 47.9913 40.7908 48.9354C40.7345 49.3055 40.9389 49.7151 40.6323 50.0481C40.8954 50.3771 40.8045 50.7702 40.7836 51.1321C40.7216 52.2193 40.9654 53.3206 40.6122 54.3988C40.5181 54.6866 40.8423 54.9514 40.8053 55.2977C40.753 55.7837 40.7924 56.2796 40.7924 56.7715C40.9509 56.9335 41.1102 57.0963 41.3154 57.306C42.408 57.1087 43.5238 57.4631 44.6494 57.445C47.1225 57.4055 49.6045 57.6663 52.0069 57.2501C52.2088 57.07 52.3778 56.9195 52.554 56.7624C52.6119 56.2936 52.6674 55.8281 52.7269 55.3635C52.805 54.7516 52.5853 54.1718 52.5467 53.5755C52.496 52.7926 52.5274 52.003 52.5387 51.2168C52.5419 50.9717 52.4783 50.7283 52.6835 50.4848C52.7961 50.3508 52.8066 49.9897 52.7076 49.8368C52.5459 49.5876 52.706 49.331 52.5612 49.0695C52.4108 48.7981 52.5355 48.4214 52.3746 48.0694C52.2297 47.7511 52.2273 47.228 52.3939 46.9312C52.6401 46.492 52.4019 45.9977 52.7036 45.575C52.8331 45.3932 52.7985 44.9442 52.6618 44.7427C52.4413 44.4187 52.5974 44.1111 52.5347 43.8068C52.4727 43.5058 52.4019 43.2064 52.3456 42.9046C52.3279 42.81 52.3013 42.6603 52.3496 42.6175C52.7092 42.2935 52.4663 41.8765 52.5339 41.5114C52.6071 41.1142 52.6988 40.7161 52.7205 40.3148C52.7519 39.7267 52.7736 39.1305 52.7157 38.5465C52.6618 38.0013 52.4985 37.4683 52.3786 36.905C52.4196 36.8063 52.4944 36.6722 52.5314 36.5267C52.5701 36.3762 52.5516 36.2092 52.5934 36.0604C52.7905 35.3687 52.735 35.1277 52.5572 34.3259C52.4647 33.9081 52.1445 33.4705 52.3609 33.0445C52.5331 32.7049 52.5668 32.3751 52.5266 32.0362C52.4783 31.6365 52.694 31.3059 52.7245 30.9358C52.8283 29.6964 52.2466 28.7021 51.5177 27.8156C50.7671 26.9027 49.8652 26.1329 49.1323 25.1887C48.3889 24.2306 47.4604 23.4362 46.6776 22.4953C45.6325 21.2395 44.3903 20.1596 43.3573 18.8807C43.0878 18.5468 42.6453 18.3593 42.3693 18.0287C41.8737 17.4366 41.42 16.8025 40.9928 16.1561C40.4755 15.3723 40.0322 14.4948 39.2767 13.9553C38.7441 13.5753 38.4311 13.0925 38.098 12.5818C38.0305 12.4782 37.9669 12.3655 37.8784 12.2824C36.7086 11.1886 35.7424 9.87521 34.4261 8.93765C34.2773 8.83155 34.1687 8.66049 34.0585 8.5067C33.4374 7.64397 32.9217 6.70065 32.1139 5.98432C31.7511 5.66275 31.43 5.29349 31.1517 5.00893C30.821 4.89872 30.566 4.81401 30.4734 4.78276C29.6649 4.98425 29.1452 5.37491 28.825 6.03038C28.7316 6.22118 28.5377 6.41363 28.3463 6.48929C27.8402 6.69078 27.6109 7.12831 27.3502 7.55268C26.8587 8.35208 26.3663 9.14325 25.5457 9.65973C25.2367 9.85383 24.96 10.1096 24.8063 10.4904C24.6937 10.77 24.499 11.0282 24.297 11.2561C23.4683 12.1887 22.6284 13.1114 21.782 14.0276C21.3637 14.48 20.8126 14.8451 20.5157 15.3649C19.9662 16.3255 19.2043 17.0689 18.4464 17.8248C17.9999 18.2705 17.633 18.7779 17.3804 19.3438C17.2131 19.7188 16.9709 20.042 16.6692 20.1999C16.3128 20.3858 16.0682 20.658 15.8164 20.9286C15.0762 21.7214 14.2974 22.4706 13.6063 23.3218C12.9498 24.1303 12.2491 24.942 11.3408 25.5144C11.0954 25.669 10.9538 25.9955 10.7663 26.2439C10.5233 26.5663 10.2723 26.8838 10.0414 27.216C9.51687 27.9702 8.85313 28.6314 8.54177 29.5303C8.52246 29.5871 8.48465 29.6372 8.45568 29.6907C8.45568 31.3627 8.45729 33.0338 8.45327 34.7058C8.45247 34.9287 8.50396 35.2174 8.39213 35.3605C8.14835 35.6705 8.30524 35.9888 8.27305 36.2972C8.26179 36.4025 8.56671 36.4658 8.32455 36.6566C8.21835 36.7405 8.57073 36.9412 8.29478 37.0654C8.54338 37.2224 8.13065 37.5539 8.45247 37.6912C8.16766 37.8409 8.52085 38.151 8.30202 38.3171C8.48545 39.2966 8.43074 39.2884 8.29397 40.2416C8.22478 40.7251 8.22559 41.2359 8.36397 41.7614C8.57154 42.5509 8.94404 43.3832 8.45568 44.2188C8.48948 44.7632 8.33983 45.2501 8.11134 45.746C7.99549 45.9969 8.01963 46.3439 8.17088 46.6696C8.335 47.0216 8.45166 47.4411 8.43798 47.826C8.40902 48.6837 8.63107 49.5588 8.27708 50.4059C8.18456 50.628 8.17249 50.9783 8.28432 51.174C8.4581 51.4792 8.42913 51.7777 8.46051 52.0878C8.49108 52.3953 8.36075 52.7062 8.60452 53.0138C8.83301 53.3017 8.44764 53.5763 8.44764 53.8922C8.44683 54.5246 8.54338 55.1653 8.27788 55.7837C8.22076 55.9178 8.3173 56.1514 8.39776 56.3093C8.53453 56.5815 8.71877 56.8331 8.85956 57.0568ZM37.5317 56.755C37.6016 56.2838 37.6427 55.8166 37.7457 55.3635C37.9186 54.6068 37.8937 54.6192 37.7441 53.8305C37.6805 53.4957 37.559 53.1701 37.53 52.8395C37.4818 52.2868 37.5421 51.7242 37.5099 51.1691C37.4778 50.6041 37.3539 50.044 37.3321 49.4798C37.2991 48.6015 36.9661 47.8506 36.4254 47.2091C35.7054 46.3538 34.8727 45.6103 34.1671 44.7279C33.2073 43.5263 32.1018 42.4465 31.0575 41.3156C30.9932 41.2466 30.92 41.1865 30.8701 41.1388C30.5917 41.1388 30.3383 41.1388 30.1122 41.1388C29.5852 41.467 29.0969 41.7918 28.8499 42.3799C28.8032 42.4917 28.6858 42.5731 28.6005 42.6677C27.7614 43.5913 26.9222 44.5141 26.0839 45.4376C25.9777 45.5544 25.8482 45.663 25.7814 45.8011C25.4724 46.4369 25.0235 46.955 24.5191 47.4295C23.9647 47.951 23.7395 48.6566 23.445 49.3343C23.3388 49.5777 23.4249 49.7924 23.3638 50.0194C23.3243 50.1641 23.3807 50.3837 23.3646 50.5687C23.3428 50.8237 23.2793 51.0762 23.2777 51.3303C23.2688 52.707 23.268 54.0838 23.2793 55.4605C23.2809 55.6546 23.3621 55.8487 23.4088 56.051C23.3654 56.0905 23.3179 56.1333 23.3107 56.1398C23.5681 57.1243 24.5142 57.1909 25.2295 57.7098C25.6591 57.6317 26.1386 57.5174 26.6245 57.4656C27.0823 57.4171 27.5337 57.445 27.9947 57.2838C28.4476 57.1251 28.9971 57.4154 29.4324 57.0667C29.9392 57.2427 30.4332 57.4146 30.9401 57.5898C30.9666 57.5626 31.0117 57.5166 31.0624 57.4648C31.1291 57.5273 31.1967 57.5898 31.2619 57.6498C31.3271 57.5889 31.3938 57.5264 31.393 57.5273C31.7953 57.6005 32.1775 57.6284 32.48 57.5577C33.1083 57.4105 33.7173 57.2304 34.3755 57.2542C35.176 57.283 35.9789 57.2616 36.7802 57.2608C36.8735 57.2608 36.9661 57.2518 37.0489 57.2476C37.1954 57.0988 37.3313 56.9598 37.5317 56.755Z" fill="#28282A"></path>
</symbol></defs><use data-v-1e92d442="" xlink:href="#accomodation--sprite" fill="#28282A"></use></svg>