<svg xmlns:xlink="http://www.w3.org/1999/xlink" xmlns="http://www.w3.org/2000/svg" viewBox="0 0 25 23" preserveAspectRatio="xMidYMid" class="BaseIcon-icon" data-v-1e92d442="" width="25"  height="23" ><defs><symbol xmlns="http://www.w3.org/2000/svg" viewBox="0 0 25 23" id="burger-close--sprite">
<path d="M20.4383 1.7085L19.8965 2.06913C20.0479 2.12784 20.1555 2.21048 20.2201 2.18582C20.6385 2.02465 21.0537 2.12768 21.4119 2.30756C21.6907 2.45087 21.9079 2.74647 22.0996 3.01132C22.1414 3.06917 21.9943 3.33044 21.8736 3.41847C21.6964 3.55926 21.4856 3.65223 21.261 3.68866C20.3585 3.78491 20.0442 4.50144 19.652 5.14366C19.6023 5.22415 19.5901 5.38673 19.5308 5.39346C18.6712 5.56463 18.5339 6.39041 18.0888 6.93874C17.9954 7.05215 17.8006 7.08386 17.6483 7.14558C17.4557 7.22405 17.2603 7.29261 17.1209 7.50991L17.6967 7.13338C17.4391 7.63555 17.3444 8.04733 17.0883 8.28528C15.9569 9.31893 14.8109 10.3399 13.7908 11.4831C12.6861 12.7219 11.6185 13.9942 10.5464 15.2602C9.61588 16.3593 8.73604 17.5054 7.76295 18.5655C7.13828 19.2463 6.3996 19.8292 5.68337 20.4095C5.46953 20.5532 5.20813 20.6102 4.95124 20.5691C3.90009 20.3919 3.40459 19.5575 2.94234 18.7225C2.88307 18.6151 2.97713 18.3471 3.0841 18.2347C4.32858 16.9431 5.60929 15.686 6.842 14.3826C8.32516 12.8125 9.74494 11.1825 11.2381 9.62416C13.5709 7.18803 15.9626 4.8072 18.2828 2.36019C18.7615 1.85616 19.2079 1.47681 19.9265 1.54269C20.1012 1.58376 20.2724 1.63922 20.4383 1.7085ZM9.70985 12.7739L19.5902 2.89357C18.9132 2.63029 18.672 3.04542 18.4233 3.31039C15.592 6.32288 12.7698 9.34384 9.95654 12.3733C9.86195 12.4994 9.77823 12.6334 9.70625 12.7739L9.70985 12.7739ZM18.2577 5.44903L16.4787 7.22803L16.4516 7.20984L16.9646 6.60812C16.2747 6.8813 16.0782 7.37677 16.4498 7.77695L19.0373 4.92131L18.5354 5.1043L19.0344 4.20678L19.1534 4.25624L19.2046 4.9442L20.3778 3.50285L20.3063 3.43129L19.5431 4.09485L19.409 3.96077L19.9682 3.18236L19.8842 3.13047L17.7512 5.26349L18.2577 5.44903Z"></path>
<path d="M21.781 18.9335L21.4204 18.3917C21.3617 18.5432 21.279 18.6508 21.3037 18.7153C21.4649 19.1338 21.3618 19.5489 21.1819 19.9071C21.0386 20.186 20.743 20.4031 20.4782 20.5948C20.4203 20.6366 20.1591 20.4895 20.071 20.3689C19.9302 20.1916 19.8373 19.9808 19.8008 19.7562C19.7046 18.8537 18.9881 18.5394 18.3458 18.1472C18.2653 18.0975 18.1028 18.0853 18.096 18.0261C17.9249 17.1664 17.0991 17.0291 16.5508 16.5841C16.4374 16.4906 16.4056 16.2958 16.3439 16.1435C16.2655 15.9509 16.1969 15.7555 15.9796 15.6161L16.3561 16.1919C15.854 15.9344 15.4422 15.8396 15.2042 15.5836C14.1706 14.4521 13.1496 13.3061 12.0064 12.2861C10.7676 11.1814 9.49527 10.1138 8.22928 9.04166C7.13024 8.11112 5.98406 7.23128 4.92401 6.25819C4.24318 5.63352 3.66031 4.89484 3.07997 4.17861C2.93629 3.96477 2.8793 3.70336 2.92037 3.44648C3.09762 2.39533 3.93198 1.89983 4.76698 1.43758C4.8744 1.37831 5.14239 1.47237 5.25479 1.57933C6.54638 2.82382 7.80354 4.10453 9.10691 5.33724C10.677 6.8204 12.307 8.24018 13.8653 9.73332C16.3015 12.0662 18.6823 14.4579 21.1293 16.7781C21.6333 17.2567 22.0127 17.7031 21.9468 18.4217C21.9057 18.5964 21.8503 18.7676 21.781 18.9335ZM10.7156 8.20508L20.5959 18.0855C20.8592 17.4084 20.4441 17.1672 20.1791 16.9186C17.1666 14.0872 14.1457 11.265 11.1163 8.45178C10.9901 8.35719 10.8561 8.27347 10.7156 8.20149L10.7156 8.20508ZM18.0405 16.753L16.2615 14.974L16.2797 14.9469L16.8814 15.4598C16.6082 14.7699 16.1127 14.5734 15.7126 14.945L18.5682 17.5325L18.3852 17.0307L19.2827 17.5296L19.2333 17.6486L18.5453 17.6999L19.9866 18.8731L20.0582 18.8015L19.3947 18.0383L19.5287 17.9042L20.3071 18.4634L20.359 18.3794L18.226 16.2464L18.0405 16.753Z"></path>
</symbol></defs><use xlink:href="#burger-close--sprite" data-v-1e92d442="" fill="#D4CEBD"></use></svg>