<svg xmlns:xlink="http://www.w3.org/1999/xlink" xmlns="http://www.w3.org/2000/svg" data-v-1e92d442="" viewBox="0 0 61 47" preserveAspectRatio="xMidYMid" class="BaseIcon-icon" width="61"  height="47" ><defs><symbol xmlns="http://www.w3.org/2000/svg" viewBox="0 0 61 47" fill="none" id="ticket--sprite">
<path d="M9.82098 46.5676C9.658 46.4385 9.48739 46.3163 9.3329 46.1771C9.15718 46.0183 8.9959 45.8443 8.87452 45.7238C8.52734 44.6228 8.37115 43.521 7.79138 42.5576C7.36441 41.8479 7.25152 41.0237 6.98328 40.2564C6.80757 39.753 6.68533 39.2309 6.52915 38.7199C6.50198 38.6325 6.36362 38.5468 6.3789 38.4848C6.4884 38.0375 6.15905 37.6623 6.17942 37.2489C6.19894 36.872 6.33221 36.5019 6.43153 36.0579C7.04185 35.4476 7.66491 34.7202 8.40086 34.1336C8.79133 33.8221 9.07485 33.5386 9.25989 33.07C9.34733 32.8484 9.40674 32.6507 9.41438 32.4249C9.42118 32.2347 9.05023 30.3647 8.95091 30.1839C8.46282 29.2892 7.71244 28.7392 6.72014 28.5117C6.54952 28.4726 6.29571 28.319 6.23205 28.3784C6.01984 28.5787 5.7898 28.493 5.56825 28.51C5.36622 28.5253 5.16165 28.5015 4.95962 28.5151C3.60486 28.6034 2.44109 27.572 2.12786 26.3115C2.03449 25.9371 1.99459 25.5585 1.76625 25.2419C1.61091 25.0272 1.84095 24.674 1.49547 24.5416C1.63044 23.6257 1.00738 22.9127 0.829124 22.0783C0.738297 21.653 0.615214 21.2099 0.390269 20.8457C0.156835 20.4663 0.111846 20.0792 0.0388453 19.6675C-0.154692 18.5759 0.375838 17.3018 1.26034 16.8875C1.54301 16.7551 1.8418 16.5667 2.13381 16.565C2.8723 16.5616 3.5013 16.2772 4.11162 15.9334C4.83484 15.526 5.66247 15.4411 6.42049 15.1364C7.60973 14.6585 8.82359 14.24 10.0298 13.8054C10.3541 13.6882 10.7012 13.4947 11.0196 13.5261C11.7394 13.5983 12.365 13.2706 12.9626 13.0414C13.5907 12.8003 14.2121 12.6136 14.8631 12.4871C14.9523 12.4701 15.0355 12.4141 15.1178 12.37C16.0634 11.8598 17.1007 11.6001 18.1134 11.2707C18.3205 11.2036 18.5786 11.1502 18.7033 10.9991C19.07 10.5534 19.6014 10.3777 20.1107 10.0738C20.9273 10.0501 21.7838 9.95924 22.5342 9.44738C22.9493 9.53142 23.2871 9.33448 23.6267 9.14519C23.9654 8.95675 24.3015 8.75557 24.7174 8.83876C24.9594 8.42537 25.5247 8.84639 25.7675 8.43301C26.6808 8.19533 27.6052 7.9602 28.3836 7.4076C28.8394 7.08418 29.3072 6.96704 29.7596 7.01373C30.4854 6.57997 31.2247 6.41699 31.9462 6.19883C32.8749 5.91787 33.8578 5.7795 34.7449 5.18531C35.3187 5.29142 35.8662 4.99686 36.4333 4.7838C36.6387 4.70656 36.8551 4.65817 37.058 4.57753C37.6683 4.33391 38.3415 4.24394 38.8618 3.77707C39.0435 3.61409 39.2913 3.51393 39.5833 3.55212C39.7556 3.57504 39.9449 3.4613 40.1274 3.41291C41.2513 3.11751 42.2903 2.56237 43.4371 2.33742C43.7189 1.97581 44.1306 2.23556 44.4702 2.12096C45.5219 1.33578 46.605 0.624443 47.9513 0.963983C48.3901 0.735642 48.7526 0.546349 49.1889 0.319706C49.6074 0.319706 50.1133 0.316311 50.6192 0.320555C51.4426 0.328195 51.9986 0.745828 52.26 1.54714C52.328 1.75596 52.3645 1.9809 52.468 2.1702C53.0155 3.1642 53.299 4.26261 53.7345 5.29651C53.9289 5.75828 53.7642 6.24297 54.0639 6.68777C54.3151 7.06127 54.2981 7.60368 54.507 8.01792C54.8745 8.74708 54.956 9.50086 54.8821 10.3268C54.557 11.0177 54.0061 11.5126 53.2948 11.9006C52.839 12.1493 52.4816 12.5762 52.0911 12.9132C52.0096 13.5898 51.8874 14.2306 51.8645 14.8749C51.8322 15.7637 52.3033 16.6108 53.0215 17.216C53.3568 17.4979 53.6479 17.8323 53.9858 18.1702C54.5978 18.1702 55.2378 18.1498 55.8753 18.1761C56.4585 18.1999 57.0391 18.2746 57.6876 18.3331C58.4397 19.5317 59.3021 20.6547 59.5873 22.1114C59.7316 22.8465 59.9897 23.5646 60.1849 24.2946C60.398 25.0874 60.6509 25.8641 60.8343 26.6697C60.9862 27.3369 60.9064 27.9761 61.0006 28.6068C60.7222 28.8852 60.471 29.161 60.1917 29.4064C59.9761 29.5957 59.7486 29.8181 59.4863 29.9004C58.1086 30.3316 56.8167 30.981 55.4636 31.4546C54.5732 31.7662 53.6267 32.104 52.7464 31.9682C51.4995 32.5055 50.3467 32.9902 49.205 33.5004C48.8171 33.6735 48.4012 33.5725 47.9912 33.7576C47.4208 34.0156 46.8308 34.2346 46.3045 34.5776C46.1381 34.6862 45.9395 34.7363 45.8012 34.8254C45.3394 35.1225 44.7808 34.8916 44.3233 35.1972C43.8726 35.4977 43.2928 35.4739 42.7886 35.6505C42.3175 35.8152 41.8616 36.1853 41.4007 36.1819C40.6563 36.1768 40.113 36.8966 39.3881 36.6139C38.5537 37.3329 37.5648 37.5664 36.5945 37.8431C36.5012 37.8694 36.3653 37.821 36.3042 37.8719C35.4206 38.6113 34.3468 38.7165 33.2645 38.8855C32.6313 38.9839 32.0388 39.3388 31.4598 39.6647C31.1237 39.6647 30.7867 39.6647 30.6628 39.6647C30.1195 39.9262 29.752 40.1044 29.3827 40.2784C29.2978 40.3183 29.1866 40.32 29.1213 40.3777C28.5084 40.9236 27.7801 41.0729 26.9805 41.1111C26.5908 41.1298 26.1987 41.3327 25.8311 41.5025C25.1206 41.8327 24.4628 42.2495 23.6606 42.398C22.7685 42.5627 22.0436 43.246 21.1047 43.3216C20.1702 44.1237 18.9011 44.0371 17.8545 44.5396C17.0668 44.9182 16.1806 44.8834 15.3657 45.1466C14.948 45.2815 14.5329 45.4241 14.1128 45.5506C13.3327 45.7866 12.567 46.0625 11.8132 46.3689C11.7436 46.3969 11.7029 46.4988 11.6494 46.5667C11.0399 46.5675 10.4305 46.5676 9.82098 46.5676ZM57.1299 25.7758C56.7725 25.1842 56.545 24.5153 56.523 23.9941C56.4814 23.0145 55.6147 21.9034 54.675 21.8508C54.0087 21.8134 53.434 21.546 52.8211 21.3932C52.255 21.2515 51.6506 21.0146 51.2194 20.6403C50.4715 19.9909 49.705 19.328 49.1915 18.452C48.6414 17.5123 48.1508 16.5743 48.1762 15.4148C48.1958 14.5218 48.312 13.65 48.4564 12.7282C48.8893 12.0915 49.402 11.4481 49.733 10.6774C49.8816 10.3319 50.2109 10.0679 50.4308 9.74787C50.5904 9.51614 50.7151 9.25893 50.8348 9.00343C50.9095 8.84385 50.9477 8.66644 51.0021 8.49752C50.6209 8.39735 51.2185 8.14355 50.918 7.97378C50.8179 7.91775 50.8959 7.59604 50.8323 7.41693C50.5827 6.70984 50.5708 5.94842 50.0819 5.28293C49.784 4.87633 49.385 4.58517 49.1745 4.24139C48.8918 4.16075 48.683 4.10133 48.475 4.04191C47.6177 4.11491 46.9878 4.76343 46.1942 5.05628C45.6356 5.26255 45.0618 5.43063 44.488 5.59191C44.151 5.68613 43.7928 5.7048 43.4592 5.80752C43.1324 5.90768 42.8353 6.13517 42.5059 6.18865C42.1375 6.24807 41.8795 6.49423 41.5578 6.60204C40.5782 6.93054 39.5927 7.23952 38.6666 7.70979C38.5291 7.77939 38.361 7.82693 38.209 7.82183C37.7566 7.80825 37.3848 7.9585 37.0241 8.34897C37.1395 8.92704 36.8297 9.59083 37.221 10.219C37.2804 10.3141 37.1675 10.5203 37.1268 10.6731C37.0699 10.8845 37.0062 11.0933 36.9451 11.3047C36.5716 11.5228 36.2236 11.7461 35.8586 11.9354C35.373 12.1875 34.4809 12.0151 34.4368 11.5882C34.3706 10.9498 33.8748 10.5959 33.6686 10.0127C33.3078 9.96263 32.9318 9.88454 32.5523 9.86332C32.1321 9.8404 31.6958 9.78777 31.3172 10.0594C30.3445 9.97282 29.6077 10.4431 28.8522 10.9863C28.4702 11.2614 27.9914 11.6281 27.4456 11.4617C27.1935 11.3845 27.0441 11.8539 26.7649 11.5152C26.7139 11.4532 26.3175 11.6451 26.1002 11.7579C25.8753 11.8751 25.6826 12.0533 25.461 12.1781C25.2437 12.3004 25.012 12.4667 24.7794 12.4786C24.2166 12.5066 23.7353 12.746 23.2557 12.9777C22.4162 13.3843 21.5054 13.5864 20.6124 13.673C19.795 13.7519 19.1227 14.066 18.514 14.4989C18.0794 14.8079 17.6007 14.9997 17.1389 15.1033C15.841 15.3944 14.6 15.8341 13.3955 16.3672C12.8751 16.5972 12.3387 16.7942 11.8064 16.9334C10.6783 17.2288 9.5519 17.5097 8.48489 17.9885C8.3703 18.0394 8.27098 18.1515 8.15469 18.1676C7.13777 18.306 6.20149 18.6515 5.32463 19.1828C5.11411 19.3102 4.86116 19.3687 4.73807 19.4163C4.41636 19.6964 4.1651 19.9162 3.89941 20.1471C4.04796 20.676 4.29497 21.1878 4.31365 21.709C4.34166 22.5035 4.69818 23.1809 4.87304 23.9152C5.04536 24.6426 5.4927 24.8973 6.10812 25.0738C6.77192 25.264 7.42129 25.5076 8.09103 25.6723C9.31931 25.9753 10.3974 26.5313 11.1639 27.5474C11.6969 28.2545 12.1935 29.0057 12.5814 29.7977C12.7597 30.1618 13.0763 30.6448 12.8123 31.071C12.646 31.3392 12.6595 31.5752 12.6697 31.8239C12.7037 32.6184 12.3081 33.3713 12.4558 34.1744C12.466 34.2295 12.4329 34.2991 12.4032 34.3526C11.9686 35.1285 11.635 35.968 10.9712 36.6004C10.7793 36.7837 10.5968 36.9806 10.433 37.1895C10.3388 37.31 10.2828 37.4636 10.2276 37.6096C10.1503 37.8142 10.1164 38.04 10.0154 38.231C9.88295 38.484 10.3125 38.6342 10.1003 38.9152C10.0374 38.9984 10.1758 39.2352 10.225 39.4016C10.3592 39.8532 10.4203 40.3472 10.6495 40.7436C10.9398 41.2453 11.3676 41.668 11.7207 42.1052C12.7028 42.1052 13.6493 42.1052 14.5177 42.1052C14.6934 42.0177 14.802 41.9456 14.9209 41.9074C15.7264 41.6493 16.4344 41.1646 17.2926 41.0076C18.1541 40.8497 18.9045 40.3378 19.722 40.0246C20.0437 39.9015 20.3628 39.7182 20.6939 39.6885C21.418 39.624 22.0682 39.4347 22.6301 38.9551C22.7914 38.8176 23.0155 38.68 23.2158 38.6724C24.3321 38.6274 25.2828 38.1283 26.2479 37.6495C26.4423 37.5528 26.7258 37.5706 26.8599 37.4314C27.2343 37.0443 27.7275 37.2828 28.1587 37.1224C28.8904 36.8499 29.6085 36.5291 30.3572 36.3041C30.9896 36.1148 31.6271 35.934 32.2 35.6098C32.9165 35.204 33.6702 34.9816 34.4885 35.0139C34.9911 35.0334 35.4197 34.8382 35.8637 34.654C36.9315 34.21 38.0469 33.8985 39.1029 33.4061C39.9195 33.0259 40.5884 32.7152 41.0858 31.8655C41.0858 30.9886 41.0858 30.1101 41.0858 29.2493C41.3294 28.9981 41.5645 28.7561 41.7929 28.521C42.0739 28.521 42.3438 28.521 42.5204 28.521C43.196 28.7935 43.6782 29.2128 43.8726 29.8079C44.0585 30.3766 44.4455 30.7416 44.8538 31.1694C45.1221 31.1482 45.4684 31.2161 45.6993 31.0828C46.2697 30.7552 46.897 30.6958 47.5073 30.5379C48.3562 30.318 49.2127 30.1101 49.9894 29.6712C50.233 29.5337 50.497 29.4242 50.7618 29.3334C51.2363 29.1695 51.7533 29.0948 52.1904 28.8657C53.1123 28.3827 54.063 28.0092 55.0468 27.6679C55.7649 27.4184 56.5909 27.2384 57.1248 26.595C57.1299 26.3106 57.1299 26.0415 57.1299 25.7758Z" fill="#28282A"></path>
</symbol></defs><use data-v-1e92d442="" xlink:href="#ticket--sprite" fill="#28282A"></use></svg>