<svg xmlns:xlink="http://www.w3.org/1999/xlink" xmlns="http://www.w3.org/2000/svg" viewBox="0 0 491 6" preserveAspectRatio="xMidYMid" class="BaseIcon-icon" data-v-1e92d442="" width="1200"  height="15" ><defs><symbol xmlns="http://www.w3.org/2000/svg" viewBox="0 0 491 6" id="separator--sprite">
<path d="M416.352 3.97941C415.95 4.06859 415.369 4.24695 415.191 4.21128C410.903 3.10544 405.901 3.94374 401.39 3.39082C399.782 3.19462 398.04 3.15895 396.387 3.14112C395.762 3.14112 395.092 3.37298 394.556 3.53351C392.859 4.03292 392.278 3.99724 391.608 3.17679C390.403 3.6762 389.107 3.78321 387.544 3.40866C386.829 3.24813 385.758 3.17679 384.998 3.24813C383.39 3.42649 382.274 3.31948 381.649 2.64171C381.47 2.85574 381.381 3.14112 381.202 3.14112C379.639 3.21246 378.031 3.30164 376.468 3.2838C375.619 3.26597 374.726 3.01626 374.413 3.56918C374.368 3.60485 373.966 3.65836 373.788 3.64052C371.867 3.42649 369.991 3.21246 367.49 2.92708C366.329 3.12328 364.453 3.65836 362.354 2.94492C362.086 2.85574 361.148 3.12328 360.478 3.15895C359.585 3.21246 358.647 3.2303 357.709 3.19462C357.039 3.15895 356.369 3.01626 355.342 2.87358C355.878 2.7844 356.28 2.71305 356.994 2.5882C355.342 2.37417 354.091 1.98178 353.555 2.82007C353.511 2.89141 353.287 2.99843 353.153 2.99843C351.054 2.98059 348.955 2.94492 346.856 2.90925C346.766 2.90925 346.722 2.76656 346.543 2.62387C348.062 2.57036 349.536 2.53469 351.054 2.48118C350.027 2.16014 347.883 2.80223 347.838 1.78558C345.828 2.74872 342.925 2.12446 340.558 2.55253C341.184 2.55253 341.809 2.55253 342.479 2.55253C342.479 2.62387 342.479 2.67738 342.523 2.74872C341.184 2.82007 339.844 2.8379 338.548 2.94492C335.377 3.19462 332.296 2.99843 329.169 2.82007C328.008 2.74872 326.757 2.94492 325.507 2.96276C324.971 2.98059 324.435 2.87358 323.899 2.82007C323.899 2.74872 323.943 2.65954 323.943 2.5882C324.971 2.53469 326.043 2.48118 327.204 2.40984C325.551 2.3385 324.122 1.91043 322.559 2.60604C321.844 2.92708 320.058 2.96276 318.762 2.98059C318.182 2.98059 317.557 2.64171 317.289 2.57036C316.663 2.65954 315.904 2.89141 315.323 2.8379C314.475 2.76656 313.716 2.44551 312.867 2.37417C312.331 2.32066 311.393 2.44551 311.036 2.60604C309.919 3.10544 308.803 2.90925 307.641 2.71305C307.552 2.69522 307.686 2.48118 307.686 2.35633C306.078 2.35633 304.426 2.35633 302.728 2.35633C302.728 2.392 302.728 2.42768 302.728 2.46335C303.398 2.49902 304.024 2.53469 304.694 2.55253C304.694 2.60604 304.694 2.65954 304.694 2.71305C303.979 2.71305 303.22 2.69522 302.505 2.71305C298.262 2.80223 294.064 2.94492 289.821 2.99843C286.56 3.0341 283.3 2.90925 280.039 2.90925C277.94 2.90925 275.886 2.98059 273.786 2.98059C271.464 2.99843 269.097 2.98059 266.685 2.98059C266.864 2.87358 267.087 2.71305 267.712 2.3385C265.792 2.55253 264.362 2.74872 262.844 2.87358C262.263 2.90925 260.968 3.30164 261.102 2.57036C259.762 2.60604 258.422 2.62387 256.636 2.67738C257.35 2.92708 257.618 2.99843 258.11 3.17679C257.172 3.19462 256.457 3.21246 255.698 3.2303C255.921 2.99843 256.1 2.82007 256.412 2.51686C255.117 2.55253 254.09 2.5882 253.018 2.62387C252.929 2.7844 252.795 2.99843 252.705 3.19462C252.437 3.24813 252.303 3.30164 252.214 3.2838C250.383 2.98059 248.641 3.37298 246.854 3.39082C245.336 3.40866 245.336 3.44433 245.202 2.87358C241.763 3.05194 238.368 3.2303 234.572 3.42649C235.108 3.15895 235.465 2.99843 235.733 2.87358C232.696 2.87358 229.704 2.85574 226.756 2.89141C225.952 2.90925 225.014 3.0341 224.478 3.24813C222.826 3.89023 221.218 3.80105 219.565 3.35515C218.091 2.96276 216.751 2.76656 215.322 3.44433C214.518 3.81888 212.553 3.51567 212.151 3.05194C211.794 3.35515 211.436 3.69403 211.079 4.01508C210.722 3.89023 210.364 3.76538 209.963 3.64052C209.918 3.44433 209.873 3.26597 209.784 2.98059C208.087 3.08761 206.434 3.21246 204.782 3.31948C204.782 3.37298 204.782 3.42649 204.782 3.46216C205.452 3.51567 206.077 3.55134 206.747 3.60485C206.747 3.64052 206.747 3.6762 206.747 3.69403C206.166 3.69403 205.586 3.7297 205.05 3.69403C203.084 3.53351 201.298 3.42649 199.288 3.83672C197.948 4.10426 196.296 3.94374 195.268 3.15895C194.688 3.35515 194.241 3.62269 193.616 3.69403C192.99 3.76538 191.695 3.74754 191.561 3.62269C190.981 3.0341 189.775 3.08761 189.239 3.39082C187.184 4.55016 184.37 4.05075 181.735 4.05075C178.43 4.05075 175.125 4.08642 171.82 4.1221C169.721 4.13993 167.577 4.21128 165.478 4.19344C164.986 4.19344 164.495 3.94374 164.093 3.83672C161.547 3.96157 158.912 4.1756 156.277 4.22911C150.203 4.33613 144.129 4.44314 138.054 4.42531C134.258 4.40747 130.462 4.1756 126.665 4.06859C125.906 4.05075 125.102 4.13993 124.343 4.10426C123.718 4.06859 123.092 3.90806 122.69 3.83672C122.288 3.83672 121.886 3.83672 121.484 3.83672C120.278 3.85456 118.581 3.65836 117.956 3.90806C115.589 4.8177 112.686 4.44314 110.14 4.51449C105.763 4.65718 101.386 3.97941 96.8749 4.26478C96.0709 4.31829 95.133 3.97941 94.2397 3.87239C93.7484 3.81888 93.0338 3.80105 92.5872 3.87239C89.6394 4.42531 86.7809 4.30046 83.6992 4.03292C81.3767 3.81888 78.7415 3.6762 76.419 4.26478C76.3297 4.30046 76.1064 4.28262 75.9724 4.28262C70.5235 4.01508 65.2532 4.90688 59.8043 4.63934C59.0003 4.60367 58.241 4.3718 57.4818 4.38964C56.3205 4.42531 55.2039 4.6215 54.0427 4.67501C53.3281 4.71068 52.5688 4.53232 51.8542 4.55016C50.023 4.58583 48.1918 4.65718 46.4052 4.71068C45.5566 4.72852 44.6634 4.72852 43.8148 4.74636C42.4749 4.78203 41.135 4.79986 39.7504 4.85337C36.758 4.94255 33.7655 5.04957 30.7731 5.15658C25.9941 5.33494 21.2151 5.56681 16.4361 5.65599C13.533 5.7095 10.5406 5.72734 7.72676 5.49547C2.36716 5.04957 0.580624 4.01508 0 1.8926C0.669951 1.92827 1.3399 1.8926 1.87586 1.98178C6.52085 2.80223 11.4338 2.7844 16.3021 2.71305C33.3189 2.48118 50.3356 2.08879 67.397 1.8926C84.9944 1.6964 102.636 1.64289 120.278 1.55371C132.293 1.48237 144.307 1.48237 156.322 1.39319C170.971 1.26834 185.576 1.07214 200.226 0.929453C209.963 0.840273 219.699 0.786765 229.436 0.697585C239.396 0.590569 249.311 0.430045 259.271 0.323029C266.283 0.251685 273.295 0.233849 280.263 0.198178C285.131 0.180342 289.999 0.233849 294.868 0.198178C305.587 0.14467 316.261 0.0198175 326.981 0.00198155C333.591 -0.0158544 340.156 0.0911615 346.766 0.14467C352.796 0.180342 358.826 0.198177 364.855 0.251685C374.056 0.340865 383.256 0.447881 392.502 0.572733C399.737 0.661913 406.928 0.804601 414.163 0.929453C435.781 1.28617 457.398 1.64289 479.015 1.98178C480.712 2.01745 482.498 2.05312 484.106 1.91043C485.982 1.74991 487.858 2.01745 488.439 2.48118C489.555 3.33731 491.788 4.06859 490.716 5.31711C490.225 5.88786 489.779 6.03055 488.573 5.99488C480.578 5.74517 472.583 5.4598 464.544 5.2636C458.425 5.10308 452.306 5.08524 446.232 4.94255C444.803 4.90688 443.239 4.40747 442.033 4.55016C440.158 4.74636 438.192 3.76538 436.54 4.69285C436.361 4.78203 435.557 4.72852 435.066 4.69285C433.101 4.55016 431.136 4.35396 429.17 4.26478C428.188 4.21128 427.116 4.38964 426.089 4.35396C425.017 4.30046 423.945 4.06859 422.873 4.01508C421.488 3.94374 420.104 4.01508 418.719 3.97941C417.915 3.96157 417.156 3.87239 416.352 3.81888C416.352 3.87239 416.352 3.9259 416.352 3.97941ZM380.13 1.39319C380.13 1.30401 380.085 1.21483 380.085 1.10781C368.116 0.947289 356.101 0.804601 344.087 0.644077C344.087 0.608405 344.042 0.804601 343.953 1.05431C356.056 1.17916 368.071 1.28617 380.13 1.39319ZM312.331 1.07214C312.331 0.982961 312.331 0.893781 312.331 0.804601C310.857 0.697585 309.383 0.572733 307.909 0.519225C306.927 0.483553 305.81 0.697585 304.962 0.572733C302.416 0.14467 300.093 1.0008 297.369 0.644077C295.314 0.376537 292.768 0.804601 290.401 0.822437C286.873 0.858109 283.344 0.840273 279.771 0.840273C279.771 0.911617 279.771 1.0008 279.771 1.07214C290.669 1.07214 301.478 1.07214 312.331 1.07214ZM343.685 0.626241C334.395 0.626241 325.551 0.626241 316.753 0.626241C316.753 0.733257 316.753 0.840273 316.753 0.929453C317.467 0.965125 318.137 1.03647 318.852 1.03647C326.489 1.05431 334.171 1.07214 341.809 1.03647C342.389 1.05431 342.97 0.804601 343.685 0.626241ZM439.22 2.40984C434.083 1.76775 428.634 2.24932 423.409 1.58939C421.667 1.37535 419.434 1.76775 417.469 1.87476C417.469 1.91043 417.469 1.92827 417.469 1.96394L439.22 2.40984ZM466.866 2.92708C466.866 2.8379 466.866 2.76656 466.866 2.67738C458.068 2.51686 449.224 2.3385 440.426 2.17797C440.426 2.24932 440.426 2.32066 440.381 2.392C449.224 2.5882 458.023 2.76656 466.866 2.92708ZM162.619 1.78558C162.619 1.8926 162.619 1.98178 162.619 2.08879C168.247 2.08879 173.919 2.08879 179.547 2.08879C179.547 1.98178 179.547 1.8926 179.547 1.78558C173.919 1.78558 168.247 1.78558 162.619 1.78558ZM241.138 1.48237C241.138 1.42886 241.138 1.35752 241.138 1.30401C236.984 1.30401 232.83 1.30401 228.676 1.30401C228.676 1.35752 228.676 1.42886 228.676 1.48237C232.83 1.48237 236.984 1.48237 241.138 1.48237ZM261.683 0.965125C261.683 1.03647 261.727 1.10781 261.727 1.17916C265.434 1.17916 269.141 1.17916 272.849 1.17916C272.849 1.10781 272.849 1.03647 272.804 0.965125C269.097 0.965125 265.39 0.965125 261.683 0.965125ZM136 2.32066C136 2.24932 135.955 2.17797 135.955 2.12446C131.936 2.12446 127.916 2.12446 123.896 2.12446C123.896 2.19581 123.896 2.26715 123.896 2.32066C127.916 2.32066 131.936 2.32066 136 2.32066ZM401.702 1.48237C401.702 1.58939 401.702 1.67857 401.702 1.78558C404.963 1.78558 408.223 1.78558 411.484 1.78558C411.484 1.67857 411.484 1.58939 411.484 1.48237C408.179 1.48237 404.918 1.48237 401.702 1.48237ZM242.12 1.12565C242.12 1.21483 242.12 1.28617 242.12 1.37535C245.381 1.37535 248.641 1.37535 251.901 1.37535C251.901 1.28617 251.901 1.21483 251.901 1.12565C248.641 1.12565 245.381 1.12565 242.12 1.12565ZM388.75 1.41103C388.795 1.39319 388.795 1.35752 388.839 1.33968C387.499 1.17916 386.16 0.929453 384.82 0.911617C383.39 0.893781 381.961 1.10781 380.532 1.21483C380.532 1.28617 380.577 1.33968 380.577 1.41103C383.301 1.41103 386.026 1.41103 388.75 1.41103ZM184.46 1.66073C184.46 1.76775 184.504 1.8926 184.504 1.99961C186.872 1.96394 189.239 1.91043 191.561 1.87476C191.561 1.80342 191.561 1.73207 191.561 1.66073C189.194 1.66073 186.827 1.66073 184.46 1.66073ZM204.558 1.87476C204.603 1.78558 204.692 1.6964 204.737 1.62506C202.548 1.62506 200.405 1.62506 198.216 1.62506C198.171 1.71424 198.082 1.82125 198.037 1.91043C200.181 1.99961 202.414 1.82125 204.558 1.87476ZM211.124 1.51804C211.124 1.58939 211.079 1.64289 211.079 1.71424C214.116 1.71424 217.153 1.71424 220.19 1.71424C220.19 1.64289 220.19 1.58939 220.19 1.51804C217.153 1.51804 214.116 1.51804 211.124 1.51804ZM220.816 1.51804C220.86 1.58939 220.86 1.67857 220.905 1.74991C222.692 1.6964 224.523 1.66073 226.309 1.60722C226.265 1.46453 226.22 1.30401 226.22 1.16132C224.389 1.28617 222.602 1.41103 220.816 1.51804Z"></path>
</symbol></defs><use xlink:href="#separator--sprite" data-v-1e92d442="" fill="#28282A"></use></svg>