<svg xmlns:xlink="http://www.w3.org/1999/xlink" xmlns="http://www.w3.org/2000/svg" viewBox="0 0 28 20" preserveAspectRatio="xMidYMid" class="BaseIcon-icon" data-v-1e92d442="" width="28"  height="20" ><defs><symbol xmlns="http://www.w3.org/2000/svg" viewBox="0 0 28 20" id="youtube--sprite">
<path fill-rule="evenodd" clip-rule="evenodd" d="M26.4734 1.53119C26.9082 1.97463 27.2215 2.52651 27.3821 3.13186C28.3069 6.92857 28.0932 12.9249 27.4 16.8681C27.2394 17.4735 26.9261 18.0254 26.4913 18.4688C26.0566 18.9123 25.5155 19.2318 24.9219 19.3956C22.7491 20 14.0038 20 14.0038 20C14.0038 20 5.25852 20 3.08567 19.3956C2.49214 19.2318 1.95103 18.9123 1.51624 18.4688C1.08145 18.0254 0.768156 17.4735 0.607546 16.8681C-0.322649 13.0879 -0.0676528 7.08791 0.58959 3.15018C0.750198 2.54483 1.0635 1.99294 1.49829 1.5495C1.93307 1.10606 2.47418 0.786515 3.06771 0.622715C5.24056 0.0183105 13.9858 0 13.9858 0C13.9858 0 22.7311 0 24.904 0.604393C25.4975 0.768204 26.0386 1.08774 26.4734 1.53119ZM18.4572 9.99999L11.2024 14.2857V5.71428L18.4572 9.99999Z"></path>
</symbol></defs><use xlink:href="#youtube--sprite" data-v-1e92d442="" fill="#D4CEBD"></use></svg>