<svg xmlns:xlink="http://www.w3.org/1999/xlink" xmlns="http://www.w3.org/2000/svg" data-v-1e92d442="" viewBox="0 0 46 61" preserveAspectRatio="xMidYMid" class="BaseIcon-icon" width="46"  height="61" ><defs><symbol xmlns="http://www.w3.org/2000/svg" viewBox="0 0 46 61" fill="none" id="sign--sprite">
<path d="M22.4668 61C22.246 60.6923 21.9754 60.4082 21.8179 60.0712C21.6406 59.6919 21.533 59.2704 21.4525 58.8561C21.3429 58.2907 21.6228 57.6832 21.2859 57.1358C21.637 56.4087 21.36 55.6366 21.4397 54.8895C21.4696 54.6075 21.4148 54.3149 21.454 54.0351C21.4882 53.791 21.2111 53.5821 21.4027 53.3373C21.1292 53.1033 21.6064 52.9488 21.4625 52.6811C21.3678 52.5044 21.4376 52.2339 21.4461 52.0063C21.4554 51.763 21.3664 51.4925 21.6142 51.3065C21.5338 50.7569 21.766 50.1894 21.4924 49.6441C21.4119 49.4838 21.4461 49.2606 21.4461 49.0659C21.4426 47.7814 21.4447 46.4976 21.4447 45.1738C21.0337 44.6385 20.424 44.4653 19.773 44.3916C19.5308 44.3644 19.3093 44.348 19.0685 44.2363C18.7338 44.0803 18.3527 44.0002 17.9552 44.0381C17.4916 44.0832 17.0699 43.8671 16.6304 43.7519C16.0107 43.5887 15.4039 43.2817 14.7507 43.3826C14.5441 43.4148 14.4864 43.0799 14.2528 43.2824C14.1759 43.3497 13.9351 43.2109 13.7663 43.193C13.5982 43.1744 13.4223 43.2109 13.257 43.183C13.0775 43.1522 12.9087 43.0613 12.7299 43.0212C12.5483 42.9812 12.3432 43.0842 12.1836 42.8846C12.1359 42.8244 11.9742 42.8452 11.8652 42.8481C11.2612 42.866 10.6992 42.6498 10.123 42.5518C9.26897 42.4072 8.50042 42.0602 7.68485 41.8426C7.34723 41.7525 7.11432 41.6072 6.97827 41.3474C6.61786 40.6612 6.04589 40.108 5.77024 39.3688C5.72466 39.2472 5.59573 39.1534 5.49673 39.0554C5.06722 38.6296 4.73601 38.1337 4.39981 37.632C4.15051 37.2606 3.76161 36.9859 3.45461 36.6502C3.27298 36.4513 3.07995 36.2373 2.97952 35.994C2.77438 35.4967 2.4332 35.1224 2.07207 34.7417C1.55496 34.1957 1.07987 33.6096 0.54423 32.9914C0.48796 32.8361 0.365447 32.6185 0.334819 32.3888C0.260742 31.8271 0.473714 31.309 0.768599 30.866C1.02502 30.481 1.39826 30.1791 1.67676 29.7912C1.84414 29.5579 2.19459 29.4069 2.49161 29.3289C3.23096 29.1336 3.81716 28.6727 4.44753 28.287C4.99314 27.9535 5.55584 27.6394 6.06299 27.2537C7.08725 26.4751 8.28032 25.9735 9.30957 25.2071C9.4157 25.1276 9.55032 25.0818 9.64434 24.9909C9.90433 24.7398 10.17 24.5115 10.5589 24.5215C10.8809 24.5294 11.2028 24.1272 11.5248 24.5208C12.2107 24.578 12.8966 24.6374 13.5825 24.6904C13.7521 24.7033 13.9244 24.6775 14.0925 24.6975C14.2072 24.7111 14.3945 24.8307 14.4145 24.8027C14.604 24.5423 14.6816 24.8679 14.8162 24.8807C15.1902 24.9165 15.5492 25.0346 15.9381 25.0532C16.4238 25.0761 16.8975 25.2894 17.431 25.1863C17.8413 25.7273 18.394 26.0014 19.075 25.8812C19.3513 25.8325 19.5892 26.113 19.8585 25.9248C20.8663 26.128 20.9418 26.098 21.4326 25.3015C21.3998 25.2614 21.3664 25.2214 21.3329 25.1813C21.5459 24.5444 21.4853 23.9068 21.256 23.3C21.1805 23.0996 20.9354 22.9393 20.7346 22.8155C20.367 22.588 19.9632 22.4534 19.5173 22.4627C19.164 22.4706 18.8107 22.4978 18.4781 22.2996C18.1369 22.0956 17.7423 22.0878 17.3605 22.1278C16.5798 22.2094 15.8448 21.984 15.1246 21.7571C14.8867 21.6827 14.6652 21.6062 14.4216 21.6112C13.7635 21.6248 13.1253 21.5353 12.5127 21.2834C12.44 21.2534 12.3453 21.2813 12.2641 21.2648C11.9479 21.2026 11.6238 21.3657 11.2961 21.1181C11.0867 20.96 10.6957 21.2204 10.4371 20.9321C10.3865 20.8755 10.2192 20.9235 10.1059 20.9242C9.01397 20.9313 7.96692 20.7088 6.95263 20.3123C6.88211 20.2837 6.80091 20.2329 6.73111 20.2444C6.33579 20.3081 5.97823 20.1535 5.60927 20.0669C4.86066 19.8909 4.0978 19.8186 3.33851 19.7162C3.08636 19.6819 2.84917 19.5345 2.46383 19.3835C2.28647 19.3835 1.946 19.3835 1.67391 19.3835C1.38472 19.2368 1.14967 19.118 0.919603 19.0021C0.805637 18.8282 0.688111 18.6479 0.520012 18.3895C0.520012 18.182 0.520012 17.8757 0.520012 17.6081C0.864757 16.8009 1.58844 16.4288 2.2188 15.9586C3.11628 15.2888 4.07216 14.7163 5.08645 14.2405C5.23033 14.1732 5.36709 14.0644 5.47322 13.9442C5.78734 13.5893 6.16413 13.3467 6.59649 13.1528C7.32159 12.8279 7.97903 12.3914 8.46552 11.7852C8.74687 10.6045 7.99256 9.85741 7.35649 9.08384C6.92129 8.55501 6.35146 8.13639 6.10003 7.46301C6.09006 7.43939 6.06228 7.42079 6.0402 7.4029C5.32435 6.81968 4.98103 5.95166 4.41477 5.25466C4.03014 4.78165 3.64194 4.31221 3.20816 3.7841C2.97311 2.41229 2.80786 2.42088 3.83283 1.56502C4.26804 1.65161 4.75738 1.44122 5.24387 1.7246C5.43547 1.83623 5.74389 1.74034 5.9996 1.7432C6.43694 1.7475 6.86146 1.79902 7.29666 1.88489C7.71904 1.9679 8.12647 2.06308 8.53746 2.19332C8.89075 2.30495 9.28749 2.4037 9.63295 2.39798C10.2519 2.38725 10.8253 2.61409 11.4357 2.61194C11.747 2.61051 12.1608 2.642 12.3439 2.83521C12.5462 3.04918 12.7057 2.58117 12.7926 2.89031C13.0284 2.82806 13.2414 2.64272 13.5042 2.90105C13.6694 3.06277 13.9686 2.86455 14.2029 3.07351C14.3319 3.18872 14.6374 3.0871 14.8575 3.11931C15.0648 3.15008 15.2657 3.27745 15.4687 3.27602C16.1831 3.2703 16.8263 3.58302 17.5108 3.70538C18.0129 3.79555 18.488 3.99592 19.018 3.98232C19.362 3.97373 19.7067 4.10254 20.0543 4.13689C20.6747 4.19843 21.2097 4.07463 21.434 3.21233C21.4241 3.00409 21.5409 2.60694 21.2738 2.26273C21.2602 1.42691 21.6078 0.797895 22.3258 0.369966C22.4676 0.285525 22.5858 0.163873 22.7881 0C23.058 0.0493765 23.3992 0.111634 23.7297 0.171744C23.8009 0.314149 23.8301 0.467288 23.9227 0.540995C24.3259 0.861584 24.3287 1.35463 24.4434 1.78113C24.5631 2.22624 24.5766 2.69138 24.3985 3.16367C24.2853 3.46423 24.3416 3.8299 24.348 4.14118C24.5161 5.0636 25.343 4.93836 25.9278 5.15305C26.4684 5.35127 27.0568 5.38633 27.6401 5.34125C27.8097 5.32837 28.0639 5.26897 28.1338 5.35341C28.2962 5.54877 28.4379 5.35484 28.5796 5.40207C28.7306 5.45217 28.8916 5.46934 29.0455 5.51228C29.2228 5.56237 29.3973 5.62176 29.5711 5.68259C29.7193 5.73483 29.8639 5.79852 30.012 5.85219C30.3333 5.96812 30.6495 6.14916 30.9793 6.17779C31.3882 6.21357 31.8034 6.35812 32.1831 6.33808C33.1632 6.28727 34.0728 6.58568 35.0115 6.73953C35.0756 6.75027 35.169 6.85188 35.1875 6.83685C35.6305 6.46403 36.065 6.7932 36.3891 6.96924C36.7801 7.18249 37.1534 7.21827 37.5743 7.22328C38.3735 7.8616 39.1613 8.50564 39.6734 9.42662C39.843 9.73075 40.0303 10.0363 40.2639 10.2911C40.6906 10.7569 41.0702 11.2485 41.4128 11.7824C41.6949 12.221 42.0631 12.6103 42.4285 12.986C43.0796 13.6565 43.519 14.4816 44.0931 15.2072C44.3424 15.5221 44.5162 15.9007 44.7805 16.1998C45.0597 16.5161 45.2919 16.8295 45.3197 17.2653C45.3211 17.2889 45.4109 17.3068 45.46 17.3269C45.46 17.4979 45.46 17.6696 45.46 17.8407C45.4116 17.8607 45.3211 17.8807 45.3211 17.9015C45.3154 18.4568 44.9479 18.7938 44.5946 19.1402C44.2441 19.4837 43.9265 19.8265 43.3794 19.9188C42.9214 19.9953 42.4641 20.2408 42.1393 20.5979C41.6885 21.0945 41.1087 21.4115 40.5695 21.7622C39.4982 22.457 38.3821 23.0738 37.3336 23.8159C36.1327 24.6653 34.7523 25.1019 33.2501 25.036C32.9388 25.0224 32.6247 25.0117 32.3156 25.0389C31.7258 25.0911 31.2044 24.8793 30.6901 24.6453C30.2578 24.4485 29.3745 24.1837 29.012 24.1773C28.8432 24.1744 28.6537 24.2202 28.5098 24.1587C27.9236 23.9075 27.2876 23.987 26.6857 23.8431C26.4713 23.7916 26.1807 23.9175 26.0218 23.8131C25.8359 23.6907 25.6664 23.8438 25.5104 23.7301C25.3893 23.642 25.2127 23.8846 25.088 23.6735C24.8295 23.8675 24.5716 24.0614 24.3572 24.2224C24.3423 24.4643 24.3822 24.7498 24.3131 24.7791C24.0075 24.9101 24.4128 25.0725 24.2618 25.2414C24.1806 25.3323 24.2981 25.6157 24.3465 25.8067C24.3921 25.9849 24.4548 26.1602 24.5296 26.3284C24.5624 26.4014 24.635 26.483 24.707 26.5066C25.2547 26.6898 25.6878 27.1471 26.3388 27.102C27.0148 27.0555 27.7128 26.9982 28.3332 27.409C28.413 27.4619 28.5526 27.4397 28.6623 27.4297C29.6595 27.3403 30.5769 27.7131 31.505 27.97C31.8006 28.0516 32.0791 28.1117 32.3761 28.1153C32.8576 28.121 33.3405 28.0988 33.8213 28.1246C34.055 28.1367 34.3242 28.1747 34.5058 28.3027C34.7209 28.4545 34.9446 28.3056 35.1682 28.4344C35.3606 28.5446 35.6654 28.4502 35.919 28.4652C35.9895 28.4695 36.0536 28.5475 36.1263 28.5761C37.1726 28.9833 38.2453 29.2345 39.3778 29.1472C39.5709 29.1321 39.7653 29.145 39.9591 29.145C40.3686 29.3533 40.6998 29.7118 41.207 29.6703C41.3758 29.656 41.5681 29.7504 41.7276 29.8363C41.9306 29.9451 42.0838 29.5372 42.2811 29.8019C42.5226 29.588 42.7298 29.9007 42.9813 29.8442C43.2512 29.7833 43.5447 29.8306 43.8289 29.8306C43.8702 29.8678 43.9058 29.9222 43.9535 29.9393C44.539 30.1454 44.9821 30.5111 45.2599 31.0771C45.2891 31.1365 45.3916 31.1601 45.46 31.2002C45.46 31.4857 45.46 31.7713 45.46 32.0568C45.351 32.1949 45.2591 32.3509 45.1295 32.4654C44.97 32.6064 44.7769 32.7087 44.6031 32.8339C44.1872 33.1345 43.7633 33.425 43.3616 33.7435C42.5204 34.4111 41.6315 35.0001 40.6728 35.4831C39.8971 35.8745 39.1278 36.2796 38.3571 36.681C38.2396 36.7425 38.0587 36.7955 38.0295 36.8907C37.9312 37.2077 37.6748 37.3787 37.4746 37.6027C36.9945 38.1408 36.9789 38.6639 37.4824 39.1799C37.8885 39.5957 38.2674 40.0014 38.3885 40.6047C38.4625 40.9732 38.86 41.1478 39.0302 41.4498C39.5495 42.3715 40.3444 43.062 40.9676 43.8936C41.13 44.1104 41.2697 44.3487 41.4534 44.5455C41.9406 45.0657 42.5197 45.5115 42.7163 46.3359C42.7163 46.5191 42.7163 46.7996 42.7163 47.1052C42.4179 47.3442 42.118 47.5839 41.8537 47.795C41.4292 47.848 41.0631 47.8179 40.6763 47.956C40.1863 48.1321 39.6663 47.8608 39.1713 47.7313C38.714 47.6118 38.2667 47.3177 37.8194 47.3256C37.0615 47.3392 36.34 47.1123 35.5913 47.1231C34.9581 47.1316 34.3306 47.141 33.7002 46.9692C33.1105 46.8089 32.53 46.5585 31.8974 46.5885C31.6125 46.2522 31.1745 46.5363 30.8191 46.2965C30.5349 46.1048 30.0647 46.2185 29.7229 46.0819C29.3183 45.9194 28.8788 46.0439 28.5205 45.9008C27.9478 45.6718 27.3816 45.5695 26.7783 45.5809C26.7049 45.5824 26.633 45.5137 26.5575 45.5037C26.3986 45.4829 26.1928 45.4113 26.0852 45.4815C25.848 45.6382 25.7248 45.309 25.5111 45.4071C25.321 45.4936 25.108 45.5308 24.9036 45.5838C24.6728 45.6439 24.551 45.7606 24.499 46.0239C24.4384 46.328 24.541 46.6901 24.4299 46.9027C24.2682 47.2104 24.4869 47.5317 24.2803 47.785C24.051 48.0648 24.1742 48.3882 24.1834 48.6824C24.2098 49.5439 24.301 50.4041 24.338 51.2657C24.3636 51.8639 24.323 52.465 24.3487 53.0626C24.375 53.668 24.2725 54.2719 24.4854 54.8845C24.5866 55.1757 24.6642 55.6108 24.3636 55.925C24.4042 56.5654 24.2376 57.1844 24.1756 57.8141C24.1685 57.8907 24.2005 57.973 24.2219 58.0496C24.3743 58.5856 24.3088 58.5763 24.1963 59.387C24.1272 59.8894 23.9783 60.2765 23.6236 60.6121C23.5061 60.7231 23.4206 60.8683 23.3202 60.9979C23.0345 61 22.7503 61 22.4668 61ZM41.7212 16.7093C41.1137 16.2563 40.7183 15.6445 40.4427 14.9432C40.385 14.7965 40.3059 14.6484 40.2019 14.5317C39.6271 13.8834 39.0459 13.2415 38.459 12.6046C38.1598 12.2797 37.8201 11.9942 37.6149 11.5863C37.3193 10.9988 36.8086 10.5909 36.3464 10.1522C36.164 9.97906 35.8933 9.83594 35.6469 9.80517C34.7672 9.69497 33.9061 9.53253 33.0442 9.30926C32.5627 9.18474 32.0221 9.1554 31.5335 9.03089C31.0278 8.90137 30.448 8.98438 30.0163 8.59294C29.5996 8.64303 29.2043 8.46342 28.8097 8.44839C28.3631 8.43121 27.9514 8.29453 27.5198 8.25446C27.2947 8.23299 27.066 8.25088 26.8395 8.25088C26.6123 8.25088 26.383 8.27235 26.16 8.24373C25.9805 8.22083 25.8117 8.12708 25.6336 8.082C25.4413 8.03334 25.2077 7.92099 25.0567 7.98683C24.8174 8.09059 24.6949 7.86303 24.4819 7.8895C24.2604 7.9167 24.0217 7.78789 23.7888 7.73851C23.5538 7.68914 23.3259 7.74209 23.0709 7.61686C22.8344 7.50093 22.511 7.43868 22.2275 7.4122C21.9725 7.38858 21.6897 7.35423 21.4725 7.29126C21.1584 7.19967 20.8649 7.27409 20.5686 7.22543C20.4582 7.20754 20.3378 7.2426 20.2296 7.21827C20.0508 7.17748 19.8798 7.10521 19.7032 7.05225C19.5009 6.99142 19.2972 6.93489 19.0928 6.88051C18.9254 6.83614 18.6775 6.70876 18.6034 6.77531C18.431 6.92988 18.2252 6.63291 18.1062 6.86119C17.857 6.56707 17.5229 6.76816 17.233 6.70948C16.9445 6.6508 16.6518 6.53129 16.3683 6.54918C15.2315 6.62217 14.1908 6.20713 13.1203 5.95094C12.6352 5.83501 12.1708 5.57382 11.6843 5.53088C10.9713 5.46791 10.274 5.2289 9.5432 5.33123C9.40003 5.35127 9.24119 5.26182 9.04603 5.21172C8.89075 5.3205 8.67849 5.46863 8.48119 5.60745C8.52036 5.7198 8.52962 5.7749 8.55598 5.81927C9.07594 6.68658 9.60588 7.54816 10.1144 8.42263C10.3231 8.78186 10.5561 9.07382 10.9314 9.29566C11.3282 9.53038 11.6416 9.89677 11.8567 10.3333C12.0675 10.7619 12.3133 11.1734 12.5683 11.6378C12.5683 11.8811 12.5683 12.1874 12.5683 12.5445C11.7876 13.107 11.0198 13.7124 10.1992 14.2362C9.39861 14.7471 8.54885 15.1801 7.71406 15.6352C7.2468 15.8899 6.88211 16.2384 6.64421 16.7172C6.5858 16.8345 6.54307 16.9598 6.48965 17.0893C6.60504 17.2052 6.74393 17.3455 6.8985 17.5007C7.04523 17.5007 7.21475 17.4943 7.38285 17.5029C7.51818 17.51 7.73115 17.4893 7.77247 17.5609C7.91563 17.807 8.0004 17.4664 8.15425 17.5616C8.60868 17.8421 9.12936 17.8693 9.65289 17.8457C9.81814 17.8385 9.99478 17.8314 10.1479 17.8814C10.4464 17.9788 10.7804 18.0582 11.0098 18.2521C11.3068 18.5033 11.6373 18.3051 11.9585 18.4439C12.3553 18.6149 12.8233 18.7702 13.2991 18.7008C13.7293 18.6378 14.0904 18.8117 14.4173 19.0429C14.9451 19.0429 15.4566 19.0207 15.9658 19.0493C16.4545 19.0765 16.9858 19.0515 17.4153 19.2404C17.9617 19.4808 18.5422 19.5466 19.0963 19.6933C19.6804 19.8472 20.3357 19.7098 20.9589 19.7341C21.3849 19.7513 21.783 19.9324 22.1933 20.0275C22.6855 20.142 23.1243 20.444 23.6549 20.4175C24.0794 20.3961 24.5823 20.2708 24.9114 20.4505C25.2989 20.6616 25.697 20.5285 26.0852 20.7167C26.4642 20.9006 26.9613 21.0394 27.4428 20.9306C27.5183 20.9134 27.6102 20.9299 27.6857 20.9557C28.6701 21.2884 29.7008 21.3256 30.7129 21.4759C31.661 22.0334 32.7793 21.8237 33.8384 22.0541C34.025 21.8137 34.3634 22.0183 34.6647 21.9368C35.3235 21.423 36.0458 21.0101 36.8635 20.7131C37.3998 20.5184 37.8393 20.0597 38.3286 19.7291C39.2375 19.1151 40.1193 18.4503 41.0745 17.9194C41.6087 17.6203 41.6963 17.2295 41.7212 16.7093ZM37.538 32.0489C37.4739 31.9938 37.4191 31.9122 37.3464 31.8893C36.8635 31.7369 36.4083 31.4593 35.8713 31.5423C35.1077 31.1358 34.2786 31.1959 33.4581 31.1995C33.2878 31.2002 33.035 31.2718 32.9616 31.1866C32.6859 30.8675 32.3063 31.153 32.0214 30.9641C31.6902 30.7444 31.3127 30.904 30.9594 30.8567C30.7742 30.8317 30.6054 30.8388 30.4095 30.7408C30.0142 30.5433 29.564 30.4367 29.126 30.3537C28.8247 30.2964 28.4016 30.4674 28.215 30.3136C27.9229 30.0731 27.5732 30.2828 27.289 30.0245C27.1123 29.8642 26.7377 29.9658 26.4342 29.8592C25.9478 29.6889 25.3922 29.6567 24.8687 29.671C24.0901 29.6932 23.3764 29.4284 22.6592 29.2273C21.5544 28.9174 20.4532 28.6198 19.3171 28.4537C19.1654 28.4316 19.0258 28.3092 18.8755 28.297C18.7153 28.2841 18.5472 28.3757 18.3848 28.3714C18.0272 28.3607 17.6696 28.3285 17.3149 28.2849C16.968 28.2419 16.6254 28.1539 16.2778 28.1224C15.9267 28.0902 15.5855 28.1088 15.2372 27.9571C14.3611 27.575 13.4529 27.3589 12.4728 27.4154C11.846 27.4512 11.5946 27.419 11.0304 27.7195C10.2847 28.1167 9.55673 28.5482 8.80029 28.9217C8.12362 29.2566 7.5253 29.6982 6.91132 30.1297C6.33651 30.5333 5.85287 31.0492 5.22107 31.3884C4.77875 31.626 4.42118 32.0232 4.05293 32.3266C4.2196 32.9184 4.3471 33.2375 4.62774 33.3685C5.41125 33.7334 5.73178 34.4734 6.0345 35.174C6.28024 35.7436 6.6029 36.213 7.01887 36.6488C7.40137 37.0495 7.81663 37.4116 8.12077 37.8975C8.4121 38.3627 8.81097 38.7648 9.19703 39.1606C9.37795 39.3459 9.63081 39.5484 9.868 39.572C10.3573 39.6207 10.8182 39.8046 11.3289 39.7853C11.8011 39.7674 12.2841 39.9148 12.7556 40.02C13.1659 40.1116 13.5669 40.2218 13.9479 40.4351C14.3326 40.6504 14.8305 40.5245 15.2222 40.6519C15.7443 40.8208 16.2771 40.8329 16.7978 40.946C17.2722 41.0483 17.7686 41.0183 18.2622 41.0991C19.0614 41.2301 19.8478 41.487 20.6698 41.4834C20.731 41.4834 20.793 41.5886 20.7837 41.58C21.0209 41.5385 21.2203 41.4412 21.3763 41.4877C21.9326 41.6544 22.568 41.5485 23.0274 41.9421C23.5858 42.0359 24.15 42.0473 24.6393 42.2448C24.9149 42.3564 25.217 42.2284 25.4919 42.4781C25.6949 42.662 26.108 42.6777 26.4193 42.6563C26.6914 42.637 26.9271 42.8982 27.1978 42.72C27.3032 42.9897 27.4649 42.5833 27.5547 42.7436C27.675 42.9597 27.8951 42.5053 27.9806 42.8223C28.5625 42.9067 29.1309 43.0771 29.7065 43.1644C30.0804 43.2209 30.4522 43.3304 30.8248 43.3454C31.2386 43.3619 31.6346 43.4234 32.0314 43.5272C32.3156 43.6016 32.6076 43.6918 32.8968 43.6918C33.4873 43.6925 33.9894 43.9157 34.5251 44.2156C34.899 44.2156 35.3271 44.1884 35.7495 44.2234C36.179 44.2592 36.6035 44.3565 37.0152 44.4245C37.122 44.2134 37.2054 44.0488 37.2944 43.8728C36.8877 42.9239 36.1533 42.2162 35.4788 41.4698C35.0372 40.9818 34.6696 40.4687 34.3733 39.8733C34.0635 39.2507 33.6197 38.6954 33.1981 38.055C33.1981 37.8503 33.1981 37.5648 33.1981 37.2399C33.3875 37.0116 33.5457 36.6567 33.8121 36.5279C34.7081 36.0964 35.4375 35.4616 36.1783 34.8197C36.4475 34.5864 36.7417 34.3617 37.1363 34.2544C37.5266 34.1478 37.9974 33.9825 38.2097 33.5889C38.4725 33.103 38.9042 32.7946 39.2453 32.3946C39.2717 32.3631 39.281 32.3173 39.3087 32.2536C39.105 32.1362 38.9056 32.021 38.7354 31.923C38.3564 32.1563 38.0067 32.0647 37.657 31.9394C37.6149 31.9774 37.5743 32.0146 37.538 32.0489Z" fill="#28282A"></path>
</symbol></defs><use data-v-1e92d442="" xlink:href="#sign--sprite" fill="#28282A"></use></svg>